<svg viewBox="0 0 32 32" fill="none" xmlns="http://www.w3.org/2000/svg">
<circle cx="16" cy="16" r="16" fill="#0080BC"/>
<path fill-rule="evenodd" clip-rule="evenodd" d="M16.3385 6.844C16.2693 6.73911 16.3965 6.6163 16.4996 6.68831L20.819 9.70311C23.5412 11.6032 24.7947 14.9958 23.9316 18.193C23.8632 18.4462 23.7899 18.6679 23.721 18.8537C23.6783 18.9689 23.5084 18.944 23.4999 18.8215C23.427 17.7805 22.6753 16.5904 22.1297 15.7265C22.0323 15.5723 21.9415 15.4285 21.8623 15.2978C21.332 14.423 17.4933 8.59547 16.3385 6.844ZM10.6194 15.3232L15.7894 6.84029C15.8494 6.74182 15.7414 6.62697 15.6389 6.68027C14.7351 7.15015 12.2964 8.50965 10.3817 10.4164C8.28349 12.5061 9.97916 14.7987 10.4343 15.3376C10.4846 15.3972 10.5788 15.3898 10.6194 15.3232ZM15.6616 25.1562C15.7308 25.261 15.6036 25.3839 15.5005 25.3119L11.1812 22.297C8.45888 20.3969 7.2054 17.0043 8.06849 13.8072C8.13686 13.5539 8.21022 13.3322 8.27912 13.1465C8.32185 13.0313 8.49169 13.0561 8.50025 13.1786C8.57307 14.2196 9.32478 15.4098 9.87037 16.2736L9.87041 16.2737L9.87051 16.2738C9.96785 16.4279 10.0586 16.5717 10.1378 16.7023C10.6681 17.5771 14.5068 23.4047 15.6616 25.1562ZM16.2111 25.159L21.3812 16.676C21.4217 16.6095 21.5159 16.6021 21.5662 16.6616C22.0214 17.2005 23.717 19.4932 21.6188 21.5828C19.7042 23.4896 17.2655 24.8491 16.3616 25.319C16.2591 25.3723 16.1511 25.2574 16.2111 25.159Z" fill="#F6F6F6"/>
</svg>
