<svg xmlns="http://www.w3.org/2000/svg" viewBox="0 0 28 28" fill="none">
  <path fill="#FFEEDA" d="M14 28c7.732 0 14-6.268 14-14S21.732 0 14 0 0 6.268 0 14s6.268 14 14 14Z" />
  <path fill="#FFEEDA"
    d="M21.422 17.046V7.006a1.527 1.527 0 0 0-1.527-1.517H9.421a4.152 4.152 0 0 0-4.08 4.154 4.054 4.054 0 0 0 .52 1.993 4.58 4.58 0 0 0 1.094 1.267c.13.105.268.198.415.276.331.194.685.345 1.054.45v6.002c.007.273.045.545.113.81a2.69 2.69 0 0 0 1.618 1.811c.354.142.731.218 1.112.223l8.366.03a3.027 3.027 0 0 0 1.79-5.463v.004Z" />
  <path fill="#EBC28E"
    d="M21.625 19.549a1.994 1.994 0 0 1-1.992 1.93l-5.759-.023a3 3 0 0 0 .737-1.973 3.294 3.294 0 0 0-.705-1.995h5.727a1.994 1.994 0 0 1 1.993 1.991l-.001.07Z" />
  <path fill="#190602"
    d="M7.504 12.053c-.662-.627-1.13-1.439-1.13-2.406v-.103a3.15 3.15 0 0 1 3.054-3.02h10.475a.49.49 0 0 1 .495.486v8.86c.201.034.399.087.59.159.15.06.297.132.438.212V7.006A1.527 1.527 0 0 0 19.9 5.49H9.425a4.152 4.152 0 0 0-4.08 4.154 4.083 4.083 0 0 0 1.585 3.234.398.398 0 0 0 .307.121.497.497 0 0 0 .509-.509c-.005-.22-.1-.301-.242-.436Z" />
  <path fill="#190602"
    d="M19.633 16.458h-8.217a1.007 1.007 0 0 0-.998 1.005v1.179a1.057 1.057 0 0 0 1.031 1.018h.611v-1.018h-.61v-1.154h.333c1.036 0 1.8.965 1.8 1.995a2.074 2.074 0 0 1-2.232 1.99c-1.24-.085-1.909-1.186-1.909-1.99V9.47a.82.82 0 0 0-.82-.82h-.818v1.02h.62v9.81c-.032 1.996 1.422 3.001 2.927 3.001l8.273.026a3.026 3.026 0 0 0 0-6.052l.01.004Zm1.992 3.091a1.994 1.994 0 0 1-1.992 1.93l-5.759-.023a3 3 0 0 0 .737-1.973 3.294 3.294 0 0 0-.705-1.995h5.727a1.994 1.994 0 0 1 1.993 1.991l-.001.07ZM11.224 8.834h6.254a.45.45 0 0 1 .45.45v.12a.45.45 0 0 1-.45.45h-6.254v-1.02Z" />
  <path fill="#190602"
    d="M11.224 13.658h6.254a.45.45 0 0 1 .45.45v.12a.45.45 0 0 1-.45.45h-6.254v-1.02Zm0-2.412h7.344a.45.45 0 0 1 .45.45v.12a.45.45 0 0 1-.45.45h-7.344v-1.02Z" />
</svg>