<svg viewBox="0 0 32 32" fill="none" xmlns="http://www.w3.org/2000/svg">
<g clip-path="url(#clip0_129_3029)">
<path d="M31.6289 15.9999C31.6289 24.6316 24.6316 31.6289 16 31.6289C7.36845 31.6289 0.371094 24.6316 0.371094 15.9999C0.371094 7.36842 7.36845 0.371094 16 0.371094C24.6316 0.371094 31.6289 7.36842 31.6289 15.9999Z" fill="url(#paint0_linear_129_3029)"/>
<path fill-rule="evenodd" clip-rule="evenodd" d="M16 0.742164C7.57338 0.742164 0.742164 7.57336 0.742164 15.9999C0.742164 24.4267 7.57338 31.2578 16 31.2578C24.4267 31.2578 31.2578 24.4267 31.2578 15.9999C31.2578 7.57335 24.4267 0.742164 16 0.742164ZM0 15.9999C0 7.16346 7.1635 0 16 0C24.8366 0 32 7.16347 32 15.9999C32 24.8365 24.8366 32 16 32C7.1635 32 0 24.8366 0 15.9999Z" fill="#353941"/>
<path d="M15.9947 7.3516C17.0074 7.3516 17.8284 6.53066 17.8284 5.51797C17.8284 4.50528 17.0074 3.68433 15.9947 3.68433C14.982 3.68433 14.1611 4.50528 14.1611 5.51797C14.1611 6.53066 14.982 7.3516 15.9947 7.3516Z" fill="white"/>
<path d="M23.6034 25.4031C21.811 22.9671 20.4201 21.0027 19.4307 19.5096C18.5412 18.1924 17.8128 16.7735 17.2609 15.283V9.24707H17.1211C16.7623 9.42222 16.3683 9.51321 15.9691 9.51321C15.5698 9.51321 15.1758 9.42222 14.817 9.24707H14.782V15.7455C14.782 19.0131 14.3259 21.3629 13.4135 22.7951C13.01 23.4738 12.4316 24.0316 11.7386 24.4099C11.0456 24.7884 10.2638 24.9735 9.4747 24.946C8.69495 24.967 7.91714 24.858 7.17322 24.6234V26.8603C7.49569 26.99 7.83091 27.0856 8.17339 27.1454C8.65781 27.2406 9.15039 27.2874 9.64409 27.2851C11.7574 27.2851 13.4153 26.6102 14.618 25.2605C15.8207 23.9109 16.6104 21.9823 16.9866 19.4746C18.0622 21.5091 19.6754 24.0184 21.8262 27.0028H24.7837L23.6034 25.4031Z" fill="white"/>
</g>
<defs>
<linearGradient id="paint0_linear_129_3029" x1="16" y1="1.21667e-05" x2="16" y2="32.0001" gradientUnits="userSpaceOnUse">
<stop stop-color="#2B2E38"/>
<stop offset="1" stop-color="#040813"/>
</linearGradient>
<clipPath id="clip0_129_3029">
<rect width="32" height="32" fill="white"/>
</clipPath>
</defs>
</svg>
