<svg width="16" height="16" viewBox="0 0 16 16" fill="none" xmlns="http://www.w3.org/2000/svg">
<path d="M14.7426 4.66977C15.1125 4.25966 15.0799 3.62733 14.6698 3.25743C14.2597 2.88753 13.6273 2.92012 13.2574 3.33023L6.28224 11.0636L2.69311 7.6125C2.295 7.22971 1.66196 7.24212 1.27917 7.64022C0.896375 8.03833 0.908788 8.67137 1.30689 9.05417L5.63651 13.2173C5.64168 13.2223 5.64692 13.2273 5.65222 13.2322C5.73686 13.311 5.83166 13.3723 5.93212 13.4163C6.20936 13.5377 6.52851 13.5263 6.79592 13.3869C6.89415 13.3357 6.9854 13.2672 7.06503 13.1816C7.06986 13.1765 7.07462 13.1712 7.07932 13.166L14.7426 4.66977Z" fill="#199C75"/>
</svg>
