<svg width="24" height="24" viewBox="0 0 24 24" fill="none" xmlns="http://www.w3.org/2000/svg">
<path d="M20.0931 16.604C20.8904 16.604 21.2619 17.5897 20.6621 18.1137L17.7026 20.6992C17.0172 21.2979 15.9152 20.538 16.1879 19.6708C16.4334 18.8905 16.658 18.0825 16.7968 17.3717C16.8815 16.938 17.2517 16.604 17.6946 16.604H20.0931Z" fill="#1E2122"/>
<path d="M14.1905 16.604C14.7165 16.604 15.1216 17.0707 15.0259 17.5867C14.3385 21.2951 13.0214 23.4963 12.0269 23.4963C11.0323 23.4963 9.7152 21.2951 9.02782 17.5867C8.93217 17.0707 9.33719 16.604 9.86323 16.604H14.1905Z" fill="#1E2122"/>
<path d="M7.86579 19.6708C8.13854 20.538 7.0365 21.2979 6.35116 20.6992L3.39165 18.1137C2.79187 17.5897 3.16336 16.604 3.9606 16.604H6.35909C6.80201 16.604 7.17227 16.938 7.25693 17.3717C7.3957 18.0825 7.62032 18.8905 7.86579 19.6708Z" fill="#1E2122"/>
<path d="M6.84523 12.2963C6.84523 12.8459 6.85929 13.3991 6.88741 13.949C6.9131 14.4515 6.51704 14.8809 6.01266 14.8809H1.78943C1.39118 14.8809 1.04095 14.6097 0.970865 14.2186C0.743029 12.9472 0.743029 11.6454 0.970865 10.3739C1.04095 9.98283 1.39118 9.71168 1.78943 9.71168H6.01266C6.51704 9.71168 6.9131 10.1411 6.88741 10.6436C6.85929 11.1935 6.84523 11.7467 6.84523 12.2963Z" fill="#1E2122"/>
<path d="M15.4813 12.2963C15.4813 12.9146 15.4652 13.5128 15.4329 14.0908C15.4079 14.5379 15.0326 14.8809 14.5837 14.8809H9.47001C9.02115 14.8809 8.64582 14.5379 8.62086 14.0908C8.58858 13.5128 8.57244 12.9146 8.57244 12.2963C8.57244 11.678 8.58858 11.0798 8.62086 10.5018C8.64582 10.0547 9.02115 9.71168 9.47001 9.71168H14.5837C15.0326 9.71168 15.4079 10.0547 15.4329 10.5018C15.4652 11.0798 15.4813 11.678 15.4813 12.2963Z" fill="#1E2122"/>
<path d="M23.2537 12.2963C23.2524 12.9407 23.1949 13.5834 23.0821 14.217C23.0124 14.6089 22.6618 14.8809 22.2629 14.8809H18.0411C17.5367 14.8809 17.1406 14.4515 17.1663 13.949C17.1944 13.3991 17.2085 12.8459 17.2085 12.2963C17.2085 11.7467 17.1944 11.1935 17.1663 10.6436C17.1406 10.1411 17.5367 9.71168 18.0411 9.71168H22.2629C22.6618 9.71168 23.0124 9.98372 23.0821 10.3755C23.1949 11.0092 23.2524 11.6519 23.2537 12.2963Z" fill="#1E2122"/>
<path d="M20.6621 6.47892C21.2619 7.0029 20.8904 7.9886 20.0931 7.9886H17.6947C17.2517 7.9886 16.8815 7.65461 16.7968 7.22089C16.658 6.51007 16.4334 5.70211 16.1879 4.92175C15.9152 4.05463 17.0172 3.29467 17.7026 3.89341L20.6621 6.47892Z" fill="#1E2122"/>
<path d="M15.0259 7.00586C15.1216 7.52189 14.7165 7.9886 14.1905 7.9886H9.86323C9.33719 7.9886 8.93217 7.52189 9.02782 7.00586C9.7152 3.29747 11.0323 1.09629 12.0269 1.09629C13.0214 1.09629 14.3385 3.29747 15.0259 7.00586Z" fill="#1E2122"/>
<path d="M6.35116 3.8934C7.0365 3.29467 8.13854 4.05463 7.86579 4.92175C7.62032 5.70211 7.3957 6.51007 7.25693 7.22089C7.17227 7.65461 6.80201 7.9886 6.35909 7.9886H3.96061C3.16336 7.9886 2.79187 7.0029 3.39165 6.47892L6.35116 3.8934Z" fill="#1E2122"/>
</svg>
