<svg width="24" height="24" viewBox="0 0 24 24" fill="none" xmlns="http://www.w3.org/2000/svg">
<path d="M4.41145 5.64678C4.63598 5.22994 4.96004 4.87458 5.35502 4.61203L11.9838 0L5.19181 11.1901C5.19181 11.1901 4.59837 10.1909 4.36692 9.68524C4.07851 9.04954 3.93305 8.35873 3.94074 7.66112C3.94843 6.96352 4.10909 6.27603 4.41145 5.64678ZM1.67565 13.366C1.7505 14.4361 2.05394 15.478 2.56568 16.4217C3.07741 17.3655 3.78562 18.1894 4.64288 18.8384L11.9749 23.9323C11.9749 23.9323 7.38755 17.3454 3.5183 10.791C3.12657 10.0985 2.86323 9.34141 2.74088 8.55593C2.68672 8.20024 2.68672 7.83841 2.74088 7.48273C2.64 7.66902 2.44416 8.05039 2.44416 8.05039C2.05183 8.84759 1.78464 9.7001 1.65191 10.5781C1.57552 11.5062 1.58346 12.4393 1.67565 13.366ZM20.3692 14.2529C20.1317 13.7474 19.5443 12.7481 19.5443 12.7481L12.7642 23.9323L19.3929 19.3232C19.7879 19.0607 20.112 18.7054 20.3365 18.2885C20.6389 17.6592 20.7995 16.9717 20.8072 16.2742C20.8149 15.5766 20.6695 14.8857 20.381 14.25L20.3692 14.2529ZM23.0604 10.5692C22.9855 9.49917 22.6821 8.45729 22.1704 7.51354C21.6587 6.56977 20.9504 5.74583 20.0932 5.09689L12.773 0C12.773 0 17.3574 6.58693 21.2297 13.1413C21.6203 13.834 21.8826 14.5911 22.0041 15.3764C22.0582 15.7321 22.0582 16.0939 22.0041 16.4496C22.105 16.2633 22.3008 15.8819 22.3008 15.8819C22.6932 15.0847 22.9604 14.2322 23.093 13.3542C23.1704 12.4261 23.1635 11.4931 23.0723 10.5663L23.0604 10.5692Z" fill="#1E2122"/>
</svg>
