<svg width="24" height="24" viewBox="0 0 24 24" fill="none" xmlns="http://www.w3.org/2000/svg">
<path d="M21.931 7.10071L17.463 2.63171C17.3144 2.48309 17.138 2.36521 16.9439 2.28478C16.7497 2.20435 16.5416 2.16295 16.3315 2.16295C16.1214 2.16295 15.9133 2.20435 15.7191 2.28478C15.525 2.36521 15.3486 2.48309 15.2 2.63171L2.869 14.9637C2.71978 15.1117 2.60148 15.288 2.52096 15.4821C2.44045 15.6763 2.39933 15.8845 2.4 16.0947V20.5637C2.4 20.9881 2.56857 21.395 2.86863 21.6951C3.16869 21.9951 3.57566 22.1637 4 22.1637H8.469C8.67919 22.1644 8.88742 22.1233 9.08158 22.0427C9.27575 21.9622 9.45197 21.8439 9.6 21.6947L21.931 9.36371C22.0796 9.21513 22.1975 9.03873 22.2779 8.84458C22.3584 8.65044 22.3998 8.44235 22.3998 8.23221C22.3998 8.02206 22.3584 7.81397 22.2779 7.61983C22.1975 7.42568 22.0796 7.24929 21.931 7.10071ZM4.331 15.7637L13.366 6.72871L15.034 8.39771L6 17.4317L4.331 15.7637ZM4 17.6947L6.869 20.5637H4V17.6947ZM8.8 20.2327L7.131 18.5637L16.166 9.52871L17.834 11.1977L8.8 20.2327Z" fill="#1E2122"/>
</svg>
