<svg width="24" height="25" viewBox="0 0 24 25" fill="none" xmlns="http://www.w3.org/2000/svg">
<path d="M13.5801 11.9072C13.27 12.0856 13.0788 12.4161 13.0788 12.7739V15.937C13.0788 16.7062 13.9109 17.1874 14.5776 16.8037L17.3308 15.2194C17.6409 15.0409 17.8321 14.7104 17.8321 14.3526V12.1956V11.1895C17.8321 10.4204 17 9.93915 16.3333 10.3228L13.5801 11.9072Z" fill="#1E2122"/>
<path d="M9.11159 7.34952C8.44329 7.73411 8.44329 8.6984 9.11159 9.08299L11.8599 10.6646C12.1687 10.8422 12.5487 10.8422 12.8575 10.6646L15.6058 9.08299C16.2741 8.6984 16.2741 7.73411 15.6058 7.34952L12.8575 5.76795C12.5487 5.59026 12.1687 5.59026 11.8599 5.76795L9.11159 7.34952Z" fill="#1E2122"/>
<path d="M11.6383 12.7739C11.6383 12.4161 11.4471 12.0856 11.137 11.9072L8.38378 10.3228C7.71711 9.93915 6.88501 10.4204 6.88501 11.1895V14.3526C6.88501 14.7104 7.07615 15.0409 7.38624 15.2194L10.1395 16.8037C10.8062 17.1874 11.6383 16.7062 11.6383 15.937V12.7739Z" fill="#1E2122"/>
<path d="M23.1172 6.53113C23.1172 7.51819 22.3144 8.31836 21.3241 8.31836C20.3338 8.31836 19.531 7.51819 19.531 6.53113C19.531 5.54406 20.3338 4.74389 21.3241 4.74389C22.3144 4.74389 23.1172 5.54406 23.1172 6.53113Z" fill="#1E2122"/>
<path d="M19.0291 4.90137C19.2606 4.57813 19.2267 4.0865 18.8821 3.8882L12.8817 0.435171C12.5729 0.257482 12.1929 0.257482 11.8842 0.435171L5.84907 3.90813C5.50617 4.10545 5.47051 4.5931 5.69875 4.91624C5.89391 5.19256 6.2676 5.32818 6.5608 5.15945L11.8842 2.09605C12.1929 1.91837 12.5729 1.91837 12.8817 2.09605L18.171 5.13984C18.4623 5.30747 18.8334 5.17464 19.0291 4.90137Z" fill="#1E2122"/>
<path d="M21.6533 9.32025C21.3255 9.35852 21.038 9.61179 21.038 9.9418V16.1726C21.038 16.5304 20.8468 16.8609 20.5367 17.0394L15.2736 20.0681C14.959 20.2492 14.8978 20.675 15.0755 20.9916C15.2576 21.316 15.6715 21.4999 15.9939 21.3144L21.9798 17.8697C22.2899 17.6913 22.4811 17.3608 22.4811 17.003V9.95463C22.4811 9.55013 22.055 9.27335 21.6533 9.32025Z" fill="#1E2122"/>
<path d="M9.12781 21.5192C9.4668 21.7143 9.90399 21.4976 10.0739 21.1453C10.2228 20.8367 10.1498 20.4465 9.85284 20.2756L4.22914 17.0394C3.91905 16.8609 3.72792 16.5304 3.72792 16.1726V9.94843C3.72792 9.61397 3.43344 9.35877 3.10076 9.32434C2.70219 9.28308 2.28477 9.55917 2.28477 9.95987V17.003C2.28477 17.3608 2.47591 17.6913 2.786 17.8698L9.12781 21.5192Z" fill="#1E2122"/>
<path d="M14.4079 22.3609C14.4079 23.348 13.6051 24.1481 12.6148 24.1481C11.6245 24.1481 10.8217 23.348 10.8217 22.3609C10.8217 21.3738 11.6245 20.5737 12.6148 20.5737C13.6051 20.5737 14.4079 21.3738 14.4079 22.3609Z" fill="#1E2122"/>
<path d="M5.18621 6.53113C5.18621 7.51819 4.38341 8.31836 3.39311 8.31836C2.40281 8.31836 1.60001 7.51819 1.60001 6.53113C1.60001 5.54406 2.40281 4.74389 3.39311 4.74389C4.38341 4.74389 5.18621 5.54406 5.18621 6.53113Z" fill="#1E2122"/>
</svg>
