<svg width="125" height="48" viewBox="0 0 125 48" fill="none" xmlns="http://www.w3.org/2000/svg">
<path d="M18.09 16.9782C18.2264 16.8999 18.3213 16.8473 18.4142 16.7902C21.5522 14.9103 24.6898 13.0303 27.827 11.1503C28.6458 10.6583 29.446 10.6571 30.2654 11.1503C34.5921 13.7534 38.9216 16.3518 43.2538 18.9454C44.0617 19.4273 44.416 20.0965 44.4148 21.0052C44.4062 26.2562 44.4034 31.5071 44.4064 36.7577C44.4096 37.0547 44.3747 37.3509 44.3026 37.6394C44.1476 38.2228 43.785 38.6678 43.2551 38.9861C38.8985 41.6001 34.5419 44.2144 30.1853 46.8288C29.4024 47.297 28.5996 47.3195 27.786 46.8288C23.5016 44.2478 19.2133 41.6728 14.9212 39.1039C14.0165 38.5625 13.5726 37.7986 13.5758 36.7552C13.5813 25.0954 13.5839 13.4357 13.5835 1.77597C13.5794 1.53406 13.6109 1.29284 13.677 1.05969C13.7686 0.753051 13.96 0.484023 14.2221 0.293449C14.4843 0.102876 14.8028 0.0011656 15.1294 0.00375999C15.6018 -0.00125333 16.0742 -0.00125333 16.5466 0.00375999C16.943 0.00836711 17.3227 0.160585 17.6083 0.429416C17.894 0.698247 18.0642 1.06348 18.0842 1.45073C18.0906 1.55977 18.0881 1.66944 18.0881 1.7791C18.0881 6.72475 18.0881 11.6704 18.0881 16.616L18.09 16.9782ZM40.0011 28.9369C40.0011 26.7849 40.0022 24.6334 40.0043 22.4823C40.0043 22.3262 39.9646 22.2316 39.8198 22.1439C36.2867 20.0078 32.7585 17.8673 29.2352 15.7224C29.0898 15.6334 28.9905 15.6428 28.8508 15.7274C25.339 17.8627 21.8258 19.994 18.311 22.1213C18.2384 22.157 18.1784 22.2131 18.1388 22.2825C18.0992 22.3519 18.0817 22.4313 18.0887 22.5104C18.0942 26.7906 18.0942 31.0709 18.0887 35.3515C18.0887 35.5432 18.1579 35.6416 18.3168 35.7381C21.8273 37.8621 25.3348 39.9902 28.8393 42.1226C29.0001 42.221 29.1083 42.2159 29.2666 42.1226C32.7749 39.9848 36.2878 37.8521 39.8051 35.7243C39.8708 35.6914 39.9248 35.6399 39.9602 35.5765C39.9957 35.5132 40.0108 35.4409 40.0037 35.369C39.9977 33.2254 39.9964 31.0814 39.9998 28.9369H40.0011Z" fill="#1A1A1A"/>
<path d="M54.5464 28.9519C54.5464 26.2209 54.556 23.4899 54.5419 20.7595C54.5362 19.7136 54.9827 18.9529 55.8874 18.4121C60.4071 15.7141 64.9237 13.0115 69.437 10.3043C70.2648 9.80794 71.0682 9.80857 71.8953 10.308C76.4416 13.0537 80.9904 15.7943 85.5417 18.5299C86.3862 19.0368 86.7879 19.7594 86.7879 20.71C86.7879 26.2247 86.7879 31.741 86.7879 37.259C86.7879 38.2122 86.3625 38.9448 85.5321 39.4423C80.9218 42.2055 76.3089 44.9649 71.6935 47.7206C70.9458 48.1649 70.1648 48.0433 69.4415 47.609C66.8788 46.072 64.3176 44.53 61.7579 42.983C59.7718 41.7848 57.7857 40.5797 55.7906 39.3916C54.9379 38.884 54.54 38.1577 54.5419 37.192C54.5496 34.4451 54.5511 31.6984 54.5464 28.9519ZM82.3288 28.9087C82.3288 26.6239 82.33 24.3389 82.3326 22.0536C82.3326 21.8788 82.2884 21.7747 82.1276 21.6776C78.3655 19.4312 74.6069 17.1798 70.8517 14.9234C70.7197 14.8438 70.6274 14.8344 70.4884 14.9184C66.7268 17.1957 62.9626 19.4688 59.1958 21.7378C59.133 21.7688 59.0812 21.8175 59.0469 21.8776C59.0127 21.9376 58.9976 22.0064 59.0036 22.0749C59.0075 26.6609 59.0075 31.2468 59.0036 35.8327C58.9963 35.9009 59.0101 35.9697 59.0432 36.0302C59.0763 36.0907 59.1273 36.14 59.1894 36.1718C62.9566 38.4411 66.7208 40.7145 70.482 42.9918C70.5338 43.0317 70.5977 43.0534 70.6636 43.0534C70.7295 43.0534 70.7935 43.0317 70.8453 42.9918C74.6039 40.6969 78.3664 38.4062 82.1327 36.1197C82.1982 36.0868 82.2521 36.0354 82.2874 35.9722C82.3227 35.9089 82.3378 35.8368 82.3307 35.7651C82.3264 33.479 82.3258 31.1931 82.3288 28.9087Z" fill="#1A1A1A"/>
<path d="M109.555 37.1913L97.794 45.7554C96.9419 46.3758 96.0258 46.2059 95.4594 45.3204C95.2474 44.9889 95.0327 44.6593 94.8251 44.3247C94.3402 43.5438 94.5215 42.6145 95.2685 42.0687C99.2368 39.1681 103.206 36.2695 107.177 33.3731C107.246 33.3297 107.301 33.2691 107.337 33.1977C107.373 33.1262 107.389 33.0465 107.383 32.967C107.378 30.2748 107.378 27.5827 107.383 24.8905C107.388 24.8109 107.372 24.7313 107.335 24.6601C107.298 24.5888 107.243 24.5284 107.174 24.4851C103.112 21.5251 99.0515 18.5627 94.993 15.5977C94.674 15.3679 94.455 15.0292 94.3794 14.6488C94.3038 14.2684 94.3772 13.8741 94.5849 13.5441C94.8886 13.066 95.2096 12.5972 95.5459 12.1385C96.0091 11.5037 96.8753 11.3997 97.5435 11.8878C99.1867 13.0848 100.829 14.2825 102.471 15.4811C104.8 17.179 107.128 18.8781 109.454 20.5784C109.615 20.6963 109.716 20.7038 109.881 20.5822C113.827 17.7046 117.787 14.8463 121.719 11.9518C122.638 11.2756 123.662 11.6046 124.104 12.3697C124.284 12.6831 124.507 12.9713 124.707 13.2734C125.22 14.0542 125.048 15.0099 124.285 15.5682C120.19 18.5637 116.093 21.5571 111.994 24.5484C111.925 24.5909 111.869 24.6507 111.832 24.7216C111.795 24.7925 111.778 24.8718 111.783 24.9513C111.79 27.6046 111.79 30.2575 111.783 32.91C111.778 32.9897 111.795 33.0693 111.832 33.1405C111.869 33.2117 111.924 33.2719 111.993 33.3148C115.946 36.1975 119.897 39.0801 123.846 41.9628C124.465 42.4133 124.761 42.978 124.61 43.7256C124.559 43.9381 124.468 44.1396 124.342 44.3197C124.086 44.7057 123.801 45.0754 123.524 45.4477C122.966 46.1959 122.126 46.3194 121.368 45.7691C117.496 42.955 113.623 40.1404 109.749 37.3254C109.691 37.2866 109.632 37.2446 109.555 37.1913Z" fill="#1A1A1A"/>
<path d="M7.08571 40.9106C7.08571 41.3493 7.08571 41.7879 7.08571 42.2266C7.09104 42.4467 7.0356 42.6642 6.92522 42.8561C6.81484 43.048 6.6536 43.2072 6.45848 43.317C5.76527 43.7375 5.06501 44.1467 4.37308 44.5703C4.00981 44.7928 3.64078 44.8035 3.28393 44.5966C2.50615 44.1463 1.73541 43.6846 0.971724 43.2117C0.641134 43.0062 0.51364 42.6671 0.509155 42.2999C0.498263 41.3768 0.495701 40.4538 0.509155 39.5307C0.50913 39.3292 0.562762 39.1312 0.664768 38.9561C0.766774 38.7811 0.913636 38.6351 1.09089 38.5324C1.8155 38.0868 2.54651 37.6513 3.2788 37.2164C3.43192 37.1209 3.60974 37.0702 3.79134 37.0702C3.97294 37.0702 4.15076 37.1209 4.30389 37.2164C5.05412 37.6507 5.80051 38.0937 6.53408 38.5518C6.89158 38.7756 7.07353 39.1246 7.08058 39.5438C7.09147 40.0026 7.08571 40.4569 7.08571 40.9106Z" fill="#1A1A1A"/>
</svg>
