<?xml version="1.0" encoding="utf-8"?>
<svg width="512" height="512" viewBox="0 0 512 512" fill="none" xmlns="http://www.w3.org/2000/svg">
  <defs/>
  <rect width="512" height="512" style="stroke: rgb(0, 0, 0); fill: rgb(0, 128, 188); paint-order: stroke; stroke-width: 0px;" transform="matrix(1, 0, -0.000878, 1, -0.004006, 0.696297)" x="0&quot; y=&quot;0"/>
  <g style="" transform="matrix(2.042462, 0, 0, 2.042462, 61.412498, 18.832363)">
    <path d="M 93.805 53.477 L 58.547 111.491 C 58.27 111.946 57.628 111.996 57.285 111.589 C 54.182 107.904 42.617 92.224 56.926 77.934 C 69.984 64.893 86.615 55.595 92.779 52.382 C 93.478 52.017 94.215 52.803 93.805 53.477 Z" style="fill: rgb(255, 255, 255);"/>
    <path d="M 91.855 179.793 C 92.559 180.285 93.426 179.445 92.954 178.728 C 85.079 166.75 58.9 126.895 55.284 120.913 C 51.717 115.011 44.702 105.204 44.116 96.814 C 44.058 95.976 42.9 95.806 42.608 96.594 C 42.138 97.864 41.638 99.38 41.172 101.112 C 35.285 122.977 43.834 146.18 62.399 159.175 L 91.855 179.793 Z" style="fill: rgb(255, 255, 255);"/>
    <path d="M 96.698 178.761 L 131.956 120.746 C 132.232 120.292 132.876 120.241 133.218 120.648 C 136.322 124.333 147.886 140.013 133.577 154.304 C 120.52 167.344 103.889 176.642 97.725 179.855 C 97.026 180.22 96.289 179.434 96.698 178.761 Z" style="fill: rgb(255, 255, 255);"/>
    <path d="M 98.687 52.437 C 97.983 51.945 97.116 52.785 97.588 53.501 C 105.464 65.479 131.642 105.335 135.258 111.317 C 138.825 117.218 145.841 127.025 146.426 135.416 C 146.485 136.253 147.642 136.423 147.934 135.636 C 148.403 134.365 148.904 132.85 149.371 131.117 C 155.256 109.252 146.708 86.05 128.143 73.055 L 98.687 52.437 Z" style="fill: rgb(255, 255, 255);"/>
  </g>
</svg>