<svg width="80" height="92" viewBox="0 0 80 92" fill="none" xmlns="http://www.w3.org/2000/svg">
<g id="Group 2243409">
<path id="Vector" d="M38.9515 0.848681L13.7395 42.3331C13.5418 42.6584 13.0824 42.6947 12.8372 42.4035C10.6176 39.7681 2.3486 28.5562 12.5807 18.3372C21.9175 9.01238 33.8099 2.36398 38.2174 0.0661478C38.7175 -0.194552 39.2442 0.367137 38.9515 0.848681Z" fill="#CEE1E8"/>
<path id="Vector_2" d="M37.5575 91.1735C38.0606 91.5257 38.6807 90.9251 38.3434 90.4122C32.712 81.8469 13.9923 53.3481 11.4064 49.0701C8.85586 44.8504 3.83929 37.8378 3.4208 31.8381C3.37904 31.2391 2.55081 31.1175 2.34247 31.6808C2.00646 32.5892 1.64873 33.6734 1.31533 34.912C-2.89355 50.5471 3.21904 67.138 16.4943 76.4302L37.5575 91.1736V91.1735Z" fill="#CEE1E8"/>
<path id="Vector_3" d="M41.0206 90.4359L66.2325 48.9514C66.4303 48.6261 66.8897 48.5899 67.1349 48.8811C69.3545 51.5165 77.6235 62.7284 67.3914 72.9473C58.0546 82.2722 46.1622 88.9206 41.7547 91.2184C41.2547 91.4791 40.7279 90.9174 41.0206 90.4359Z" fill="#CEE1E8"/>
<path id="Vector_4" d="M42.4425 0.105463C41.9394 -0.246724 41.3194 0.35389 41.6566 0.866798C47.288 9.43208 66.0077 37.9309 68.5936 42.2089C71.1442 46.4286 76.1607 53.4412 76.5792 59.4409C76.621 60.0398 77.4492 60.1614 77.6576 59.5982C77.9936 58.6898 78.3513 57.6056 78.6847 56.367C82.8936 40.7319 76.781 24.141 63.5057 14.8488L42.4425 0.105463Z" fill="#CEE1E8"/>
</g>
</svg>
