<?xml version="1.0" standalone="no"?>
<!DOCTYPE svg PUBLIC "-//W3C//DTD SVG 20010904//EN"
 "http://www.w3.org/TR/2001/REC-SVG-20010904/DTD/svg10.dtd">
<svg version="1.0" xmlns="http://www.w3.org/2000/svg"
 width="924.000000pt" height="924.000000pt" viewBox="0 0 924.000000 924.000000"
 preserveAspectRatio="xMidYMid meet">
<metadata>
Created by potrace 1.14, written by Peter Selinger 2001-2017
</metadata>
<g transform="translate(0.000000,924.000000) scale(0.100000,-0.100000)"
fill="#000000" stroke="none">
<path d="M4405 9194 c-514 -263 -1255 -738 -1745 -1120 -548 -427 -930 -797
-1088 -1057 -154 -251 -222 -486 -222 -771 0 -280 59 -515 205 -811 104 -212
304 -504 355 -520 37 -12 64 19 161 181 53 88 300 494 549 904 249 410 662
1089 918 1510 256 421 580 954 720 1185 141 231 260 432 266 447 9 23 7 31
-14 53 -29 31 -42 31 -105 -1z"/>
<path d="M4792 9197 c-12 -13 -22 -30 -22 -39 0 -9 89 -151 198 -317 609 -930
1349 -2059 1527 -2331 949 -1453 1383 -2146 1544 -2469 138 -275 227 -535 252
-743 9 -71 17 -102 30 -114 22 -20 63 -21 84 -4 33 28 151 446 194 690 42 240
55 394 55 670 -1 287 -19 485 -69 732 -110 552 -328 1059 -653 1518 -221 312
-526 623 -834 854 -126 93 -2200 1546 -2235 1564 -32 17 -47 15 -71 -11z"/>
<path d="M843 6054 c-35 -15 -154 -421 -202 -694 -42 -239 -55 -395 -55 -665
0 -280 13 -432 60 -690 172 -950 704 -1819 1470 -2402 198 -151 2262 -1587
2286 -1591 29 -5 68 27 68 56 0 9 -64 115 -142 235 -79 119 -371 565 -650 989
-1482 2262 -2047 3138 -2311 3589 -240 410 -380 761 -418 1044 -14 106 -28
135 -67 134 -15 0 -32 -3 -39 -5z"/>
<path d="M7268 4293 c-8 -10 -107 -169 -218 -353 -225 -371 -446 -734 -1060
-1745 -552 -909 -815 -1341 -1068 -1758 -117 -192 -212 -359 -212 -371 0 -29
29 -56 60 -56 24 0 123 51 355 183 884 501 1651 1064 2211 1622 233 231 348
390 438 604 178 422 151 873 -83 1356 -86 179 -232 406 -324 503 -35 36 -75
42 -99 15z"/>
</g>
</svg>
