<?xml version="1.0" standalone="no"?>
<!DOCTYPE svg PUBLIC "-//W3C//DTD SVG 20010904//EN"
 "http://www.w3.org/TR/2001/REC-SVG-20010904/DTD/svg10.dtd">
<svg version="1.0" xmlns="http://www.w3.org/2000/svg"
 width="700.000000pt" height="700.000000pt" viewBox="0 0 700.000000 700.000000"
 preserveAspectRatio="xMidYMid meet">
<metadata>
Created by potrace 1.14, written by Peter Selinger 2001-2017
</metadata>
<g transform="translate(0.000000,700.000000) scale(0.100000,-0.100000)"
fill="#000000" stroke="none">
<path d="M3215 6994 c-731 -73 -1318 -303 -1885 -740 -149 -114 -470 -435
-584 -584 -434 -564 -673 -1169 -737 -1870 -15 -161 -6 -606 15 -755 92 -651
322 -1196 722 -1715 114 -148 436 -470 584 -584 451 -348 931 -570 1460 -676
293 -59 358 -65 710 -65 258 1 351 4 450 18 659 94 1200 322 1720 723 148 114
470 436 584 584 403 523 624 1050 723 1725 25 172 25 718 0 890 -101 688 -325
1216 -747 1757 -88 113 -402 427 -526 526 -510 407 -1085 653 -1749 748 -105
15 -640 28 -740 18z m-341 -2375 c-300 -497 -557 -921 -571 -943 l-25 -39 -59
104 c-32 57 -72 136 -88 174 -107 256 -68 592 88 757 39 42 224 177 626 457
314 219 571 397 573 396 1 -1 -243 -409 -544 -906z m1375 446 c315 -220 601
-425 636 -455 208 -184 354 -437 409 -710 40 -199 45 -557 11 -720 -22 -105
-68 -239 -119 -345 l-43 -90 -1 90 c-1 103 -32 240 -81 354 -77 180 -752 1259
-1268 2024 -210 312 -214 318 -166 285 27 -18 307 -213 622 -433z m-2393 -898
c2 -95 31 -226 75 -335 75 -188 794 -1337 1325 -2117 82 -121 154 -227 159
-235 5 -8 -34 16 -86 52 -941 656 -1152 805 -1206 849 -164 136 -305 350 -379
575 -51 158 -68 292 -68 554 -1 246 8 308 65 478 22 65 107 262 113 262 1 0 2
-37 2 -83z m2941 -940 c111 -205 140 -313 130 -496 -10 -184 -63 -323 -160
-419 -45 -44 -1177 -845 -1185 -837 -4 3 1132 1884 1138 1885 3 0 37 -60 77
-133z"/>
</g>
</svg>
