<svg xmlns="http://www.w3.org/2000/svg" viewBox="0 0 24 24"><path d="M21.543 7.491c.015.195.015.39.015.586 0 5.992-4.953 12.903-14.01 12.903v-.004c-2.676.004-5.296-.702-7.548-2.032.389.043.78.064 1.172.065 2.217.002 4.371-.683 6.115-1.945-2.107-.037-3.954-1.302-4.6-3.149a5.318 5.318 0 0 0 2.223-.078C2.613 13.409.96 11.55.96 9.392v-.057c.685.35 1.451.546 2.235.567C1.032 8.57.365 5.92 1.671 3.847 4.171 6.68 7.86 8.403 11.82 8.585c-.397-1.575.145-3.226 1.425-4.333 1.983-1.717 5.102-1.629 6.966.197a10.41 10.41 0 0 0 3.127-1.101c-.368 1.05-1.137 1.941-2.165 2.508.976-.106 1.93-.347 2.828-.714a9.604 9.604 0 0 1-2.457 2.35"/></svg>