<svg xmlns="http://www.w3.org/2000/svg" fill="inherit" viewBox="0 0 24 24">
    <g fill="inherit" clip-path="url(#a)">
        <path fill="inherit" fill-rule="evenodd"
            d="M24 12c0 6.6274-5.3726 12-12 12-6.62742 0-12-5.3726-12-12C0 5.37258 5.37258 0 12 0c6.6274 0 12 5.37258 12 12ZM12.43 8.85893c-1.1672.48547-3.49987 1.49027-6.99812 3.01437-.56806.2259-.86563.4469-.89272.663-.04578.3652.41154.509 1.03431.7048.08471.0267.17248.0543.26246.0835.6127.1992 1.43689.4322 1.86535.4414.38865.0084.82244-.1518 1.30135-.4807 3.26847-2.2063 4.95577-3.32149 5.06167-3.34553.0747-.01696.1783-.03829.2485.02408.0701.06235.0632.18045.0558.21215-.0453.1931-1.8405 1.8621-2.7695 2.7258-.2896.2692-.495.4602-.537.5038-.0941.0978-.19.1902-.2821.279-.5692.5487-.9961.9602.0236 1.6322.49.3229.8821.59 1.2733.8564.4273.2909.8534.5811 1.4047.9425.1405.0921.2746.1877.4053.2808.4972.3545.9438.6729 1.4957.6221.3206-.0295.6519-.331.8201-1.2302.3975-2.1252 1.1789-6.7299 1.3595-8.62742.0158-.16625-.0041-.37901-.0201-.4724-.0159-.0934-.0493-.22647-.1707-.32498-.1438-.11666-.3658-.14126-.465-.13952-.4514.00796-1.1439.24874-4.4764 1.63485Z"
            clip-rule="evenodd" />
    </g>
    <defs>
        <clipPath id="a">
            <path fill="#fff" d="M0 0h24v24H0z" />
        </clipPath>
    </defs>
</svg>