<svg viewBox="0 0 24 24" xmlns="http://www.w3.org/2000/svg">
<path d="M12 0.297134C5.37 0.297134 0 5.67014 0 12.2971C0 17.6001 3.438 22.0971 8.205 23.6821C8.805 23.7951 9.025 23.4241 9.025 23.1051C9.025 22.8201 9.015 22.0651 9.01 21.0651C5.672 21.7891 4.968 19.4551 4.968 19.4551C4.422 18.0701 3.633 17.7001 3.633 17.7001C2.546 16.9561 3.717 16.9711 3.717 16.9711C4.922 17.0551 5.555 18.2071 5.555 18.2071C6.625 20.0421 8.364 19.5121 9.05 19.2051C9.158 18.4291 9.467 17.9001 9.81 17.6001C7.145 17.3001 4.344 16.2681 4.344 11.6701C4.344 10.3601 4.809 9.29014 5.579 8.45014C5.444 8.14714 5.039 6.92714 5.684 5.27414C5.684 5.27414 6.689 4.95214 8.984 6.50414C9.944 6.23714 10.964 6.10513 11.984 6.09913C13.004 6.10513 14.024 6.23714 14.984 6.50414C17.264 4.95214 18.269 5.27414 18.269 5.27414C18.914 6.92714 18.509 8.14714 18.389 8.45014C19.154 9.29014 19.619 10.3601 19.619 11.6701C19.619 16.2801 16.814 17.2951 14.144 17.5901C14.564 17.9501 14.954 18.6861 14.954 19.8101C14.954 21.4161 14.939 22.7061 14.939 23.0961C14.939 23.4111 15.149 23.7861 15.764 23.6661C20.565 22.0921 24 17.5921 24 12.2971C24 5.67014 18.627 0.297134 12 0.297134Z" />
</svg>
