<svg xmlns="http://www.w3.org/2000/svg" viewBox="0 0 24 24">
  <path d="M4.118.994h15.48v22.012h-2.273V12.923h-.022a5.468 5.468 0 0 0-10.89 0H6.39v10.083H4.118V.994Z" />
  <path
    d="m0 4.118.923 3.125h.781v12.639a.71.71 0 0 0-.71.71v.852H.852a.71.71 0 0 0-.71.71v.852h7.953v-.852a.71.71 0 0 0-.71-.71h-.142v-.852a.71.71 0 0 0-.71-.71H5.68V4.118H0Zm17.468 15.764a.71.71 0 0 0-.71.71v.852h-.143a.71.71 0 0 0-.71.71v.852h7.953v-.852a.71.71 0 0 0-.71-.71h-.142v-.852a.71.71 0 0 0-.71-.71V7.242h.78L24 4.119h-5.68v15.764h-.852Z" />
</svg>