<svg xmlns="http://www.w3.org/2000/svg" class="_1sjywpl0 _1sjywpl1 bc5nciic bc5nci19f bc5nci4jw" viewBox="0 0 144 185"><path fill="url(#a)" d="M0 71.613C0 32.063 32.062 0 71.613 0s71.613 32.062 71.613 71.613v102.505c0 6.01-4.872 10.882-10.883 10.882H10.883C4.872 185 0 180.128 0 174.118z"/><path fill="#007AFF" fill-rule="evenodd" d="M134.717 176.111V71.821c0-34.953-28.252-63.288-63.104-63.288-34.852 0-63.105 28.335-63.105 63.289V176.11c0 .197.16.356.355.356h125.5a.354.354 0 0 0 .354-.356M71.613 0C32.063 0 0 32.156 0 71.822V176.11C0 181.02 3.968 185 8.863 185h125.5c4.895 0 8.863-3.98 8.863-8.889V71.821C143.226 32.157 111.164 0 71.613 0" clip-rule="evenodd"/><defs><linearGradient id="a" x1="18.435" x2="143.747" y1="10.667" y2="209.447" gradientUnits="userSpaceOnUse"><stop offset=".266" stop-color="#FFF"/><stop offset=".734" stop-color="#007AFF"/></linearGradient></defs></svg>