<svg viewBox="0 0 512 512" xmlns="http://www.w3.org/2000/svg">
<path fill-rule="evenodd" clip-rule="evenodd" d="M256 512C397.385 512 512 397.385 512 256C512 114.615 397.385 0 256 0C114.615 0 0 114.615 0 256C0 397.385 114.615 512 256 512ZM348.077 268.251C347.047 271.254 346.018 274.257 344.263 277.017C337.633 287.302 327.867 292.139 315.221 292.951C302.173 293.789 289.233 295.487 276.333 297.437C274.064 297.779 271.793 298.108 269.521 298.438C258.687 300.005 247.858 301.572 237.36 304.645C189.946 318.517 148.927 341.344 115.048 374.257C109.197 379.941 103.451 385.688 98.1836 391.819C95.7632 394.637 93.0278 397.201 89.1831 398.521L89.1304 398.538C87.9731 398.938 86.7466 399.359 85.6548 398.491C84.7729 397.79 84.9731 396.874 85.1665 395.992C85.1948 395.862 85.2231 395.733 85.248 395.605C85.6963 393.277 86.7407 391.14 88.1821 389.194C90.146 386.544 92.084 383.878 94.022 381.213C99.7344 373.356 105.446 365.5 111.82 358.036C121.707 346.457 133.167 336.2 144.787 326.072C168.56 305.352 195.75 289.087 225.833 276.646C228.757 275.438 231.732 274.327 234.707 273.217C236.528 272.538 238.349 271.858 240.158 271.155C240.361 271.076 240.574 271.007 240.789 270.938C241.635 270.663 242.518 270.377 243.024 269.423C242.177 268.706 241.15 268.783 240.177 268.857C239.968 268.873 239.762 268.889 239.561 268.896C217.297 269.744 195.694 273.47 174.884 280.725C167.117 283.432 159.668 286.729 152.295 290.172C149.855 291.311 147.46 292.248 145.208 290.121C142.917 287.958 143.432 285.598 144.912 283.182C154.453 267.61 165.746 253.295 179.889 240.66C197.997 224.483 219.395 213.954 244.032 208.49C276.996 201.18 306.323 208.416 332.639 226.84L333.331 227.326C337.818 230.48 342.154 233.529 348.424 232.938C356.094 232.213 362.589 229.362 367.853 224.391C376.977 215.774 378.435 205.5 372.124 194.314C365.358 182.325 356.674 171.414 347.996 160.512L347.97 160.479C344.757 156.442 341.94 152.257 340.075 147.559C337.776 141.771 339.282 136.798 343.771 132.374C346.562 129.623 349.879 127.444 353.499 125.654C352.84 124.302 351.792 124.372 350.828 124.437C350.692 124.445 350.558 124.454 350.427 124.459C349.885 124.479 349.345 124.565 348.806 124.651C348.214 124.745 347.624 124.839 347.031 124.847C346.607 124.852 346.152 124.89 345.689 124.929C343.945 125.074 342.084 125.23 341.357 123.684C340.391 121.631 341.399 119.227 343.191 117.554C347.403 113.623 352.741 112.595 358.621 113.133C364.851 113.703 370.044 116.374 374.959 119.561C377.904 121.469 380.753 123.504 383.548 125.587C386.107 127.494 385.938 128.352 382.863 129.358C378.374 130.828 373.854 132.237 369.158 133.088C368.043 133.29 366.97 133.568 365.925 133.915C365.13 134.178 364.353 134.481 363.586 134.82C356.43 137.985 354.645 142.229 357.784 148.742C360.525 154.429 364.434 159.469 368.344 164.509C369.887 166.498 371.431 168.487 372.902 170.517C373.603 171.483 374.306 172.449 375.008 173.415C379.468 179.541 383.926 185.666 387.914 192.062C400.479 212.217 392.457 231.471 374.209 243.009C372.334 244.194 370.384 245.277 368.434 246.36C365.527 247.975 362.621 249.589 359.962 251.543C354.495 255.563 350.765 260.588 348.648 266.601C348.455 267.149 348.266 267.7 348.077 268.251ZM364.513 333.922C365.149 335.249 364.924 336.668 364.888 338.06C364.714 340.459 365.214 342.489 363.518 344.059C362.183 344.074 361.458 343.352 360.753 342.65C360.563 342.461 360.375 342.273 360.177 342.103C356.286 338.75 352.875 334.988 348.808 331.769C341.752 326.184 333.477 324.483 324.302 324.521C315.342 324.559 307.177 327.164 299.004 329.771C297.717 330.183 296.429 330.594 295.138 330.995L289.747 332.666C278.586 336.121 267.42 339.577 256.422 343.413C246.833 346.757 238.413 339.996 239.31 331.924C240.31 322.924 243.14 314.443 250.956 307.944C254.783 304.762 259.324 303.146 264.323 302.431C267.762 301.938 271.221 301.553 274.679 301.168C276.062 301.014 277.446 300.859 278.828 300.698C279.451 300.625 280.078 300.607 280.639 301.144C280.923 302.208 280.246 302.979 279.585 303.731C279.429 303.91 279.273 304.088 279.131 304.268C274.998 309.516 270.639 314.606 265.876 319.418C265.727 319.568 265.549 319.722 265.365 319.879C264.61 320.528 263.763 321.258 264.454 322.215C265.352 323.459 266.887 322.692 268.166 322.415C273.744 321.205 279.287 319.864 284.829 318.523C294.818 316.107 304.808 313.69 315.003 312.043C328.089 309.928 340.422 311.512 351.549 318.553C357.728 322.463 361.604 327.85 364.513 333.922Z" fill="inherit"/>
</svg>
