<svg xmlns="http://www.w3.org/2000/svg" viewBox="0 0 24 24"><path d="M20.727 5.455s-2.5-1.958-5.454-2.182l-.266.532c2.67.654 3.895 1.59 5.175 2.74C17.976 5.42 15.797 4.364 12 4.364c-3.797 0-5.975 1.055-8.182 2.181 1.28-1.15 2.737-2.19 5.175-2.74l-.266-.532c-3.098.293-5.454 2.182-5.454 2.182S.479 9.505 0 17.455c2.816 3.247 7.09 3.272 7.09 3.272l.895-1.192a10.924 10.924 0 0 1-4.712-3.171C5.039 17.7 7.705 19.09 12 19.09c4.296 0 6.961-1.391 8.727-2.727a10.924 10.924 0 0 1-4.712 3.171l.894 1.192s4.275-.025 7.091-3.273c-.48-7.95-3.273-12-3.273-12M8.455 15.273c-1.055 0-1.91-.977-1.91-2.182s.855-2.182 1.91-2.182c1.054 0 1.909.977 1.909 2.182s-.855 2.182-1.91 2.182m7.09 0c-1.054 0-1.909-.977-1.909-2.182s.855-2.182 1.91-2.182c1.054 0 1.909.977 1.909 2.182s-.855 2.182-1.91 2.182"/></svg>