<svg width="36" height="36" viewBox="0 0 1001 1001" fill="none" xmlns="http://www.w3.org/2000/svg" style="position: relative; display: block;"><g clip-path="url(#clip0_87_1736)"><mask id="mask0_87_1736" maskUnits="userSpaceOnUse" x="0" y="0" width="1000" height="1000" style="mask-type: alpha;"><path d="M500.189 999.877C776.159 999.877 999.877 776.159 999.877 500.189C999.877 224.218 776.159 0.5 500.189 0.5C224.218 0.5 0.5 224.218 0.5 500.189C0.5 776.159 224.218 999.877 500.189 999.877Z" fill="#D9D9D9"></path></mask><g mask="url(#mask0_87_1736)"><path d="M1169.22 -216.74H-153.701V1106.18H1169.22V-216.74Z" fill="#7A7A7A"></path><g filter="url(#filter0_f_87_1736)"><path d="M538.352 978.867C832.844 978.867 1071.57 740.205 1071.57 445.805C1071.57 151.401 832.844 -87.2593 538.352 -87.2593C243.866 -87.2593 5.13623 151.401 5.13623 445.805C5.13623 740.205 243.866 978.867 538.352 978.867Z" fill="#2A2A2A"></path></g><g filter="url(#filter1_f_87_1736)"><path d="M595.828 810.139C834.677 810.139 1028.31 616.444 1028.31 377.51C1028.31 138.573 834.677 -55.1226 595.828 -55.1226C356.979 -55.1226 163.352 138.573 163.352 377.51C163.352 616.444 356.979 810.139 595.828 810.139Z" fill="#5C5C5C"></path></g><g filter="url(#filter2_f_87_1736)"><path d="M587.949 834.86C836.956 834.86 1038.81 632.933 1038.81 383.844C1038.81 134.753 836.956 -67.1743 587.949 -67.1743C338.946 -67.1743 137.087 134.753 137.087 383.844C137.087 632.933 338.946 834.86 587.949 834.86Z" fill="url(#paint0_radial_87_1736)"></path></g><g filter="url(#filter3_f_87_1736)"><path d="M662.733 497.411C788.176 497.411 889.864 395.723 889.864 270.281C889.864 144.84 788.176 43.1501 662.733 43.1501C537.29 43.1501 435.602 144.84 435.602 270.281C435.602 395.723 537.29 497.411 662.733 497.411Z" fill="#D4D4D4"></path></g><g filter="url(#filter4_f_87_1736)"><path d="M662.579 360.825C712.674 360.825 753.277 320.219 753.277 270.127C753.277 220.036 712.674 179.429 662.579 179.429C612.487 179.429 571.88 220.036 571.88 270.127C571.88 320.219 612.487 360.825 662.579 360.825Z" fill="white"></path></g><g filter="url(#filter5_f_87_1736)"><path d="M602.323 1175.71C1052.46 1175.71 1417.37 810.805 1417.37 360.667C1417.37 -89.4697 1052.46 -454.379 602.323 -454.379C152.185 -454.379 -212.724 -89.4697 -212.724 360.667C-212.724 810.805 152.185 1175.71 602.323 1175.71Z" fill="url(#paint1_radial_87_1736)" fill-opacity="0.9"></path></g></g></g><defs><filter id="filter0_f_87_1736" x="-118.472" y="-210.868" width="1313.65" height="1313.34" filterUnits="userSpaceOnUse" color-interpolation-filters="sRGB"><feFlood flood-opacity="0" result="BackgroundImageFix"></feFlood><feBlend mode="normal" in="SourceGraphic" in2="BackgroundImageFix" result="shape"></feBlend><feGaussianBlur stdDeviation="61.8043" result="effect1_foregroundBlur_87_1736"></feGaussianBlur></filter><filter id="filter1_f_87_1736" x="-83.8654" y="-302.34" width="1359.39" height="1359.7" filterUnits="userSpaceOnUse" color-interpolation-filters="sRGB"><feFlood flood-opacity="0" result="BackgroundImageFix"></feFlood><feBlend mode="normal" in="SourceGraphic" in2="BackgroundImageFix" result="shape"></feBlend><feGaussianBlur stdDeviation="123.609" result="effect1_foregroundBlur_87_1736"></feGaussianBlur></filter><filter id="filter2_f_87_1736" x="44.3805" y="-159.881" width="1087.14" height="1087.45" filterUnits="userSpaceOnUse" color-interpolation-filters="sRGB"><feFlood flood-opacity="0" result="BackgroundImageFix"></feFlood><feBlend mode="normal" in="SourceGraphic" in2="BackgroundImageFix" result="shape"></feBlend><feGaussianBlur stdDeviation="46.3534" result="effect1_foregroundBlur_87_1736"></feGaussianBlur></filter><filter id="filter3_f_87_1736" x="250.189" y="-142.263" width="825.089" height="825.087" filterUnits="userSpaceOnUse" color-interpolation-filters="sRGB"><feFlood flood-opacity="0" result="BackgroundImageFix"></feFlood><feBlend mode="normal" in="SourceGraphic" in2="BackgroundImageFix" result="shape"></feBlend><feGaussianBlur stdDeviation="92.7066" result="effect1_foregroundBlur_87_1736"></feGaussianBlur></filter><filter id="filter4_f_87_1736" x="448.272" y="55.8202" width="428.614" height="428.613" filterUnits="userSpaceOnUse" color-interpolation-filters="sRGB"><feFlood flood-opacity="0" result="BackgroundImageFix"></feFlood><feBlend mode="normal" in="SourceGraphic" in2="BackgroundImageFix" result="shape"></feBlend><feGaussianBlur stdDeviation="61.8043" result="effect1_foregroundBlur_87_1736"></feGaussianBlur></filter><filter id="filter5_f_87_1736" x="-305.431" y="-547.086" width="1815.51" height="1815.51" filterUnits="userSpaceOnUse" color-interpolation-filters="sRGB"><feFlood flood-opacity="0" result="BackgroundImageFix"></feFlood><feBlend mode="normal" in="SourceGraphic" in2="BackgroundImageFix" result="shape"></feBlend><feGaussianBlur stdDeviation="46.3534" result="effect1_foregroundBlur_87_1736"></feGaussianBlur></filter><radialGradient id="paint0_radial_87_1736" cx="0" cy="0" r="1" gradientUnits="userSpaceOnUse" gradientTransform="translate(663.998 256.603) rotate(128.228) scale(851.508 851.439)"><stop offset="0.286458" stop-color="#6B6B6B"></stop><stop offset="0.647782" stop-color="#6B6B6B" stop-opacity="0"></stop></radialGradient><radialGradient id="paint1_radial_87_1736" cx="0" cy="0" r="1" gradientUnits="userSpaceOnUse" gradientTransform="translate(602.323 360.667) rotate(90) scale(815.046 815.046)"><stop offset="0.598958" stop-opacity="0"></stop><stop offset="0.671875"></stop><stop offset="0.734375" stop-opacity="0"></stop></radialGradient><clipPath id="clip0_87_1736"><rect width="1000" height="1000" fill="white" transform="translate(0.5 0.5)"></rect></clipPath></defs></svg>