<svg xmlns="http://www.w3.org/2000/svg" width="20" height="22" fill="none"><path fill="#469EA2" d="m0 16.44 9.56 5.48 9.559-5.48V5.48L9.559 0 0 5.48z"/><path fill="#6ACAD1" d="M8.58 1.31 1.64 5.289a2.04 2.04 0 0 1 0 .373l6.93 3.977a1.664 1.664 0 0 1 1.97 0l6.93-3.977a2.037 2.037 0 0 1 0-.373l-6.92-3.977a1.664 1.664 0 0 1-1.968 0m9.56 5.447-6.942 4.023c.038.348-.036.7-.212 1.005a1.672 1.672 0 0 1-.766.69l.011 7.91c.112.048.22.109.319.18l6.93-3.978c-.037-.348.037-.7.213-1.005.176-.304.444-.545.766-.69V6.939a2.281 2.281 0 0 1-.319-.181M.98 6.802c-.1.071-.207.132-.319.181v7.955c.326.139.598.38.775.685.176.306.248.66.204 1.01l6.93 3.977c.1-.071.207-.132.32-.18v-7.955a1.633 1.633 0 0 1-.775-.686 1.615 1.615 0 0 1-.205-1.01z"/><path fill="#469EA2" d="m9.56 1.186 8.546 4.904v9.797L9.56 20.791l-8.547-4.904V6.079zm0-1.163L0 5.503v10.96l9.56 5.48 9.559-5.48V5.503z"/><path fill="#469EA2" d="M9.628 12.825H9.49a1.792 1.792 0 0 1-1.264-.518 1.77 1.77 0 0 1-.522-1.256v-.136a1.758 1.758 0 0 1 .521-1.255 1.783 1.783 0 0 1 1.265-.519h.137a1.794 1.794 0 0 1 1.265.519 1.767 1.767 0 0 1 .521 1.255v.136a1.758 1.758 0 0 1-.521 1.256 1.783 1.783 0 0 1-1.265.518m0 7.288H9.49a1.79 1.79 0 0 0-1.559.904l1.628.927 1.627-.927a1.79 1.79 0 0 0-1.56-.904m9.502-5.48h-.068a1.794 1.794 0 0 0-1.265.518 1.77 1.77 0 0 0-.522 1.256v.135a1.7 1.7 0 0 0 .228.86l1.627-.939zM17.503 4.576a1.73 1.73 0 0 0-.228.859v.136a1.758 1.758 0 0 0 .522 1.255 1.782 1.782 0 0 0 1.265.519h.068V5.503zM9.56.023 7.932.949a1.783 1.783 0 0 0 1.56.915h.136A1.79 1.79 0 0 0 11.187.96zM1.627 4.565 0 5.503v1.842h.068a1.793 1.793 0 0 0 1.265-.519 1.769 1.769 0 0 0 .522-1.255v-.136a1.869 1.869 0 0 0-.228-.87M.068 14.633H0v1.83l1.627.938a1.73 1.73 0 0 0 .228-.859v-.135a1.758 1.758 0 0 0-.522-1.256 1.783 1.783 0 0 0-1.265-.518"/><path fill="#083B54" fill-opacity=".15" d="M9.56 22V11.028L0 5.548V16.52z"/><path fill="#083B54" fill-opacity=".05" d="M19.13 16.418V5.458l-9.56 5.48V21.91z"/></svg>