<svg width="161" height="190.51" viewBox="0 0 161 190" xmlns="http://www.w3.org/2000/svg" data-name="Layer 1">
   <path id="svg_4" fill="#7D50CF" d="m141.67,74.68c-16.3,-17.8 -41.29,-40.85 -44,-52.41s4.5,-22.27 4.5,-22.27c-11.41,-0.21 -17.88,5.54 -21.61,12.07c-3.66,-6.53 -10.2,-12.28 -21.56,-12.07c0,0 7.25,10.62 4.52,22.26s-27.77,34.62 -44,52.43c-45.45,49.76 -6,115.82 61,115.82s106.53,-66.06 61.15,-115.83zm-61.11,100.61c-27,0 -57.73,-14.51 -64.55,-43.81c-7.76,-34.25 25.77,-55.29 45.59,-75.9l3.23,3.24c1.73,1.65 3.45,3.37 5.25,5c-1.44,1.44 -2.88,2.8 -4.17,4.09c-16.44,16.09 -44.91,34.42 -38.7,60.77c5.53,23.63 31.81,34.69 53.35,34.69s47.82,-11.06 53.35,-34.69c6.18,-26.35 -22.26,-44.73 -38.7,-60.75c-7.76,-7.61 -15.51,-15.36 -23.21,-23.12a94.77,94.77 0 0 0 8.41,-10.05l0.14,-0.14l0.14,0.14c20.76,30.09 74.25,54.57 64.49,96.72c-6.89,29.3 -37.55,43.81 -64.62,43.81zm20.54,-66.14a48,48 0 0 0 -4.46,-4.67l8.36,-8.76c12.07,12.35 23.56,27.79 5.82,42.87c-7.68,6.54 -19.24,9.48 -30.37,9.48s-22.62,-2.94 -30.31,-9.48c-17.8,-15.15 -6.1,-30.66 6,-43.08l8.33,8.83a37.33,37.33 0 0 0 -4.67,4.81c-13.14,16.3 6.1,26.43 20.61,26.43s33.83,-10.13 20.69,-26.43zm-10.7,10.63a19.71,19.71 0 0 1 -19.61,-0.07l4.1,-23.41a11.62,11.62 0 1 1 17.3,-10.13a11.44,11.44 0 0 1 -6,10.13l4.21,23.48z"/>
</svg>