<svg xmlns="http://www.w3.org/2000/svg" width="161" height="190.51" data-name="Layer 1" viewBox="0 0 161 190"><path fill="#7D50CF" d="M141.67 74.68c-16.3-17.8-41.29-40.85-44-52.41S102.17 0 102.17 0C90.76-.21 84.29 5.54 80.56 12.07 76.9 5.54 70.36-.21 59 0c0 0 7.25 10.62 4.52 22.26s-27.77 34.62-44 52.43c-45.45 49.76-6 115.82 61 115.82s106.53-66.06 61.15-115.83M80.56 175.29c-27 0-57.73-14.51-64.55-43.81-7.76-34.25 25.77-55.29 45.59-75.9l3.23 3.24c1.73 1.65 3.45 3.37 5.25 5-1.44 1.44-2.88 2.8-4.17 4.09C49.47 84 21 102.33 27.21 128.68c5.53 23.63 31.81 34.69 53.35 34.69s47.82-11.06 53.35-34.69c6.18-26.35-22.26-44.73-38.7-60.75C87.45 60.32 79.7 52.57 72 44.81a94.77 94.77 0 0 0 8.41-10.05l.14-.14.14.14c20.76 30.09 74.25 54.57 64.49 96.72-6.89 29.3-37.55 43.81-64.62 43.81m20.54-66.14a48 48 0 0 0-4.46-4.67l8.36-8.76c12.07 12.35 23.56 27.79 5.82 42.87-7.68 6.54-19.24 9.48-30.37 9.48s-22.62-2.94-30.31-9.48c-17.8-15.15-6.1-30.66 6-43.08l8.33 8.83a37.33 37.33 0 0 0-4.67 4.81c-13.14 16.3 6.1 26.43 20.61 26.43s33.83-10.13 20.69-26.43m-10.7 10.63a19.71 19.71 0 0 1-19.61-.07l4.1-23.41a11.62 11.62 0 1 1 17.3-10.13 11.44 11.44 0 0 1-6 10.13z"/></svg>