<svg viewBox="0 0 34 35" width="34" height="35" xmlns="http://www.w3.org/2000/svg" fill="none">
 <g>
  <path id="svg_1" fill="#FF8A00" d="m0,30.4698l8.02094,4.5018l8.02096,-4.5018l0,-8.9856l-8.02096,-4.5076l-8.02094,4.5076l0,8.9856z"/>
  <path id="svg_2" fill="#FF8A00" d="m26.5161,0.0293l-4.2398,2.38186l-0.0059,0.03573l0,4.75778l4.2457,2.38186l0.0357,0.01787l4.2397,-2.37591l0,-4.79946l-4.2754,-2.39973z"/>
  <path id="svg_3" fill="#FF8A00" d="m34.4001,21.4842l-8.0209,-4.5076l-8.021,4.5076l0,8.9856l8.021,4.5018l8.0209,-4.5018l0,-8.9856z"/>
  <path id="svg_4" fill="#FF8A00" d="m17.137,1.28516l-8.00907,4.50172l0,8.98562l8.02097,4.5017l8.0209,-4.5017l0,-3.5788l-3.9063,-2.1913l-1.0539,-0.58951l0,-1.2088l0,-4.0849l-3.0726,-1.83403z"/>
 </g>
</svg>