
<svg width="152" height="41" viewBox="0 0 152 41" fill="none" xmlns="http://www.w3.org/2000/svg">
<path d="M28.214 37.1122C28.8174 36.4844 30.1065 35.4884 31.149 34.845C31.2787 34.7655 31.4483 34.805 31.5285 34.9341C31.6085 35.0631 31.5686 35.2325 31.4392 35.3125C30.43 35.9354 29.1883 36.8928 28.6119 37.4923C27.0528 39.1151 26.9496 39.7126 26.9775 39.8942C26.9833 39.9316 26.9971 39.9618 27.0349 39.9898C27.053 39.9999 27.0741 40.0148 27.0898 40.0213C27.6642 40.2553 28.3388 40.1174 29.0933 39.6114C31.1505 38.2321 32.9978 34.6915 32.9978 33.6046C32.9978 33.4016 32.9175 33.2805 32.7293 33.1993C31.7803 32.7906 29.0953 33.7453 28.1257 34.6545C28.0146 34.7582 27.8404 34.7528 27.7359 34.6425C27.6317 34.5317 27.6371 34.3578 27.7479 34.2538C27.9906 34.0263 28.3449 33.7894 28.7573 33.5668L27.9993 31.1558C27.0254 33.1377 25.4343 34.7404 23.4219 35.7826C24.3382 37.0105 25.655 38.6744 26.4776 39.5108C26.6448 38.936 27.2099 38.1572 28.214 37.1122Z" fill="#97F0E5"/>
<path d="M20.3391 6.67514C20.1852 6.68771 20.0526 6.57961 20.0377 6.42871C19.798 4.00979 18.7321 2.33394 16.8697 1.44739C15.6323 0.871686 14.2018 0.923286 12.947 1.59109C11.4462 2.38954 10.3802 3.95879 10.0953 5.78884C9.94148 6.77714 9.80778 7.91389 9.65303 9.23021C9.42708 11.1521 9.14738 13.5288 8.67085 16.6315C10.0189 16.5145 12.3559 16.6456 14.0134 17.7881C14.1385 17.8743 14.1699 18.0455 14.0833 18.1704C13.9967 18.2952 13.8248 18.3263 13.6999 18.2402C12.0335 17.0916 9.58853 17.0532 8.40655 17.2121C7.85055 17.2868 4.95698 17.7947 2.58848 20.4697C1.40808 21.7983 1.045 23.4814 1.6169 24.9717C1.9647 25.8776 2.62383 26.5132 3.29605 26.5903C3.8545 26.6562 4.38678 26.34 4.8344 25.6805C4.88738 25.6021 4.99625 25.5448 5.09033 25.5458C5.29988 25.5521 5.3778 25.7154 5.54858 26.0723C5.74358 26.4805 6.10678 27.2401 6.5221 27.3784C6.6333 27.4155 6.74193 27.4033 6.8644 27.3396C7.07678 27.2271 7.14638 26.7918 7.22688 26.2877C7.36023 25.4526 7.54298 24.3087 8.57145 23.4726C8.97798 23.1542 9.49898 23.071 10.1909 22.988C10.3406 22.968 10.4793 23.077 10.4975 23.2278C10.5156 23.3786 10.4078 23.5155 10.2567 23.5336C9.65448 23.6058 9.20588 23.6746 8.91595 23.9017C8.05423 24.6022 7.89728 25.5848 7.77115 26.3743C7.66753 27.0234 7.57788 27.584 7.1212 27.8261C7.08558 27.8446 7.04995 27.8603 7.01433 27.8747C6.83053 29.166 6.73108 30.3503 6.65133 31.3088C6.5504 32.5217 6.5044 33.0229 6.37925 33.2413C5.43593 34.8431 5.62115 35.8651 7.0171 36.7721C7.89815 37.3581 9.38598 38.5691 10.4722 39.4533C10.7023 39.6404 10.9144 39.8132 11.0987 39.9618C11.5172 40.2997 12.0355 40.4505 12.7793 40.4505H16.5875C16.5938 40.4437 16.6909 40.3529 16.7471 40.1001C16.887 39.4706 16.6672 38.3875 15.6308 37.2359C15.12 36.672 14.4261 36.2031 13.967 35.893C13.8192 35.7931 13.6984 35.7111 13.6174 35.6492C13.6169 35.6489 13.6165 35.6485 13.616 35.6482C13.616 35.6482 13.6161 35.6483 13.616 35.6482C13.6153 35.6477 13.6142 35.6468 13.6135 35.6463C13.6126 35.6456 13.6123 35.6447 13.6115 35.644C13.5942 35.6304 13.5822 35.6124 13.5688 35.5954C13.5605 35.5849 13.5492 35.5765 13.5426 35.5652C13.5421 35.5643 13.5416 35.5635 13.5411 35.5627C13.5329 35.548 13.5306 35.5309 13.5251 35.5149C13.5195 35.4984 13.511 35.4828 13.5086 35.4656C13.5085 35.4647 13.5083 35.4639 13.5082 35.463C13.5069 35.4532 13.5102 35.4429 13.51 35.4329C13.5099 35.4263 13.5109 35.4199 13.5113 35.4134C13.5122 35.3956 13.5101 35.378 13.5146 35.3606C13.515 35.3589 13.5157 35.3574 13.5162 35.3557C13.5164 35.3548 13.5161 35.3539 13.5164 35.353L14.1678 33.0795C14.2097 32.9336 14.3616 32.8485 14.5085 32.8907C14.6548 32.9324 14.7396 33.0844 14.6978 33.2303L14.1008 35.3138C15.3011 36.1091 18.0163 36.8704 20.7313 36.2109C24.4594 35.2927 27.244 32.6403 28.1793 29.1156C28.7519 26.9586 28.5551 24.7501 27.6747 22.77C27.6684 22.7589 27.6603 22.7494 27.6555 22.7372C27.6529 22.7305 27.654 22.7236 27.6519 22.7169C27.1149 21.5281 26.3308 20.4229 25.3167 19.4627C24.4648 18.6373 23.7012 18.0937 23.6936 18.0883C23.5696 18.0003 23.5405 17.8288 23.6285 17.7051C23.7164 17.581 23.8886 17.5522 24.0127 17.6401C24.045 17.663 24.8166 18.2119 25.6987 19.0662C26.7044 20.0185 27.4907 21.1089 28.0519 22.2796C29.1336 21.825 30.0718 21.2368 30.9091 20.4833C32.4099 19.1598 33.0649 17.4388 32.6634 15.8778C32.4133 14.9061 31.7711 14.1701 31.0273 14.0029C30.3921 13.8597 29.7342 14.1489 29.1759 14.8171C29.0978 14.9052 28.9939 14.9434 28.8867 14.9244C28.6765 14.8874 28.6012 14.6981 28.436 14.2833C28.2513 13.8194 27.942 13.0428 27.5334 12.8758C27.4199 12.8294 27.3052 12.8354 27.1711 12.8939C27.0103 12.9565 27.0003 13.2352 26.9964 13.6851C26.9883 14.597 26.9761 15.9751 25.1222 16.8389C24.7107 17.0583 24.4362 17.1646 23.7528 17.1646C23.6007 17.1646 23.4773 17.0415 23.4773 16.8898C23.4773 16.7655 23.5616 16.6646 23.6751 16.6306C23.5412 15.5659 23.1767 13.3419 23.1767 13.3419C23.1767 13.3419 23.7028 12.4925 23.6777 11.7179C23.6276 9.94401 23.0263 7.69539 20.9469 6.64604C20.8365 6.56346 20.7105 6.39914 20.5739 6.27506C20.5775 6.30856 20.5829 6.34076 20.5862 6.37449C20.6011 6.52564 20.4906 6.66026 20.3391 6.67514Z" fill="#97F0E5"/>
<path d="M32.9484 32.695C32.1266 32.3408 30.5291 32.7336 29.257 33.3184L28.3357 30.3876C28.48 30.0204 28.6091 29.6446 28.7122 29.2562C29.2954 27.0587 29.1201 24.813 28.2763 22.7819C29.4112 22.3035 30.397 21.6847 31.2763 20.8934C32.9332 19.4321 33.6513 17.506 33.1972 15.7412C32.8916 14.5537 32.1065 13.6822 31.1484 13.4667C30.3953 13.2968 29.6397 13.5581 28.9958 14.1991C28.9796 14.1592 28.9635 14.1186 28.9483 14.0805C28.7171 13.5001 28.3677 12.6229 27.7423 12.3672C27.4886 12.2633 27.2217 12.2712 26.9601 12.3862C26.4549 12.5822 26.45 13.1404 26.4451 13.6802C26.4375 14.5462 26.428 15.6238 24.8758 16.3474C24.5272 16.533 24.3478 16.615 23.7528 16.615C23.7252 16.615 23.7002 16.6231 23.675 16.6306C23.5615 16.6646 23.4773 16.7656 23.4773 16.8898C23.4773 17.0416 23.6006 17.1647 23.7528 17.1647C24.4362 17.1647 24.7107 17.0583 25.1222 16.8389C26.9761 15.9751 26.9883 14.597 26.9964 13.6851C27.0003 13.2352 27.0103 12.9566 27.1711 12.894C27.3051 12.8354 27.4199 12.8294 27.5334 12.8758C27.942 13.0428 28.2513 13.8194 28.436 14.2834C28.6011 14.6981 28.6765 14.8874 28.8867 14.9245C28.9938 14.9434 29.0978 14.9052 29.1759 14.8171C29.7342 14.1489 30.3921 13.8597 31.0273 14.0029C31.7711 14.1702 32.4133 14.9062 32.6634 15.8779C33.0649 17.4388 32.4099 19.1598 30.9091 20.4833C30.0718 21.2368 29.1336 21.825 28.0519 22.2797C27.4907 21.1089 26.7043 20.0186 25.6986 19.0662C24.8166 18.2119 24.0449 17.663 24.0126 17.6401C23.8886 17.5523 23.7163 17.581 23.6285 17.7051C23.5404 17.8288 23.5695 18.0003 23.6936 18.0883C23.7012 18.0937 24.4648 18.6373 25.3167 19.4627C26.3308 20.4229 27.1149 21.5281 27.6519 22.7169C27.6539 22.7237 27.6529 22.7305 27.6555 22.7372C27.6603 22.7494 27.6684 22.7589 27.6747 22.77C28.5551 24.7501 28.7519 26.9586 28.1793 29.1156C27.2439 32.6403 24.4594 35.2928 20.7313 36.2109C18.0162 36.8704 15.3011 36.1092 14.1008 35.3138L14.6978 33.2303C14.7396 33.0844 14.6548 32.9324 14.5085 32.8907C14.3616 32.8485 14.2097 32.9336 14.1678 33.0795L13.5164 35.3531C13.5161 35.354 13.5164 35.3548 13.5162 35.3558C13.5157 35.3574 13.515 35.3589 13.5146 35.3606C13.5101 35.378 13.5122 35.3957 13.5112 35.4134C13.5109 35.4199 13.5099 35.4264 13.51 35.4329C13.5102 35.4429 13.5069 35.4532 13.5081 35.4631C13.5083 35.4639 13.5085 35.4647 13.5086 35.4656C13.511 35.4828 13.5195 35.4984 13.5251 35.5149C13.5305 35.5309 13.5328 35.548 13.5411 35.5627C13.5416 35.5636 13.5421 35.5643 13.5426 35.5652C13.5491 35.5766 13.5605 35.585 13.5687 35.5954C13.5822 35.6124 13.5941 35.6305 13.6114 35.644C13.6123 35.6447 13.6126 35.6457 13.6134 35.6463C13.6142 35.6469 13.6151 35.6475 13.6159 35.6481C13.6158 35.6481 13.6159 35.6482 13.6159 35.6481C13.6163 35.6484 13.6169 35.6489 13.6173 35.6492C13.6983 35.7111 13.8192 35.7932 13.967 35.893C14.4261 36.2031 15.12 36.6721 15.6307 37.2359C16.6671 38.3876 16.887 39.4706 16.747 40.1001C16.6909 40.3529 16.5938 40.4437 16.5875 40.4505H12.7793C12.0355 40.4505 11.5171 40.2997 11.0986 39.9618C10.9144 39.8132 10.7023 39.6405 10.4722 39.4533C9.38596 38.5691 7.89813 37.3582 7.01708 36.7721C5.62113 35.8652 5.43591 34.8431 6.37923 33.2413C6.50438 33.0229 6.55038 32.5218 6.65131 31.3089C6.73106 30.3504 6.83053 29.166 7.01431 27.8747C7.04993 27.8604 7.08556 27.8446 7.12118 27.8261C7.57786 27.5841 7.66753 27.0234 7.77113 26.3744C7.89726 25.5848 8.05421 24.6023 8.91593 23.9018C9.20586 23.6746 9.65446 23.6058 10.2567 23.5336C10.4078 23.5155 10.5156 23.3787 10.4975 23.2279C10.4792 23.0771 10.3406 22.968 10.1909 22.988C9.49896 23.071 8.97793 23.1542 8.57143 23.4726C7.54298 24.3087 7.36021 25.4526 7.22686 26.2878C7.14636 26.7918 7.07676 27.2271 6.86438 27.3396C6.74193 27.4033 6.63328 27.4155 6.52208 27.3784C6.10676 27.2401 5.74356 26.4805 5.54856 26.0723C5.37778 25.7154 5.29986 25.5521 5.09031 25.5458C4.99623 25.5448 4.88736 25.6022 4.83438 25.6805C4.38676 26.34 3.85448 26.6562 3.29603 26.5903C2.62381 26.5132 1.96468 25.8776 1.61688 24.9717C1.04498 23.4814 1.40806 21.7983 2.58846 20.4697C4.95696 17.7947 7.85053 17.2868 8.40653 17.2122C9.58853 17.0532 12.0335 17.0916 13.6999 18.2402C13.8248 18.3263 13.9967 18.2952 14.0833 18.1704C14.1699 18.0455 14.1385 17.8744 14.0133 17.7881C12.3558 16.6456 10.0189 16.5146 8.67083 16.6315C9.14736 13.5288 9.42706 11.1521 9.65301 9.23023C9.80776 7.91391 9.94148 6.77713 10.0952 5.78886C10.3802 3.95881 11.4462 2.38956 12.947 1.59111C14.2017 0.923307 15.6323 0.871707 16.8697 1.44741C18.7321 2.33396 19.798 4.00981 20.0377 6.42873C20.0526 6.57963 20.1852 6.68773 20.3391 6.67516C20.4905 6.66028 20.6011 6.52571 20.5862 6.37456C20.5829 6.34083 20.5775 6.30861 20.5739 6.27513C20.2965 3.74068 19.1004 1.90013 17.105 0.950382C15.7066 0.299532 14.0967 0.356382 12.6875 1.10606C11.0346 1.98553 9.86193 3.70456 9.55061 5.70443C9.39523 6.70296 9.26103 7.84448 9.10556 9.16618C8.87643 11.1157 8.59173 13.5341 8.10211 16.7036C7.16846 16.8686 4.43741 17.551 2.17561 20.1055C0.856607 21.5902 0.455357 23.4829 1.10213 25.1681C1.52896 26.2802 2.34541 27.0344 3.23293 27.1364C3.89048 27.212 4.51976 26.9229 5.04861 26.3039C5.04933 26.3056 5.05021 26.3073 5.05093 26.309C5.29743 26.8246 5.70993 27.6873 6.34731 27.8998C6.38166 27.9113 6.41621 27.9181 6.45068 27.9256C6.27561 29.1893 6.17566 30.3783 6.10201 31.2633C6.03803 32.0318 5.97183 32.8265 5.90223 32.9658C5.21876 34.1265 4.55951 35.8315 6.71368 37.2311C7.57026 37.8008 9.04611 39.002 10.1236 39.8791C10.3543 40.067 10.5671 40.24 10.7518 40.3891C11.2682 40.806 11.9124 41 12.7792 41H16.5875C16.8324 41 17.051 40.8256 17.1871 40.5211C17.4511 39.9311 17.5069 38.4979 16.0404 36.8683C15.9727 36.7935 15.9023 36.7207 15.8302 36.6496C16.6552 36.8747 17.5913 37.012 18.5657 37.012C19.3209 37.012 20.0982 36.9302 20.8626 36.7448C21.584 36.5671 22.2712 36.3265 22.9198 36.0308C23.637 36.9956 25.8828 39.9595 26.7823 40.48C26.7875 40.483 26.7914 40.4871 26.7967 40.4901C26.8013 40.4926 26.8063 40.4934 26.8111 40.4957C26.8351 40.5086 26.859 40.5211 26.8809 40.5301C27.1324 40.6323 27.3937 40.6833 27.6646 40.6833C28.2085 40.6833 28.7895 40.4776 29.401 40.0677C31.4992 38.6606 33.5488 34.9568 33.5488 33.6046C33.5488 33.1849 33.3357 32.8619 32.9484 32.695ZM29.0934 39.6114C28.3388 40.1175 27.6643 40.2553 27.0898 40.0213C27.0741 40.0149 27.053 39.9999 27.035 39.9898C26.9971 39.9618 26.9833 39.9317 26.9775 39.8942C26.9496 39.7127 27.0529 39.1151 28.6119 37.4923C29.1883 36.8929 30.43 35.9354 31.4393 35.3125C31.5687 35.2325 31.6086 35.0632 31.5286 34.9341C31.4483 34.805 31.2788 34.7655 31.1491 34.845C30.1066 35.4884 28.8174 36.4844 28.2141 37.1122C27.2099 38.1573 26.6448 38.936 26.4776 39.5109C25.655 38.6745 24.3382 37.0106 23.4219 35.7827C25.4343 34.7405 27.0255 33.1377 27.9994 31.1558L28.7573 33.5669C28.345 33.7895 27.9907 34.0264 27.748 34.2539C27.6372 34.3578 27.6318 34.5318 27.736 34.6426C27.8405 34.7528 28.0147 34.7582 28.1257 34.6545C29.0954 33.7454 31.7803 32.7907 32.7294 33.1993C32.9176 33.2806 32.9978 33.4016 32.9978 33.6046C32.9978 34.6916 31.1505 38.2321 29.0934 39.6114Z" fill="black"/>
<path d="M18.0455 6.47525C18.1851 6.2647 18.4687 5.99173 19.0077 5.97183C19.716 5.94328 20.6068 6.19008 20.6454 6.2008C21.0085 6.29755 21.3568 6.47323 21.6844 6.70535C21.6852 6.7052 21.6862 6.70538 21.687 6.70523C21.9048 6.65903 22.2632 6.47453 22.2068 6.08173C22.1495 5.6827 22.0598 5.22495 22.0016 4.92043C21.9587 4.69585 21.8638 4.1935 21.3929 4.23648C20.922 4.27948 19.3668 4.4293 19.1391 4.46778C18.7163 4.53923 18.5356 4.7918 18.5356 4.7918C18.5356 4.7918 18.3247 4.5162 17.6794 4.56548L15.512 4.73105C15.3418 4.74405 15.176 4.78225 15.0174 4.84548C14.1505 5.19113 11.1958 6.3621 10.9792 6.4688C10.6802 6.61615 9.88348 8.17165 10.6784 8.17165C11.0799 8.17165 11.2299 7.16038 11.4638 7.04905C11.5995 6.98453 11.9592 6.8479 12.1088 6.78973C12.1682 6.7666 12.235 6.79328 12.2625 6.85063L12.7157 7.79275C12.7925 7.95233 12.9761 8.03025 13.1446 7.97478L14.753 7.5089C15.0574 7.22495 15.4081 6.99285 15.8129 6.83905C16.9702 6.39933 17.6925 6.41568 18.0455 6.47525Z" fill="black"/>
<path d="M18.2163 6.2963L18.0257 5.33018C18.0257 5.33018 18.0106 5.0632 17.725 5.0875L15.5054 5.2763C15.5054 5.2763 15.2297 5.2695 15.2915 5.59118L15.4774 6.5596C15.4774 6.5596 15.4895 6.79895 15.8741 6.76228L18.2622 6.53443L18.2163 6.2963Z" fill="black"/>
<path d="M21.6596 5.97908L21.4799 5.01125C21.4472 4.83558 21.2837 4.71513 21.1058 4.73568L19.183 4.95765C19.183 4.95765 18.8688 4.97745 18.9218 5.24903L19.1053 6.18885C19.1379 6.34875 19.3847 6.44353 19.5325 6.44353C19.5325 6.44353 21.2308 6.28113 21.4481 6.2595C21.71 6.23345 21.6596 5.97908 21.6596 5.97908Z" fill="black"/>
<path fill-rule="evenodd" clip-rule="evenodd" d="M17.309 5.03974C17.4252 5.1144 17.4588 5.26908 17.3842 5.38522L16.2592 7.13522C16.1845 7.25136 16.0298 7.28499 15.9137 7.21033C15.7975 7.13566 15.7639 6.98098 15.8386 6.86484L16.9636 5.11484C17.0382 4.9987 17.1929 4.96507 17.309 5.03974Z" fill="white"/>
<path fill-rule="evenodd" clip-rule="evenodd" d="M20.809 4.78974C20.9252 4.8644 20.9588 5.01908 20.8842 5.13522L19.7592 6.88522C19.6845 7.00136 19.5298 7.03499 19.4137 6.96033C19.2975 6.88566 19.2639 6.73098 19.3386 6.61484L20.4636 4.86484C20.5382 4.7487 20.6929 4.71507 20.809 4.78974Z" fill="white"/>
<path d="M26.3361 9.26578C25.2072 8.51513 23.7419 8.1384 23.0377 7.95738C22.9647 7.93868 22.9058 7.9233 22.8539 7.90938C22.5167 7.424 22.1193 7.01348 21.6844 6.7053C21.3568 6.47318 21.0085 6.2975 20.6454 6.20075C20.6068 6.19003 19.716 5.94323 19.0077 5.97178C18.4687 5.99165 18.1851 6.26465 18.0455 6.4752C17.6925 6.41563 16.9702 6.39933 15.8129 6.83905C15.4081 6.99285 15.0574 7.22495 14.753 7.5089C13.9694 8.23988 13.5026 9.32598 13.2835 10.3897C12.5561 10.8754 11.8073 11.5433 11.3804 12.3947C11.3124 12.5304 11.3676 12.6956 11.5037 12.7634C11.5433 12.7832 11.5853 12.7924 11.6267 12.7924C11.7279 12.7924 11.8251 12.7368 11.8734 12.6404C12.1652 12.0586 12.6474 11.558 13.1664 11.151C13.1634 11.1812 13.159 11.2121 13.1564 11.2421C13.0699 12.1412 13.1664 12.8386 13.3573 13.3841C13.0527 13.8125 12.7803 14.2888 12.5955 14.7976C12.5436 14.9402 12.6176 15.0978 12.7607 15.1495C12.7917 15.1607 12.8234 15.166 12.8546 15.166C12.9672 15.166 13.0731 15.0966 13.1137 14.9847C13.241 14.6342 13.4212 14.2946 13.6278 13.973C13.9922 14.5837 14.4839 14.9137 14.8577 15.0867C14.9581 15.1332 15.0634 15.1722 15.1705 15.2081C16.6228 19.0904 16.9912 23.4624 17.265 27.9817C17.3121 28.528 17.7232 28.9515 18.2216 28.9667C18.2298 28.9669 18.2381 28.9672 18.2464 28.9672C18.6537 28.9672 19.162 28.6631 19.2908 27.7962C19.9628 23.0096 19.9431 18.5331 19.7682 16.0116C19.7919 16.0038 19.8161 15.9983 19.8397 15.9899C19.9358 15.9556 20.0277 15.9152 20.1169 15.8713C21.2446 19.2016 21.4822 21.535 21.777 24.4614C21.8648 25.3324 21.9554 26.233 22.076 27.2382C22.1381 27.8114 22.5413 28.2269 23.0348 28.2269H23.036C23.4627 28.2262 23.9538 27.8938 24.0521 26.963C24.7484 20.4642 23.7802 14.8371 23.5092 13.4503C23.9537 12.9596 24.0034 12.357 24.0034 11.6989C24.0122 11.2926 23.9747 10.8861 23.9041 10.487C24.4137 10.8018 25.1404 11.3085 25.7511 11.9996C25.8054 12.0613 25.8815 12.0928 25.9579 12.0928C26.0227 12.0928 26.0878 12.0702 26.1401 12.0241C26.2542 11.9239 26.2652 11.7501 26.1646 11.6363C25.2749 10.6294 24.173 9.9967 23.7289 9.74553C23.6078 9.34025 23.4521 8.94918 23.2629 8.58473C24.0022 8.78345 25.1417 9.13215 26.0303 9.72303C26.0773 9.75425 26.1304 9.76925 26.183 9.76925C26.272 9.76925 26.3594 9.7263 26.4125 9.6469C26.4969 9.5205 26.4625 9.34995 26.3361 9.26578ZM19.7231 15.4427C19.6831 14.9944 19.6383 14.6341 19.5935 14.3734C19.792 14.2371 19.9846 14.0929 20.1614 13.9323C20.2657 14.0068 20.3837 14.0624 20.4864 14.1022C20.6006 14.1465 20.7364 14.1843 20.8848 14.2138C20.6545 14.8162 20.2644 15.2281 19.7231 15.4427ZM23.4524 11.693C23.4524 12.3283 23.4148 12.7947 23.019 13.1635C22.9335 13.2396 22.8447 13.3051 22.7546 13.3622C22.6679 13.4156 22.5714 13.467 22.462 13.5163C22.38 13.5534 22.2981 13.5812 22.2165 13.6074C22.1632 13.6238 22.111 13.6382 22.0598 13.6503C22.0336 13.6567 22.0075 13.6626 21.9814 13.668C21.9056 13.6836 21.8329 13.6954 21.7655 13.7036C21.7344 13.7072 21.7034 13.7106 21.6729 13.7129C21.6295 13.7167 21.5883 13.7195 21.5509 13.721C21.1107 13.7329 20.7387 13.628 20.5499 13.5281C20.8913 13.104 21.5393 12.0736 21.1627 10.6963C21.1227 10.5499 20.9714 10.4629 20.8243 10.5035C20.6775 10.5434 20.5909 10.6944 20.631 10.841C21.0314 12.3053 20.0222 13.3023 19.979 13.3441C19.9783 13.3448 19.9781 13.3458 19.9773 13.3465C19.976 13.3477 19.9744 13.3485 19.9731 13.3498C19.7281 13.5998 19.4476 13.8221 19.1452 14.0147L19.1446 14.015C18.7131 14.2811 18.2636 14.4828 17.8153 14.624C17.7435 14.6459 17.6715 14.6674 17.5993 14.6862C17.5682 14.6946 17.5372 14.7013 17.5061 14.709C16.8959 14.8564 16.2844 14.8879 15.7419 14.7878C15.6786 14.7756 15.6155 14.7629 15.554 14.747C15.3915 14.7063 15.2349 14.6554 15.0897 14.5882C14.5877 14.3556 14.2176 13.9781 13.9815 13.4718C14.6437 12.6119 15.4328 11.9472 15.7945 11.6926C15.9189 11.6051 15.9485 11.4336 15.8606 11.3097C15.773 11.1857 15.6007 11.1559 15.4766 11.2437C15.463 11.2532 14.5929 11.8748 13.7736 12.8491C13.6735 12.3984 13.6488 11.8788 13.7052 11.2925C13.7218 11.1053 13.7467 10.9136 13.7799 10.7201C14.4089 10.3233 15.0065 10.0683 15.309 9.9838C15.4556 9.94293 15.5411 9.79118 15.5 9.64503C15.459 9.49888 15.3076 9.41385 15.1603 9.4546C14.9584 9.511 14.495 9.68925 13.9488 9.98643C14.2783 8.84103 14.9292 7.76295 16.0092 7.35263C16.7703 7.0635 17.3096 6.99615 17.6471 6.99615C17.9409 6.99615 18.0817 7.04728 18.0825 7.0475C18.0919 7.05153 18.102 7.05508 18.1117 7.058C18.1155 7.0591 18.4892 7.17328 18.7646 7.40558C18.8376 7.46718 18.9197 7.546 19.0062 7.62883C19.3857 7.99213 19.7774 8.3675 20.159 8.1955C20.4917 8.04473 20.4526 7.65238 20.4212 7.33703C20.4048 7.17343 20.3847 6.96995 20.4236 6.87943C20.4718 6.76708 20.5261 6.74683 20.5514 6.744C21.278 6.94703 21.9438 7.5124 22.4546 8.27433C22.4591 8.28315 22.4649 8.2906 22.4703 8.29893C22.8001 8.7968 23.0641 9.3761 23.2347 9.99518C23.2364 10.0027 23.2389 10.0095 23.2413 10.0169C23.388 10.5569 23.4646 11.1253 23.4524 11.693Z" fill="black"/>
<path d="M21.4531 14.2735C21.2254 14.9801 20.8345 15.3815 20.5984 15.5711C21.7834 19.0278 22.0232 21.408 22.3251 24.4064C22.4127 25.2748 22.5033 26.1726 22.6234 27.1759C22.6589 27.5026 22.8617 27.6771 23.0347 27.6771H23.0352C23.2703 27.6768 23.4543 27.3736 23.5039 26.9049C24.1508 20.8667 23.3442 15.5917 23.0229 13.8447C22.4208 14.2176 21.8001 14.273 21.4531 14.2735Z" fill="white"/>
<path d="M19.0853 14.6836C18.0008 15.2656 16.8313 15.5068 15.8154 15.3631C17.189 19.2267 17.5466 23.5189 17.8146 27.9415C17.8404 28.2404 18.0523 28.4114 18.2384 28.4173H18.2487C18.4911 28.4173 18.6809 28.1506 18.7452 27.7177C19.5662 21.869 19.3488 16.5133 19.0853 14.6836Z" fill="white"/>
<path d="M47.5488 31.25H43.0488V25.25H41.5488V19.25H40.0488V14.75H38.5488L38.5488 10.25L41.5488 10.25L41.5488 14.75H43.0488V19.25H44.5488V26.75H46.0488V22.25H47.5488V14.75H49.0488V10.25H53.5488V14.75H55.0488V22.25H56.5488V26.75H58.0801V19.25H59.5488V14.75H61.0488V10.25H63.6738V14.75H62.5488V19.25H61.0488V25.25H59.5488V31.25H55.0488V28.25H53.5488V22.25H52.0488V14.75H50.5488V22.25H49.0488V28.25H47.5488V31.25Z" fill="black"/>
<path d="M66.2988 31.25H63.2988V26.75H64.7988V22.25H66.2988V17.75H67.7988V13.25H69.2988V10.25H73.7988V13.25H75.2988V17.75H76.7988V22.25H78.2988V26.75H79.7988V31.25H76.7988V26.75H66.2988V31.25ZM67.7988 23.75H75.2988V22.25H73.7988V17.75H72.3039V14.8051H70.7703L70.7988 17.75H69.2988V22.25H67.7988V23.75Z" fill="black"/>
<path d="M96.2988 31.25H82.0488V10.25H85.0488V28.25H96.2988V31.25Z" fill="black"/>
<path d="M101.549 31.25H98.5488V10.25H112.049V11.75H113.549V13.25H115.049V20H113.549V21.5H112.049V23H113.549V24.5H115.049V31.25H112.049V26H110.549V24.5H109.049V23H101.549V31.25ZM101.549 20H110.549V18.5H112.049V14.75H110.549V13.25H101.549V20Z" fill="black"/>
<path d="M129.299 31.25H120.299V29.75H118.799V28.25H117.299V10.25H120.299V26.75H121.799V28.25H127.799V26.75H129.299V10.25H132.299V28.25H130.799V29.75H129.299V31.25Z" fill="black"/>
<path d="M148.049 31.25H137.549V29.75H136.049V28.25H134.549V25.25H137.549V26.75H139.049V28.25H146.549V26.75H148.049V23.75H146.549V22.25H139.049V20.75H136.049V19.25H134.549V13.25H136.049V11.75H137.549V10.25H148.049V11.75H149.549V13.25H151.049V16.25H148.049V14.75H146.549V13.25H139.049V14.75H137.549V17.75H139.049V19.25H146.549V20.75H149.549V22.25H151.049V28.25H149.549V29.75H148.049V31.25Z" fill="black"/>
</svg>
