<svg xmlns="http://www.w3.org/2000/svg" xml:space="preserve" style="enable-background:new 0 0 500 500" viewBox="0 0 500 500"><ellipse cx="250.8" cy="249.3" rx="246.6" ry="244.6" style="fill:#f79e24"/><path d="M247.7 246.4c.4-2.6 1.1-5.2 1.1-7.7.1-17.8 0-35.6 0-53.4 0-3 .1-6.1.8-9 2-9.4 9.1-16.1 18.5-17.8 5.6-1 7.4.3 7.5 6 .2 6.1.1 12.1.1 18.2v44.4c35.4-12.8 60.6-2.2 76 32.2 7.4-6.5 14.4-12.4 21.2-18.7 7.2-6.6 15-12.1 24.5-15 23.7-7.3 51.4 5.1 61.5 27.6 2.3 5.2 2 7.1-1.9 11.1-5.1 5.2-10.3 10.3-15.8 15.7-.9-5.1-1-9.8-2.5-13.9-6.6-18.5-28.7-24.7-43.7-12-11.2 9.6-21.7 20-32.3 30.3-7.3 7.1-14.3 14.6-21.4 22-14.1 14.6-30.7 22-51.2 17.6-16.6-3.6-28.6-13.2-36.1-28.5-1.6-3.3-1.5-6 1.6-8.5 5.5-4.5 10.9-9.2 17.1-14.5.7 2.9 1.1 4.9 1.6 6.8 3.6 14.7 18.9 24.6 32.8 21.1 16.4-4.1 25.4-18.6 21.5-34.4-4.4-17.8-27.3-26.7-41.9-15.6-11.3 8.6-21.6 18.4-32.1 28-1.9 1.7-2.8 4.9-3.5 7.6-5.5 21.7-22.4 36.7-45.6 39.1-19.8 2-40-7.5-50.6-27.1-3.7-6.9-3.6-7.5 2.1-12.4 4.9-4.2 9.8-8.3 15.6-13.3.5 2.9.8 4.6 1.1 6.3 2.9 16.2 18 26.3 34.2 22.9 14.8-3.1 24.3-18.8 20.5-34.1-4.8-19.4-28.3-28-43.8-15.6-10.9 8.7-21.4 18.2-31.7 27.7-2 1.9-3.3 5.6-3.4 8.5-.4 10-.2 20.1-.3 30.1 0 2.2-.5 4.3-.8 6.7-9.3 1.4-15.9-2.4-21.8-8.9-16.4 9.2-33.2 10.6-50.3 3C64.9 313.8 57 305 51.6 294c-10.8-21.8-3.9-48.8 16.2-64 8.1-6.1 17.4-9 27.5-9.7 10.1-.7 19.6 1.3 28.5 6.1 8.8 4.8 15.1 12.3 20.8 20.5.5-.1 1.1-.1 1.6-.2.3-2.6.9-5.2.9-7.8.1-23.7 0-47.4 0-71.1 0-2.6.2-5.2.3-7.7 6.4-2.8 15.3-.1 20.5 6 3.7 4.3 5.6 9.3 5.6 15.1-.1 13.1 0 26.2 0 39.2 0 2.4.2 4.7.4 7.8 29.3-12.8 53.2-7 71.9 18.5.6-.1 1.2-.2 1.9-.3zM71 271.8c-.1 15.4 12.1 28 27.4 28.2 15.7.2 28.4-12.3 28.4-27.8 0-15.6-11.9-28-26.7-28.1-16.4-.2-29 11.9-29.1 27.7z" style="fill:#191b2d"/><path d="M416.4 305.1c-6.1 6.1-12.1 12.2-18.3 18.1-.8.8-3 .8-4.3.4-13.9-5-23.8-14.5-29.4-28.1-.5-1.3-.2-3.7.7-4.6 5.8-5.4 11.8-10.5 18.8-16.6 2.8 19.2 13.2 28.9 31.7 29.5.3.4.6.8.8 1.3z" style="fill:#191b2d"/></svg>