<svg xmlns="http://www.w3.org/2000/svg" xml:space="preserve" style="enable-background:new 0 0 500 500" viewBox="0 0 500 500"><path d="M214.256 347.921c-13.84 1.81-32.129-11.681-31.711-30.955.4-18.428 12.818-31.669 32.733-31.847 15.979-.143 30.657 15.183 30.373 30.901-.336 18.602-13.422 31.899-31.395 31.901zm144.08-96.606c-.139-18.327-11.864-31.119-30.849-31.89-16.51-.671-29.869 11.694-31.762 27.794-2.22 18.879 11.593 34.659 30.228 35.272 17.277.795 32.519-13.322 32.383-31.176zm-144.395-96.978c-13.37.011-31.435 10.947-31.633 31.392-.16 16.546 12.523 31.51 31.927 31.737 17.472.205 30.8-13.616 30.805-31.714 1.332-16.484-14.767-31.428-31.099-31.415zm-37.252 128.824c17.763-.532 30.665-12.901 31.239-31.65.517-16.896-14.318-31.607-31.289-31.76-17.287-.157-31.333 13.905-31.338 31.371-1.308 17.748 14.306 32.55 31.388 32.039zm80.958-97.277c.735 18.227 11.667 30.415 30.604 31.296 19.639.914 31.982-15.875 32.339-31.047.362-15.403-13.791-32.932-31.733-31.554-15.539-1.745-31.917 13.786-31.21 31.305zm31.643 99.283c-18.972.445-30.924 12.517-31.355 31.285-.428 18.664 15.582 31.676 31.928 31.691 16.127.015 32.38-15.742 30.366-31.094 1.934-15.699-11.604-32.335-30.939-31.882zM140.462 168.401c-10.217-.308-18.017 7.015-18.26 17.142-.278 11.625 6.641 19.457 17.372 19.665 10.222.199 17.822-7.171 18.062-17.513.251-10.784-7.052-18.989-17.174-19.294zm204.322 18.291c.109 9.798 8.053 17.497 18.194 17.631 10.297.136 18.786-8.052 18.622-17.962-.169-10.222-8.246-18.007-18.643-17.971-10.106.036-18.285 8.273-18.173 18.302zM233.081 122.58c-.614 9.364 8.61 17.582 18.26 17.466 9.885-.118 18.282-8.249 18.231-17.653-.058-10.721-7.485-18.421-17.844-18.5-12.818.175-17.948 8.034-18.647 18.687zm130.927 174.712c-9.831-.207-18.721 8.106-19.205 17.957-.462 9.403 8.292 18.365 18.347 18.783 9.487.394 18.291-8.365 18.455-18.36.156-9.435-8.22-18.183-17.597-18.38zm-223.504 36.97c9.34-.112 18.987-8.887 18.156-17.786-.971-10.386-5.56-17.856-18.273-18.193-10.442-.277-18.079 7.048-18.102 17.109-.028 11.473 7.24 19.001 18.219 18.87zm128.343 46.177c.017-10.207-8.22-18.247-18.47-18.03-9.989.212-17.785 8.023-17.799 17.831-.015 10.917 7.293 18.394 17.957 18.371 10.269-.022 18.295-7.986 18.312-18.172zm150.413-145.16c-8.108-.177-15.804 6.934-16.121 14.896-.328 8.232 7.079 16.265 15.497 16.349 6.969.069 15.587-5.083 15.336-15.218.24-8.485-6.519-15.848-14.712-16.027zM152.831 107.864c.349 8.197 7.217 14.33 15.632 13.958 8.646-.382 14.743-7.278 14.341-16.222-.389-8.651-7.515-15.738-15.515-15.428-9.011.348-14.889 7.542-14.458 17.692zM84.528 235.919c-7.949-.048-15.8 7.583-15.909 15.463-.112 8.132 7.314 15.661 15.466 15.681 8.573.02 15.179-6.27 15.223-14.498.054-9.867-5.918-16.592-14.78-16.646zm68.447 160.106c-.046 9.102 6.607 16.24 15.232 16.341 8.532.1 15.381-7.027 15.451-16.078.063-8.229-6.446-14.679-14.891-14.755-9.199-.081-15.749 5.928-15.792 14.492zm182.522-14.923c-8.641.161-15.444 7.114-15.265 15.599.17 8.044 7.671 15.614 15.499 15.641 7.545.026 15.193-8.038 15.186-16.01-.008-8.532-6.95-15.388-15.42-15.23zm-.884-260.177c8.585.163 15.701-6.354 16.083-14.729.355-7.789-7.283-15.855-15.207-16.06-8.824-.228-15.095 5.97-15.269 15.092-.181 9.452 5.389 15.527 14.393 15.697zm-83.367-63.482c6.966-.003 12.246-5.493 12.205-12.691-.044-7.693-4.708-12.779-11.851-12.924-7.403-.15-12.745 5.297-12.696 12.943.046 7.111 5.465 12.675 12.342 12.672zM72.994 367.774c6.573.438 13.502-6.125 13.529-12.812.024-6.169-6.29-12.756-12.597-13.14-5.848-.356-12.877 6.433-13 12.556-.133 6.623 5.579 12.963 12.068 13.396zm177.618 77.15c-6.284.045-12.5 6.379-12.607 12.845-.108 6.523 5.889 12.792 12.342 12.9 6.837.114 13.17-6.239 13.091-13.133-.072-6.246-6.592-12.657-12.826-12.612zM442.93 147.25c-.235-6.159-6.871-12.479-13.164-12.537-6.016-.055-12.899 6.869-12.829 12.905.073 6.194 6.866 13.2 12.671 13.069 6.387-.146 13.553-7.373 13.322-13.437zm.052 206.379c-.142-6.791-5.7-11.899-12.885-11.844-6.815.053-12.72 5.925-12.472 12.402.262 6.861 5.772 12.175 12.599 12.151 7.825-.027 12.918-5.099 12.758-12.709zM60.859 148.479c-.128 7.394 4.829 12.289 12.391 12.236 7.392-.051 12.353-5.127 12.17-12.453-.184-7.418-4.997-12.122-12.376-12.096-7.252.025-12.056 4.88-12.185 12.313zm294.065-94.342c-.111 6.337 4.321 9.32 9.485 9.621 5.394.314 9.472-2.768 9.72-9.043.237-5.99-3.565-10.432-9.169-10.603-5.258-.161-9.938 4.408-10.036 10.025zM14.917 251.595c-.185 4.614 5.587 10.89 10.198 10.242 5.356-.752 9.29-3.9 9.642-9.785.326-5.448-4.453-9.971-10.075-9.989-4.987-.016-9.561 4.448-9.765 9.532zm340.749 196.564c-.124 4.763 5.169 9.906 10.274 9.983 4.189.063 9.745-5.725 9.466-10.213-.367-5.909-3.863-8.919-8.323-9.444-7.329-.121-11.261 3.653-11.417 9.674zM138.314 44.356c-5.112-.997-9.85 4.294-9.945 10.061-.095 5.788 2.844 9.029 8.448 9.571 6.085.588 10.352-3.362 10.551-10.562.446-5.216-3.805-8.046-9.054-9.07zM488.202 250.84c-.378-5.659-3.593-9.484-9.377-10.243-5.306-.696-9.561 4.131-9.845 10.165-.316 6.717 4.158 8.484 8.559 9.664 5.929.115 11.003-4.501 10.663-9.586zM139.434 438.531c-4.58-.478-11.161 4.917-10.851 9.602.371 5.603 3.75 9.612 9.446 10.102 5.732.492 9.389-2.699 10.192-7.181.666-6.911-3.383-11.959-8.787-12.523z" style="fill:#1f6fcd"/></svg>