<svg viewBox="0 0 24 24" fill="none" xmlns="http://www.w3.org/2000/svg">
<path d="M12 24C18.6274 24 24 18.6274 24 12C24 5.37258 18.6274 0 12 0C5.37258 0 0 5.37258 0 12C0 18.6274 5.37258 24 12 24Z" fill="#7A57DD"/>
<path d="M11.9987 4.00002V9.91335L16.9967 12.1467L11.9987 4.00002Z" fill="white" fill-opacity="0.602"/>
<path d="M11.9986 4.00002L6.99998 12.1467L11.9986 9.91335V4.00002Z" fill="white"/>
<path d="M11.9987 15.9787V19.9967L17 13.0773L11.9987 15.9787Z" fill="white" fill-opacity="0.602"/>
<path d="M11.9986 19.9967V15.978L6.99998 13.0773L11.9986 19.9967Z" fill="white"/>
<path d="M11.9987 15.0486L16.9967 12.1466L11.9987 9.91464V15.0486Z" fill="white" fill-opacity="0.2"/>
<path d="M6.99998 12.1466L11.9986 15.0486V9.91464L6.99998 12.1466Z" fill="white" fill-opacity="0.602"/>
</svg>
