<svg viewBox="0 0 24 24" fill="none" xmlns="http://www.w3.org/2000/svg">
<path d="M12 24C18.6274 24 24 18.6274 24 12C24 5.37258 18.6274 0 12 0C5.37258 0 0 5.37258 0 12C0 18.6274 5.37258 24 12 24Z" fill="#F49B33"/>
<path d="M16.4211 9.54844C16.3032 8.04298 15.0139 7.51654 13.3785 7.3442L13.4148 5.25908L12.1462 5.23753L12.1104 7.26769C11.7769 7.2613 11.4364 7.26241 11.0966 7.26334L11.1331 5.21989L9.86433 5.19763L9.82784 7.28205C9.55302 7.28261 9.28269 7.2836 9.01972 7.2785L9.01967 7.27193L7.26924 7.24096L7.24576 8.59625C7.24576 8.59625 8.18359 8.59472 8.16774 8.61154C8.68175 8.62084 8.84343 8.92208 8.88783 9.18092L8.84677 11.556C8.88202 11.5566 8.92795 11.5592 8.98088 11.5667L8.84662 11.5647L8.78851 14.8922C8.76277 15.0531 8.66326 15.3094 8.30368 15.3039C8.32019 15.3184 7.38156 15.2879 7.38156 15.2879L7.10293 16.7987L8.75488 16.8275C9.0619 16.8334 9.36417 16.8441 9.66046 16.851L9.62439 18.9595L10.8923 18.9812L10.9286 16.896C11.2766 16.9086 11.6135 16.9171 11.9425 16.923L11.9056 18.9995L13.1741 19.021L13.2112 16.9167C15.3472 16.8316 16.8496 16.3202 17.07 14.3198C17.2481 12.7095 16.5019 11.9758 15.2957 11.6641C16.0385 11.3025 16.5095 10.6505 16.4211 9.54844ZM14.5665 14.0263C14.5406 15.6022 11.8448 15.3756 10.9845 15.3614L11.0342 12.5676C11.8948 12.5831 14.5958 12.3829 14.5665 14.0263ZM14.0453 10.0743C14.0203 11.5081 11.7728 11.301 11.057 11.2885L11.1011 8.75551C11.8169 8.76794 14.0715 8.57868 14.0453 10.0743Z" fill="white"/>
</svg>
