<svg width="24" height="24" fill="none" xmlns="http://www.w3.org/2000/svg"><path d="M12 24c6.627 0 12-5.373 12-12S18.627 0 12 0 0 5.373 0 12s5.373 12 12 12z" fill="#988430"/><path d="M12 23.616c6.415 0 11.616-5.2 11.616-11.616C23.616 5.585 18.416.384 12 .384 5.585.384.384 5.584.384 12c0 6.415 5.2 11.616 11.616 11.616z" fill="#7A6A2A"/><g clip-path="url(#clip0_2359_2518)"><rect x=".63" y=".63" width="22.74" height="22.74" rx="11.37" fill="#BA9F33"/><path d="M9.76 17.329l-.38-.72.22-.901 1.58-.61-.672-1.379.332-1.392.623-1.246 1.926-.303 1.416-1.35 3.056.231.6 3.268-1.155 4.115-.659 2.13-2.667.1-1.24-.857-1.45-.606-1.53-.48z" fill="#E2CC85"/><path d="M14.44 17.306s-.37.169-.998.13c-.183-.245-1.459-.36-1.459-.36s-.159-.048-.44.069c-.284.114-.552.1-.802.163-.25.062-.5-.264-.692-.332a2.686 2.686 0 01-.446-.245l-.538-.052-1.08-.457-1.714-1.709-.466.73-.144.903.519 1.07 1.396 1.272 2.722.692 1.614-.476 2.02-.855.508-.543z" fill="#F1D789"/><path d="M4.768 11.267l.345-1.047.412-.675 1.326-.111-.398 1.161-1.108 1.973.46 1.761-.816.408-.25-.385-.202-.881-.014-.99.245-1.214z" fill="#F4ECB4"/><path d="M6.255 17.234l-.254-.355s-.068-.17-.03-.317c.04-.15.034-.16.014-.216-.02-.056-.182-.25-.172-.417.01-.169-.014-.225.11-.36.13-.13.091-.355.091-.355l.17.105.038-.058s.062.049.062.124c.014-.104-.042-.59.086-.7.13-.111.355.518.355.518l-.14-.913-.359-.936-.639-.854-.039-.942v-.081s-.293.45-.374.805c-.059.245.081.542.052.894-.023.35-.052.322.033.46.086.138.293.423.212.629-.072.177-.317.052-.317.052s-.048.144-.114.197a.436.436 0 00-.095-.193.996.996 0 01-.014.078s-.043-.134-.085-.303c-.059-.225-.12-.522-.177-.681-.023.09-.082.368-.082.368l.033.428.16.586.153.384.15.47.13.317.104.24.092.542.44.466.235.105.171-.087z" fill="#F3E19D"/><path d="M4.999 10.412s-.317.538-.408 1.08c-.091.542-.173 1.115-.114 1.853.058.743.169 1.2.258 1.526.153.541.551 1.295.551 1.295l.014-.03s-.105-.191-.16-.397c-.052-.206-.071-.45-.12-.561-.042-.111-.114-.206-.15-.342-.032-.13-.038-.336-.139-.49a.992.992 0 01-.11-.388c-.02-.245.009-.518-.014-.744-.043-.374-.072-.629-.033-.825.039-.196.24-.753.365-1.196.081-.283.033-.522.182-.769.15-.244.241-.46.274-.61.039-.135-.396.598-.396.598z" fill="#F2E8B0"/><path d="M6.5 10.197s-.163.049-.24.134c-.079.082-.112.15-.216.287-.105.14-.111.25-.197.424-.085.169-.273.423-.297.514-.023.092-.062.519-.11.72-.043.203.048.451.048.451l.11-.023s0 .143.112.24c.11.096.13-.322.13-.322l.413-1.396.624-.423.068-.342-.445-.264z" fill="#F5EEC0"/><path d="M6.803 10.83s-.293.02-.437.124c-.058.043-.082.078-.144.13-.114.096-.23.183-.287.307-.062.124-.13.313-.177.668-.02.15-.02.288-.033.408-.02.163-.048.293-.033.384.02.187.212.284.231.495l.398-.201.375-1.478.796-.5-.45-.504-.24.167z" fill="#E6DB9D"/><path d="M6.865 24.02l-1.777.043-.942-.072.072-.854a4.14 4.14 0 01.177-.441.997.997 0 00-.014-.515c.043-.068.177-.104.327-1.444.058-.5.068-.878.11-1.115.062-.336.105-.46.095-.586-.013-.202-.029-.35-.01-.505.03-.206.232-.45.226-.62-.004-.133-.072-.22-.13-.302l-.105-.15s.398-.274.394-1.377c.014.004.024.01.024.01l.196.557.134.163.514.96.662.643.979.658.614.668.062 1.78-.802 1.041-.806 1.458z" fill="#E5CB7A"/><path d="M7.152 22.484s.014-.221.196-.365c.03.049.049.096.043.13a1.16 1.16 0 01.787-.528c.522-.095.648-.476.648-.476l1.109-1.007 1.268-1.167 1.542-.542.72-.177s.014.053-.014.17a3.52 3.52 0 00.74-.187c.124-.049.24-.068.303-.004.091.085.105.287.11.408.15-.033.323-.177.461-.163.221.023.417.283.643.283.297 0 .43-.182.638-.326.125-.085.303-.192.404-.264.241-.177 2.789-.955 2.789-.955l.893.058.144.959-.078 2.52-4.09 2.136-6.446.989-2.625-.672-.185-.82z" fill="#D8C173"/><path d="M4.426 24.026s.235-.532.346-1.3c.091-.63.01-.774.033-.976.033-.302.375-.893.404-1.007.023.235.09 1.122.336 1.32-.053.078-.14.346.172.552-.052.11-.159.244-.09.446.067.202.149.49.11.806a.667.667 0 00-.326.163c-.096.085-.985-.004-.985-.004z" fill="#F1D789"/><path d="M8.453 23.655l1.431-.398.063.02s.033.019.033.085c.09-.052.168-.043.225-.078.029.063.058.268.186.294.134.029.278-.059.424-.17.143-.114.306-.258.43-.316.024.039.082.16.12.258.164-.13.447-.658.851-.648.04-.091.183-.424.562-.678.374-.254.61-.274.902-.25.115-.15.265-.284.424-.379.048.02.182.101.35.023.168-.077.358-.378.609-.417a.589.589 0 01.388.081s.73-.724 1.233-.965c-.019-.058-.058-.277.532-.763.033.03.01.111.033.115.01 0 .154-.062.336-.202.226-.169.495-.346.659-.394.306-.091.633.095.633.095s.038-.03.09-.043c.079-.013.135-.023.178-.039-.004.101.052.274 0 .424 0 0 .081.048.192.081-.033.072-.105.255-.225.342.1.049.114.105.258.153a2.928 2.928 0 00-.196.307c-.043.091-.196.47-.264.614-.072.143-.17.408-.216.46-.049.052-.215.278-.346.388.115-.043.587-.186.787-.24-.12.176-1.233 1.829-1.233 1.829l-2.24.668-1.1.186-5.726-.004-.505-.25.122-.189z" fill="#E0CD81"/><path d="M6.851 10.778s-.169 0-.202.023.17.072.231.095a.53.53 0 01.232.216c.033.081 1.213.557 1.213.557l.835-.043.287-.398-.547-.48.384-1.132-.508.082-1.224.73-.613.235-.088.115z" fill="#DFC57C"/><path d="M8.684 11.152s.033.063.115.063c.173 0 .332.042.398.13.11.14.417.586.417.586l.734.264.049-.864-.802-.557-.913.336v.042h.002z" fill="#E5CC7C"/><path d="M8.54 11.473s.135.01.304-.053c.169-.062.446-.196.567-.143.169.071.134.297.316.499.11.124.313.12.427.254.115.134.509.072.509.072l.15.806-.6.769-.197.955h-.811l-.742-.293-.365-.884.182-.893.26-1.09z" fill="#D2C281"/><path d="M10.11 11.512s.029.01.062.01c-.024.019-.072.061-.053.172.02.11.082.25.03.336.023.03.058.062.09.16.034.094.043.182.259.195-.049.03-.085.068-.085.068s.149.13.225.25c.077-.003.283-.067.283-.067l.043.029.091-.039s-.085-.033-.023-.24c.058-.183.11-.173.114-.187a1.99 1.99 0 00.043-.284c.03-.1.053-.407.053-.407l-.063-.678-.349-.212-.284-.273-.268.504-.176.177-.014.437.022.049z" fill="#E2C270"/><path d="M10.95 10.945s.063.176.086.312c.013-.043.013-.081.013-.081s.049.268.059.378c.02-.004.038-.01.042.01.004.02.049.235.04.355a.97.97 0 01.325-.326.57.57 0 01.264-.105c.15-.004.259.095.437.095.432 0 .822-.316 1.11-.413.21-.072.393-.124.521-.241.063-.052.173-.169.274-.342.134-.23.274-.43.414-.456-.11.02-.192.014-.192.014s.042-.043.114-.101c.072-.059.16-.13.284-.13.221 0 .332.033.456.033.124-.004.196-.033.196-.033s.13.09.423.09c.294.005.49.03.643.043.154.014.668-.042.816-.038a.692.692 0 01.277.068l-.475-1.383-1.71-1.493-1.017.72-1.565 1.565-1.514.561-.317.356v.542h-.004z" fill="#CCB360"/><path d="M14.348 10.152s.043-.042.115-.1c.072-.059.16-.13.284-.13.22 0 .332.032.456.032.124-.004.196-.033.196-.033s.13.091.423.091c.293.004.49.03.643.043.153.014.668-.043.816-.039.153.004.277.068.277.068l-.215-.623-.25-.476-.715-.782-.864-.509a11.637 11.637 0 00-.298-.081l-.776.47-.705 1.823-.014.384.457.216c.114-.193.24-.346.359-.365-.107.011-.189.011-.189.011z" fill="#D5B457"/><path d="M14.339 10.282c-.068.004-.125-.01-.14-.058-.058-.163-.105-.186-.153-.186-.049 0-.115.105-.154.114-.039.01-.085-.12-.085-.12l-.043-.02s-.25.164-.427.356c-.177.192-.466.518-.596.577-.13.058-.577.077-.73.11a.94.94 0 00-.346.17c-.023.024.068.052.082.077.013.023-.15.013-.164.039-.01.02.04.13.063.186a.318.318 0 01.133-.033c.15-.004.259.095.437.095.432 0 .822-.316 1.11-.413.21-.072.393-.125.521-.241.063-.053.173-.17.274-.342.074-.118.146-.229.218-.31z" fill="#D2B257"/><path d="M8.156 19.892s-.039-.144-.394-.514c-.1-.105-.163-.193-.231-.255-.169-.159-.268-.202-.388-.293-.264-.196-.552-.196-.773-.437-.222-.24-.48-.7-.658-1.17-.177-.47-.226-.62-.226-.634 0-.013.049-.105.111-.091.062.014.062.134.078.163.004.01.048.072.105.134.09.105.22.231.287.417-.014-.159-.068-.335-.068-.335s.342.215.633.44c.293.226.414.303.499.447.085.144.287.522.384.633.098.11 1.422.528 1.422.528l.629.47.313.686-.245.384-.47.1-.763-.34-.245-.333z" fill="#D2B159"/><path d="M6.461 17.531s.16.254.548.495c.35.212.903.404 1.396.519.283.067.567.12.821.124.686.01 1.157-.187 1.742-.25.316-.034.705-.059 1.109-.154.518-.124.825-.264 1.242-.46.303-.14.58-.245.806-.379.317-.186.548-.394.816-.456-.033.091-.068.254-.332.423.14-.004.332-.014.332-.014s-.187.111-.515.36c-.202.153-.47.413-.744.586-.176.11-.369.192-.495.258-.306.17-.43.255-.633.46a.269.269 0 01.078 0s-.254.034-.437.13c-.039 0-.105-.013-.221.02-.092.03-.212.095-.336.13-.177.053-.235.03-.235.03l.029.058s-.231-.004-.307.003c.014.004.01.01.01.01s-.01 0-.039.014c-.023.013-.062.039-.12.052-.024.004-.043.004-.072.01.01.023.085.153.12.231-.029.02-.466.35-.466.35s.02.029.033.067c.014.043.02.105.033.134.033.059.053.068.053.068s-.053.01-.144.033c-.078.02-.173.053-.307.072-.039.004-.081.01-.124.01.02.043.105.206-.053.394-.159.186-.205.216-.254.336-.014-.01-.039-.03-.078-.049-.052-.023-.124-.058-.15-.104a1.06 1.06 0 01-.057.182c-.049.13-.12.258-.134.355-.053-.058-.15-.172-.284-.149-.134.023-.24.206-.264.258 0-.033-.023-.058-.03-.02-.003.044-.077.49-.488.851-.004-.09-.004-.293-.014-.359-.039.039-.085.095-.365.216-.274.12-.231.24-.231.24s-.023-.192.124-.394c.15-.202.24-.297.24-.312a.087.087 0 00-.018-.043c-.02-.02-.059-.043-.059-.058.024-.01.255-.12.241-.35a.62.62 0 00-.163-.388c-.01-.01.091-.082.078-.105-.01-.014-.134-.105-.15-.154.004-.023.01-.062.02-.085.013-.043.023-.072.019-.1a.806.806 0 00-.078-.197c.014.004.11 0 .11 0s-.077-.124-.09-.183c-.014-.058-.043-.211-.059-.24.033.004.115.01.115 0 .004-.03-.072-.078-.039-.115a.192.192 0 01.11.078c-.022-.062-.061-.183-.143-.231a.353.353 0 01.284.02.38.38 0 01.153.162s.068.053.173.13c.12.096.274.231.518.327.053.029.187.029.284.01.058-.014.091-.034.12-.05.023-.013.043-.019.043-.019s-.039-.077-.072-.12c.033 0 .072.004.072.004s.023-.053-.082-.154c.024-.023.053-.038.053-.077-.033-.004-.091-.053-.105-.072.02-.014.048-.058.081-.072-.029-.023-.1-.12-.133-.13.033-.01.09-.043.09-.043s-.162-.043-.215-.077c-.052-.04-.13-.105-.176-.125-.049-.02-.134-.029-.17-.068.034.01.086 0 .125 0 .029 0 .043.004.052.004-.004-.013-.004-.043.072-.052a.356.356 0 00.105-.033s-.072-.004-.153-.082c-.082-.077-.15-.14-.197-.15-.048-.009-.14.034-.196.03-.077-.01-.11-.049-.11-.049s-.259.024-.831-.326c-.496-.303-.711-.57-.711-.57s-.058-.02-.134-.063c-.186-.097-.445-.299-.437-.563z" fill="#C2A44D"/><path d="M13.605 5.877s.068.019.114.077c.092.105.15.303-.058.515.082.029.115.039.187.029-.072.085-.236.268-.245.427-.01.13.072.17.072.17s-.125.143-.13.384c.029-.033.095-.105.192-.183a5.1 5.1 0 01.476-.326.276.276 0 00.013.1s.25-.205.46-.114c.095.043.053.177.053.177s.13-.049.221.043c.091.09.221.326.287.417.03.043.105.124.183.25.091.15.192.356.264.558.004-.101.03-.258.317-.16.287.102.613.313.887.73.274.418.342.888.48 1.067.14.173.283.46.293.58.01.12-.043.51.244 1.56.082-.327.206-1.05.206-1.05l.068-.64.078-1.976-2.064-1.715-1.614-1.17-1.05.1.066.15z" fill="#CAA13E"/><path d="M17.44 8.818s-.03-.192-.515-.518c-.485-.322-.864-.322-1.214-.596-.267-.216-.547-.71-.73-.874-.176-.161-.205-.627-.205-.627l.596-.5.887-1.28.75-.826.359.499.499.586.278 1.177.1 1.722-.805 1.237z" fill="#B59544"/><path d="M18.04 10.882s.033-.374-.095-.772a14.159 14.159 0 00-.538-1.37c-.053-.293-.014-.316.042-.349.059-.033.268-.153.385-.577.114-.423.476-.436.476-.436l.221-.164.336.841.293.76.091.58.068.495-.159 1.047-.786.71-.334-.765z" fill="#C89D3A"/><path d="M6.865 24.02s-.177-.326-.186-.466a.438.438 0 01.048-.221s-.068-.101-.13-.124a.428.428 0 01.091-.206c.053-.062.154-.144.173-.173.02-.03.03-.068.086-.078.058-.01.12-.01.12-.085v-.14s.023-.014.043-.039c.013-.02.023-.043.033-.048.019-.01.11-.04.159-.03.048.01.177.063.245.059.14-.004.302-.11.56-.062.389.072.48.336.706.485.153.105.312.058.335.058h.053c.01 0 .081-.081.12-.077.078.004.086.068.134.072.115.013.336-.059.447-.03.052.014.12.068.14.14a.216.216 0 01-.053.216c-.12.11-.235.215-.258.307.033.023.091.077.091.077s-.052.049-.15.095c-.042.02-.11.053-.186.063-.143.013-.322.033-.427.186-.105.153-.466.068-.466.068l-1.728-.047z" fill="#CEB052"/><path d="M17.407 18.669s.303-.404.407-.604c.105-.206-.332-2.818-.332-2.818l.878-2.875-.023-.936s.043-.864.143-1.239c.12.216.496.476.577.614.039-.264.17-.822.15-1.416.072.11.244 1.223.244 1.223l.173.75.225.796.25.84.15.581.086.14.072.245.068.264.196.62.114.508.092.922s.033.115.042.216c.004.1-.013.16-.013.177 0 .019.033.221.02.374-.02.154-.02.274-.14.385-.121.11-.197.769-.197.769l-.215-.144s.042-.196-.059-.375a.382.382 0 00-.407-.186c-.111.023-.332.058-.404.12-.068.062-.235.255-.389.342-.192.115-.504.124-.671.163-.17.039-.356.154-.552.288-.204.132-.41.227-.485.256z" fill="#CCA847"/><path d="M17.407 22.912s.169.11.48.186c.31.076 1.104.532 1.104.532l.668.408.825.062.725-.101s.023-.307-.024-1.45c-.048-1.148-.085-1.311-.085-1.397 0-.085-.03-1.541-.062-1.858-.033-.316-.01-.639-.02-.825-.01-.187-.114-.946-.163-1.142-.052-.196-.153-.293-.169-.293a2.339 2.339 0 00-.095.46c0 .091-.02.313-.02.369-.013-.004-.019-.039-.019-.052-.02.048-.042.134-.052.143-.01.01.014-.081 0-.1-.014-.02-.039-.01-.033-.059a.544.544 0 01.014-.085s-.059.085-.102.302c-.042.216-.042.222-.058.241-.013.024-.091.101-.095.13-.004.053.072.105.078.134.004.049-.068.274-.091.385-.024.11-.014.326-.04.437-.019.1-.038.159-.104.202.048.01.095.023.095.023s.068.287-.105.532c-.062.085-.078.124-.144.202-.13.144-.23.307-.24.414-.01-.04-.014-.096-.014-.096s-.202.235-.287.37c-.111.172-.264.162-.307.205-.043.043-.052.12-.039.183-.039.01-.11.023-.16.173a.364.364 0 01-.172.205c-.091.053-.202.068-.258.082.048.014.068.014.091.029-.03.049-.163.124-.313.221a.653.653 0 00-.258.313c-.039.082-.095.134-.186.144.039.023.095.077.124.095-.043.01-.114.01-.245.12-.136.113-.182.146-.244.156z" fill="#C39D3C"/><path d="M14.521 23.987s.12-.186.424-.303c.303-.12.623-.143.75-.182.12-.039.215-.091.364-.12-.014.114-.02.205-.052.283.11.02.388-.196.538-.245.15-.048.489-.12.518-.143.03-.024.091-.164.11-.17.02-.003.073.03.106.03.062 0 .499-.404.844-.398.342.004.73.287.672.541.091-.052.186-.1.264-.081-.01.033-.014.072-.014.072s.187-.043.235.02c.053.061.024.12.15.267.101.124.072.154.052.196.049.014.288.095.51.303.22.206-1.768.078-1.768.078l-3.668-.033-.035-.115z" fill="#D2BA6B"/><path d="M20.29 15.845s-.062.336-.173.548c-.11.212-.23.505-.23.505s0-.105.023-.196c-.14.081-.48.277-.577.365-.091.081-.245.225-.284.293.092-.268.187-.509.202-.62-.14.102-.792.64-1.132.995l-1.058.856s-.163.091-.375.177c-.182.078-.398.144-.557.206a.883.883 0 01.206-.313c.1-.095.404-.423.45-.577.043-.159.053-.254-.003-.388-.053.014-.173.02-.255.043-.082.023-.169.11-.169.11s.062-.355.196-.69a2.857 2.857 0 00-.273.032s.24-.404.652-.685a2.128 2.128 0 00-.369.114c-.24.101-.505.25-.701.332.11-.153.887-1.262 1.35-2.295.46-1.03.633-1.295.733-1.848.053-.274.04-.678.053-1.041.014-.36.058-.682.03-.897.12.15.57.57.585 1.512.014.942-.43 2.214-.902 2.9.114.032.413.071.72-.46.307-.533.303-.682.414-.904.013.111.01.15.01.15s.446-.542.657-1.224c.043.294.17.552-.029 1.09-.176.485-.407.604-.407.604s.114-.02.283-.12c.03.071.023.153.072.182.049.029.115.078.124.124.053-.077.134-.176.16-.25-.02.153-.034.825.038 1.167.15-.014.303-.024.408-.293a1.2 1.2 0 00-.023.648c.08-.054.151-.152.151-.152z" fill="#C0993A"/><path d="M15.245 5.143s-.149.062-.403.062c-.222 0-.16-.086-.505-.086-.532 0-2.39.307-2.717.303-.211-.004.715.091.715.091l2.367.034.476-.04.176-.359-.108-.005z" fill="#A88F33"/><path d="M9.108 9.77s-.303.23-.431.408c-.13.176-.197.293-.342.436.048.004.1-.013.1-.013s0 .039-.022.048a.136.136 0 01.11.04c-.043.023-.159.14-.068.277.068.105.212.115.212.115s-.033.095.105.085c.297-.014.629-.144.782-.11.154.038.241.052.35.24.114.186.215.216.215.216s.068-.173.053-.431c.091-.222.091-.437.091-.437l-.101-.744-.44-.557-.572.316-.042.11z" fill="#E3C571"/><path d="M9.65 9.66s.042.1.22.11c-.019.043-.019.048-.013.081l.01.082s.023-.01.052-.039c.01.043-.01.11 0 .16a.35.35 0 00.03.085s.003-.01.01-.02c.003-.01.038.105.133.193 0-.024.01-.04.01-.04s0 .034.023.069c-.01-.004-.02-.014-.02-.014s.01.307.063.466c.014-.02.02-.023.023-.033 0-.01-.004.085-.013.154-.014.068-.004.163-.004.163s.052-.043.114-.068c.059-.024.154-.095.212-.255.058-.159.078-.277.078-.277s.033.062.038.114c.004.049.096.024.096.024l.019-.212.114-.48.105-.297.505-.786.913-.701.796.182.672-.912-1.158-.696-1.095.115-.994 1.377-.796 1.248-.144.206z" fill="#D8B65B"/><path d="M15.385 7.667s-.068.013-.264.114-.332.134-.408.284a.691.691 0 00-.081.268s.134-.058.212-.078c.081-.02.172-.013.163.02-.01.029-.04.062-.04.062s.154-.004.15.072a.392.392 0 01-.058.196c-.029.039-.15.095-.163.14-.033.09.014.095-.004.169-.013.071-.077.211-.287.456-.216.244-.307.417-.307.417s-.105-.196-.16-.365l-.244.134-.478-1.664.01-.11s.043-.053.053-.15c-.072-.023-.082-.043-.177-.134-.095-.091-.173-.202-.332-.278-.024-.042-.053-.1-.17-.124a3.332 3.332 0 01-.186-.043s.063-.023.092-.072c-.072.01-.13.033-.288.03-.159-.004-.176-.01-.264.003-.087.014-.192.053-.23-.081-.043-.033-.135-.004-.213.11-.077.115-.104.206-.254.251a.519.519 0 01-.068.186c-.042.072-.11.144-.202.251-.143.169-.12.447-.35.658-.23.212.04-.586.04-.586l.368-.884 1.051-1.027 1.631-.11.16.844.795.274.503.767z" fill="#D3AE4D"/><path d="M15.644 7.853l-.686-.988-.48-.369s-.341-.63-.364-.649a4.773 4.773 0 00-.548-.062l.039.095s.068.02.114.078c.092.105.15.303-.058.515.082.029.115.039.187.029-.072.085-.236.268-.245.427-.01.13.072.169.072.169s-.125.144-.13.384a1.57 1.57 0 01.192-.182 5.1 5.1 0 01.476-.326.276.276 0 00.013.1s.25-.205.46-.114c.095.043.053.177.053.177s.13-.049.221.043c.091.09.221.326.287.417.03.043.105.124.183.25.091.15.192.356.264.558.004-.078.02-.187.153-.187l-.203-.365z" fill="#CAA13E"/><path d="M5.368 10.661s-.049-.12 0-.355c.048-.235.124-.346.15-.692.023-.345.25-.776.25-.776l.623-.284.44.12.131.591-.557.307s-.03.13-.187.235c-.159.105-.374.186-.427.293-.052.11-.068.206-.068.206s-.159-.033-.254.072c-.101.106-.097.201-.101.283z" fill="#F4EFC8"/><path d="M6.626 10.504s-.052.033-.091.114c-.039-.062-.13-.43-.134-.763-.004-.332-.023-.413.052-.528.078-.114.379-.235.336-.44-.042-.197-.221-.278-.44-.222-.154.039-.269.365-.428.528-.12.124-.264.105-.303.173-.052.091-.004.182-.02.24-.003.02-.051.125-.139.251-.177.255-.476.614-.514.936.013-.182.003-.186.052-.388l-.03-.049.193-.629.124-.518.278-.868.49-.888.475-.532.495.033.058.744.284 1.396.596.734-.955.643-.379.033z" fill="#EBCC73"/><path d="M6.923 10.768s-.081.02-.11.004c-.03-.014-.059-.033-.049-.053.01-.02.062-.052.062-.068 0-.013-.004-.052-.048-.058-.045-.006-.059.023-.059.023s-.042-.033-.077-.038c.029-.004.062-.004.062-.004s-.082-.04-.17-.049c.05-.029.145-.114.207-.114s.1-.01.09-.043c-.009-.033-.057-.082-.11-.101.02-.023.033-.058-.013-.153-.049-.096-.03-.16-.014-.183.014-.03.062-.082.086-.115.023-.033.042-.077.081-.1a.973.973 0 01.144-.063c.068-.023.124-.052.163-.023.043.03.023.068.023.068s.134-.049.255.014c.12.058.413.095.413.095l.105.211-.695.596-.288.144-.058.01z" fill="#E5C66B"/><path d="M7.888 9.793s-.215.144-.264.196c.03.004.078.023.058.053-.023.029-.163.13-.24.225-.082.095-.16.215-.187.274-.029.052-.25.205-.326.225.16 0 .48-.196.6-.196-.004.058.033.124.101.13.068.004.264.043.528-.12.264-.16.177-.278.288-.356.211-.14.297-.264.413-.342a.74.74 0 01.177-.095s.004-.058.039-.052a.052.052 0 01.042.033s.202-.144.46-.183a.027.027 0 01-.013-.013s.02-.01.023-.02c0 0 .014-.02.024-.01s.023.082.042.111c.043-.02.125-.202.125-.202l.196-.56v-.513l-.154.029-1.151.489-.7.724-.08.173z" fill="#E6BD62"/><path d="M11.205 7.279s.1-.024.177-.072c-.024.062-.024.13-.125.277-.1.15-.105.17-.186.323-.082.159-.091.388-.17.489.063-.03.111-.033.111-.033s-.077.068-.11.14c-.033.072-.091.221-.235.312-.144.092-.326.15-.522.365-.197.212-.399.48-.5.577.053-.091.125-.274.144-.394.02-.12-.004-.264.03-.423.032-.16.032-.274.192-.552.159-.277.43-1.242.43-1.242l.587-.187.177.42z" fill="#B6933F"/><path d="M10.781 6.923s-.176.255-.225.48c-.048.225-.004.206-.033.316-.029.111 0 .206 0 .206s.078-.14.245-.24c.167-.102.303-.173.384-.259.082-.091.15-.24.327-.355-.072-.01-.173-.043-.193-.039.072-.082.288-.206.505-.355.216-.154.202-.216.552-.37-.115.02-.17-.009-.264 0 .038-.08.172-.12.306-.254s-.085-.332-.085-.332l-1.023.62-.495.582z" fill="#C49937"/><path d="M8.003 6.461l.023-.186.293-.47.307-.825V3.85l-.023-.65.048-.427.037-.136.04-.053.25.13.345.47.033.907-.336 1.431-.959 1.047-.058-.107z" fill="#DFC068"/><path d="M8.766 2.531s-.153.004-.186.643-.049.974-.072 1.291c-.024.316-.078.509-.105.695-.03.186-.043.44-.13.596-.04.072-.12.297-.313.466a1.928 1.928 0 01-.586.326c-.086.02-.519.063-.695.16-.063.033-.17.072-.288.182a3.68 3.68 0 00-.773 1.047c-.345.681-.69 2.606-.69 2.606l.077-.13s.01-.173.182-.476c.17-.303.12-.643.356-1.223.09-.222.205-.51.345-.754.222-.398.49-.74.76-.926.44-.303.926-.369.926-.369l.522-.346s.091-.176.212-.378c.169-.284.384-.6.43-1.06.073-.682-.1-1.129-.09-1.533.01-.403.013-.7.095-.772.081-.072.023-.045.023-.045z" fill="#A88F33"/><path d="M8.766 5.58s.231-.567.336-1.07c.02-.101.058-.202.068-.284.048-.476.062-.672 0-.932-.049-.192-.235-.365-.332-.499-.095-.14-.14-.192-.12-.221a.216.216 0 01.168-.072c.072.004.259.02.414.192.15.173.268.76.268.76l.124.772.317.975-1.243.379z" fill="#C99E3D"/><path d="M10.931 4.99s-.043.019-.12 0a.173.173 0 01-.078.162c-.082-.033-.845.033-.845.033s-.355-.062-.466-.532c-.077-.312.058-.743.014-1.027-.068-.417-.163-.499-.173-.629-.01-.13-.02-.163-.02-.245-.042-.01-.067-.023-.11-.023-.01-.039.01-.072-.033-.14.023.01.182.03.369.206.153.144.153.196.177.225.029.03.264.231.365.431.1.2.297.841.341.946a.706.706 0 00.115.183c.112.14.278.37.464.41z" fill="#B58634"/><path d="M9.673 3.03c.072.115.206.346.316.59.115.259.183.47.326.643-.077-.225-.215-.668-.297-.825a1.878 1.878 0 00-.345-.408z" fill="#A88F33"/><path d="M8.352 6.222s-.196.049-.56.241a6.108 6.108 0 01-.346.163 6.19 6.19 0 01-.841.317l.029.033s0 .095.052.15c-.029.028-.417.292-.303 1.176.078-.03.17-.068.183-.068.023.004.029.068.058.068.03 0 .124-.039.225-.17-.003.053-.062.582.25.937.06-.068.207-.293.207-.293l.004-.072s.013-.25.095-.48c.081-.23.24-.398.24-.398l.832-1.186-.125-.418z" fill="#E6C367"/><path d="M7.576 7.964s-.059.043-.125.062a.48.48 0 01.082-.379c.134-.196.427-.45.509-.652.052-.13.029-.456.495-.874.466-.417.648-.56.648-.56l.754-.38.926.366-.46 1.803-.357.845-1.422-.268-1.05.037z" fill="#DCBA5A"/><path d="M8.117 7.475l.177-.222v-.157s.196-.052.408-.268c.211-.215.505-.63.763-.604.258.03.283.561.293.71.01.15.043.49.095.673.059.182-.629.873-.629.873l-.466.356-.64-1.361z" fill="#E9CE77"/><path d="M8.665 9.317s.144-.225.039-.273c.062-.14.176-.288.176-.288s.082-.202.346-.45c.264-.25.427-.414.47-.58.043-.17.043-.333.043-.333s.052.043.091.062c.043.02.245.187.216.523-.03.335-.154.475-.154.475s-.12.12-.206.183c-.091.062-.124.134-.277.14.023-.02.052-.03.052-.03s-.16-.019-.245.059c-.085.077-.268.316-.359.388l-.192.124z" fill="#CDAE50"/><path d="M15.121 5.54s-.306-.124-.714-.14c-.408-.013-1.004.01-1.589.014-.629.004-1.2-.215-1.992-.254-.13-.078-.46-.417-1.493.303.062-.004.75-.16.988.14.241.297.173.802.14.922-.062.268-.264.658-.346.932-.081.274-.062.418-.12.61-.058.192-.186.287-.11.509.1-.063.153-.063.322-.441.169-.379.134-.649.413-.97.274-.321.73-.762.903-.873.173-.11 1.55-.825 2.99-.144.348-.036.608-.607.608-.607z" fill="#D2A83E"/><path d="M9.913 5.277s-.003-.033-.01-.043c-.023-.049-.052-.078-.052-.078s-.341-.062-.514-.042c-.303.033-.577.407-.705.6-.13.192-.287.489-.46.642.004-.023-.01-.042-.01-.042s.01.013-.01.033c-.02.019-.02.029-.01.038l.03.03c.01 0 .277-.12.642-.46.389-.356.686-.539.841-.6a1.18 1.18 0 01.258-.078z" fill="#C29637"/><path d="M16.543 3.816s-.063.078-.14.164c-.173.182-.398.388-.59.6-.183.201-.389.359-.62.623-.231.264-.499.557-.567.643a.633.633 0 00-.11.297l-.072-.049s.019.039.058.086c.048.067.124.153.163.205a.627.627 0 01.1.222c.024.004.174.033.36-.274.187-.307.431-.643.431-.643l.389-.577.244-.489.307-.547.047-.26z" fill="#AC8132"/><path d="M16.94 3.424s-.234.192-.326.307c-.09.115-.306.417-.306.417l.077-.01.394-.349.154-.274.008-.09z" fill="#A88F33"/><path d="M16.869 18.855s-.004-.159.085-.254c.091-.095.323-.235.548-.76.225-.522.25-.642.25-.642s-.404.346-.652.427c.058-.12.091-.206.12-.268-.033-.029-.172-.062-.186-.078.078-.077.12-.268.277-.394.203-.153.571-.417.859-.652.287-.235.85-.783.922-.942a.355.355 0 01.053.101s-.284.369-.431.604c-.13.202-.12.317-.12.317l.267-.115s.078.287-.274.724c.154-.058.216-.023.303-.072-.143.092-.342.216-.528.558-.182.341-.431.74-.85.988-.408.262-.643.458-.643.458z" fill="#A67A2E"/><path d="M15.816 5.743s-.159.332-.182.59c-.004.062-.02.11-.02.182-.003.232.014.49-.038.61-.02-.048-.03-.081-.049-.1-.029.08-.082.335-.124.43a2.025 2.025 0 01-.058-.532c.003-.254.01-.303.01-.355-.01.078-.063.182-.082.245-.03-.053-.062-.12-.101-.177-.024.039-.053.095-.078.124a1.794 1.794 0 01-.02-.173c-.003-.1-.01-.23-.003-.258a1.17 1.17 0 01.264-.447c.206-.225.417-.658.48-.792.062-.134.326-.691.326-.691h.202l-.294.668s-.176.365-.268.499c-.09.134-.283.518-.369.668.063-.082.115-.124.177-.202.06-.054.227-.29.227-.29z" fill="#8C6228"/><path d="M16.945 3.399s-.04.14-.154.278c-.12.143-.378.336-.505.489-.114.15-.345.557-.24 1.04.038-.104.11-.312.302-.547.193-.235.399-.505.5-.714.1-.212.114-.38.114-.38l.039-.048-.023-.11-.033-.008z" fill="#CBA94C"/><path d="M20.877 16.279s-.078-.212-.101-.404c-.024-.193.038-.231-.033-.45-.043-.135-.12-.115-.14-.135-.02-.02-.033-.221-.03-.332a1.242 1.242 0 00-.023-.316c-.029-.024-.048-.043-.09-.187-.05-.143-.073-.215-.096-.258-.023-.043-.091-.082-.091-.124 0-.086.077-.13.077-.154-.004-.048-.062-.01-.077-.023-.02-.023.048-.163.023-.183-.01-.01-.078.072-.095.049-.02-.023-.043-.254-.078-.408-.033-.15-.068-.258-.072-.303a29.184 29.184 0 00-.332-.978 4.606 4.606 0 01-.13-.47c-.02-.091-.033-.278-.042-.258-.01.019-.004.114-.02.11-.014-.004-.062-.336-.078-.388-.013-.053-.095-.231-.114-.36-.02-.13-.062-.47-.091-.7-.03-.231-.043-.327-.043-.385 0-.029.01-.196-.023-.423a3.936 3.936 0 00-.183-.715c-.13-.326-.476-1.16-.538-1.369 0-.052.068-.023.068-.023s.17.423.293.75c.12.326.235.613.264.642.024.03.206.35.288.874.081.524.11 1.008.159 1.33.023.154.043.317.091.48.053.177.134.36.241.639.091.235.16.43.196.6.043.215.043.378.068.485.023.091.058.274.14.538.081.264.202.604.283.816.16.423.232.776.255.965.021.194.093.866.074 1.068z" fill="#A88F33"/><path d="M16.954 3.376l-.01.023s.03.01.024.048c0 .02 0 .096-.01.16-.01.068-.029.12-.033.163 0 .091.014.196-.114.456-.04.072-.063.134-.082.177a.524.524 0 01-.1.169c.067-.04.312-.192.436-.17a.91.91 0 00-.297.269c.02.004.1.02.23 0 .216-.033.457-.11.669-.095.231.013.14-.278.14-.278l-.268-.586-.505-.356-.08.02z" fill="#BE9C44"/><path d="M18.27 7.768s-.224-.225-.316-.998c-.091-.777-.072-1.92-.072-1.92l-.182-.447s-.039-.297-.134-.408c-.095-.11-.284-.297-.369-.388-.085-.092-.182-.216-.24-.235.028-.049.158-.323.657-.326.5-.004.653.273.705.374.053.101.288.538.375 1.37.082.83.085.892.072 1.18-.01.159-.062.528-.153.922-.084.334-.175.707-.342.876z" fill="#A17C34"/><path d="M17.564 8.43s.105.014.215-.049c.072-.003.333.03.533-.225.013.058.048.216-.043.356.048-.049.12-.068.13-.082.004.072.072.293-.216.831.078-.085.17-.081.25-.091.005.1.06.44-.085.623-.095.124-.25.086-.25.086s.004-.043 0-.082c-.004-.052-.023-.105-.01-.14-.02-.01-.1-.043-.202-.14-.169-.159-.388-.43-.404-.633-.019-.225.183-.273.183-.273s-.023-.02-.043-.053c-.01-.033-.02-.085-.058-.128z" fill="#8C6228"/><path d="M16.067 5.987s-.01-.013-.062.049c.01-.062.02-.12.023-.177a.61.61 0 01.095-.144c-.029.059-.048.111-.048.111s.072-.134.176-.215c.072-.059.163-.086.202-.14.043-.058.033-.068.043-.078 0 0 .095-.062.24-.245.02-.023.05-.048.069-.071.033-.014.11-.049.202-.096.095-.052.202-.124.268-.153.13-.058.268-.052.332-.144.048-.013.1-.159.091-.283.072.029.44.258.567.76.091.354-.072.902-.14 1.166-.068.264-.078.46-.173.58-.12.16-.508.385-.604.496-.081.091-.326.322-.316.49.01.123.163.191.196.215.033.023.033.052.095.039.062-.014.086-.043.11-.043.03.004.03.01.044.01.013 0 .029-.004.029-.004s-.01.176-.424.23c-.029.005-.058.014-.095.02.049-.023.078-.023.13-.095-.058-.01-.225-.02-.268-.033a.519.519 0 01.096-.115c.033-.029-.004-.038-.033-.023-.014.01-.078.053-.144.11-.049.043-.091.102-.17.154a.379.379 0 01.073-.332c-.023.004-.068.072-.11.058a.617.617 0 01.013-.211c.023-.088.15-.241.15-.241l.609-1.09.13-.825-1.396.27z" fill="#92723A"/><path d="M16.034 6.034s-.033.023.033.068c-.01.013-.033.062-.062.095-.033.039-.068.062-.082.095-.029.068-.052.115-.052.144 0 .029-.01.215-.091.336-.03.042-.063.114-.086.163-.049.085-.091.153-.1.192-.02.068-.034.254-.034.254l.058-.071a.54.54 0 01-.085.14c.023-.02.091-.069.206-.17.159-.133.407-.359.71-.537-.09.033-.169.033-.23.042.048-.048.485-.56.714-.61.023-.028.02-.061.02-.061l-.197-.02-.398.086-.058-.307-.266.16z" fill="#B18E3E"/><path d="M16.667 7.781s-.053.053-.101.183a.608.608 0 01-.095-.13c-.072-.12-.183-.274-.441-.187-.004-.081-.01-.124 0-.182.043-.01.173-.115.303-.268.091-.105.177-.225.235-.379.039-.029.105-.077.192-.134.124-.085.274-.202.297-.332-.058.024-.182.082-.369.072.072-.033.183-.068.17-.211.028-.02.052-.033.052-.033s-.024-.01-.068-.01c-.004-.014-.01-.033-.043-.024-.033.01-.039.01-.043.024-.013.004-.058 0-.091.023-.033.023-.124.101-.16.115l.034-.059s-.095.01-.163.04c-.125.042-.268.12-.414.195.014-.023.02-.038.03-.042.009-.004.032-.01.032-.014s-.01-.039-.004-.052c.004-.014.086-.173.154-.264.068-.092.081-.222.081-.222l.297-.15.835-.192.542.033-.068.375-.32.655-.274.596-.313.365-.287.21z" fill="#543E26"/><path d="M18.02 6.16s-.326.404-.417.466c.058-.124.417-.864.547-1.07-.029-.023-.068-.023.024-.384-.078.182-.105.277-.17.326-.061.049-.071.033-.114.033.014-.023.01-.049.01-.049s-.274-.033-.46-.033c-.187 0-.558.101-.763.183-.163.068-.255.068-.313.11-.058.05-.091.102-.12.115-.024.014-.134.049-.16.086-.023.038-.062.081-.062.09 0 .01-.01.024.02.014.01-.003.081-.042.163-.09a4.46 4.46 0 01.342-.177c.277-.111.364-.092.489-.115.13-.023.316-.078.44-.078.125-.004.36 0 .414.01-.023.02-.043.043-.033.124 0 .024-.02.049-.039.105a9.14 9.14 0 01-.23.557c-.086.183-.183.336-.232.431-.048.096-.153.346-.258.48-.105.134-.16.216-.192.245-.033.029-.268.202-.25.264a1.29 1.29 0 00.508-.336c.196-.221.235-.355.388-.476.154-.12.274-.322.346-.49.06-.154.047-.203.122-.34z" fill="#806031"/><path d="M10.99 9.174s-.043.176-.14.264c-.096.085-.265.159-.284.303-.023.143.169.215.169.215s-.105.173-.105.303c0 .134-.004.16.01.287-.024.014-.04.04-.04.04s.01.124.106.201c.095.078.176.124.225.105.01.02.02.049.02.049s.071-.183.12-.342c.048-.163.091-.14.11-.36.02-.22.232-.595.232-.595l.143-.323-.235-.182-.332.035z" fill="#B6903C"/><path d="M11.426 9.49s-.072.072-.134.16c-.062.085-.11.163-.202.196-.091.033-.15.033-.143.124.005.091.09.13.14.176.052.05.095.13.071.222.03-.014.082-.03.13-.134.049-.105.389-.744.389-.744h-.25z" fill="#685026"/><path d="M12.764 8.016s.03-.077 0-.134c-.03-.058-.206-.077-.293-.143-.091-.068-.202-.115-.293-.086.013-.033.067-.105.023-.12-.043-.014-.202.058-.245.091-.042.033-.14.072-.159.095-.02.024-.052.068-.072.049-.02-.014-.029-.049-.062-.03-.033.02-.192.15-.221.226a1.15 1.15 0 01-.294.437c-.196.192-.283.316-.225.388.059.072.086.02.095.082a.502.502 0 01-.01.182c-.023.101-.061.196-.01.216.135.043.265-.039.294-.014.058.053-.033.241.105.278.14.039.278-.033.278-.033l.508-.274.49-.258.25-.495-.134-.414-.025-.043z" fill="#D4B968"/><path d="M12.284 9.199s-.085-.13.02-.245c.105-.114.254-.163.312-.235a.09.09 0 00-.042-.029s.052-.105.169-.159a.161.161 0 00-.111-.052c-.095 0-.153.058-.24.058-.086 0-.096-.043-.096-.043s.144-.014.13-.078c-.014-.068-.039-.068-.039-.068s.278-.114.326-.176c.049-.062.043-.134.053-.163.033 0 .225-.101.303-.059.077.043.023.16.023.16s.235-.177.355-.35c.105.01.154-.072.232-.072.095 0 .244.13.273.408.02.16.049.25.02.532-.014.16-.01.5.039.668.033.134.11.12.11.12s-.013.059-.068.105c-.052.049-.058.177-.052.226a.96.96 0 00.029.104s-.062.072-.078.12c-.013.05-.077.082-.124.082-.048 0-.023-.004-.085 0-.063.004-.082.014-.12 0-.04-.013-.069-.029-.053-.153.013-.124-.48-.414-.48-.414l-.806-.287z" fill="#CCA849"/><path d="M11.358 10.426s.177.235.903.235c.346 0 .466-.033.538-.052.078-.02.369-.134.662-.48.264-.313.206-.44.206-.44l-.153-.024-.5.068-1.477.63-.179.063z" fill="#585136"/><path d="M11.9 10.484s-.63.14-.63-.258c0-.388.39-.796.486-.868.101-.072.342-.153.342-.153h.58l.111.293-.048.633-.841.353z" fill="#252211"/><path d="M12.48 9.323s-.12-.11-.394.039c-.274.15-.495.46-.508.744-.014.25.205.437.547.446.255.01.408-.02.486-.038l-.12-.15-.01-1.04z" fill="#C3B378"/><path d="M12.362 9.385s-.03-.023-.114.024c-.072.038-.177.14-.259.211-.052.043-.085.062-.114.095-.12.144-.222.38-.163.496.058.114.25.25.74.159l-.09-.985z" fill="#E6D89C"/><path d="M12.203 9.626s-.078.12-.078.313c0 .196.11.508.519.532.312.02.522-.45.75-.633.172-.14.277-.144.277-.144s-.177-.192-.649-.44c-.466-.251-.988-.284-1.272.1.134-.01.567-.12.567-.12l.212.068-.326.324z" fill="#252211"/><path d="M12.813 9.88c-.014-.029-.024-.067.032-.077.059-.01.082-.004.101.039.02.042.04.077.01.095-.029.015-.105 0-.143-.057zm-.092-.273s-.02.013-.01-.014c.004-.033.03-.091.092-.078.062.014.048.082.039.101-.01.02-.063.053-.101.04-.04-.014-.02-.05-.02-.05z" fill="#6F674D"/><path d="M7.465 9.731s.153.115.332.11c.177-.003.404-.186.509-.302.062-.068.114-.14.173-.196.048-.049.081-.072.104-.105.033-.04.068-.11.086-.134-.043.033-.105.091-.17.13-.061.039-.195.11-.25.13-.052.02-.596.307-.596.307l-.188.06z" fill="#AC924C"/><path d="M7.7 8.296s.085-.058.25-.095c.16-.039.48-.068.48-.068l.264.114.105.399-.192.413-.245.154-.278-.447-.384-.47z" fill="#9F8E57"/><path d="M7.354 8.651l-.091.068s.023-.042.043-.172c.02-.13.12-.447.268-.63.147-.182.143-.172.143-.172s-.042-.01-.077.019a.943.943 0 01.268-.274c.124-.077.172-.1.303-.039.13.063.163.096.258.092.095-.004.177-.105.177-.105s.019.062-.053.206c-.072.143-.355.436-.355.436l-.59.404-.294.167z" fill="#EAC970"/><path d="M7.791 8.247s.427.059.557-.062c.004.014.02.014.02.024s-.01.02-.01.02.023-.005.043-.005c.02.004.033.01.052.01.02 0 .043-.004.043-.004s-.004.033-.03.049c.02 0 .04.003.04.019 0 .015.004.062-.02.072-.029.01-.058-.004-.058-.004s0 .052.03.105c.038.072.12.153.23.13 0 0 .058.14-.186.45-.033.043-.068.101-.11.15-.034.078-.04.114-.04.114s.414-.159.532-.522c.12-.365.144-.724.12-1.06a.544.544 0 00-.042-.212c-.058-.12-.221-.1-.287-.033-.095.095-.255.332-.476.495-.225.164-.235.193-.408.264z" fill="#D7BC6B"/><path d="M7.279 8.772s-.082.048-.125.23a.756.756 0 00.086.486c.048.072.153.268.374.278a.41.41 0 00.16-.033c.077-.033.153-.086.215-.134.095-.072.173-.134.163-.14-.023-.01-.586-.476-.586-.476l-.212-.236-.075.025z" fill="#585136"/><path d="M7.81 9.545s.115-.01.183-.053c.068-.043-.398-.505-.398-.505l.033.5.183.058z" fill="#453A25"/><path d="M7.315 8.737s-.058.11-.058.14c-.01.095.02.394.043.489.023.1.15.254.313.254.1 0 .24-.062.24-.077 0-.02-.143-.04-.182-.111a.665.665 0 01-.04-.231c-.003-.062-.003-.13.02-.154.053-.058.062-.225.062-.225l.187-.345h-.245l-.293.182-.047.078z" fill="#84754B"/><path d="M7.244 8.844s.192-.255.365-.313c.172-.058.25-.023.25-.023l-.1.258-.145.16.01.08s-.023.216.12.366c.144.15.251.143.313.143s.241-.052.332-.268c.082-.201.15-.46-.013-.72a.586.586 0 00-.496-.268c-.054.002-.481.021-.636.585z" fill="#252211"/><path d="M12.174 9.708c-.072-.033-.004-.235.068-.297a.506.506 0 01.322-.144c.058-.004.114.033.105.072-.014.072-.115.173-.206.244-.126.1-.208.162-.29.125z" fill="#F7F7E7"/><path d="M8.29 8.607c.053-.004.12.039.134.095.014.062-.033.186-.134.186-.081 0-.124-.1-.124-.13a.15.15 0 01.02-.068c.003-.006.013-.074.104-.083z" fill="#F8F6DE"/><path d="M7.533 8.651s-.134.063-.196.193a.51.51 0 00-.039.306c.01.049.058.17.091.212.033.043.078.072.11.068.034-.004.102-.091.102-.144 0-.052.004-.273.068-.394.056-.12-.136-.24-.136-.24z" fill="#D4C38B"/><path d="M7.552 8.642c-.023.013-.062.033-.052.058.01.023.091.039.12.095.033.058.033.12.024.15a.234.234 0 00.068-.049c.042-.049.095-.115.14-.115.028 0 .058.014.085.014.043 0 .085-.014.091-.058.01-.058-.081-.11-.134-.101.01-.039.023-.095-.02-.134-.042-.039-.176.029-.205.048-.031.02-.117.092-.117.092z" fill="#E2D59D"/><path d="M10.638 12.721l.287-.085.082.058s.058.124.15.14c-.03.062-.106.114-.102.16a.131.131 0 00.043.077s-.258.427.25.858c-.12.049-.273.115-.355.153.058.014.183.04.235.086.053.048.053.062.101.091.049.03.078.068.068.086-.033-.02-.144-.078-.163-.024-.02.053-.48.033-.48.033l-.776.15s.029-.078-.053-.15c-.095-.085-.212.004-.336-.091-.163-.124-.169-.268-.221-.322.052-.033.16-.082.413-.115-.01-.02-.042-.078-.023-.13.023-.068.12-.11.091-.192.043-.01.063-.01.17-.144.1-.134.162-.163.24-.173.078-.01.124 0 .268-.134.101-.095.068-.176.068-.176s.066-.022.043-.156z" fill="#CBAC5A"/><path d="M9.79 12.764c.003-.02.019-.03.124-.02.104.01.768-.062.949-.071.183-.014.825-.004 1.138.062.313.066.629.144.782.182.154.043.202.059.197.078-.004.02-.04.039-.059.033-.02-.004-.528-.16-.685-.192-.158-.033-.701-.12-.998-.115-.278.004-.389-.004-.623.024-.236.029-.624.068-.74.052-.115-.014-.092-.014-.086-.033z" fill="#D6BC6F"/><path d="M11.352 14.286s.398.216.542.48c.105.196-.062.293-.062.293s.225 0 .196.124c-.014.078-.388.288-.639.399-.254.11-.244.104-.369.124-.12.02-.45-.04-.518.058-.068.095-.039.196-.02.212.02.013.177.033.177.033s-.033.09-.36.1c-.325.01-.407.034-.426.069-.02.033.062.013.211.038.15.024.36.04.36.04s-.068.058-.245.104c-.202.053-.519.101-.614.16.049.032.12.08.154.085a.971.971 0 00-.216.077l.068.043s-.163.196-.258.245c-.095.048-.643.303-.831.254-.47-.124-.528-.639-.643-.677-.173-.059-.254.058-.408-.024.068-.048.105-.078.177-.11-.078-.04-.48-.294-.48-.294s-.048-.11-.14-.268c-.077-.134-.192-.312-.277-.47-.186-.345-.196-.504-.365-.7.03-.04.13-.033.13-.033l1.416.466 2.51.071.653-.932.277.033z" fill="#DFC677"/><path d="M7.634 15.708s.02.023.052.042c.049.033.12.072.17.13.019-.029.067-.081.153 0 .085.082.192.024.258.043.068.024.072.033.072.033s.039-.033.124-.068c.052-.02.115-.033.183-.052.062-.014.13-.033.176-.033.043.029.196.192.812-.049.58-.225.714-.25.811-.215.01-.024.02-.068.17-.062 0-.063-.125-.274-.125-.274l-.685-.235H9.43l-1.124.206-.624.355-.048.179z" fill="#C4A859"/><path d="M7.26 15.313s.013.105.168.216c.153.11.202.177.202.177s.03-.04.052-.078c.024-.043.043-.091.082-.105.078-.033.254.03.293.02.033-.01.023-.078.058-.078.082-.004.134.052.164.052.029 0 .1-.003.11-.019.01-.016.014-.177.125-.254a.331.331 0 01.306-.03c0 .03.004.101.082.105.078.004.085-.01.153.014.068.023.15-.004.187.11.033-.01.11-.019.09-.13.04-.029.073-.048.154-.163.02-.029.053-.062.078-.104.068 0 .15-.014.258.081-.033.023-.052.039-.062.062a.71.71 0 01.078.091c.029.04.048.086.085.096.082.023.216-.01.365 0 .144.01.264.062.317.095.02-.01.02-.014.068-.004s.085.013.033-.049c.029.014.062.043.091.014.03-.03.052-.072.134-.082.082-.01.11.004.144-.081.042-.105-.105-.105-.105-.105s.068-.062.143-.144c.092-.085.197-.196.222-.332.043-.25-.202-.283-.202-.283l-1.186.365-1.451-.072-1.237.615z" fill="#927D49"/><path d="M6.193 11.886s-.039.049-.062.163c-.023.115-.014.101-.033.183-.02.082-.258.893-.169 1.167.09.274.245.375.342.596.02.049.039.078.048.12.033.144.004.255.043.399a.44.44 0 00.101.163c.115.12.303.235.384.316.115.12.278.365.486.389.11.013.268-.034.398-.111.115-.072.186-.173.307-.231.085-.043.176-.058.258-.078.169-.033.322-.039.414-.02.14.03.47.13.652.13.072 0 .24-.009.423-.057.278-.082.614-.222.835-.284.13-.039.235-.049.342-.072.183-.043.336-.1.423-.212-.058-.067-.13-.172-.518-.168-.44.01-.95.254-1.2.293-.25.039-.36.072-.639-.03-.274-.1-.283-.168-.283-.168s-.288-.202-.408-.715c-.12-.514 0-.887.312-1.243.082-.09.063-.172.063-.172s.205-.278.15-.538c-.063-.258-.461-.206-.461-.206l-2.208.386z" fill="#6E6342"/><path d="M6.525 12.75s-.029.053-.023.105c.004.053.02.12.177.274.134.134.104.284.104.284s.068.013.25-.072c.145-.068.193.052.193.052s.058-.033.134-.043c.078-.01.12-.038.12-.038s.17.172.317.254c.134.072.212.12.278.072.062-.043.062-.13.058-.17 0 0-.02-.048-.058-.1-.043-.062-.111-.134-.115-.192-.01-.134.101-.294.078-.332-.024-.04-.11-.049-.326.029-.224.074-1.187-.123-1.187-.123z" fill="#39331F"/><path d="M7.034 13.618s-.11-.104-.072-.613c.058-.004.14.013.14.013s.06.394-.068.6z" fill="#292311"/><path d="M6.246 11.498s.019-.014.042-.039c-.039.072-.215.36-.072.812.144.45.505.786.95.802.445.015.678-.202.946-.528.104-.13.225-.294.332-.404.159-.173.283-.222.283-.389 0-.341-.35-.495-.864-.648-.515-.154-.979-.134-1.22-.03-.234.115-.335.236-.397.424z" fill="#252211"/><path d="M7.898 13.772l.039-.02s.01-.153.072-.15c.062.01.09.092.085.121-.004.03-.02.078-.081.072-.082.002-.115-.023-.115-.023z" fill="#3F3824"/><path d="M7.725 13.12s.039-.014.086.032c.038 0 .205-.02.258.014a.196.196 0 01.068.062s-.196.043-.303 0c-.109-.037-.109-.109-.109-.109z" fill="#2D2815"/><path d="M8.59 13.148a.48.48 0 00-.216-.104c-.02-.004-.024.01-.04.01-.009-.005-.013-.034-.013-.034l-.062.033s-.01.014.023.04c.03.022.078.042.092.08.013.04.013.053.02.059.003.004.07 0 .104-.02.033-.02.095-.05.091-.064z" fill="#82764F"/><path d="M7.609 13.543s.02-.134.15-.14c.133-.01.158.12.158.12l-.077.078c0-.002-.059-.084-.231-.058z" fill="#2D2816"/><path d="M8.453 12.966s-.072.078-.23.1c-.014-.019-.043-.057 0-.12.042-.062.09-.081.139-.062.049.01.082.043.091.082z" fill="#574F35"/><path d="M8.746 13.061c.004-.02-.01-.023 0-.033.01-.01.063-.03.072-.02.004.005 0 .02 0 .04 0 .019 0 .038-.01.052-.013.02-.052.029-.071.023-.02-.004-.024-.033-.024-.039.01-.003.034-.013.034-.023zm.333-.21c0-.01.033-.029.052-.029.03 0 .03.024.033.03.01.003.01-.005.02.013.01.02.023.049.013.068-.01.02-.049.033-.058.029a.51.51 0 01-.06-.11z" fill="#82764F"/><path d="M8.41 13.106s.043.01.102.058c-.02.014-.049.03-.049.03s-.004-.046-.052-.088z" fill="#6E6342"/><path d="M8.315 12.678c-.01-.01.03-.033.053-.029s.033.02.058.024.03-.01.039-.02c.01-.01.043-.004.048 0l.01.014s0-.023.02-.039a.061.061 0 01.052-.01c.004.014.023.063.02.072-.004.01-.063.024-.072.014.01.023.052.072.058.081.004.01-.043.033-.062.03a.794.794 0 01-.224-.136zm.255-.322s-.004-.013-.02-.023c-.013-.004-.058 0-.058.023 0 .024.039.154.082.222.048.068.081.124.114.14a.045.045 0 00.058-.02 1.17 1.17 0 00.01-.25 2.317 2.317 0 00-.02-.342c-.009-.01-.048-.01-.061.01a1.739 1.739 0 00-.105.24z" fill="#585136"/><path d="M8.397 13.35s-.068-.042-.134-.013c-.062.029-.058.143-.058.143s.042.02.085-.01c.043-.028.097-.077.107-.12z" fill="#574F35"/><path d="M8.525 13.504c-.004-.039-.039-.039-.039-.059.004-.019.024-.033.043-.033.02 0 .039.024.062.04.023.013.058.038.062.067.004.03-.039.111-.085.111-.047-.002-.033-.087-.043-.126zm.375-.053s-.078.024-.072 0c.004-.023.023-.029.049-.029.01-.01.029-.023.048-.023.02 0 .03.01.03.01s.052-.024.067-.01c.014.014.004.014.014.03.01.013.023.042.023.057 0 .016-.058.049-.105.043-.054-.012-.044-.068-.054-.078zm.452-.087s.024.014.004.03a.31.31 0 01-.14.042c-.058 0-.11.01-.11-.01s.048-.058.077-.068a.062.062 0 01.049-.023c.023 0 .115-.01.14-.014.023-.004.042.01.029.03-.006.013-.049.013-.049.013zm.134-.6s-.029.062-.062.062c-.033-.004-.033-.014-.033-.023 0-.014.033-.049.03-.058-.01 0-.034 0-.03-.024 0-.02.033-.043.062-.039a.127.127 0 01.078-.029c.033 0 .062.01.062.03 0 .019-.039.062-.052.071-.016.016-.035.026-.055.01zm-.442 1.148s-.04.003-.04.023c0 .01.01.01.024.004.01 0 .023-.004.023-.004.004.004.004.023.033.023.014 0 .043-.01.068-.023.024-.01.043-.02.043-.039-.01-.033-.03-.049-.058-.049-.03 0-.043.01-.043.01s-.01-.02-.043 0c-.033.02-.029.02-.02.03.018.015.013.025.013.025zm-.22.201c0-.01.049-.029.062-.023.014.004.053.078.053.086 0 .01-.049.033-.068.033-.02 0-.053-.033-.053-.04 0-.003.024-.009.024-.013.005-.01-.018-.033-.018-.043zm-.153-.283c.01-.004.01-.014.023-.023.014-.01.03-.004.03-.004s.009-.02.032-.024c.024-.003.043 0 .039.01 0 .03.02.049.02.072 0 .023-.014.053-.063.072a.341.341 0 01-.124.01c-.01-.004-.02-.043-.01-.063.008-.02.037-.04.053-.05z" fill="#82764F"/><path d="M8.733 13.844s-.033.019-.033.029c-.004.01-.004.023-.004.029 0 .006.043-.004.049-.01.002-.004-.012-.039-.012-.048z" fill="#6E6342"/><path d="M8.444 13.752c.019.004.052 0 .077.01.02.01.033.03.014.053-.02.023-.039.058-.082.052-.048-.004-.095-.03-.095-.049-.004-.023.01-.052.023-.068.02-.015.03-.005.063.002z" fill="#585136"/><path d="M8.42 13.772s-.062.048-.077.072c-.02.023-.115.143-.144.168a.368.368 0 01.033-.048s-.058.033-.082.105c-.023.072.13.11.231.14l.14.039s-.058-.086-.095-.177c-.039-.091-.058-.101-.033-.144.02-.043.049-.072.049-.105a.58.58 0 00-.022-.05z" fill="#574F35"/><path d="M6.207 13.925s.013.004.042 0c.03-.004.332-.114.649-.095.14.01.388.03.7.115.399.104.894.312 1.215.43.085.034.168.092.23.115.245.095.255.095.399.12.169.024.341-.032.522-.071.221-.049.6-.072.932-.12.173-.024.316-.072.316-.072s-.264.264-.897.359a2.804 2.804 0 01-.772.01 2.359 2.359 0 01-.437-.078c-.115-.033-.35-.12-.64-.193-.201-.052-.426-.09-.685-.14-.636-.116-1.328-.25-1.574-.38z" fill="#252211"/><path d="M5.877 11.348c-.068-.062-.14-.124-.206-.186l-.202-.186-.202-.193c-.033-.033-.068-.062-.101-.095l-.105-.091c-.268-.254-.538-.509-.802-.763.274.25.542.499.816.753l.095.095c.033.033.068.063.1.096l.203.186c.068.062.134.124.202.192s.134.13.202.192zm-3.558-.038s.975.1 1.45.169c.442.062 1.82.273 1.82.273l-3.27-.442zm0 0c.274.023.548.052.822.081.14.014.273.03.407.043l.206.023.202.03.816.13.408.067c.134.024.267.049.407.072a9.793 9.793 0 01-.407-.052l-.408-.059-.816-.12c-.068-.01-.134-.023-.202-.033l-.206-.023c-.134-.014-.273-.033-.407-.049a23.82 23.82 0 01-.822-.11zm3.173.697s-1.04.264-1.392.365c-.346.095-1.392.413-1.392.413" fill="#CFB66C"/><path d="M5.492 12.007c-.23.068-.46.134-.695.196l-.695.186-.691.202-.346.095c-.115.033-.231.062-.35.095.115-.038.232-.077.346-.11l.346-.11c.23-.073.46-.14.691-.213.235-.058.466-.12.7-.176.224-.057.46-.113.694-.165zm-2.639 1.42a107.19 107.19 0 001.742-.803c.153-.072.6-.23.6-.23" fill="#CFB66C"/><path d="M2.853 13.426c.101-.039.196-.085.293-.13l.288-.134.577-.278c.192-.09.378-.192.576-.277.101-.043.202-.078.303-.111l.154-.049c.052-.013.1-.029.153-.042-.192.091-.394.169-.586.258-.193.095-.389.173-.587.258l-.586.259c-.196.08-.389.165-.585.246zm.128.538s1.197-.701 1.608-.926c.216-.12.913-.466.913-.466" fill="#CFB66C"/><path d="M2.981 13.964c.202-.124.408-.25.614-.379l.307-.186.312-.183c.105-.062.206-.124.313-.182a1.21 1.21 0 01.16-.082l.162-.081c.216-.105.431-.212.659-.303-.206.13-.418.24-.63.355-.104.059-.211.11-.316.17-.105.057-.206.12-.313.176-.104.062-.205.12-.312.176l-.317.173-.639.346zm2.511-1.239l-.984.754c-.241.182-.95.695-.95.695" fill="#CFB66C"/><path d="M5.492 12.725c-.153.13-.316.255-.476.375l-.48.369c-.162.12-.322.245-.485.365-.163.12-.326.235-.499.346a8.62 8.62 0 01.48-.37c.163-.118.332-.234.49-.355L5 13.086c.165-.12.324-.244.491-.36zm-.848 1.36s.172-.144.388-.346c.268-.25.596-.571.7-.63" fill="#CFB66C"/><path d="M4.644 14.084c.085-.085.176-.169.268-.25l.14-.12c.042-.04.09-.082.133-.125.086-.085.17-.177.255-.264.042-.043.085-.085.134-.124a.365.365 0 01.077-.053c.024-.013.049-.038.082-.042-.02.029-.043.042-.062.068-.024.02-.043.042-.062.062-.043.042-.092.081-.134.12-.092.078-.187.154-.278.235-.091.082-.177.17-.268.25-.099.084-.19.166-.285.243zm1.16-.776s-.632.62-.762.72z" fill="#CFB66C"/><path d="M5.805 13.308c-.058.068-.12.13-.183.186l-.192.183c-.062.062-.12.124-.186.186-.068.058-.13.115-.202.169l.186-.183c.062-.062.13-.114.196-.176l.187-.183a2.84 2.84 0 01.194-.182zm.029.336s-.072.211-.206.475c-.163.326-.408.734-.515.942" fill="#CFB66C"/><path d="M5.834 13.644c0 .071-.02.134-.043.196a1.893 1.893 0 01-.078.182 3.07 3.07 0 01-.095.177c-.033.058-.072.114-.1.173l-.197.345c-.068.115-.134.231-.206.342.049-.124.115-.24.177-.355.068-.115.13-.231.192-.35.03-.058.059-.12.082-.182.029-.062.058-.12.081-.177.03-.062.053-.12.082-.177.033-.06.06-.118.105-.174z" fill="#CFB66C"/><path d="M6.525 15.236s-.192.254-.173.576c.053-.168.119-.427.173-.576zm.183.254s-.068.691-.125 1.031c.08-.392.096-.359.125-1.03zm1.272 1.072s-.288.845-.294 1.08c.062-.241.183-.734.294-1.08z" fill="#DEC270"/><path d="M8.651 15.183s.466.77.816 1.426c-.095-.33-.313-.936-.816-1.426z" fill="#CBAF59"/><path d="M9.904 16.315s.365.63.691 1.397c-.039-.33-.144-.896-.691-1.397z" fill="#E3C677"/><path d="M13.585 17.45c.078-.05.231-.313.365-.38.134-.067.235-.08.356-.215.12-.14.153-.225.417-.336.37-.159.115-.365.115-.365s.062-.062.13-.11c.095-.072.206-.16.196-.313-.014-.258-.062-.633-.274-.85.206-.043.6-.072.845-.135.283-.071.413-.172.413-.172s-.163-.278.101-.558c.265-.277.48-.446.64-.759-.183-.023-.46-.12-1.172.15.053.023.111.062.111.062s-.437.12-.596.254c-.278.235-.313.427-.614.571-.303.144-.604.105-.854.221-.25.115-.287.216-.379.259.02.023-.003.062.033.095-.023.033-.159.254-.297.254.014.053.13.091.13.091s-.085.063-.303.078c.111.115.216.24.505.423-.023.049-.12.12-.081.212.043.091.153.216.596.317-.225.01-.49.062-.845.013-.355-.043-.413-.068-.633-.013.024.023.086.023.14.085-.058.004-.423-.043-.548.12-.13.17-.186.447-.176.633-.068.033-.134.092-.101.212s.206.16.316.235c.11.082.12.11.226.091.11-.023.273-.134.368-.134.096 0 .164.072.164.072s.258-.124.283-.1c.023.023.004.172.03.195.024.018.316-.155.393-.204z" fill="#ECD592"/><path opacity=".8" d="M19.23 9.679c-1.214-3.134-4.214-3.715-4.214-3.715H6.457l.033 3.192h1.705v7.128H6.457v3.187h8.323c2.005 0 3.613-2.016 3.613-2.016 2.575-3.654.837-7.776.837-7.776zm-4.406 5.629s-.652.941-1.363.941H12.04l-.033-7.085h1.823s.845.177 1.435 1.848c0 0 .782 2.395-.44 4.296z" fill="#fff"/></g><defs><clipPath id="clip0_2359_2518"><rect x=".63" y=".63" width="22.74" height="22.74" rx="11.37" fill="#fff"/></clipPath></defs></svg>