<svg fill="none" xmlns="http://www.w3.org/2000/svg" viewBox="0 0 24 24"><path d="M12 24a12 12 0 1 0 0-24 12 12 0 0 0 0 24z" fill="#988430"/><path d="M12 23.6A11.6 11.6 0 1 0 12 .4a11.6 11.6 0 0 0 0 23.2z" fill="#7A6A2A"/><g clip-path="url(#a)"><rect x=".6" y=".6" width="22.7" height="22.7" rx="11.4" fill="#BA9F33"/><path d="m9.8 17.3-.4-.7.2-.9 1.6-.6-.7-1.4.3-1.4.7-1.2 1.9-.3 1.4-1.4 3 .3.7 3.2-1.2 4.1-.7 2.2H14l-1.3-.8-1.4-.6-1.5-.5z" fill="#E2CC85"/><path d="M14.4 17.3s-.3.2-1 .1c-.1-.2-1.4-.3-1.4-.3h-.5c-.2.2-.5.1-.8.2L10 17a2.7 2.7 0 0 1-.4-.3h-.5L8 16.2l-1.7-1.7-.5.7-.1 1 .5 1 1.4 1.3 2.7.7 1.6-.5 2-.9.5-.5z" fill="#F1D789"/><path d="m4.8 11.3.3-1 .4-.8H7l-.4 1-1.2 2 .5 1.8-.8.4-.3-.3-.2-1v-1l.3-1.1z" fill="#F4ECB4"/><path d="M6.3 17.2 6 17v-.6l-.2-.4.1-.3c.2-.2.1-.4.1-.4l.2.1c.1 0 0-.5.2-.6.1-.1.3.5.3.5l-.1-1-.4-.8-.6-.9v-1l-.4.8v1.3c.1.2.4.5.3.7h-.3s0 .2-.2.2a.4.4 0 0 0 0-.2 1 1 0 0 1 0 .1s-.1-.1-.2-.3l-.1-.7-.1.4v.4l.2.6.1.4.2.5.1.3.1.2.1.6.4.4.3.1h.2z" fill="#F3E19D"/><path d="m5 10.4-.4 1a7 7 0 0 0 .1 3.5l.6 1.3-.2-.5v-.5l-.2-.4s0-.3-.2-.5a1 1 0 0 1 0-.3c-.1-.3 0-.6 0-.8-.1-.4-.2-.6-.1-.8l.3-1.2c.1-.3 0-.5.2-.8l.3-.6-.4.6z" fill="#F2E8B0"/><path d="m6.5 10.2-.2.1-.3.3c0 .2 0 .3-.2.4l-.3.6v.7c-.1.2 0 .4 0 .4h.1l.1.2c.1.1.1-.3.1-.3l.5-1.4.6-.4v-.3l-.4-.3z" fill="#F5EEC0"/><path d="m6.8 10.8-.4.2h-.2c0 .2-.2.3-.3.4l-.1.7v.4l-.1.4.2.4.4-.2.4-1.4.8-.5-.5-.5-.2.1z" fill="#E6DB9D"/><path d="M6.9 24H4l.1-.9a4.1 4.1 0 0 1 .2-.4 1 1 0 0 0 0-.5s.2-.1.3-1.5l.1-1L5 19v-.5l.2-.6-.1-.3-.1-.1s.4-.3.4-1.4l.2.5.1.2.6 1 .6.6 1 .7.6.6v1.8l-.7 1L7 24z" fill="#E5CB7A"/><path d="m7.2 22.5.1-.4s.1.1 0 .1a1.2 1.2 0 0 1 .9-.5c.5 0 .6-.5.6-.5l1.1-1 1.3-1.1 1.5-.6.8-.1v.1a3.5 3.5 0 0 0 .7-.2h.3l.1.4.5-.1.6.3c.3 0 .4-.2.6-.4l.5-.2c.2-.2 2.7-1 2.7-1h1V21l-4 2-6.5 1-2.7-.6-.1-.8z" fill="#D8C173"/><path d="m4.4 24 .4-1.3v-1c0-.3.4-.8.4-1 0 .3.1 1.2.3 1.4 0 0 0 .3.2.5V24a.7.7 0 0 0-.3.1h-1z" fill="#F1D789"/><path d="m8.5 23.7 1.4-.4h.3s0 .3.2.3c.1 0 .3 0 .4-.2l.4-.3.2.3c.1-.2.4-.7.8-.7 0 0 .2-.4.6-.7.4-.2.6-.2.9-.2 0-.2.2-.3.4-.4 0 0 .2.1.4 0 .1 0 .3-.4.6-.4a.6.6 0 0 1 .4 0s.7-.6 1.2-.9c0 0 0-.3.5-.7l.4-.1.6-.4h.9s.1.3 0 .4h.2c0 .2 0 .3-.2.4l.3.2a3 3 0 0 0-.2.3l-.3.6-.2.5-.4.4.8-.3a14 14 0 0 1-1.2 1.8l-2.2.7-1.1.2H8.8l-.5-.3.2-.1z" fill="#E0CD81"/><path d="M6.9 10.8h-.3l.3.1a.5.5 0 0 1 .2.2l1.2.6h.9l.2-.5-.5-.5.4-1h-.5l-1.2.7-.7.3z" fill="#DFC57C"/><path d="M8.7 11.2h.1l.4.1.4.6.7.3.1-.9-.8-.5-1 .3z" fill="#E5CC7C"/><path d="M8.5 11.5h.3c.2-.1.5-.3.6-.2.2 0 .1.3.3.5l.5.2c0 .2.5.1.5.1l.1.8-.6.8-.2 1h-.8l-.7-.4-.4-.8.2-1 .2-1z" fill="#D2C281"/><path d="M10.1 11.5v.5l.1.2s0 .2.3.2 0 .2.1.3h.5v-.5a2 2 0 0 0 0-.3l.1-.4v-.7l-.4-.2-.3-.3-.2.5-.2.2v.5z" fill="#E2C270"/><path d="M11 11v.3-.1l.1.4v.3a1 1 0 0 1 .4-.3.6.6 0 0 1 .3-.1h.4c.4 0 .8-.2 1.1-.3l.5-.3.3-.3.4-.5h-.2.2l.2-.2h.7l.4.1h1.5a.7.7 0 0 1 .3 0L17 8.8l-1.7-1.5-1 .7-1.6 1.6-1.5.5-.3.4v.5z" fill="#CCB360"/><path d="m14.3 10.2.2-.1.2-.2h.7l.4.1h1.8l-.3-.5-.2-.5-.7-.8-.9-.5a11.6 11.6 0 0 0-.3 0l-.8.4-.7 1.8v.4l.5.2c0-.2.2-.3.3-.4h-.2z" fill="#D5B457"/><path d="M14.3 10.3h-.1c0-.2-.1-.3-.2-.3l-.1.2V10h-.1l-.5.4c-.1.2-.4.5-.6.5l-.7.2a1 1 0 0 0-.3.1v.1h-.1v.2a.3.3 0 0 1 .2 0h.4c.4 0 .8-.2 1.1-.3.2-.1.4-.1.5-.3l.3-.3.2-.3z" fill="#D2B257"/><path d="m8.2 19.9-.4-.5-.3-.3-.4-.3-.7-.4a4 4 0 0 1-.7-1.2l-.2-.6.1-.1v.2h.2c0 .2.2.3.3.5L6 17l.6.4.5.5.4.6 1.4.5.7.5.3.7-.3.4h-.4l-.8-.3-.2-.3z" fill="#D2B159"/><path d="m6.5 17.5.5.5a5.3 5.3 0 0 0 2.2.7c.7 0 1.2-.2 1.8-.3l1-.1 1.3-.5.8-.4.8-.4s0 .2-.3.4h.3l-.5.3c-.2.2-.4.5-.7.6l-.5.3-.6.4-.4.2H12l-.4.1h-.2v.1H11l-.1.1.1.2-.4.4v.2l-.4.2h-.1s.1.2 0 .4l-.3.3-.2-.2a1 1 0 0 1 0 .2l-.2.4-.3-.2-.3.3s0 .5-.5.8v-.3l-.4.2-.2.2.1-.4.3-.3H8l.2-.4a.6.6 0 0 0-.1-.4V21l-.1-.2v-.2a.8.8 0 0 0 0-.2V20a.2.2 0 0 1 .1 0l-.1-.2a.4.4 0 0 1 .2 0 .4.4 0 0 1 .2.2s0 0 .2.2l.5.3h.4V20l-.1-.1v-.2l-.2-.1-.2-.1-.1-.1H9a.4.4 0 0 0 .1-.1s0 0-.1 0l-.2-.2h-.2s-.3 0-.9-.4l-.7-.5V18a.7.7 0 0 1-.4-.6z" fill="#C2A44D"/><path d="M13.6 5.9h.1c.1.2.2.4 0 .6h.1l-.2.4v.6l.1-.2a5.1 5.1 0 0 1 .5-.3s.3-.1.5 0h.3l.2.5.2.2.3.6c0-.1 0-.3.3-.2.3.1.6.4.9.8.3.4.3.9.5 1l.3.6.2 1.6.2-1v-.7l.2-2-2.1-1.7-1.6-1.2-1 .1V6z" fill="#CAA13E"/><path d="M17.4 8.8s0-.2-.5-.5l-1.2-.6c-.3-.2-.5-.7-.7-.9-.2-.1-.2-.6-.2-.6l.6-.5.9-1.3.7-.8.4.5.5.6.2 1.2.1 1.7-.8 1.2z" fill="#B59544"/><path d="M18 10.9V10a14.2 14.2 0 0 0-.6-1.4v-.3c.1 0 .3-.2.4-.6.1-.4.5-.4.5-.4l.2-.2.4.9.3.7v.6l.1.5-.1 1-.8.7-.4-.7z" fill="#C89D3A"/><path d="m6.9 24-.2-.4a.4.4 0 0 1 0-.3s0 0-.1 0a.4.4 0 0 1 0-.3l.3-.2.2-.1v-.2s.2-.1.2 0h.8c.4 0 .5.2.7.4H10l.1.2a.2.2 0 0 1 0 .2l-.3.3h.1l-.1.1-.2.1c-.2 0-.3 0-.4.2-.1.2-.5 0-.5 0H6.9z" fill="#CEB052"/><path d="m17.4 18.7.4-.6c.1-.2-.3-2.9-.3-2.9l.9-2.8v-2.2l.7.6.1-1.4.3 1.2.1.8.2.8.3.8.1.6.1.1.1.3v.2l.3.7v.5l.2.9v.8l-.1.3-.2.8-.2-.1v-.4a.4.4 0 0 0-.5-.2l-.4.1-.4.4-.7.1-.5.3a3 3 0 0 1-.5.3z" fill="#CCA847"/><path d="m17.4 23 .5.1c.3 0 1 .5 1 .5l.8.4.8.1.7-.1v-1.5l-.1-1.3v-2.7l-.2-1.2-.2-.3a2.3 2.3 0 0 0-.1.5v.4h-.1v-.1l-.1.2v.3h-.2l.1.2v.4l-.1.4-.1.2v.6l-.2.2-.2.4-.3.3c-.1.2-.3.1-.3.2v.2l-.2.1a.4.4 0 0 1-.2.3h-.3.1l-.3.3a.7.7 0 0 0-.2.3l-.2.1.1.1-.2.2-.3.1z" fill="#C39D3C"/><path d="m14.5 24 .4-.3.8-.2.4-.1v.3l.4-.3.6-.1V23h.2s.5-.4.8-.4c.4 0 .8.3.7.6l.3-.1h.2l.1.4c.1 0 .1.1 0 .2.1 0 .4 0 .6.3.2.2-1.8 0-1.8 0h-3.6z" fill="#D2BA6B"/><path d="m20.3 15.8-.2.6-.2.5v-.2l-.6.4-.3.3.3-.7-1.2 1-1 .9-.4.2-.6.2a.9.9 0 0 1 .2-.3l.5-.6v-.4h-.3l-.1.1.2-.6a2.9 2.9 0 0 0-.3 0s.2-.4.6-.7a2.1 2.1 0 0 0-.3.1l-.7.4c0-.2.9-1.3 1.3-2.3.5-1 .6-1.3.7-1.9l.1-1v-1c.1.2.6.6.6 1.6s-.4 2.2-.9 2.9c.1 0 .4 0 .7-.5l.4-.9v.2s.5-.6.7-1.3c0 .3.2.6 0 1.1-.2.5-.4.6-.4.6h.3v.1l.2.1.1-.2v1.1c.2 0 .4 0 .5-.3a1.2 1.2 0 0 0 0 .7v-.2z" fill="#C0993A"/><path d="m15.2 5.1-.4.1h-.5l-2.7.2.7.1h2.9l.2-.4h-.2z" fill="#A88F33"/><path d="m9.1 9.8-.4.4-.4.4h.1a.1.1 0 0 1 .1 0c0 .1-.1.2 0 .4h.2v.2c.4 0 .7-.2.9-.1.1 0 .2 0 .3.2l.2.2v-.4c.2-.2.2-.5.2-.5l-.1-.7-.5-.6-.5.4z" fill="#E3C571"/><path d="M9.7 9.7h.2v.4l.2.2v.8h.2l.2-.3v-.3h.1l.1.1v-.2l.1-.5.1-.3.6-.8.9-.7.8.2.6-.9-1.1-.7-1.1.1-1 1.4-.8 1.3-.2.2z" fill="#D8B65B"/><path d="M15.4 7.7H15c-.3 0-.3.2-.4.4a.7.7 0 0 0 0 .2s0 0 .1 0h.2l.1.1a.4.4 0 0 1 0 .2l-.2.1V9s0 .2-.3.5l-.3.4-.2-.4-.2.2-.5-1.7v-.4l-.1-.1-.3-.3-.2-.1a3.3 3.3 0 0 1-.2 0s0 0 .1-.1H12c0-.1-.1 0-.2 0 0 .2 0 .2-.2.3a.5.5 0 0 1-.1.2l-.2.2c-.2.2-.1.5-.4.7-.2.2 0-.6 0-.6l.4-.9 1.1-1 1.6-.1.2.8.8.3.5.8z" fill="#D3AE4D"/><path d="m15.6 7.9-.6-1-.5-.4-.4-.7a4.8 4.8 0 0 0-.5 0s0 .1.1.2c.1 0 .2.3 0 .5h.1l-.2.4v.6a1.6 1.6 0 0 1 .1-.2 5.1 5.1 0 0 1 .5-.3s.3-.1.5 0h.3l.2.5.2.2.3.6.1-.2-.2-.3z" fill="#CAA13E"/><path d="M5.4 10.7v-.4l.1-.7c0-.3.3-.8.3-.8l.6-.2h.4l.2.7-.6.3-.2.2-.4.3v.2h-.3l-.1.4z" fill="#F4EFC8"/><path d="M6.6 10.5v.1l-.2-.7v-.6c.1 0 .4-.2.4-.4s-.2-.3-.5-.2l-.4.5-.3.2v.2l-.1.3-.6.9.1-.4.2-.7v-.5l.4-.9.5-.8.4-.6H7v.8l.4 1.4.6.7-1 .7h-.4z" fill="#EBCC73"/><path d="M7 10.8h-.2v-.2h-.2.1-.2l.2-.2h.1V10l-.1-.2.2-.2a1 1 0 0 1 .1 0s.1-.1.2 0h.2l.5.1v.2l-.6.6-.3.2z" fill="#E5C66B"/><path d="m7.9 9.8-.3.2s.1 0 0 0c0 0 0 .2-.2.3l-.1.2-.4.3.6-.2.1.1.6-.1.2-.4.5-.3a.7.7 0 0 1 .1-.1h.1l.5-.2.2-.1.2-.6v-.5h-.2L8.7 9l-.7.7-.1.2z" fill="#E6BD62"/><path d="M11.2 7.3h.2l-.1.2-.2.3-.2.5h.1l-.1.1s0 .2-.2.3l-.6.4-.5.6.2-.4v-.5l.2-.5c.2-.3.4-1.3.4-1.3h.6l.2.4z" fill="#B6933F"/><path d="m10.8 7-.2.4v.3c-.1.1 0 .2 0 .2l.2-.2.4-.3.3-.3h-.2l.5-.4.5-.4h-.2l.3-.2-.1-.4-1 .6-.5.6z" fill="#C49937"/><path d="M8 6.5v-.2l.3-.5.3-.8V2.6h.1l.3.1.3.5V4L9 5.5l-1 1z" fill="#DFC068"/><path d="M8.8 2.5s-.2 0-.2.7v1.3l-.2.7-.1.6-.3.4a2 2 0 0 1-.6.3l-.7.2s-.2 0-.3.2a3.7 3.7 0 0 0-.8 1c-.3.7-.7 2.6-.7 2.6H5l.2-.6c.2-.3.1-.6.3-1.2L6 8l.7-1c.5-.3 1-.3 1-.3l.5-.4.2-.4c.2-.2.4-.6.4-1 .1-.7 0-1.1 0-1.6v-.7c.1-.1 0 0 0 0z" fill="#A88F33"/><path d="m8.8 5.6.3-1V3.1l-.3-.4c0-.1-.1-.2 0-.2a.2.2 0 0 1 0-.1c.2 0 .3 0 .5.2l.3.8v.7l.4 1-1.2.4z" fill="#C99E3D"/><path d="M11 5h-.2a.2.2 0 0 1 0 .2h-1s-.3 0-.4-.5v-1L9.3 3v-.2H9v-.2l.4.2.1.2.4.5.4.9a.7.7 0 0 0 0 .2c.2.1.3.4.5.4z" fill="#B58634"/><path d="m9.7 3 .3.6.3.7-.3-.9a1.9 1.9 0 0 0-.3-.4z" fill="#A88F33"/><path d="m8.4 6.2-.6.3a6.1 6.1 0 0 1-.4.1 6.2 6.2 0 0 1-.8.3s0 .2 0 .2-.3.3-.2 1.2h.2l.2-.2s0 .6.3 1l.2-.3v-.1l.1-.5.2-.4.9-1.2-.1-.4z" fill="#E6C367"/><path d="M7.6 8h-.1a.5.5 0 0 1 0-.4c.2-.1.5-.4.5-.6 0-.1 0-.5.5-.9l.7-.5.7-.4 1 .3-.5 1.8-.4.9-1.4-.3h-1z" fill="#DCBA5A"/><path d="m8.1 7.5.2-.2V7l.4-.3c.2-.2.5-.6.8-.6.2 0 .2.6.3.7v.7c.1.2-.6.9-.6.9l-.4.3L8 7.5z" fill="#E9CE77"/><path d="M8.7 9.3V9l.2-.2s0-.2.3-.5c.3-.2.5-.4.5-.6v-.3h.1s.3.2.2.6l-.1.5-.2.1c-.1.1-.1.2-.3.2h-.2l-.3.4-.2.1z" fill="#CDAE50"/><path d="m15.1 5.5-.7-.1h-1.6l-2-.2c-.1-.1-.4-.5-1.5.3 0 0 .8-.2 1 .1.3.3.2.8.2 1l-.4.9-.1.6c0 .2-.2.3-.1.5l.3-.5c.2-.3.1-.6.4-1l1-.8c.1-.1 1.5-.8 3-.2.3 0 .5-.6.5-.6z" fill="#D2A83E"/><path d="M10 5.3h-.1v-.1h-.6c-.3 0-.5.3-.7.5l-.4.7.6-.4c.4-.4.7-.6.9-.6a1.2 1.2 0 0 1 .2-.1z" fill="#C29637"/><path d="m16.5 3.8-.1.2-.6.6-.6.6-.6.6a.6.6 0 0 0 0 .3h-.2.1l.2.3a.6.6 0 0 1 0 .2s.2 0 .4-.3l.5-.6.3-.6.3-.5.3-.5v-.3z" fill="#AC8132"/><path d="m17 3.4-.4.3-.3.4.5-.3.1-.3z" fill="#A88F33"/><path d="M16.9 18.9v-.3c.1 0 .4-.2.6-.8l.3-.6-.7.4.1-.2-.2-.1.3-.4.9-.7c.3-.2.8-.7.9-1a.4.4 0 0 1 0 .2s-.2.4-.4.6l-.1.3.3-.1s0 .3-.3.7h.3c-.2 0-.4.2-.5.5-.2.4-.5.7-.9 1l-.6.5z" fill="#A67A2E"/><path d="m15.8 5.7-.2.6v.8l-.2.4a2 2 0 0 1 0-.6v-.3l-.1.2-.1-.2-.1.2a1.8 1.8 0 0 1 0-.2v-.3a1.2 1.2 0 0 1 .2-.4l.5-.8.3-.7h.2l-.3.7-.2.5-.4.6.2-.2.2-.3z" fill="#8C6228"/><path d="m17 3.4-.2.3-.5.5c-.1.1-.4.5-.3 1l.3-.5.5-.8.2-.3v-.2z" fill="#CBA94C"/><path d="m20.9 16.3-.1-.4v-.5l-.2-.1V15a1.2 1.2 0 0 0 0-.4l-.1-.1-.1-.3-.1-.1v-.4h-.1v-.3L20 13a29.2 29.2 0 0 0-.4-1 4.6 4.6 0 0 1-.1-.5v-.3.2l-.2-.4v-.4l-.2-.7v-.8a4 4 0 0 0-.2-.7L18.5 7l.3.7.3.7.3.9.1 1.3.1.5.3.6.2.6v.5s0 .3.2.5l.2.8.3 1v1z" fill="#A88F33"/><path d="M17 3.4v.4l-.2.4v.2a.5.5 0 0 1-.2.2l.5-.2a1 1 0 0 0-.3.3h.2l.7-.1c.2 0 .1-.3.1-.3l-.3-.6-.5-.3z" fill="#BE9C44"/><path d="M18.3 7.8s-.3-.3-.3-1l-.1-2-.2-.4-.1-.4-.4-.4-.2-.2s.1-.4.6-.4.7.3.7.4c0 .1.3.6.4 1.4v2.1l-.4.9z" fill="#A17C34"/><path d="M17.6 8.4h.2s.3 0 .5-.2v.3h.1l-.2.8.2-.1v.6H18v-.1l-.2-.2c-.2-.1-.4-.4-.4-.6 0-.2.2-.3.2-.3l-.1-.2z" fill="#8C6228"/><path d="M16 6a.6.6 0 0 1 .1-.2v.1l.2-.2.2-.1v-.1l.2-.3h.1L17 5l.3-.2.3-.1.1-.3s.4.3.6.8L18 6.3V7l-.7.5s-.3.3-.3.5l.2.2h.3s0 .2-.4.2H17h.1-.3A.5.5 0 0 1 17 8l-.1.1-.2.2a.4.4 0 0 1 0-.4s0 .1 0 0a.6.6 0 0 1 0-.1l.1-.3.6-1 .2-.9L16 6z" fill="#92723A"/><path d="M16 6v.2l-.1.2-.1.4-.1.1-.1.2v.3l.1-.1.7-.6h-.2s.5-.5.7-.5l-.1-.1h-.4l-.1-.2-.3.1z" fill="#B18E3E"/><path d="m16.7 7.8-.1.2a.6.6 0 0 1-.1-.2c-.1 0-.2-.2-.5-.2v-.1l.3-.3.3-.4.2-.1.3-.3h-.4s.2 0 .2-.2h-.2l-.2.1h-.1l-.4.2v-.1l.2-.3V6l.4-.2.8-.2h.5V6l-.4.6-.2.6-.3.4-.3.2z" fill="#543E26"/><path d="m18 6.2-.4.4.5-1v-.4l-.1.3h-.6l-.7.1-.3.1-.2.2h-.1V6h.1a4.5 4.5 0 0 1 .3-.2l.5-.1.5-.1h.4v.2a9.1 9.1 0 0 1-.3.6l-.2.4-.3.5-.2.2s-.3.2-.2.3a1.3 1.3 0 0 0 .5-.3l.4-.5.3-.5.1-.3z" fill="#806031"/><path d="m11 9.2-.1.2-.3.3.1.3v.5h-.1l.1.3c.1 0 .2.1.2 0v.1l.2-.3v-.4l.3-.6.2-.3-.3-.2H11z" fill="#B6903C"/><path d="m11.4 9.5-.1.2-.2.1c-.1 0-.2 0-.2.2l.2.1v.3l.2-.2.4-.7h-.3z" fill="#685026"/><path d="m12.8 8-.3-.2h-.3v-.2l-.2.1-.2.1h-.1l-.3.3a1.1 1.1 0 0 1-.3.4l-.2.4h.1a.5.5 0 0 1 0 .3v.2h.3l.1.2h.3l.5-.3.5-.2.2-.5-.1-.4z" fill="#D4B968"/><path d="M12.3 9.2V9l.3-.3.1-.2h-.4.1v-.2l.3-.1V8h.4l.3-.3.3-.1s.2.1.3.4v1.2l.1.1v.1l-.1.2a1 1 0 0 0 0 .2l-.2.2h-.2v-.2l-.5-.4-.8-.3z" fill="#CCA849"/><path d="M11.4 10.4s.1.3.9.3h.5c0-.1.4-.2.7-.6l.2-.4H13l-1.5.7h-.1z" fill="#585136"/><path d="M11.9 10.5s-.6.1-.6-.3.4-.8.5-.8l.3-.2h.6v.9l-.8.4z" fill="#252211"/><path d="M12.5 9.3h-.4c-.3.2-.5.5-.5.8 0 .3.2.4.5.5h.5l-.1-.2v-1z" fill="#C3B378"/><path d="M12.4 9.4h-.2l-.2.2-.1.1-.2.5c0 .1.3.3.8.2l-.1-1z" fill="#E6D89C"/><path d="M12.2 9.6v.3c0 .2 0 .5.4.6.4 0 .6-.5.8-.7l.3-.1-.7-.4c-.4-.3-1-.3-1.3 0h.8l-.3.3z" fill="#252211"/><path d="M12.8 9.9v-.1h.1v.1zm0-.3s0-.1 0 0c-.1 0 0 0 0 0z" fill="#6F674D"/><path d="m7.5 9.7.3.1c.2 0 .4-.1.5-.3l.2-.2.2-.2-.2.1-.3.2-.5.3h-.2z" fill="#AC924C"/><path d="m7.7 8.3.3-.1h.7l.1.4-.2.5-.2.1-.3-.4-.4-.5z" fill="#9F8E57"/><path d="M7.4 8.7h-.1v-.2l.3-.6.1-.2a1 1 0 0 1 .2-.2h.7v.1c0 .2-.4.5-.4.5l-.6.4-.2.2z" fill="#EAC970"/><path d="M7.8 8.2h.7v.4l.2.1-.2.5-.1.1v.1s.4-.1.5-.5l.1-1a.5.5 0 0 0 0-.3h-.3l-.5.5-.4.2z" fill="#D7BC6B"/><path d="m7.3 8.8-.1.2a.8.8 0 0 0 0 .5s.2.3.4.3a.4.4 0 0 0 .2 0l.2-.2.2-.1-.6-.5-.2-.3h-.1z" fill="#585136"/><path d="M7.8 9.5H8L7.6 9v.5h.2z" fill="#453A25"/><path d="M7.3 8.7v.7l.3.2H8l-.2-.2a.7.7 0 0 1 0-.2v-.4l.2-.3h-.2l-.3.2z" fill="#84754B"/><path d="m7.2 8.8.4-.3H8l-.1.3-.2.1V9l.1.4.4.1s.2 0 .3-.3v-.7a.6.6 0 0 0-.5-.2s-.5 0-.7.5z" fill="#252211"/><path d="M12.2 9.7v-.3a.5.5 0 0 1 .4-.1l-.1.3-.3.1z" fill="#F7F7E7"/><path d="m8.3 8.6.1.1-.1.2-.1-.1a.1.1 0 0 1 0-.1z" fill="#F8F6DE"/><path d="m7.5 8.7-.2.1a.5.5 0 0 0 0 .3v.3h.2l.1-.1v-.4c.1-.1 0-.2 0-.2z" fill="#D4C38B"/><path d="m7.6 8.6-.1.1.1.1v.1a.2.2 0 0 0 .1 0l.2-.1H8v-.4h-.2l-.1.1z" fill="#E2D59D"/><path d="M10.6 12.7h.4l.2.1-.1.2s-.3.5.2 1H11l.2.2h.1l.1.1h-.6l-.8.2v-.1l-.4-.1-.2-.4h.4v-.4l.2-.1c.1-.2.2-.2.3-.2l.2-.1c.1-.1 0-.2 0-.2l.1-.2z" fill="#CBAC5A"/><path d="M9.8 12.8h.1l1-.1a6 6 0 0 1 2 .3l-.7-.2h-1.6a5 5 0 0 1-.7 0h-.1z" fill="#D6BC6F"/><path d="m11.4 14.3.5.5v.3h.1c0 .2-.4.4-.6.5l-.4.1h-.5v.3h.2l-.4.1h-.4l.2.1h.3l-.2.2-.6.1.1.1a1 1 0 0 0-.2 0v.1l-.2.3s-.6.3-.8.2c-.5-.1-.5-.6-.6-.7-.2 0-.3.1-.4 0h.1l-.5-.4V16l-.4-.5-.3-.7h.1l1.4.4h2.5l.7-.8h.3z" fill="#DFC677"/><path d="m7.6 15.7.3.2s0-.1.1 0h.6l.2-.1s.2.2.8 0l.8-.3h.2l-.1-.3-.7-.2h-.4l-1 .2-.7.3v.2z" fill="#C4A859"/><path d="m7.3 15.3.1.2.2.2.2-.2h.5l.2-.3a.3.3 0 0 1 .3 0l.1.1h.2l.1.1h.1l.2-.3h.3a.7.7 0 0 1 0 .2h.1c.1.1.2 0 .4 0l.3.2h.2l.1-.2h.2l-.1-.1.1-.2.2-.3c0-.3-.2-.3-.2-.3l-1.2.4-1.4-.1-1.2.6z" fill="#927D49"/><path d="M6.2 11.9v.1l-.1.2c0 .1-.3 1-.2 1.2l.4.6v.5a.4.4 0 0 0 .2.2l.3.3c.2.1.3.4.5.4l.4-.1.3-.3h1.8c.3 0 .6-.2.8-.3h.4l.4-.3-.5-.1a3 3 0 0 0-1.2.3H9l-.3-.2-.4-.7c0-.6 0-1 .3-1.3l.1-.2s.2-.2.2-.5c-.1-.3-.5-.2-.5-.2l-2.2.4z" fill="#6E6342"/><path d="M6.5 12.8c0 .1 0 .2.2.3v.3H7c.2-.1.2 0 .2 0h.2l.4.2h.3v-.2l-.1-.2v-.4H6.5z" fill="#39331F"/><path d="M7 13.6V13v.6z" fill="#292311"/><path d="M6.2 11.5s-.1.3 0 .8c.2.4.5.8 1 .8.4 0 .6-.2 1-.6l.2-.4.3-.3c0-.4-.3-.5-.8-.7a2 2 0 0 0-1.3 0c-.2 0-.3.2-.4.4z" fill="#252211"/><path d="m7.9 13.8.1-.2s.1 0 0 .1v.1z" fill="#3F3824"/><path d="M7.7 13.1h.4a.2.2 0 0 1 0 .1s-.2 0-.3 0z" fill="#2D2815"/><path d="M8.6 13.1a.5.5 0 0 0-.2 0h-.1v.1h.2z" fill="#82764F"/><path d="m7.6 13.5.2-.1.1.1v.1h-.3z" fill="#2D2816"/><path d="M8.5 13h-.3l.2-.1z" fill="#574F35"/><path d="M8.7 13h.1v.1zm.4-.1h.1a.5.5 0 0 1-.1 0z" fill="#82764F"/><path d="M8.4 13.1h.1z" fill="#6E6342"/><path d="M8.3 12.7h.4v.1a.8.8 0 0 1-.3-.1zm.3-.3h-.1v.2l.2.1a1.2 1.2 0 0 0 0-.3 2.3 2.3 0 0 0 0-.3 1.7 1.7 0 0 0-.1.3z" fill="#585136"/><path d="M8.4 13.3h-.1l-.1.2.2-.1z" fill="#574F35"/><path d="M8.5 13.5h.2l-.1.1v-.1zm.4 0v-.1H9v.1h-.1zm.5-.1a.3.3 0 0 1-.2 0h.2zm0-.6v-.1a.1.1 0 0 1 .1 0zM9 13.9h.2H9zm-.2.2H9v.1zm-.1-.3s.1 0 0 0h.1v.1a.3.3 0 0 1-.2 0z" fill="#82764F"/><path d="M8.7 13.8v.1z" fill="#6E6342"/><path d="M8.4 13.8h.1-.1z" fill="#585136"/><path d="m8.4 13.8-.2.2c0 .1 0 .2.2.2h.1v-.1l-.1-.2a.6.6 0 0 0 0-.1z" fill="#574F35"/><path d="m6.2 14 .7-.2.7.1 1.2.5H9l.4.2h.6l.9-.2h.3l-.9.3a2.8 2.8 0 0 1-.8 0 2.4 2.4 0 0 1-.4 0l-.6-.3h-.7a8 8 0 0 1-1.6-.5z" fill="#252211"/><path d="m5.9 11.3-.2-.1-.2-.2-.2-.2-.1-.1-.1-.1-.8-.8.8.8.2.2.2.2a6 6 0 0 1 .4.3zm-3.6 0 1.5.2 1.8.3-3.3-.5zm0 0h.8l.4.1H4l.8.2h.4l.4.2a9.8 9.8 0 0 1-.4-.1h-.4l-.8-.2H3a23.8 23.8 0 0 1-.8-.2zm3.2.7-1.4.4-1.4.4m2.8-.8-.7.2-.7.2-.7.2h-.3l-.4.2.4-.1.3-.1.7-.3.7-.1.7-.2zm-2.6 1.4a107.2 107.2 0 0 0 1.7-.8l.6-.2" fill="#CFB66C"/><path d="m2.9 13.4.2-.1.3-.1.6-.3.6-.3.3-.1H5l.2-.1-.6.3-.6.2-.6.3-.5.2zm0 .6 1.7-1 .9-.4" fill="#CFB66C"/><path d="m3 14 .6-.4.3-.2.3-.2.3-.2a1.2 1.2 0 0 1 .2 0l.1-.1.7-.3-.6.3-.3.2-.4.2-.3.1-.3.2-.6.4zm2.5-1.3-1 .8-1 .7" fill="#CFB66C"/><path d="m5.5 12.7-.5.4-.5.4-.4.3-.5.4a8.6 8.6 0 0 1 .4-.4l.5-.3.5-.4.5-.4zm-.9 1.4.4-.4.7-.6" fill="#CFB66C"/><path d="M4.6 14c.1 0 .2 0 .3-.2h.2v-.2l.3-.3.2-.1h.1l-.2.2-.3.2-.3.2-.3.3zm1.2-.7L5 14zm0 0-.2.2-.2.2-.2.2-.2.1.2-.2.2-.1.2-.2a2.8 2.8 0 0 1 .2-.2zm0 .3-.2.5-.5 1" fill="#CFB66C"/><path d="M5.8 13.6v.2a1.9 1.9 0 0 1 0 .2 3 3 0 0 1-.2.2v.2l-.3.3-.2.4.2-.4a7.4 7.4 0 0 0 .3-.5V14l.1-.2.1-.2z" fill="#CFB66C"/><path d="M6.5 15.2s-.2.3-.1.6l.1-.6zm.2.3-.1 1 .1-1zm1.3 1-.3 1.1.3-1z" fill="#DEC270"/><path d="m8.7 15.2.8 1.4c-.1-.3-.3-1-.8-1.4z" fill="#CBAF59"/><path d="m9.9 16.3.7 1.4c0-.3-.1-.9-.7-1.4z" fill="#E3C677"/><path d="M13.6 17.4s.2-.3.4-.3l.3-.2.4-.4c.4-.1.1-.3.1-.3l.2-.2s.2-.1.2-.3c0-.2-.1-.6-.3-.8.2 0 .6 0 .8-.2l.4-.1s-.1-.3.1-.6l.7-.7c-.2 0-.5-.2-1.2.1h.1l-.6.3c-.2.3-.3.5-.6.6l-.8.2-.4.3c0 .1-.1.3-.3.3l.2.1h-.4l.6.5s-.2.1-.1.2c0 .1.1.2.6.3h-1.5l.1.1-.5.1a1 1 0 0 0-.2.7l-.1.2c0 .2.2.2.3.2l.2.1.4-.1h.5v.2l.4-.3z" fill="#ECD592"/><path opacity=".8" d="M19.2 9.7A5.8 5.8 0 0 0 15 6H6.5v3.2h1.7v7H6.5v3.3h8.3c2 0 3.6-2 3.6-2 2.6-3.7.8-7.8.8-7.8zm-4.4 5.6s-.6 1-1.3 1H12V9.1h1.8s.9.1 1.5 1.8c0 0 .7 2.4-.5 4.3z" fill="#fff"/></g><defs><clipPath id="a"><rect x=".6" y=".6" width="22.7" height="22.7" rx="11.4" fill="#fff"/></clipPath></defs></svg>