<svg viewBox="0 0 24 24" fill="none" xmlns="http://www.w3.org/2000/svg">
<path d="M12 24C18.6274 24 24 18.6274 24 12C24 5.37258 18.6274 0 12 0C5.37258 0 0 5.37258 0 12C0 18.6274 5.37258 24 12 24Z" fill="black"/>
<path d="M7.26648 14.7789C7.34965 14.6953 7.46401 14.6465 7.58531 14.6465H18.5849C18.7859 14.6465 18.8864 14.8905 18.7443 15.0334L16.5714 17.2189C16.4882 17.3025 16.3739 17.3513 16.2526 17.3513H5.25301C5.05201 17.3513 4.95152 17.1073 5.09361 16.9644L7.26648 14.7789Z" fill="url(#paint0_linear_2359_2509)"/>
<path d="M7.26648 6.61893C7.35312 6.53528 7.46748 6.48648 7.58531 6.48648H18.5849C18.7859 6.48648 18.8864 6.73049 18.7443 6.87338L16.5714 9.05891C16.4882 9.14257 16.3739 9.19136 16.2526 9.19136H5.25301C5.05201 9.19136 4.95152 8.94737 5.09361 8.80446L7.26648 6.61893Z" fill="url(#paint1_linear_2359_2509)"/>
<path d="M16.5714 10.6728C16.4882 10.5891 16.3739 10.5403 16.2526 10.5403H5.25301C5.05201 10.5403 4.95152 10.7843 5.09361 10.9272L7.26648 13.1128C7.34965 13.1964 7.46401 13.2452 7.58531 13.2452H18.5849C18.7859 13.2452 18.8864 13.0012 18.7443 12.8583L16.5714 10.6728Z" fill="url(#paint2_linear_2359_2509)"/>
<defs>
<linearGradient id="paint0_linear_2359_2509" x1="15.8592" y1="4.30138" x2="8.17698" y2="18.9308" gradientUnits="userSpaceOnUse">
<stop stop-color="#00FFA3"/>
<stop offset="1" stop-color="#DC1FFF"/>
</linearGradient>
<linearGradient id="paint1_linear_2359_2509" x1="15.8592" y1="4.30138" x2="8.17698" y2="18.9308" gradientUnits="userSpaceOnUse">
<stop stop-color="#00FFA3"/>
<stop offset="1" stop-color="#DC1FFF"/>
</linearGradient>
<linearGradient id="paint2_linear_2359_2509" x1="15.8592" y1="4.30138" x2="8.17698" y2="18.9308" gradientUnits="userSpaceOnUse">
<stop stop-color="#00FFA3"/>
<stop offset="1" stop-color="#DC1FFF"/>
</linearGradient>
</defs>
</svg>
