<?xml version="1.0" encoding="UTF-8"?>
<svg xmlns="http://www.w3.org/2000/svg" xmlns:xlink="http://www.w3.org/1999/xlink" width="24px" height="24px" viewBox="0 0 24 24" version="1.1">
<g id="surface1">
<path style=" stroke:none;fill-rule:nonzero;fill:rgb(11.764706%,11.764706%,11.764706%);fill-opacity:1;" d="M 12.160156 0 C 5.457031 0.0234375 0.0273438 4.082031 0 9.09375 C 0 10.097656 0.214844 11.09375 0.640625 12.046875 C 0.957031 12.691406 1.898438 13.042969 2.78125 12.839844 C 3.632812 12.597656 4.085938 11.898438 3.8125 11.25 C 3.453125 10.507812 3.292969 9.71875 3.339844 8.929688 C 3.488281 5.3125 7.53125 2.464844 12.375 2.574219 C 17.214844 2.683594 21.023438 5.707031 20.878906 9.328125 C 20.742188 12.714844 17.171875 15.46875 12.640625 15.671875 C 12.640625 15.671875 10.933594 15.75 10.085938 15.828125 C 9.773438 15.863281 9.460938 15.910156 9.15625 15.96875 C 9.113281 16 9.042969 16 8.996094 15.96875 C 8.964844 15.9375 8.964844 15.894531 8.996094 15.867188 L 9.261719 14.789062 L 10.863281 9.398438 C 11.054688 8.726562 10.480469 8.0625 9.582031 7.917969 C 8.679688 7.773438 7.796875 8.203125 7.601562 8.875 C 7.601562 8.875 3.789062 22.070312 3.789062 22.1875 C 3.570312 22.832031 4.089844 23.480469 4.949219 23.644531 C 4.957031 23.648438 4.96875 23.648438 4.976562 23.648438 L 5.066406 23.648438 C 5.921875 23.816406 6.796875 23.429688 7.015625 22.789062 C 7.019531 22.78125 7.023438 22.769531 7.027344 22.757812 C 7.023438 22.738281 7.023438 22.71875 7.027344 22.699219 C 7.074219 22.542969 7.554688 20.789062 7.554688 20.789062 C 7.917969 19.460938 9.347656 18.445312 11.136719 18.242188 C 11.503906 18.199219 13.050781 18.121094 13.050781 18.121094 C 19.730469 17.625 24.605469 13.171875 23.9375 8.179688 C 23.332031 3.625 18.285156 0.121094 12.160156 0 Z M 12.160156 0 "/>
<path style=" stroke:none;fill-rule:nonzero;fill:rgb(90.196078%,0%,47.843137%);fill-opacity:1;" d="M 12.898438 20.960938 C 11.800781 20.792969 10.730469 21.316406 10.5 22.136719 C 10.5 22.144531 10.496094 22.152344 10.496094 22.160156 C 10.257812 22.972656 10.949219 23.777344 12.039062 23.953125 C 12.039062 23.953125 12.039062 23.953125 12.042969 23.957031 L 12.097656 23.957031 C 13.164062 24.148438 14.238281 23.65625 14.496094 22.859375 C 14.496094 22.855469 14.5 22.847656 14.5 22.84375 L 14.5 22.757812 C 14.691406 21.9375 13.988281 21.148438 12.898438 20.960938 Z M 12.898438 20.960938 "/>
</g>
</svg>
