<svg xmlns="http://www.w3.org/2000/svg" xml:space="preserve" style="enable-background:new -814 816 370 370" viewBox="-814 816 370 370"><path d="M-739.926 915.435c-14.211 3.094-28.422 10.634-39.732 20.978-16.918 15.661-26.585 37.509-26.585 60.614-.097 23.201 7.25 41.569 23.105 58.197 14.307 14.984 31.322 23.491 52.01 25.908 19.528 2.32 37.122-1.933 54.233-13.147 9.377-6.187 34.125-31.322 34.125-34.705 0-.387-2.513-4.254-5.704-8.701l-5.607-8.12-5.124 6.38c-23.588 29.388-41.666 40.022-66.027 38.669-22.331-1.257-41.376-12.954-52.783-32.385-5.994-10.247-8.314-19.044-8.314-31.612.097-15.178 3.867-26.295 12.954-38.476 14.984-20.108 42.439-29.968 66.317-23.878 21.945 5.607 37.992 21.268 70.088 68.637 17.401 25.618 26.102 36.735 38.186 48.916 14.888 15.081 26.778 22.621 41.569 26.585 9.184 2.513 28.518 2.997 37.702.967 20.108-4.447 38.669-16.434 50.85-32.675 5.22-7.057 10.441-16.144 10.537-18.368 0-.773-2.997-1.16-10.537-1.16h-10.441l-3.674 5.317c-8.797 12.761-23.975 23.201-39.249 26.875-7.347 1.837-19.818 2.03-27.165.483-21.848-4.64-41.763-23.685-71.344-68.057-15.564-23.395-27.745-39.056-39.636-50.753-13.051-12.857-23.588-19.914-36.542-24.458-7.637-2.707-9.667-2.997-22.428-3.287-9.86-.194-16.047.192-20.784 1.256zm183.388.386c-7.927 2.127-17.884 6.864-26.778 12.857-6.767 4.544-22.525 20.011-28.422 27.938l-4.157 5.51 5.704 8.217c3.094 4.544 5.8 8.217 6.09 8.217.29 0 1.74-1.547 3.19-3.577 25.135-33.255 48.723-45.823 76.081-40.409 21.461 4.157 40.409 19.528 48.336 39.249 1.45 3.48 2.9 7.927 3.287 9.861l.677 3.674h-80.335v20.302h100.249l.58-4.737c1.353-11.794-2.32-30.452-8.604-42.923-8.701-17.304-26.198-33.159-44.856-40.602-14.5-5.703-36.735-7.25-51.042-3.577z" style="fill:#db3369"/></svg>