<svg xmlns="http://www.w3.org/2000/svg" xml:space="preserve" style="enable-background:new 0 0 500 500" viewBox="0 0 500 500"><path d="M187.4 2.6h124.7c.2.4.4.8.5 1.2 9.3 26.3 18.7 52.6 28 78.8 13.4 37.8 26.8 75.6 40.3 113.3 19.7 55.5 39.4 111 59.1 166.4 15 42.3 30.1 84.7 45.1 127 .3.8.6 1.7.9 2.6H380.6c-43.5-122.4-87.1-245-130.6-367.6h-.3C206.2 246.9 162.6 369.5 119 492.1H13.6v-.6l.6-1.2c1.5-4.1 2.9-8.3 4.4-12.4 14-39.5 28.1-79 42.1-118.5 14.6-41.2 29.3-82.5 43.9-123.7 11.1-31.3 22.3-62.6 33.4-93.9 15.4-43.4 30.8-86.8 46.2-130.1 1.1-3 2.1-6 3.2-9.1z"/><path d="M249.8 384.4c31.4 0 56.6 25.2 56.4 56.9-.2 31.3-26 56.5-57.6 55.8-30-.6-55.1-25.1-55.1-56.4 0-31.2 25.2-56.3 56.3-56.3z"/></svg>