<svg xmlns="http://www.w3.org/2000/svg" fill="none" viewBox="0 0 40 44"><path fill="#2D374B" d="m24.554 20.16 3.23-5.482 8.71 13.565.005 2.604-.029-17.915a1.35 1.35 0 0 0-.624-1.075l-15.68-9.02a1.382 1.382 0 0 0-1.339.087l-.055.034-15.22 8.82-.06.028a1.344 1.344 0 0 0-.787 1.146l.025 14.598 8.113-12.574c1.02-1.667 3.246-2.205 5.313-2.175l2.424.064-14.286 22.91 1.684.97 14.457-23.857 6.39-.023-14.42 24.459 6.01 3.457.718.412c.303.124.661.13.968.02L36 31.996l-3.04 1.762-8.407-13.598Zm1.232 17.757-6.069-9.526 3.705-6.287 7.971 12.564-5.607 3.25Z"/><path fill="#28A0F0" d="m19.715 28.392 6.07 9.525 5.606-3.249-7.97-12.564-3.706 6.288ZM36.498 30.847l-.004-2.604-8.71-13.565-3.231 5.483 8.408 13.598L36 31.997c.298-.242.479-.597.498-.98l-.001-.17Z"/><path fill="#fff" d="m0 33.302 4.293 2.474L18.58 12.865l-2.424-.064c-2.066-.03-4.291.508-5.313 2.175L2.73 27.55 0 31.743v1.559ZM26.825 12.865l-6.39.023L5.976 36.745l5.053 2.91 1.375-2.331 14.42-24.46Z"/><path fill="#96BEDC" d="M39.191 12.832a4.07 4.07 0 0 0-1.91-3.272L21.394.424a4.133 4.133 0 0 0-3.645 0C17.617.49 2.3 9.373 2.3 9.373a4.04 4.04 0 0 0-2.3 3.45v18.92l2.73-4.194-.024-14.599a1.345 1.345 0 0 1 .562-1.015c.071-.05 15.649-9.068 15.699-9.093a1.382 1.382 0 0 1 1.198-.006l15.68 9.02c.371.236.604.637.624 1.075v18.084c-.018.383-.17.739-.468.98l-3.04 1.763-1.569.909-5.607 3.249-5.685 3.295c-.307.11-.665.104-.968-.02l-6.727-3.868-1.375 2.33 6.046 3.481.524.297c.226.127.38.211.435.238.43.209 1.048.33 1.605.33.51 0 1.009-.094 1.48-.278l16.515-9.564a4.037 4.037 0 0 0 1.556-3.042V12.832Z"/></svg>