<svg xmlns="http://www.w3.org/2000/svg" xml:space="preserve" style="enable-background:new 0 0 500 500" viewBox="0 0 500 500"><path d="M250 0c138.1 0 250 111.9 250 250S388.1 500 250 500 0 388.1 0 250 111.9 0 250 0z" style="fill-rule:evenodd;clip-rule:evenodd;fill:#2e3148"/><path d="M249.5 105.8c79.7 0 144.2 64.6 144.2 144.2s-64.6 144.2-144.2 144.2c-79.7 0-144.2-64.6-144.2-144.2s64.6-144.2 144.2-144.2z" style="fill-rule:evenodd;clip-rule:evenodd;fill:#1b1e36"/><path d="M250 36.5c1.7 0 3.9.8 6.4 3.1 2.6 2.4 5.3 6.1 8.1 11.4 5.5 10.5 10.6 26 14.9 45.6 8.6 39.1 14 93.3 14 153.3s-5.4 114.3-14 153.3c-4.3 19.6-9.4 35.1-14.9 45.6-2.7 5.3-5.5 9-8.1 11.4-2.6 2.4-4.7 3.1-6.4 3.1-1.7 0-3.9-.8-6.4-3.1-2.6-2.4-5.3-6.1-8.1-11.4-5.5-10.5-10.6-26-14.9-45.6-8.6-39.1-14-93.3-14-153.3s5.4-114.3 14-153.3C224.9 77 230 61.5 235.5 51c2.7-5.3 5.5-9 8.1-11.4 2.6-2.3 4.7-3.1 6.4-3.1z" style="fill:none;stroke:#6f7390;stroke-width:9.7844"/><path d="M436.2 143c.9 1.5 1.3 3.8.5 7.2-.8 3.5-2.7 7.7-5.8 12.7-6.4 10-17.3 22.3-32.1 35.9-29.6 27.1-74 59-126.1 89.1-52.2 30.1-102 52.6-140.3 64.6-19.2 6-35.2 9.4-47.1 9.8-5.9.2-10.6-.3-14-1.3-3.3-1-5.1-2.5-6-4-.9-1.5-1.3-3.8-.5-7.2.8-3.5 2.7-7.7 5.8-12.7 6.4-10 17.3-22.3 32.1-35.9 29.6-27.1 74-59 126.1-89.1s102-52.6 140.3-64.6c19.2-6 35.2-9.4 47.1-9.8 5.9-.2 10.6.3 14 1.3 3.3 1 5.1 2.5 6 4z" style="fill:none;stroke:#6f7390;stroke-width:9.7844"/><path d="M430.2 361c3.3-1 5.1-2.5 6-4 .9-1.5 1.3-3.8.5-7.2-.8-3.5-2.7-7.7-5.8-12.7-6.4-10-17.3-22.3-32.1-35.9-29.6-27.1-74-59-126.1-89.1s-102-52.6-140.3-64.6c-19.2-6-35.2-9.4-47.1-9.8-5.9-.2-10.6.3-14 1.3-3.3 1-5.1 2.5-6 4l364.9 218zm0 0c-3.4 1.1-8 1.5-14 1.3m14-1.3-14 1.3m0 .1c-11.9-.5-27.9-3.8-47.1-9.8m47.1 9.8-47.1-9.8m0-.1c-38.3-12-88.1-34.5-140.3-64.6m140.3 64.6-140.3-64.6m.1 0c-52.2-30.1-96.5-62-126.1-89.1m126.1 89.1-126.1-89.1m-.1 0C87.9 185.2 77 173 70.6 162.9m32.1 35.9-32.1-35.9m0 0c-3.2-5-5.1-9.3-5.8-12.7m5.8 12.7-5.8-12.7m0 0c-.8-3.4-.4-5.7.5-7.2l-.5 7.2z" style="fill:none;stroke:#6f7390;stroke-width:9.7844"/><path d="M110.8 188.7c8.5 0 15.4 6.9 15.4 15.4s-6.9 15.4-15.4 15.4-15.4-6.9-15.4-15.4 6.9-15.4 15.4-15.4zM355.5 136c8.5 0 15.4 6.9 15.4 15.4s-6.9 15.4-15.4 15.4-15.4-6.9-15.4-15.4S347 136 355.5 136zM219.7 377.7c8.5 0 15.4 6.9 15.4 15.4s-6.9 15.4-15.4 15.4-15.4-6.9-15.4-15.4 6.9-15.4 15.4-15.4zm30.2-153.9c14.4 0 26.1 11.7 26.1 26.1 0 14.4-11.7 26.1-26.1 26.1-14.4 0-26.1-11.7-26.1-26.1 0-14.4 11.7-26.1 26.1-26.1z" style="fill-rule:evenodd;clip-rule:evenodd;fill:#b7b9c8"/></svg>