<svg xmlns="http://www.w3.org/2000/svg" xml:space="preserve" style="enable-background:new 0 0 500 500" viewBox="0 0 500 500"><circle cx="250" cy="250" r="250" style="fill-rule:evenodd;clip-rule:evenodd;fill:#e84142"/><path d="M338.2 256.5c8.7-15 22.6-15 31.3 0l53.9 94.7c8.7 15 1.6 27.2-15.7 27.2H299c-17.1 0-24.2-12.2-15.7-27.2l54.9-94.7zM233.9 74.2c8.7-15 22.4-15 31.1 0l12 21.7 28.3 49.8c6.9 14.2 6.9 30.9 0 45.1l-95.1 164.8c-8.7 13.4-23 21.9-39 22.8H92.3c-17.3 0-24.4-12-15.7-27.2l157.3-277z" style="fill:#fff"/></svg>