<svg xmlns="http://www.w3.org/2000/svg" xml:space="preserve" style="enable-background:new 750-750 2000 2000" viewBox="750 -750 2000 2000"><path d="m2109.19-570.147 298.508 139.951 296.081 400.437L1750 1061.534 783.297-30.568l309.834-395.584 319.541-143.995z" style="fill:#fff"/><path d="m2732.656-27.901-982.73 1116.258L766.861-28.346c62.182-81.775 123.759-162.602 185.163-243.56 37.304-49.183 75.124-98.006 111.154-148.111 16.871-23.462 42.096-32.163 65.763-43.461 81.881-39.091 164.437-76.766 246.449-115.586 13.255-6.274 26.421-9.597 40.882-9.595 228.19.042 456.38.078 684.57-.109 36.378-.03 64.026 22.647 94.639 36.532 73.488 33.332 145.344 70.25 218.206 104.992 9.576 4.566 17.066 10.444 22.997 18.466 98.122 132.722 196.1 265.55 295.972 400.877zm-1077.47 947.642.155.715c.144 1.934.061.821-.022-.292-19.206-33.425-39.447-66.209-58.325-99.873-103.085-183.825-207.689-366.797-310.936-550.532-16.348-29.093-35.418-51.99-66.692-67.079-78.805-38.02-156.153-79.064-234.024-119.014-41.169-21.121-82.211-42.488-128.831-66.598 6.39 9.725 8.62 14.199 11.814 17.822 85.514 97.015 171.336 193.758 256.678 290.924 163.416 186.058 326.403 372.493 490.179 558.233 11.619 13.177 20.73 30.516 40.004 35.694zm-364.674-710.988 458.234 807.109c6.242-9.014 8.819-12.153 10.772-15.642a163417.203 163417.203 0 0 0 113.391-202.833c107.185-192.066 214.171-384.245 321.866-576.025 7.817-13.92 8.14-26.044 4.167-40.398-25.579-92.404-50.699-184.936-76.107-277.388-14.312-52.077-28.888-104.082-43.641-157.185h-655.041l-133.641 462.362zM2370.218-423.6c-6.498-5.787-8.549-8.59-11.311-9.931-69.729-33.884-139.429-67.828-209.393-101.222-17.815-8.503-34.613-18.834-56.173-18.781-223.173.547-446.347.367-669.521.314-11.804-.003-22.723 1.672-33.767 6.979-45.797 22.006-92.107 42.941-138.114 64.515-42.587 19.97-85.028 40.253-126.699 60.003.914 8.765 5.572 10.617 10.266 12.606 89.839 38.044 179.696 76.05 269.437 114.324 7.999 3.411 16.029 4.327 24.404 4.315 189.737-.264 379.512-2.788 569.191.39 66.72 1.118 126.504-12.057 183.504-44.35 10.13-5.739 21.089-10.012 31.643-15.009 50.937-24.12 101.864-48.254 156.533-74.153zM2233.95 177.477 2683.119-36.12l-272.105-367.338-297.432 140.059 120.368 440.876zM1086.853-391.361 820.746-40.711 1260.7 185.567l128.925-448.763a24208449.3 24208449.3 0 0 1-302.772-128.165zm763.152 1299.072 7.557 5.24 771.013-875.839c-9.533-6.673-15.165-1.253-20.766 1.405-113.634 53.944-226.991 108.476-340.943 161.737-20.072 9.381-33.6 22.317-44.21 41.449-105.776 190.737-212.093 381.175-318.415 571.609-17.688 31.683-36.137 62.943-54.236 94.399z" style="fill:#494949"/><path d="M1522.637 391.758c72.381-5.012 72.091 10.523 71.502-75.5-.51-74.365-.226-148.736-.302-223.104-.04-38.793-10.353-49.175-48.563-49.938-11.556-.231-23.368 2.252-37.593-3.188-4.433-19.807-3.17-40.775-.161-65.396h128.493c10.699-36.905-.519-72.442 7.431-107.351 21.029-4.361 41.212-4.552 64.573.481v96.63c18.025 7.631 33.253 5.562 50.119 2.731 7.077-32.998-1.705-66.603 5.027-99.834 20.59-5.539 40.315-2.029 62.304-2.487 7.811 35.463-.453 70.678 5.499 106.456 28.623 5.541 57.545 8.585 84.615 19.852 85.611 35.631 103.652 126.5 37.533 191.744-3.701 3.652-6.845 7.099-6.962 13.888 20.946 9.425 42.809 17.746 58.301 36.21 61.96 73.848 20.517 197.064-74.717 221.189-31.454 7.968-62.663 17.778-97.453 14.669-7.334 36.251.759 71.45-5.164 107.684-21.363 6.257-42.189 4.534-65.451-.037v-95.938c-15.352-15.676-31.452-8.609-48.724-10.473-8.297 36.088 1.992 71.368-5.091 106.877-21.685 3.353-42.693 4.181-66.545-1.448v-105.77h-132.087c2.064-28.914 2.812-53.887 13.416-77.947zm188.805-1.723c49.159.557 95.07 3.826 139.348-11.951 25.05-8.926 43.584-24.812 47.443-52.95 3.303-24.087-6.661-43.821-26.433-55.558-49.748-29.531-104.367-26.387-160.357-23.387l-.001 143.846zm-.277-211.304c38.986 2.715 74.597 2.468 109.268-8.221 27.706-8.542 44.698-29.307 45.655-53.359 1.083-27.23-12.721-48.205-41.271-59.023-36.609-13.872-74.516-11.872-113.651-8.807l-.001 129.41z" style="fill:#fcc72b"/></svg>