<svg xmlns="http://www.w3.org/2000/svg" xml:space="preserve" style="enable-background:new 0 0 2000 2000" viewBox="0 0 2000 2000"><path d="M265.12 981.315c-.818 2.914-.663 5.849-.185 8.791-1.864 9.005-.615 18.108-.772 27.161-.223 12.913.029 25.831 1.684 38.674-.27 3.292-.291 6.571.49 9.811.49 19.326 3.26 38.416 6.198 57.47 1.572 10.198 2.321 20.57 5.597 30.463l.231 2.495c-.025 3.417.757 6.642 2.317 9.68l.4 2.542c2.604 17.721 8.08 34.74 12.852 51.921 3.743 13.478 7.55 26.965 13.365 39.76l-.005-.012c6.098 19.806 14.008 38.879 23.251 57.411l.005.008c4.63 11.971 9.953 23.6 16.971 34.392l-.082-.1c-.009 1.89.81 3.355 2.298 4.477l-.026.358c1.912 4.992 4.464 9.637 7.553 13.993-.062.343.076.558.413.645 3.511 8.121 8.118 15.598 13.37 22.693l-.116.3.268.178.869 1.331-.029-.026c7.056 12.984 14.956 25.414 24.283 36.904 0 0-.085-.065-.084-.066.427.892.752 1.852 1.292 2.669 11.095 16.756 23.508 32.547 36.341 47.957 11.771 14.136 23.503 28.382 37.24 40.756l.019.039c1.945 2.924 4.361 5.378 7.295 7.315l1.249 1.255 1.174 1.223.014.017 1.224 1.179.028.018c.819 1.611 2.097 2.765 3.642 3.651l.018.026 1.19 1.216.014.01c1.949 2.919 4.6 5.114 7.391 7.165l.112.092c.498 1.047 1.072 2.013 2.368 2.2l.359.256.211.522.545.058c-.064.405.108.631.515.678l.622.781c.18.399.488.591.926.577.396 1.419 1.234 2.337 2.779 2.455l-.065-.042c.333 1.764 1.774 2.704 2.959 3.76 20.751 18.488 42.216 36.096 64.815 52.294 1.714 1.228 3.8 2.109 4.281 5.267h-6.415c-178.68-.022-357.36-.042-536.04-.075-3.658-.001-7.316-.144-10.974-.22V408.285c184.196.019 368.391.038 552.587.053.405 0 .811-.065 1.216-.099-.026 2.501-2.38 2.929-3.785 4.156-4.305 3.759-9.608 6.257-13.47 10.588l-.04.028c-16.976 11.674-32.724 24.842-47.584 39.092l-.062.05c-.691.394-1.482.677-2.06 1.198a736.854 736.854 0 0 0-97.456 106.75c-8.106 10.845-16.637 21.458-22.965 33.545 0 0 .066-.058.067-.057-4.086 3.499-6.173 8.439-8.922 12.838-7.923 12.679-16.365 25.072-22.587 38.748l-.053.065c-2.103 1.956-2.947 4.571-3.766 7.198l.023-.015c-8.087 12.255-14.391 25.405-19.616 39.097l.04-.028c-.459.616-1.034 1.177-1.359 1.857-15.993 33.461-28.507 68.235-38.842 103.803-9.829 33.826-17.152 68.216-21.729 103.145-2.296 17.526-5.056 35.037-4.891 52.803l-.167 3.724c-1.101 2.686-.853 5.456-.507 8.232-.954 1.722-.779 3.496-.247 5.286-.349.302-.371.626-.07.973zm1467.142-25.54c.587 1.827.773 3.661.102 5.511 2.506 9.394 2.027 18.979 1.82 28.546.822 4.142.639 8.299.175 12.46.512 6.456.52 12.911-.016 19.365l-.001 2.637c-.01 12.451 1.081 24.96-1.978 37.252.655 1.244.477 2.487.006 3.731.534.646.49 1.267-.08 1.866a1517.4 1517.4 0 0 1-.013 2.14c.085 14.953-2.517 29.651-4.349 44.413-.665 5.357-.939 10.842-2.911 15.986.252.283.244.556-.024.821l-.204 1.219-.221 2.462c-2.235 15.656-4.797 31.246-9.453 46.409l-.128 1.245c-.297 2.99-.826 5.915-2.418 8.538l-.264 2.466c-4.026 18.985-10.073 37.389-16.109 55.793-2.25 6.862-4.193 13.857-7.876 20.165.109.395.03.747-.236 1.058-4.351 15.475-11.398 29.881-17.847 44.509-1.932 4.383-3.244 9.143-6.405 12.943l.009-.011c-5.037 12.767-11.355 24.884-18.557 36.552.029 1.054-.322 1.911-1.27 2.461-9.068 18.048-19.35 35.357-31.375 51.608.001.001.067-.056.067-.056-5.88 11.161-13.628 21.072-21.091 31.148-11.44 15.445-22.746 31.019-36.29 44.766.002.001.054-.031.054-.031-10.94 13.832-22.969 26.656-35.825 38.714l-.076.062c-2.979 3.481-5.928 6.992-9.739 9.633l-.158.092c-3.276 3.639-6.317 7.529-10.699 9.982l.048-.043c-.365 1.311-1.084 2.244-2.544 2.388l-.005.003c-2.333 3.041-4.82 5.906-8.477 7.438l.037-.027c-8.92 10.042-19.797 17.865-30.078 26.349-5.289 4.365-10.977 8.245-16.485 12.343-.143.377-.414.533-.812.467-4.103 3.931-8.519 7.426-13.697 9.863.001.001.073-.068.073-.067l-4.247 4.967h11.102c178.307-.004 356.614-.007 534.92-.022 2.641 0 5.282-.143 7.922-.219V408.287h-554.356c1.984 1.663 2.537 2.193 3.153 2.633 21.487 15.326 42.062 31.805 61.799 49.311 41.183 36.528 77.759 77.25 109.855 121.952 25.294 35.228 47.255 72.461 65.973 111.599 18.099 37.844 32.883 76.943 44.245 117.316 4.012 14.257 8.162 28.505 10.262 43.227 4.1 13.945 6.458 28.216 7.963 42.645l.384 2.663c3.683 18.535 6.042 37.223 6.345 56.142zm-723.241 659.699c322.842-4.349 596.542-270.046 592.199-613.112-4.085-322.68-268.961-599.124-612.501-593.88-322.718 4.927-591.33 270.011-590.95 603.935-.593 329.652 268.169 607.68 611.252 603.057zm181.137-688.807c26.976 3.716 51.499 12.539 70.681 33.149 13.062 14.034 21.174 30.688 27.044 48.569 12.417 37.818 13.344 75.475-2.795 112.592-13.748 31.616-37.663 53.382-67.514 69.479-26.028 14.035-53.723 23.983-81.394 34.033-.745.271-1.458.628-3.192 1.382 5.134 36.535 16.549 71.685 25.583 108.218-21.664 7.304-43.77 11.839-66.458 16.961-10.361-35.049-17.486-70.28-27.497-105.418-17.84.308-33.793 7.234-51.116 10.589 6.615 36.714 18.685 71.371 25.531 108.056-21.127 6.98-43.299 9.016-64.982 16.778-11.468-35.568-18.704-71.767-27.983-108.604-44.218 8.762-87.731 19.754-131.78 31.818-4.554-27.235-4.515-54.276-7.432-81.184 4.123-4.163 9.534-4.665 14.554-5.736 8.149-1.739 16.433-2.842 24.608-4.473 23.254-4.64 31.074-16.384 26.535-39.714-3.927-20.182-10.912-39.555-15.832-59.475-7.211-29.195-14.373-58.403-21.641-87.585-6.039-24.245-12.226-48.453-18.3-72.688-5.187-20.694-9.921-41.51-15.573-62.075-5.169-18.807-15.743-26.305-34.596-26.04-7.186.101-14.078 1.959-20.958 3.747-12.137 3.154-23.743 8.195-36.768 10.506-8.453-22.743-11.893-46.782-19.597-70.878 44.05-12.071 88.33-22.346 132.933-33.44l-26.948-107.368c21.884-6.897 44.106-10.794 66.324-17.373 9.499 34.821 18.082 69.613 26.184 105.261 16.637-4.299 32.811-7.809 49.486-13.247-4.064-35.502-17.173-68.856-23.652-104.419 21.557-6.356 42.973-12.028 65.117-16.558 11.71 35.388 18.133 71.459 28.496 106.791 12.868-1.013 25.384-2.027 37.904-2.977 26.052-1.977 51.993-2.298 77.52 4.696 26.402 7.234 46.185 22.9 60.112 46.334 12.785 21.513 21.551 44.209 21.051 69.681-.549 27.977-11.228 51.652-30.781 71.478a165.453 165.453 0 0 0-4.605 4.872c-.232.255-.211.74-.499 1.874 7.485.791 14.887 1.377 22.23 2.388zm-166.504 241.552c28.369-6.982 56.784-13.837 83.156-26.954 18.954-9.427 36.039-20.793 46.587-40.266 16.971-31.332 7.285-67.749-23.049-83.579-16.309-8.511-34.017-10.758-52.103-10.08-33.557 1.257-65.814 9.675-97.975 18.459-7.364 2.011-14.665 4.252-22.865 6.641 14.765 47.347 23.786 95.492 36.906 143.082 10.453-2.603 19.892-4.977 29.343-7.303zM942.59 965.234c7.191-1.567 13.721-2.902 20.209-4.419 30.428-7.115 59.635-17.353 85.745-34.951 11.844-7.983 22.26-17.629 28.538-30.831 10.078-21.192 3.825-40.262-9.158-57.509-12.967-17.227-32.041-22.638-52.64-23.585-21.37-.982-42.095 3.402-62.643 8.478-14.156 3.497-28.127 7.747-43.141 11.928 9.86 44.545 20.774 87.711 33.09 130.889z" style="fill:#4cc847"/></svg>