<svg xmlns="http://www.w3.org/2000/svg" xml:space="preserve" style="enable-background:new 250-250 2500 2500" viewBox="250 -250 2500 2500"><circle cx="1500.1" cy="1000.1" r="1219" style="fill:#f04086"/><path d="M2081.2 1059.1c-49.2-54-120-87.8-212.5-101.3v-2c81-13.1 144.7-46.3 188-99.4 43.9-52.8 67.8-119.3 67.4-188 0-114.1-36.8-191.7-112.9-252.7-76-61-190.3-81-345-81h-584.6v544H745.9V1087h916.2c72.1 0 126.3 5.1 162 33.9 35.8 28.8 54.1 66.1 54.1 121.2s-18.1 102.1-54.1 131.6-90.2 49-162 49h-314.3v-162h-266.2v370.4h603.6c153.5 0 270.8-40 352.2-102.3 81.4-62.3 119.6-154.3 119.6-267.1 1.1-74.7-26-147-75.8-202.6zm-452.5-180.8h-280.8V542.6h280.8c144.3 0 216.4 56.4 216.4 167.8s-72.1 167.9-216.4 167.9z" style="fill:#fff"/></svg>