<svg xmlns="http://www.w3.org/2000/svg" xml:space="preserve" style="enable-background:new 0 0 500 500" viewBox="0 0 500 500"><path d="M250 0c138.08 0 250 111.92 250 250 0 138.08-111.92 250-250 250C111.92 500 0 388.08 0 250 0 111.92 111.92 0 250 0Z" style="fill:#f0b90b"/><path d="m137.4 250 .18 66.106 56.17 33.053v38.702l-89.042-52.224V230.669Zm0-66.106v38.522l-32.713-19.351v-38.522l32.713-19.35 32.872 19.35zm79.808-19.35 32.712-19.352 32.872 19.351-32.872 19.351z" style="fill:#fff"/><path d="M161.038 302.404v-38.702l32.712 19.35v38.523zm56.17 60.617 32.712 19.35 32.872-19.35v38.521l-32.872 19.351-32.712-19.35zm112.5-198.478 32.712-19.35 32.872 19.35v38.522l-32.872 19.35v-38.52Zm32.712 151.563L362.6 250l32.712-19.351v104.968l-89.042 52.224v-38.702z" style="fill:#fff"/><path d="m338.962 302.404-32.712 19.17v-38.521l32.712-19.351z" style="fill:#fff"/><path d="m338.962 197.596.18 38.702-56.33 33.053v66.266l-32.712 19.17-32.712-19.17v-66.266l-56.33-33.053v-38.702l32.852-19.35 55.99 33.212 56.33-33.213 32.873 19.351zM161.038 131.51l88.882-52.403 89.042 52.403-32.712 19.351-56.33-33.213-56.17 33.213Z" style="fill:#fff"/></svg>