<svg xmlns="http://www.w3.org/2000/svg" xml:space="preserve" viewBox="0 0 500 500"><path fill="#FCB207" d="M492.739 289.324c-.744 11.1-4.326 21.732-7.419 32.155-12.335 41.569-34.3 77.665-66.201 107.246-33.296 30.875-72.012 51.575-116.72 60.855-5.86 1.216-57.282 7.414-105.699-.354-23.141-5.041-44.906-13.508-65.437-24.965-15.19-8.476-29.919-17.876-42.554-30.089-9.81-9.482-21.011-17.957-28.95-28.813-7.066-9.663-14.509-19.345-20.266-30.057-10.39-19.332-17.738-39.52-25.362-60.396-15.871-43.457-6.375-95.665-3.031-118.36 1.227-8.325 4.379-16.132 6.625-24.184 7.66-27.462 22.278-51.217 39.362-73.407 18.056-23.452 40.205-42.597 65.412-58.399 24.298-15.233 50.694-23.531 78.352-30.953 30.828-8.273 97.351-1.525 104.737.669 13.189 3.918 26.898 6.258 39.383 12.273 23.223 11.188 45.484 23.513 64.919 41.23 9.532 8.69 19.282 16.987 27.635 26.855 25.152 29.713 44.718 62.785 52.022 101.175 9.331 49.056 3.381 94.698 3.192 97.519zM61.33 248.057c.056 104.703 83.515 192.09 192.386 190.33 101.569-1.642 183.32-81.183 185.676-184.463C441.876 145.045 355.865 63 253.91 60.51 145.271 57.858 62.478 146.356 61.33 248.057z"/><path fill="#06236B" d="M248.792 416.696c-87.216 1.026-164.364-73.044-165.54-164.617-1.096-85.311 62.122-155.055 137.386-167.149 56.324-9.051 106.158 5.273 147.221 45.397 34.412 33.625 50.516 75.19 49.911 123.412-1.127 89.922-77.838 165.271-168.978 162.957zm2.134-16.667c82.614-.251 150.541-68.101 150.004-150.697-.537-82.687-66.307-149.97-150.949-150.098-82.08-.125-150.175 68.394-149.791 150.149.398 84.923 69.077 150.405 150.736 150.646z"/><path fill="#06236B" d="M320.907 242.094c20.257 16.151 28.758 36.585 20.101 61.453-9.231 26.514-30.327 36.209-57.743 35.705v23.63h-24.674V340.19c-5.686-1.721-10.733-.841-16.544-.922v23.79c-8.455.622-16.149.819-24.657-.126v-23.629h-57.486l15.026-30.187h16.344V188.218c-3.148-1.411-6.716-.773-10.104-.622-4.267.189-7.308-1.1-9.111-5.065-3.683-8.098-7.406-16.178-11.596-25.32h56.036c1.674-8.822.04-17.006 1.213-25.277h24.027v24.72c5.959.266 10.944.581 16.488-.34v-24.327h24.664v24.856c20.545 3.032 35.785 12.917 44.075 31.637 8.32 18.785 5.302 36.683-6.059 53.614zm-99.249 21.526v45.148c24.702 0 49.123.572 73.496-.254 11.312-.383 19.41-11.301 19.279-22.675-.132-11.393-8.7-21.572-21.023-21.987-23.603-.797-47.252-.232-71.752-.232zm.1-30.867c19.858 0 39.168.581 58.424-.201 13.179-.535 22.138-11.574 21.507-24.161-.607-12.127-10.187-21.074-23.388-21.523-7.35-.25-14.715-.068-22.074-.071-11.361-.005-22.722-.001-34.47-.001l.001 45.957z"/></svg>