<svg xmlns="http://www.w3.org/2000/svg" xml:space="preserve" viewBox="0 0 500 500"><path fill="#0B5079" d="M245.535 292.49s-11.627 6.458-15.506 8.645L104.197 173.863V8.006l43.175 40.827 98.426 98.455s-.103 9.726-.113 13.355c-.106 40.629-.15 131.847-.15 131.847zm-35.357 38.09H104.29V203.559l110.478 112.355c.865-.745-2.103 8.816-4.59 14.666z"/><path fill="#79C5EB" d="M282.441 300.356c-4.355-2.681-9.949-5.676-16.796-7.147V188.256c24.729-4.234 74.055 16.297 92.358 36.71l-75.562 75.39z"/><path fill="#2781AC" d="M410.023 348.373c-2.069 36.286-15.88 66.568-38.687 93.116L296.13 365.43c2.624-4.211 5.364-10.215 7.321-17.056l106.572-.001zm-52.692 106.866c-25.854 21.841-56.112 34.376-91.429 36.872V386.17l16.808-7.114 74.621 76.183z"/><path fill="#175B8C" d="m218.271 365.59-75.236 76.028c-23.7-26.551-36.431-57.245-39.236-93.135h106.767c1.748 5.564 4.029 11.791 7.705 17.107z"/><path fill="#4FA1D2" d="M409.412 330.452H303.96l-6.87-16.44 74.495-75.129c21.085 19.685 37.62 59.312 37.827 91.569z"/><path fill="#175B8C" d="M238.325 491.208c-31.081-4.109-58.694-16.119-82.092-36.507l75.798-75.28 13.761 5.734c-.08 32.454-.221 106.956-.221 106.956s-4.143-.493-7.246-.903z"/></svg>