<svg xmlns="http://www.w3.org/2000/svg" xml:space="preserve" style="enable-background:new 0 0 500 500" viewBox="0 0 500 500"><path d="M302.6 342.1c79.9 0 144.7-64.8 144.7-144.7S382.6 52.6 302.6 52.6s-144.7 64.8-144.7 144.7 64.8 144.8 144.7 144.8zm0 52.6c-109 0-197.4-88.4-197.4-197.4C105.3 88.4 193.6 0 302.6 0S500 88.4 500 197.4s-88.4 197.3-197.4 197.3z" style="fill:#35d07f"/><path d="M197.4 447.4c79.9 0 144.7-64.8 144.7-144.7S277.3 158 197.4 158 52.6 222.7 52.6 302.6s64.8 144.8 144.8 144.8zm0 52.6C88.4 500 0 411.6 0 302.6s88.4-197.4 197.4-197.4 197.4 88.4 197.4 197.4c-.1 109-88.4 197.4-197.4 197.4z" style="fill:#fbcc5c"/></svg>