<svg xmlns="http://www.w3.org/2000/svg" xml:space="preserve" style="enable-background:new 0 0 500 500" viewBox="0 0 500 500"><path d="M35.1 32.3v188.2c0 6.4 5.1 11.6 11.5 11.6l84.2-.4c8.8 0 14.2-9.7 9.8-17.4l-10.9-19.2c-4.7-8.3-15.2-11.2-23.4-6.4l-1.2.7c-8.1 4.7-18.4 1.9-23.1-6.3-2.4-4.3-2.9-9.4-1.4-14.1l17.5-53.3c2.7-8.3 11.2-13.3 19.6-11.5l54.2 11.2c4.7 1 8.8 4 11.3 8.3 4.7 8.2 1.9 18.7-6.2 23.5l-1.2.7c-8.2 4.8-11 15.4-6.3 23.8l10.7 18.9c4.4 7.7 15.3 7.7 19.7 0l42.1-73.4c3.2-5.6 1.3-12.7-4.1-15.9L77.8 7.2C58.8-4 35.1 10 35.1 32.3zm413.6 192.9L288.5 131c-5.5-3.2-12.5-1.3-15.6 4.3l-41.8 74.4c-4.3 7.7 1.1 17.4 9.9 17.4h27.5c6.3 0 11.4-5.2 11.4-11.6v-12.8c0-6.4 5.1-11.6 11.4-11.6h8c3.3 0 6.4 1.4 8.5 3.9l41.6 47.8c3.8 4.4 3.8 11 0 15.4l-41.6 47.9c-2.2 2.5-5.3 3.9-8.5 3.9h-8c-6.3 0-11.4-5.2-11.4-11.6v-12.8c0-6.4-5.1-11.6-11.4-11.6h-27.2c-8.8 0-14.2 9.6-9.9 17.4l41.4 73.8c3.1 5.6 10.1 7.5 15.6 4.3l160.2-94.1c19.1-11.2 19.1-39.1.1-50.2z" style="fill:#34c88a"/><path d="M77.8 493 238 398.9c5.5-3.2 7.3-10.3 4.1-15.9l-42.4-74c-4.4-7.7-15.3-7.7-19.7 0l-13.8 24.3c-3.1 5.5-1.3 12.6 4.2 15.8l10.9 6.4c5.5 3.2 7.3 10.3 4.2 15.8l-4 7c-1.6 2.9-4.4 4.9-7.6 5.6l-61.5 12.8c-5.6 1.2-11.3-2.1-13.1-7.7l-19.9-60.6c-1-3.2-.7-6.6.9-9.5l4-7c3.1-5.5 10.1-7.5 15.6-4.2l10.9 6.4c5.5 3.2 12.4 1.3 15.6-4.2l13.6-24c4.4-7.7-1.1-17.4-9.8-17.4l-83.5-.4c-6.3 0-11.5 5.2-11.5 11.6v188.2c-.2 22.4 23.6 36.3 42.6 25.1z" style="fill:#163f59"/></svg>