<svg xmlns="http://www.w3.org/2000/svg" xml:space="preserve" style="enable-background:new 0 0 500 500" viewBox="0 0 500 500"><linearGradient id="a" x1="252.654" x2="252.654" y1="-1.637" y2="491.041" gradientUnits="userSpaceOnUse"><stop offset="0" style="stop-color:#011e3f"/><stop offset="1" style="stop-color:#002a68"/></linearGradient><path d="M252.7 23.9 450 136.8v225.5L252.7 475.2 55.3 362.3V136.8L252.7 23.9m0-21.5L36.6 126v247.1l216 123.6 216-123.6V126L252.7 2.4z" style="fill:url(#a)"/><linearGradient id="b" x1="252.266" x2="252.266" y1="-1.637" y2="491.041" gradientUnits="userSpaceOnUse"><stop offset="0" style="stop-color:#011e3f"/><stop offset="1" style="stop-color:#002a68"/></linearGradient><path d="M357 195H147.5l18.5-84.7h170.2z" style="fill:url(#b)"/><linearGradient id="c" x1="251.881" x2="251.881" y1="-1.637" y2="491.041" gradientUnits="userSpaceOnUse"><stop offset="0" style="stop-color:#011e3f"/><stop offset="1" style="stop-color:#002a68"/></linearGradient><path d="M196.8 208.1h110.1l-17.7 49.3 5.4 52.3h-85.5l6.2-52.3z" style="fill:url(#c)"/><linearGradient id="d" x1="341.981" x2="341.981" y1="-1.637" y2="491.041" gradientUnits="userSpaceOnUse"><stop offset="0" style="stop-color:#011e3f"/><stop offset="1" style="stop-color:#002a68"/></linearGradient><path d="m356.2 224.3 58.6 42.3-77.1 134h-31.5l-37-33.9V349l38-34.8.5-57.6z" style="fill:url(#d)"/><linearGradient id="e" x1="162.128" x2="162.128" y1="-1.637" y2="491.041" gradientUnits="userSpaceOnUse"><stop offset="0" style="stop-color:#011e3f"/><stop offset="1" style="stop-color:#002a68"/></linearGradient><path d="m147.9 224.3-58.5 42.3 77 134h31.5l37-33.9V349l-38-34.8-.5-57.6z" style="fill:url(#e)"/></svg>