<svg xmlns="http://www.w3.org/2000/svg" xml:space="preserve" style="enable-background:new 0 0 2000 2000" viewBox="0 0 2000 2000"><path d="M393.737 553.633 18.507 227.127c4.137-5.64 9.354-3.009 13.594-3.015 137.852-.175 275.704-.105 413.556-.245 8.904-.009 16.321 1.327 23.55 7.669 211.278 185.35 422.754 370.474 634.219 555.611 2.675 2.342 5.622 4.375 6.816 9.968h-17.028c-150.237.002-300.475-.304-450.711.09-159.507.418-294.603 109.811-327.235 264.189-37.805 178.849 87.839 360.383 269.354 389.437 59.452 9.516 119.315 5.29 178.961 4.857 24.847-.18 43.041 6.692 61.494 23.299 92.446 83.198 186.114 165.037 279.261 247.458 3.839 3.397 8.969 5.866 10.654 11.753-6.152 3.525-12.709 1.712-18.911 1.717-158.314.128-316.629.086-474.943.112-283.496.046-533.457-204.636-591.589-482.227-63.53-303.366 97.11-589.052 356.178-699.653 1.954-.836 3.731-2.086 8.01-4.514z" style="fill:#2972fe"/><path d="M1981.684 1737.366c-6.163 4.223-11.118 2.636-15.711 2.64-137.305.109-274.61-.018-411.915.309-10.505.025-18.157-3.167-25.915-9.969-186.208-163.269-372.6-326.329-558.945-489.441-26.668-23.343-53.272-46.757-80.587-70.736 5.933-5.406 12.037-3.16 17.356-3.166 150.228-.155 300.456.128 450.684-.19 160.912-.34 298.472-112.548 327.964-266.893 33.323-174.393-77.522-343.101-251.604-383.103-35.421-8.139-71.33-9.578-107.479-9.237-37.15.35-74.306.038-111.459.113-7.04.014-13.337-.261-19.335-5.573-103.525-91.68-207.257-183.123-310.912-274.59 3.086-6.16 7.999-3.503 11.642-3.507 163.689-.169 327.409-2.172 491.061.292 291.592 4.391 523.241 210.577 580.983 474.113 49.612 226.429-9.978 423.95-174.101 588.445-49.104 49.214-107.023 86.469-170.391 115.124-4.41 1.994-8.825 3.98-13.18 6.092-.852.413-1.431 1.389-3.061 3.044l374.905 326.233z" style="fill:#2ed7a3"/></svg>