<svg xmlns="http://www.w3.org/2000/svg" xml:space="preserve" style="enable-background:new 250-250 2500 2500" viewBox="250 -250 2500 2500"><circle cx="1500" cy="1000" r="1207.5" style="fill:#002352"/><path d="M1500 2229.1c-165.9 0-326.9-32.5-478.4-96.6-72.8-30.8-143.1-68.9-208.8-113.3-65.1-44-126.3-94.5-181.9-150.1-55.6-55.6-106.1-116.8-150.1-181.9-44.4-65.7-82.5-135.9-113.3-208.8-64-151.5-96.5-312.5-96.5-478.4 0-165.9 32.5-326.9 96.6-478.4 30.8-72.8 68.9-143.1 113.3-208.8 44-65.1 94.5-126.3 150.1-181.9 55.6-55.5 116.8-106 181.9-150 65.7-44.4 135.9-82.5 208.8-113.3 151.5-64.1 312.5-96.6 478.4-96.6 165.9 0 326.9 32.5 478.4 96.6 72.8 30.8 143.1 68.9 208.8 113.3 65.1 44 126.3 94.5 181.9 150.1 55.6 55.6 106.1 116.8 150.1 181.9 44.4 65.7 82.5 135.9 113.3 208.8 64.1 151.5 96.6 312.5 96.6 478.4 0 165.9-32.5 326.9-96.6 478.4-30.8 72.8-68.9 143.1-113.3 208.8-44 65.1-94.5 126.3-150.1 181.9-55.6 55.6-116.8 106.1-181.9 150.1-65.7 44.4-135.9 82.5-208.8 113.3-151.6 64-312.6 96.5-478.5 96.5zm0-2415c-160.1 0-315.4 31.4-461.6 93.2C968.1-63 900.4-26.2 837 16.6 774.2 59 715.1 107.8 661.4 161.4 607.8 215.1 559 274.2 516.6 337c-42.8 63.4-79.6 131.2-109.3 201.4-61.8 146.2-93.2 301.5-93.2 461.6s31.4 315.4 93.2 461.6c29.7 70.3 66.5 138 109.3 201.4 42.4 62.8 91.2 121.9 144.8 175.5 53.7 53.7 112.7 102.4 175.5 144.8 63.4 42.8 131.2 79.6 201.4 109.3 146.2 61.8 301.5 93.2 461.6 93.2s315.4-31.4 461.6-93.2c70.3-29.7 138-66.5 201.4-109.3 62.8-42.4 121.9-91.2 175.5-144.8 53.7-53.7 102.4-112.7 144.8-175.5 42.8-63.4 79.6-131.2 109.3-201.4 61.8-146.2 93.2-301.5 93.2-461.6s-31.4-315.4-93.2-461.6c-29.7-70.3-66.5-138-109.3-201.4-42.4-62.8-91.2-121.9-144.8-175.5C2285 107.8 2225.9 59 2163.1 16.6c-63.4-42.8-131.2-79.6-201.4-109.3-146.2-61.9-301.6-93.2-461.7-93.2z" style="fill:#06c"/><path d="M823.4 686.5h852.7s294.3-2.8 90.8 376.8c0 0-148.5 297.1-517.1 291.6l198.9-507.1c8.1-20.7-2.1-44.1-22.9-52.2-4.4-1.7-9.2-2.7-13.9-2.8l-261.1-4.5-330.1 803.2s110 11 170.5 5.5l-33 82.5h156a21 21 0 0 0 19.7-13.6l27.9-74.4 66-5.5-38.5 93.5H1341c11.3 0 21.4-6.9 25.6-17.4l42.7-109.1s462.1-77 671.1-451.1c0 0 280.6-434.6-49.5-588.6-64.3-29.5-133.1-48.1-203.5-55l38.8-94.9c3.9-9.7-.7-20.7-10.4-24.7-2.3-.9-4.7-1.4-7.2-1.4h-142.4l-44 115.5h-60.5l34.2-89.7c3.7-9.8-1.2-20.8-11-24.6-2.2-.8-4.5-1.2-6.8-1.2h-143l-44 115.5H986.7c-24.4-.1-46.8 13.4-58.2 34.9L823.4 686.5z" style="fill:#fff"/></svg>