<svg xmlns="http://www.w3.org/2000/svg" xml:space="preserve" style="enable-background:new 0 0 500 500" viewBox="0 0 500 500"><path d="M400.4 99.4c-2-2-3.1-4.1-3.1-6.7 0-2.6 1-4.6 3.1-6.7 4.1-3.6 10.2-3.6 14.3 0 2 2 3.1 4.1 3.1 6.7 0 2.6-1 4.6-3.1 6.7-2 1.5-4.6 2.6-7.2 2.6-2.5.5-5-.6-7.1-2.6M375.3 126c-1.5-2-2.6-4.1-2.6-6.7s1-4.6 2.6-6.7c3.6-3.6 9.7-3.6 13.3 0 1.5 2 2.6 4.1 2.6 6.7s-1 4.6-2.6 6.7c-2 1.5-4.1 2.6-6.7 2.6-2.5 0-4.5-1-6.6-2.6m-27.1 26.1c-1.5-1.5-2.6-4.1-2.6-6.7s1-4.6 2.6-6.7c3.6-3.6 9.7-3.6 13.3 0 1.5 1.5 2.6 4.1 2.6 6.7s-1 4.6-2.6 6.7c-2 2-4.1 2.6-6.7 2.6-2.5 0-5.1-1-6.6-2.6M322 178.3c-2-1.5-3.1-4.1-3.1-6.7s1-4.6 3.1-6.7c4.1-3.6 10.2-3.6 14.3 0 2 1.5 3.1 4.1 3.1 6.7s-1 5.1-3.1 6.7c-2 2-4.6 2.6-7.2 2.6-2.5-.1-5-.6-7.1-2.6m-25.1 26.1c-2-1.5-2.6-4.1-2.6-6.7s1-4.6 2.6-6.7c3.6-3.6 9.7-3.6 13.3 0 2 1.5 2.6 4.1 2.6 6.7s-1 5.1-2.6 6.7c-1.5 2-4.1 2.6-6.7 2.6-2.5.5-5-.5-6.6-2.6m-30.2 19.5c0-2.6 1-4.6 2.6-6.7 3.6-3.6 9.7-3.6 13.3 0 2 2 2.6 4.1 2.6 6.7s-1 4.6-2.6 6.7c-1.5 1.5-4.1 2.6-6.7 2.6-2.6 0-4.6-1-6.7-2.6-1.5-1.6-2.5-4.2-2.5-6.7zM218 281.8c-1.5-1.5-2.6-4.1-2.6-6.7 0-2.6 1-4.6 2.6-6.7 3.6-3.6 9.7-3.6 13.3 0 2 2 2.6 4.1 2.6 6.7 0 2.6-1 4.6-2.6 6.7-1.5 2-4.1 2.6-6.7 2.6-2.5.4-4.5-.6-6.6-2.6m-27.1 26.1c-2-1.5-3.1-4.1-3.1-6.7 0-2.6 1-4.6 3.1-6.7 4.1-3.6 10.2-3.6 14.3 0 2 2 3.1 4.1 3.1 6.7 0 2.6-1 4.6-3.1 6.7-2 2-4.6 2.6-7.2 2.6-2.5.5-5.1-.6-7.1-2.6m-25.1 26.6c-1.5-1.5-2.6-4.1-2.6-6.7s1-5.1 2.6-6.7c3.6-3.6 9.7-3.6 13.3 0 1.5 1.5 2.6 4.1 2.6 6.7s-1 4.6-2.6 6.7c-2 2-4.1 2.6-6.7 2.6s-4.6-1-6.6-2.6m-26.1 26.1c-2-1.5-2.6-4.1-2.6-6.7 0-2.6 1-4.6 2.6-6.7 3.6-3.6 9.7-3.6 13.3 0 1.5 2 2.6 4.1 2.6 6.7 0 2.6-1 5.1-2.6 6.7-2 2-4.1 2.6-6.7 2.6s-5.1-.5-6.6-2.6m-27.2 26.2c-2-1.5-3.1-4.1-3.1-6.7s1-4.6 3.1-6.7c4.1-3.6 10.2-3.6 13.8 0 2 2 3.1 4.1 3.1 6.7s-1 5.1-3.1 6.7-4.6 2.6-7.2 2.6-5.1-.6-6.6-2.6m-25.6 26.1c-2-2-2.6-4.1-2.6-6.7 0-2.6 1-4.6 2.6-6.7 3.6-3.6 9.7-3.6 13.3 0 2 2 2.6 4.1 2.6 6.7 0 2.6-1 4.6-2.6 6.7-1.5 1.5-4.1 2.6-6.7 2.6-2 .5-4.6-.6-6.6-2.6m13.3-313.5c1.5-2 2.6-4.1 2.6-6.7 0-2.6-1-4.6-2.6-6.7-3.6-3.6-9.7-3.6-13.3 0-2 2-2.6 4.1-2.6 6.7 0 2.6 1 4.6 2.6 6.7 1.5 1.5 4.1 2.6 6.7 2.6 2.5.5 5.1-.6 6.6-2.6m26.1 26.6c2-2 3.1-4.1 3.1-6.7s-1-4.6-3.1-6.7c-4.1-3.6-10.2-3.6-14.3 0-2 2-3.1 4.1-3.1 6.7s1 4.6 3.1 6.7c2 1.5 4.6 2.6 7.2 2.6s5.1-1 7.1-2.6m26.7 26.1c1.5-1.5 2.6-4.1 2.6-6.7s-1-4.6-2.6-6.7c-3.6-3.6-9.7-3.6-13.3 0-1.5 1.5-2.6 4.1-2.6 6.7s1 4.6 2.6 6.7c2 2 4.1 2.6 6.7 2.6 2 0 4.5-1 6.6-2.6m26.1 26.2c1.5-1.5 2.6-4.1 2.6-6.7s-1-4.6-2.6-6.7c-3.6-3.6-9.7-3.6-13.3 0-1.5 1.5-2.6 4.1-2.6 6.7s1 5.1 2.6 6.7c2 2 4.1 2.6 6.7 2.6 2-.1 4.6-.6 6.6-2.6m25.6 26.1c2-1.5 3.1-4.1 3.1-6.7s-1-4.6-3.1-6.7c-3.6-3.6-10.2-3.6-13.8 0-2 1.5-3.1 4.1-3.1 6.7s1 5.1 3.1 6.7c2 2 4.6 2.6 7.2 2.6 2.5.5 5.1-.5 6.6-2.6m29.2 19.5c0-2.6-1-4.6-2.6-6.7-3.6-3.6-9.7-3.6-13.3 0-2 2-2.6 4.1-2.6 6.7s1 4.6 2.6 6.7c1.5 1.5 4.1 2.6 6.7 2.6s4.6-1 6.7-2.6 2.5-4.2 2.5-6.7zm23.6 33.3c2-2 2.6-4.1 2.6-6.7s-1-4.6-2.6-6.7c-3.6-3.6-9.7-3.6-13.3 0-2 2-2.6 4.1-2.6 6.7s1 4.6 2.6 6.7c1.5 1.5 4.1 2.6 6.7 2.6s5-1.1 6.6-2.6m26.1 24.6c2-1.5 3.1-4.1 3.1-6.7 0-2.6-1-4.6-3.1-6.7-4.1-3.6-10.2-3.6-13.8 0-2 2-3.1 4.1-3.1 6.7 0 2.6 1 4.6 3.1 6.7s4.6 2.6 7.2 2.6c2 .4 4.6-.6 6.6-2.6m26.6 26.1c1.5-1.5 2.6-4.1 2.6-6.7 0-2.6-1-4.6-2.6-6.7-3.6-3.6-9.7-3.6-13.3 0-1.5 2-2.6 4.1-2.6 6.7 0 2.6 1 4.6 2.6 6.7 2 2 4.1 2.6 6.7 2.6 2 .5 4.6-.6 6.6-2.6m26.2 26.6c1.5-1.5 2.6-4.1 2.6-6.7s-1-5.1-2.6-6.7c-3.6-3.6-9.7-3.6-13.3 0-1.5 1.5-2.6 4.1-2.6 6.7s1 4.6 2.6 6.7c2 2 4.1 2.6 6.7 2.6s4.5-1 6.6-2.6m24.6 26.1c2-1.5 2.6-4.1 2.6-6.7 0-2.6-1-4.6-2.6-6.7-3.6-3.6-9.7-3.6-13.3 0-1.5 2-2.6 4.1-2.6 6.7 0 2.6 1 5.1 2.6 6.7 2 2 4.1 2.6 6.7 2.6 2.5 0 5-.5 6.6-2.6m27.6 26.2c2-1.5 2.6-4.1 2.6-6.7s-1-4.6-2.6-6.7c-3.6-3.6-9.7-3.6-13.3 0-2 2-2.6 4.1-2.6 6.7s1 5.1 2.6 6.7 4.1 2.6 6.7 2.6c2.5-.1 5.1-.6 6.6-2.6m26.2 26.1c2-2 3.1-4.1 3.1-6.7 0-2.6-1-4.6-3.1-6.7-4.1-3.6-10.2-3.6-13.8 0-2 2-3.1 4.1-3.1 6.7 0 2.6 1 4.6 3.1 6.7 2 1.5 4.6 2.6 7.2 2.6 1.9.5 4.5-.6 6.6-2.6M162.2 106.6C188.8 89.2 218 81 250.3 80.5c31.8 0 61 8.7 88.1 26.1l56.4-56.4C350.7 16.9 303.1 0 250.3 0s-100.9 16.9-144 50.2l55.9 56.4zm-56.4 231c-17.9-27.2-26.6-56.4-26.6-87.6 0-31.8 8.7-61 26.6-87.6L50 106.6C17.2 149.6.8 197.3.8 250.6c0 52.3 16.4 100.4 49.7 144l55.3-57zm232.6 55.8c-26.6 17.9-55.8 27.2-87.6 27.7-32.3 0-62-8.7-88.6-27.2l-56.4 55.8c43.5 33.8 91.7 50.7 145 50.2 52.8-.5 100.4-17.4 143.4-50.2l-55.8-56.3zm54.8-231.5c17.9 27.2 27.2 56.9 26.6 89.1-.5 31.2-9.2 59.9-26.6 86.1l56.4 55.8c33.3-43 50.2-90.7 50.2-142.9.5-53.3-16.4-101.4-50.2-145l-56.4 56.9zm58.9 249c21.5 0 39.4 17.4 39.4 39.4 0 21.5-17.4 39.4-39.4 39.4-21.5 0-39.4-17.4-39.4-39.4s17.4-39.4 39.4-39.4m-402.6 0c21.5 0 38.9 17.4 38.9 39.4 0 21.5-17.4 39.4-38.9 39.4s-38.9-17.4-38.9-39.4 17.4-39.4 38.9-39.4M452.7 8.7c21.5 0 38.9 17.4 38.9 39.4s-17.4 39.4-38.9 39.4-38.9-17.4-38.9-39.4 17.3-39.4 38.9-39.4M49 8.7c21.5 0 39.4 17.4 39.4 38.9S71 86.6 49 86.6c-21.5 0-39.4-17.4-39.4-38.9C9.5 26.1 27 8.7 49 8.7" style="fill-rule:evenodd;clip-rule:evenodd"/></svg>