<svg xmlns="http://www.w3.org/2000/svg" xml:space="preserve" style="enable-background:new 0 0 500 500" viewBox="0 0 500 500"><path d="m374.098 39.191 123.783 71.684-123.783 71.293z" style="fill:#b3d002"/><path d="M374.098 39.191 249.95 110.68l124.148 71.488z" style="fill:#f4ea1b"/><path d="M374.098 182.168 249.95 253.069V110.68z" style="fill:#66b72f"/><path d="m249.95 110.68-124.592 71.194 124.592 71.195z" style="fill:#0568b2"/><path d="M249.95 110.68 125.358 39.191v142.683z" style="fill:#5eb9dd"/><path d="M125.358 39.191 2.751 110.68l122.607 71.194z" style="fill:#1d3691"/><path d="m373.732 248.857 123.782 71.684-123.782 71.292z" style="fill:#b3d002"/><path d="m373.732 248.857-124.149 71.488 124.149 71.488z" style="fill:#f4ea1b"/><path d="m373.732 391.833-124.149 70.901V320.345z" style="fill:#66b72f"/><path d="M249.583 320.345 124.992 391.54l124.591 71.194z" style="fill:#0568b2"/><path d="m249.583 320.345-124.591-71.488V391.54z" style="fill:#5eb9dd"/><path d="M124.992 391.54V248.857L2.385 320.345" style="fill:#1d3691"/></svg>