<svg xmlns="http://www.w3.org/2000/svg" xml:space="preserve" style="enable-background:new 0 0 500 500" viewBox="0 0 500 500"><path d="m251.123 21.683 103.988 140.476 47.619 220.635-151.607 93.65-151.567-93.65 47.619-228.572z" style="fill:#fff"/><path d="M252.813 7.906c2.1 2.036 4.543 3.821 6.249 6.146a48942.448 48942.448 0 0 1 99.267 135.752c1.776 2.439 3.184 5.428 3.831 8.366 16.332 74.184 32.541 148.394 48.761 222.602 1.358 6.212.614 7.813-4.766 11.186a409026.077 409026.077 0 0 0-151.552 95.024c-.352.221-.571.654-.852.988h-5.626c-.826-.657-1.598-1.4-2.486-1.958-50.37-31.613-100.722-63.256-151.179-94.731-4.52-2.819-4.335-6.49-3.467-10.53 4.323-20.128 8.776-40.228 13.179-60.339 11.74-53.628 23.428-107.268 35.322-160.863.846-3.812 2.622-7.703 4.92-10.863 32.688-44.96 65.523-89.813 98.404-134.632 1.706-2.325 4.147-4.112 6.246-6.149l3.749.001zm-68.361 238.899 41.234 130.01h50.887l41.22-130.017-66.853-117.541-66.488 117.548zm161.472-88.9L259.292 39.319c-.915 24.095-.948 47.666-.84 71.235.007 1.58.89 3.268 1.704 4.715a88032.795 88032.795 0 0 0 61.171 108.408c.639 1.13 1.435 2.172 2.52 3.798 7.475-23.551 14.729-46.411 22.077-69.57zm-167.909 69.124c.83-1.058 1.272-1.495 1.567-2.016 20.939-36.921 41.881-73.841 62.743-110.805.791-1.402 1.125-3.242 1.131-4.879.072-22.338.05-44.676.041-67.014 0-.872-.111-1.744-.256-3.895l-87.289 119.5c7.345 23.011 14.62 45.795 22.063 69.109zm213.258 149.862-63.855-112.666-35.658 112.666h99.513zm-216.82-112.294L110.685 377.14h99.399l-35.631-112.543zm89.839 198.826 112.175-70.357-.453-.923h-89.219l-22.503 71.28zm-28.097-.894.925-.596-21.955-69.505h-90.759a4899387.1 4899387.1 0 0 0 111.789 70.101zm-86.732-275.805-.926-.039-32.597 149.029.802.297 51.401-90.693-18.68-58.594zm184.267 58.243 51.306 90.456.835-.407-32.508-148.558-1.02.094-18.613 58.415zM250.341 454.49l1.195.027 20.002-62.26h-40.832l19.635 62.233z"/></svg>