<svg xmlns="http://www.w3.org/2000/svg" xml:space="preserve" style="enable-background:new 0 0 500 500" viewBox="0 0 500 500"><path d="M95.7 272.3c54.4 28.9 111.1 59.1 155 82.5l153.7-82.5C348.7 355 302.3 423.8 250.6 500c-51.7-76-108.9-159.9-154.9-227.7zm5.9-22.8 149.2-79.6L398.1 249l-147.2 79.7-149.3-79.2zm149-105.2-155 81.6L250 0l154.4 226.4-153.8-82.1z" style="fill:#3ab83a"/><path d="m250.6 354.8 153.7-82.5C348.7 355 250.6 500 250.6 500V354.8zm.2-185 147.3 79.1-147.2 79.7-.1-158.8zm-.2-25.5L250 0l154.4 226.4-153.8-82.1z" style="fill:#0b8311"/><path d="m101.6 249.5 149.2 12.2L398.1 249l-147.2 79.7-149.3-79.2z" style="fill:#0b8311"/><path d="M250.8 261.7 398.1 249l-147.2 79.7-.1-67z" style="fill:#146714"/></svg>