<svg xmlns="http://www.w3.org/2000/svg" xml:space="preserve" style="enable-background:new 1500 0 500 500" viewBox="1500 0 500 500"><path d="m1836.763 193.475 40.863 30.935 25.797 19.52-28.806 14.717-57.935 29.591 19.874 13.74 27.805 19.22-30.036 15.502-184.279 95.028A206.418 206.418 0 0 0 1750 457.377c114.531 0 207.377-92.846 207.377-207.377a206.522 206.522 0 0 0-48.159-132.872l-72.455 76.347zm-173.526 123.867-40.863-30.925-25.797-19.52 28.806-14.717 57.935-29.599-19.874-13.74-27.805-19.22 30.036-15.502 194.067-100.085a206.384 206.384 0 0 0-109.743-31.412c-114.531 0-207.377 92.846-207.377 207.377 0 53.245 20.073 101.795 53.058 138.517l67.557-71.174z" style="fill:#091b26"/><path d="M1583.043 401.831c-36.535-40.12-58.821-93.424-58.821-151.831 0-124.494 101.283-225.777 225.777-225.777a224.494 224.494 0 0 1 128.416 40.186l20.177-10.403C1857.282 22.607 1805.777 3.94 1750 3.94c-135.677 0-246.06 110.382-246.06 246.06 0 64.19 24.717 122.708 65.12 166.563l13.983-14.732zm338.847-298.042c33.582 39.421 53.887 90.486 53.887 146.211 0 124.494-101.283 225.777-225.777 225.777a224.409 224.409 0 0 1-119.204-34.121l-20.669 10.662A244.66 244.66 0 0 0 1750 496.06c135.677 0 246.06-110.382 246.06-246.06 0-61.515-22.687-117.818-60.132-161.002l-14.038 14.791z" style="fill:#091b26"/><path d="m1634.613 270.244 58.951 44.611-133.148 140.281 264.6-136.475-47.797-33.043 88.168-45.044-58.951-44.611 133.148-140.281-264.6 136.475 47.797 33.043-88.168 45.044" style="fill:#23bee2"/></svg>