<svg xmlns="http://www.w3.org/2000/svg" xml:space="preserve" style="enable-background:new 0 0 500 500" viewBox="0 0 500 500"><circle cx="250.4" cy="249.7" r="243.6" style="fill:#af5eff"/><path d="M194.2 384.8c-13.3 0-26.5-3.4-39.1-10.3-36.8-20.2-61-67.3-63.1-122.9l24.4-10.7c2 57.4 21.8 95.6 50.9 111.5 18.4 10.1 38.2 9.6 57.1-1.5l17.5 18.4c-15.4 10.2-33.3 15.5-47.7 15.5zM306 386c-68.8 0-99.8-77.2-99.8-131.9 0-64.9 30.2-71.9 43.2-71.9 21.1 0 45.7 18.7 45.7 71.2 0 43.2-22.1 77-22.9 78.1l-16-22.2c.1-.2 13.8-21 13.8-55.9 0-31.7-10.7-46.1-20.6-46.1-11.1 0-18 17.9-18 46.8 0 33.5 18.8 106.8 74.7 106.8 58.3 0 77.2-80 77.2-118.7 0-48.6-17.4-72.6-32.7-93.8-1.4-1.9-6.7-8.6-8-10.5l24.4-9.7 3.9 5.4c15.8 21.8 37.5 51.7 37.5 108.5C408.3 297.7 380.5 386 306 386z" style="fill:#fff"/></svg>