<svg xmlns="http://www.w3.org/2000/svg" xml:space="preserve" style="enable-background:new 0 0 40 40" viewBox="0 0 40 40"><circle cx="20" cy="20" r="20" style="fill-rule:evenodd;clip-rule:evenodd;fill:#0090ff"/><path d="m21.9 17.6-.6 3.2 5.7.8-.4 1.5-5.6-.8c-.4 1.3-.6 2.7-1.1 3.9-.5 1.4-1 2.8-1.6 4.1-.8 1.7-2.2 2.9-4.1 3.2-1.1.2-2.3.1-3.2-.6-.3-.2-.6-.6-.6-.9 0-.4.2-.9.5-1.1.2-.1.7 0 1 .1.3.3.6.7.8 1.1.6.8 1.4.9 2.2.3.9-.8 1.4-1.9 1.7-3 .6-2.4 1.2-4.7 1.7-7.1v-.4l-5.3-.8.2-1.5 5.5.8.7-3.1-5.7-.9.2-1.6 5.9.8c.2-.6.3-1.1.5-1.6.5-1.8 1-3.6 2.2-5.2s2.6-2.6 4.7-2.5c.9 0 1.8.3 2.4 1 .1.1.3.3.3.5 0 .4 0 .9-.3 1.2-.4.3-.9.2-1.3-.2-.3-.3-.5-.6-.8-.9-.6-.8-1.5-.9-2.2-.2-.5.5-1 1.2-1.3 1.9-.7 2.1-1.2 4.3-1.9 6.5l5.5.8-.4 1.5-5.3-.8" style="fill-rule:evenodd;clip-rule:evenodd;fill:#fff"/></svg>