<svg xmlns="http://www.w3.org/2000/svg" xml:space="preserve" style="enable-background:new 0 0 500 500" viewBox="0 0 500 500"><path d="m274.2 173.6 90.1-52v104l-90.1-52zm90.1 221.9-118.7 68.6-118.7-68.5V275l118.7 68.5L364.3 275v120.5zM126.9 121.6l90.1 52-90.1 52v-104zm133 76.7 90.1 51.9-90.1 52V198.3zm-28.6 103.9-90-52 90-52v104zM350 96.8l-104.4 60.3-104.5-60.3 104.5-60.3L350 96.8zM98.4 88.5v323.6l147.2 85L392.8 412V88.5l-147.2-85-147.2 85z" style="fill-rule:evenodd;clip-rule:evenodd;fill:#040505"/></svg>