<svg xmlns="http://www.w3.org/2000/svg" xml:space="preserve" style="enable-background:new 0 0 500 500" viewBox="0 0 500 500"><path d="M269.09 268.223c20.161 10.321 34.689 8.87 47.524-4.049 9.552-9.614 15.397-29.566 3.141-45.708l7.714-7.719c20.314 27.948 24.644 79.023-9.989 115.606-37.13 39.219-97.846 39.577-135.781.454-35.756-36.877-30.51-88.198-10.521-116.126l8.342 8.635c-10.024 17.164-8.45 33.431 6.425 46.851 13.21 11.918 28.332 12.4 43.716 2.92l19.37 20.006 20.059-20.87z" style="fill:#039dbd"/><path d="M144.514 237.95c-6.442 32.125-.233 61.27 19.058 88.157-5.344-.602-10.153-1.098-14.951-1.691-23.479-2.901-46.635-7.327-68.989-15.259-20.017-7.103-38.724-16.518-53.969-31.772-10.655-10.661-18.06-23.226-22.152-37.737a5.515 5.515 0 0 1-.194-.983c-.017-.185.073-.379.147-.715h141.05zm351.35.073c-1.721 4.639-3.134 9.087-4.99 13.343-8.769 20.111-24.075 34.067-42.757 44.677-24.622 13.983-51.554 20.993-79.213 25.569-10.504 1.738-21.111 2.856-31.673 4.245-.495.065-1.005.008-2.082.008 9.528-12.865 15.881-26.7 19.12-41.906 3.243-15.225 3.108-30.469-.184-45.936h141.779zm-246.632 35.848-76.505-76.585c19.895-22.333 44.73-34.681 74.984-35.112 31.501-.449 57.428 11.875 78.239 35.064l-76.718 76.633zm.146-12.913 63.723-63.593c-20.622-19.214-44.714-27.993-72.674-25.436-21.225 1.941-39.386 10.707-54.675 25.334l63.626 63.695zm33.122-5.282 26.926-26.53c5.987 4.769 5.844 17.974-.568 25.002-6.743 7.392-20.047 8.214-26.358 1.528zm-92.476-25.706 26.462 26.565c-5.214 5.385-17.499 4.876-23.937-1.176-7.103-6.675-8.273-18.914-2.525-25.389z" style="fill:#039dbd"/></svg>