<svg xmlns="http://www.w3.org/2000/svg" xml:space="preserve" style="enable-background:new 0 0 500 500" viewBox="0 0 500 500"><circle cx="259.3" cy="256.3" r="237.9" style="fill-rule:evenodd;clip-rule:evenodd" transform="translate(-19.174 -16.06) scale(1.03804)"/><circle cx="261.2" cy="257.5" r="206.3" style="fill-rule:evenodd;clip-rule:evenodd;fill:#fef102" transform="translate(-29.735 -25.25) scale(1.06897)"/><path d="M354.009 167.2c-5.3-11.8-10.2-35.1-23.7-40.3-17.4-6.7-28.1 37-30.7 48.1h-2.6c-4.4-18.9-10.3-45.8-31-51.7-9.6 40.4 10.1 84 28.5 119 19.6-9.4 29.2-38.8 31-59.5h2.6l20.7 62.1c16.6-4.8 22.4-21.3 28.4-36.2 12.9-32.1 23.7-71.6 15.5-106-24.8 6.9-32.3 42.4-38.7 64.5m-248.3 82.8c22.2-10.6 32.8-44.2 36.2-67.2h2.6c2.6 11.1 9.7 39.7 23.5 41.6 17.7 2.3 26.9-36.9 28.2-49.3h2.6c5.6 19.5 11.6 44.8 31 54.3 7.2-30.2-1.4-62.3-12.4-90.5-2.8-7.3-8.7-26.8-18.7-26.8-16.4 0-25.6 43.2-28.4 55.3h-2.6l-20.7-62.1c-36.3 17.2-56.1 109.7-41.3 144.7m-38.8 31c27 117.8 151.6 184.6 263.8 134.9 40.8-18.1 73.2-50.4 91.9-90.9 4.8-10.5 14.3-29.4 8.8-43.1-5.5-13.7-58.9 8.7-72.2 14.5-1.9.8-3.2 2.6-3.5 4.6-.4 2.9.3 5.8 2.1 8.1s4.5 3.7 7.4 3.9c9.8.8 22.4 1.7 22.4 1.7-40.6 78.5-150.3 113.3-227.6 50.5-17.3-14-32.7-30.7-43.1-50.5-5-9.6-9.7-21.8-18.2-28.4-8.3-6.3-20.7-8.5-31.8-5.3z"/></svg>