<svg xmlns="http://www.w3.org/2000/svg" xml:space="preserve" style="enable-background:new 0 0 500 500" viewBox="0 0 500 500"><path d="M357.4 277.9c1.7 0 2.7 1.8 1.9 3.2L253 464.8c-.4.7-1.1 1.1-1.9 1.1h-64.9c-1.7 0-2.7-1.8-1.9-3.2L290.6 279c.4-.7 1.1-1.1 1.9-1.1h64.9zm-63.1-52.7c-.8 0-1.5-.4-1.9-1.1l-108-186.8c-.8-1.4.2-3.2 1.9-3.2h64.9c.8 0 1.5.4 1.9 1.1l108 186.8c.8 1.4-.2 3.2-1.9 3.2h-64.9z" style="fill:#e31337"/><path d="M307.1 37.3c-.8-1.4.2-3.2 1.9-3.2h65c.8 0 1.5.4 1.9 1.1L499.7 249c.4.7.4 1.5 0 2.1L375.9 464.8c-.4.7-1.1 1.1-1.9 1.1h-65c-1.7 0-2.7-1.8-1.9-3.2L430.3 250 307.1 37.3zm-52.8 211.6c.4.7.4 1.5 0 2.2L129.8 464.8c-.8 1.4-2.9 1.4-3.7 0L.3 251.1c-.4-.7-.4-1.5 0-2.2L124.7 35.2c.8-1.4 2.9-1.4 3.7 0l125.9 213.7z" style="fill:#e31337"/></svg>