<svg xmlns="http://www.w3.org/2000/svg" xml:space="preserve" style="enable-background:new 0 0 500 500" viewBox="0 0 500 500"><path d="M383.2 196.8c-8.3 8.3-18.4 13.4-29.1 15.5 14.8 40 5.2 85.7-25.3 116.2-21 21-49.3 32.2-78 32.2-12.9 0-25.9-2.3-38.3-6.9-2.1 10.7-7.2 20.9-15.5 29.2-22.1 22.1-57.9 22.1-80 0s-22.1-57.9 0-80c8.2-8.2 18.4-13.4 29.1-15.5-15.1-40.1-5.6-86.1 25.1-116.7 30.6-30.6 76.5-40.2 116.6-25.1 2.1-10.6 7.3-20.7 15.5-28.9 22.1-22.1 57.9-22.1 80 0 22 22.1 22 57.9-.1 80zM250 0C111.9 0 0 111.9 0 250s111.9 250 250 250 250-111.9 250-250S388.1 0 250 0zm29.5 279.2c-16.2 16.2-42.4 16.2-58.5 0-16.2-16.2-16.2-42.4 0-58.5 16.2-16.2 42.4-16.2 58.5 0 16.2 16.1 16.2 42.3 0 58.5zm37-149.1c-8.5 8.5-12.4 20.7-10.4 32.6.7 3.9.3 7.9-1.5 11.6-2.2 4.8-6.2 8.3-10.8 10-4.6 1.7-9.9 1.6-14.7-.6-27.1-12.5-59.5-6.8-80.6 14.3-21.1 21.1-26.9 53.5-14.3 80.6 2.3 4.9 2.3 10.3.5 14.9-1.7 4.5-5.1 8.4-9.9 10.6-2.6 1.2-5.4 1.8-8.1 1.8-1.3 0-2.6-.2-3.8-.4-12.4-1.7-23.9 2.1-32.3 10.5-7.1 7.1-10.9 16.4-10.9 26.4s3.9 19.4 10.9 26.4c14.6 14.6 38.3 14.6 52.8 0 8.5-8.5 12.4-20.7 10.4-32.6-.1-.7-.1-1.3 0-1.9-.2-3.1.3-6.4 1.7-9.5 2.2-4.8 6.2-8.3 10.8-10 4.6-1.7 9.9-1.7 14.8.6 27.1 12.6 59.5 6.8 80.6-14.3 21.1-21.1 26.9-53.5 14.3-80.6-2.2-4.8-2.3-10-.6-14.6 1.7-4.7 5.2-8.7 10-11 3.4-1.6 7.1-2.1 10.5-1.6.5-.1 1.1-.1 1.7 0 11.8 1.7 23.3-2.2 31.7-10.6 14.6-14.6 14.6-38.3 0-52.8-14.6-14.4-38.3-14.4-52.8.2z" style="fill:#474dff"/></svg>