<svg xmlns="http://www.w3.org/2000/svg" xml:space="preserve" style="enable-background:new -749 751 500 500" viewBox="-749 751 500 500"><path d="M-610.9 1149.9c16.7-16.2 32.8-31.8 49.7-48.3 27.7 16 58.1 22.9 90.7 14.9 23.4-5.8 43.6-17.4 59.9-35.2 28.9-31.5 48-85.1 14.7-144.3 16.5-16.2 32.7-32.3 48.9-48.2 49.5 57.9 55.7 166.3-13.6 240.6-65.5 70.2-177.2 79.8-250.3 20.5zm23.1-228.1c44.8-48.6 97.7-52.8 152.7-25 17.1-16.9 33-32.7 48.8-48.4-70.9-58.1-183.8-48.1-249.3 22.6-69.1 74.6-61.5 183.5-11.6 241.3 1.2-.8 2.6-1.4 3.7-2.4 15.1-14.4 30.2-29 45.5-43.6-34.4-63.4-16.5-115.6 10.2-144.5zm279-63.2c27 .6 50.1-22.2 50.2-49.5.1-27.4-22.6-50-49.8-49.8-26.7.2-48.2 22.3-48.3 49.4-.1 27.3 21.1 49.4 47.9 49.9zM-687.6 1140c-26.8.6-48.4 22.6-48.5 49.5-.1 27.3 22.6 50 49.8 49.7 26.6-.2 48.2-22.4 48.2-49.5 0-27.8-22.5-50.3-49.5-49.7z" style="fill:#19b8ba"/></svg>