<svg xmlns="http://www.w3.org/2000/svg" xml:space="preserve" style="enable-background:new 1665.5 0 500 500" viewBox="1665.5 0 500 500"><path d="m1915.5 5.753-211.531 122.124v244.247L1915.5 494.247l211.531-122.124V127.876L1915.5 5.753zm4.325 395.609-162.361-92.603.658-45.033 161.609 92.509 77.937-44.938-52.272-30.178-19.555 11.282-36.665-21.059 19.649-11.376-25.666-14.854-15.512 9.025-36.759-21.059 15.606-9.025-82.826-47.853 156.063-90.065 147.225 83.954-39.486 22.939-107.74-61.767-77.937 44.938 43.622 25.196 22.281-12.974 36.759 21.059-22.469 12.974 25.666 14.854 18.239-10.624 36.759 21.059-18.427 10.718 91.381 52.742-155.779 90.159z"/></svg>