<svg xmlns="http://www.w3.org/2000/svg" xml:space="preserve" style="enable-background:new 0 0 500 500" viewBox="0 0 500 500"><path d="M362.853 427.519c-1.432-15.79 13.904-26.773 26.744-26.407 16.128.461 27.509 11.518 27.458 26.05-.052 15.002-12.041 25.511-27.559 25.952-12.806.363-27.815-10.898-26.643-25.595zM340.836 37.604c-7.306 5.55-11.052 16.253-9.179 24.714 4.116 18.593 26.633 27.498 43.469 15.665 7.917-5.564 12.053-13.639 10.749-23.236-1.948-14.332-12.884-22.974-27.536-22.921-6.836.024-12.306 1.83-17.503 5.778zM18.506 248.417c-7.303 6.154-10.366 14.156-8.697 23.875 2.63 15.315 18.099 25.27 35.802 19.932 14.904-4.494 23.834-21.654 14.94-36.743-5.275-8.948-13.315-13.411-24.48-13.172-6.298-.627-12.452 1.799-17.565 6.108zM307.34 445.442c-.013-14.151-11.148-21.799-23.199-22.215-12.648-.436-23.406 10.457-23.494 22.233-.089 11.96 10.675 22.103 23.459 22.105 12.829.002 23.246-9.873 23.234-22.123zm97.355-310.262c.064 11.876 11.398 22.422 23.558 22.17 12.746-.264 23.268-10.5 23.14-22.51-.13-12.148-10.707-22.023-23.525-21.964-10.271-.55-23.248 8.364-23.173 22.304zM95.576 249.11c12.432.895 24.701-10.73 24.037-22.698-.715-12.892-10.758-20.979-23.014-21.706-13.107-.777-24.839 11.529-23.514 21.642-1.064 10.604 6.921 21.641 22.491 22.762zm.522-77.37c-.488-11.782-10.043-21.807-23.955-21.561-12.552.222-22.86 10.243-22.569 21.788.325 12.928 9.576 21.97 23.198 21.92 13.133-.047 23.84-9.734 23.326-22.147zm270.889-22.871c12.388-.216 23.33-10.33 22.887-21.898-.499-13.036-11.173-22.024-23.653-21.915-14.778.129-23.991 11.934-22.907 22.239.089 12.399 10.41 21.805 23.673 21.574zM299.23 398.864c-.028 10.525 4.992 17.225 16.312 21.14 9.052 3.131 21.108-1.153 26.236-8.903 4.699-7.101 5.184-14.686 1.475-22.126-4.128-8.282-11.477-11.796-21.37-11.853-11.415-.909-22.616 7.72-22.653 21.742zm-126.18 42.574c-.037 10.208 8.939 18.906 19.78 18.874 11.29-.033 19.882-7.129 20.275-19.249.33-10.191-9.449-18.531-20.216-18.46-10.891.072-19.801 8.531-19.839 18.835zm205.958-255.765c-.137-10.473-9.8-19.119-20.989-18.78-10.793.326-19.615 9.228-19.214 19.387.413 10.457 9.34 18.549 20.289 18.391 10.606-.153 20.043-9.156 19.914-18.998zM102.075 99.625c.134 10.321 9.315 18.786 20.138 18.568 10.726-.216 19.653-9.103 19.471-19.383-.184-10.328-9.188-18.497-20.242-18.364-10.936.132-19.504 8.617-19.367 19.179zm52.063 122.968c10.666-.425 19.793-9.458 19.668-19.466-.124-10.014-9.535-18.35-20.591-18.24-11.528.114-19.264 7.867-19.101 19.141.153 10.482 9.33 18.991 20.024 18.565zm269.695-10.494c12.831-1.129 21.574-16.144 13.651-28.172-4.31-6.542-10.661-8.695-17.585-8.926-10.555-.352-18.452 8.26-19.113 18.545-.563 8.766 7.156 19.036 18.57 18.835 1.492-.092 2.988-.151 4.477-.282zM253.744 409.367c-.57-9.985-8.892-18.518-19.166-18.801-10.547-.291-21.067 9.462-20.483 19.568.617 10.685 9.511 18.931 20.426 18.176 10.501.625 19.831-8.285 19.223-18.943zm235.827-197.468c-.478-10.603-8.488-19.563-19.475-19.071-11.656.522-19.616 7.79-20.077 18.823-.404 9.686 8.314 19.176 19.807 18.625 12.02.659 20.157-9.263 19.745-18.377zM252.904 363.665c.509 10.216 8.605 18.327 19.162 18.489 10.776.166 21.279-9.449 20.512-19.4-.812-10.533-9.242-18.705-20.512-18.042-10.597-.553-19.694 8.28-19.162 18.953zM134.956 166.88c9.209-1.691 16.503-11.105 15.191-20.128-2.109-14.499-20.121-21.685-31.976-12.987-6.686 4.905-9.408 13.626-6.715 21.512 2.511 7.353 9.99 12.037 19.838 11.92.697-.056 2.205-.049 3.662-.317zm6.779 235.757c-.127 9.027 7.77 16.355 17.592 16.326 9.038-.027 16.683-7.584 16.549-16.358-.134-8.72-7.861-15.925-17.078-15.923-9.231.002-16.94 7.21-17.063 15.955zm198.967-185.578c-8.863-.044-17.272 8.321-17.18 15.876.11 8.984 8.116 16.821 17.464 16.589 9.004-.223 16.681-7.781 16.689-16.43.046-8.334-8.448-15.993-16.973-16.035zM183.01 123.75c-8.856.216-16.759 6.001-17.641 15.781-.772 8.566 7.201 16.158 16.619 16.528 9.225.362 17.098-6.736 17.321-15.615 1.136-8.625-8.178-16.893-16.299-16.694zm236.12 117.524c-.668-9.085-7.4-16.208-16.797-16.391-8.41-.164-17.083 8.102-17.217 16.408-.136 8.467 7.832 15.734 17.255 15.738 8.341 1.124 17.394-7.106 16.759-15.755zm-196.37-46.507c.013-9.51-6.626-15.751-16.722-15.721-9.26.028-17.359 7.391-17.352 15.774.007 8.443 7.994 15.658 17.317 15.642 10.113-.017 16.744-6.227 16.757-15.695zm-5.574 176.441c-.003-8.55-7.865-15.703-17.247-15.69-10.199.014-16.789 6.132-16.833 15.627-.042 9.083 7.009 15.659 16.853 15.72 9.347.057 17.23-7.107 17.227-15.657zm3.843-46.57c.07 8.587 7.846 15.533 17.391 15.533 10.121 0 16.741-6.24 16.709-15.75-.031-9.107-7.1-15.564-17.009-15.537-9.397.027-17.16 7.182-17.091 15.754zm247.914-64.951c-.523-9.944-7.162-16.555-17.52-16.716-7.545-.118-16.89 6.238-16.307 16.643.512 9.13 7.253 15.497 17.229 15.404 9.007-.084 17.035-7.018 16.598-15.331zM157.561 90.953c.219 9.373 7.175 15.42 17.374 15.103 9.552-.297 15.829-6.598 15.775-15.836-.056-9.533-6.795-15.734-16.922-15.571-9.934.159-16.451 6.708-16.227 16.304zm173.054 178.29c.211-7.592-6.037-13.745-14.271-14.052-7.781-.291-14.404 5.905-14.493 13.558-.099 8.531 5.009 13.55 13.929 13.687 8.294.126 14.62-5.5 14.835-13.193zm-64.79-72.188c-.126-7.749-6.531-13.92-14.467-13.936-7.977-.017-14.392 6.077-14.412 13.69-.022 8.545 5.117 13.489 14.064 13.531 8.214.037 14.933-5.987 14.815-13.285zM152.52 364.188c-.22-7.775-6.776-13.771-14.731-13.474-7.775.29-14.234 6.878-14.094 14.377.131 7.071 7.363 13.509 15.102 13.446 8.03-.065 13.952-6.257 13.723-14.349zm50.505-78.179c-.293 7.519 6.274 13.948 14.416 14.112 7.805.157 14.155-5.488 14.427-12.826.318-8.578-4.982-14.195-13.544-14.355-8.42-.157-15.003 5.467-15.299 13.069zm160.185-8.852c-.12 7.648 6.416 13.819 14.526 13.952 8.074.133 14.784-7.233 14.362-14.056-.469-7.578-5.865-13.068-13.959-13.18-8.407-.116-14.808 5.579-14.929 13.284zM213.416 142.112c.327 7.447 5.942 13.601 13.504 13.89 7.835.3 15.127-5.901 15.46-13.146.348-7.596-6.073-13.912-14.226-13.994-7.154-.879-15.091 5.202-14.738 13.25zm20.155-48.855c.211-8.004-5.912-14.48-13.758-14.551-8.206-.075-14.965 5.952-15.088 13.452-.127 7.716 6.208 13.756 14.442 13.772 8.198.017 14.209-5.272 14.404-12.673zM165.1 332.602c-.12 8.23 6.4 14.416 15.028 14.255 7.529-.14 13.754-6.337 13.759-13.697.006-7.792-6.222-13.512-14.655-13.46-8.097.051-14.023 5.461-14.132 12.902zm248.072-36.936c.167 7.281 6.453 13.334 13.933 13.417 7.734.086 14.509-6.292 14.742-13.879.231-7.528-6.318-13.472-14.764-13.4-8.833.076-14.106 5.33-13.911 13.862zm-13.936 13.371c-6.391.092-12.449 5.868-12.337 11.763.108 5.707 6.497 11.547 12.752 11.656 7.07.123 12.272-5.248 12.15-12.545-.109-6.586-5.186-10.98-12.565-10.874zm-178.359-57.646c.3-6.24-6.224-12.526-12.812-12.343-6.271.174-12.381 6.149-12.275 12.003.117 6.496 5.435 11.422 12.416 11.5 7.093.081 12.353-4.553 12.671-11.16zm54.488-43.932c.03 5.865 6.713 11.685 12.799 11.503 6.633-.199 11.586-5.482 12.155-11.876.515-5.777-5.598-12.439-11.97-11.501-8.191-.805-13.009 6.815-12.984 11.874zm-6.632-104.264c.317-6.283-5.101-11.818-11.76-12.014-7.57-.223-12.535 3.852-12.819 10.522-.314 7.36 4.616 12.736 11.788 12.855 6.521.109 12.479-5.185 12.791-11.363zm8.022 49.058c.012-6.216-5.82-12.121-11.926-12.076-6.448.047-12.738 5.58-12.979 11.418-.283 6.83 5.206 11.956 12.801 11.955 7.339-.001 12.091-4.437 12.104-11.297zM157.898 297.61c.019 7.058 5.386 11.62 12.905 11.755 5.779.104 12.041-6.083 11.924-12.227-.112-5.892-6.618-11.41-12.918-11.342-6.871.074-11.93 5.091-11.911 11.814zm-41.477 31.643c-.371 4.996 5.501 11.603 12.233 12.124 6.35.491 13.013-6.029 12.905-12.316-.111-6.431-5.443-11.091-12.656-11.063-7.233.028-11.991 4.63-12.482 11.255zm246.395-26.163c.387-5.963-5.447-11.827-11.949-12.011-7.725-.219-12.93 4.433-12.926 11.552.004 6.645 5.171 11.754 11.966 11.832 6.314.071 12.521-5.398 12.909-11.373zm-74.057-20.573c-5.809-.778-11.778 4.855-12.253 10.654-.59 7.187 3.674 12.192 10.733 12.599 7.476.431 12.653-3.604 13.154-10.252.522-8.304-3.936-11.969-11.634-13.001zm4.739-124.937c-5.906-.144-10.94 3.984-11.193 9.178-.264 5.429 5.233 10.843 10.911 10.745 5.564-.096 10.485-4.792 10.521-10.04.042-5.918-3.907-9.729-10.239-9.883zm78.447 189.164c4.999-.009 10.354-5.176 10.611-10.24.254-5.011-4.829-9.659-10.652-9.74-6.597-.092-10.432 3.267-10.571 9.258-.137 5.89 4.656 10.733 10.612 10.722zm-87.101-239.25c-6.292.003-11.099 4.711-10.735 10.515.359 5.726 4.672 9.398 10.922 9.299 6.421-.101 10.13-3.747 10.031-9.862-.095-5.946-4.21-9.954-10.218-9.952zM169.89 256.883c-6.476-.173-11.279 4.169-11.135 10.066.134 5.47 4.798 9.731 10.691 9.766 6.099.037 10.144-3.814 10.29-9.795.149-6.159-3.488-9.867-9.846-10.037zm141.354 62.131c.217 4.985 5.705 9.938 10.937 9.804 5.18-.132 10.888-5.403 10.508-10.09-.491-6.046-3.8-9.711-10.207-9.836-6.17-.12-11.475 4.658-11.238 10.122zm-193.155-20.648c.018 5.402 4.739 10.317 10.044 10.458 5.334.141 11.347-5.694 11.101-10.774-.241-4.984-5.71-9.881-11.008-9.857-5.621.025-10.155 4.576-10.137 10.173zm218.12 46.303c-.084 4.184 4.184 8.793 8.636 8.76 5.296-.039 9.79-4.748 9.439-8.884-.421-4.963-3.387-8.295-8.523-8.391-5.444-.101-9.45 3.47-9.552 8.515zM125.37 272.578c.009 4.817 4.311 9.082 9.044 8.965 4.564-.112 9.286-4.999 8.959-9.272-.367-4.791-4.651-8.347-9.813-8.143-5.005.198-8.199 3.494-8.19 8.45zm189.168-137.081c.145-5.128-3.6-8.576-9.272-8.538-5.317.036-8.644 3.103-8.741 8.06-.106 5.396 3.31 8.546 9.175 8.46 5.337-.08 8.7-3.116 8.838-7.982z"/></svg>