<svg xmlns="http://www.w3.org/2000/svg" xml:space="preserve" style="enable-background:new 0 0 500 500" viewBox="0 0 500 500"><linearGradient id="a" x1="96.097" x2="876.077" y1="-402.502" y2="377.477" gradientTransform="matrix(.5 0 0 -.5 0 250)" gradientUnits="userSpaceOnUse"><stop offset="0" style="stop-color:#009dde"/><stop offset=".5" style="stop-color:#694d9f"/><stop offset="1" style="stop-color:#ed3554"/></linearGradient><path d="M151.8 362.4 37 375.2l67.3-155.4-68.9-94L203 106.7 248.6 2l99.8 135.6 114.7-12.9L396 279.3l68.4 93.4-166.8 19L251.5 498l-99.7-135.6zm47.6-10.4c-4.4 2.1-9.1 4-13.9 5.3l-4.4 1.2 64.7 87.9 23-52.8-4.1-.5c-22.6-2.9-43.1-15-56.4-33.4l-6.4-8.9-2.5 1.2zm-22.5-79.6 52.2 72.1c10.6 14.6 27.7 23.4 45.8 23.4 2.1 0 4.2-.1 6.2-.4L417.2 352 363 278.1c-2.7-3.6-5.8-7-9.2-9.9l-3.2-2.6-38.8 87.6-67.5-89.4-67.4 8.6zm2.2-87.9c-20.2 2.1-37.8 15.1-45.9 33.8L78.6 344.5l90.8-10.2c4.5-.5 8.9-1.5 13.1-3.1l3.9-1.5-56.2-77.6L241 238l26.3-62.9-88.2 9.4zm85.8 63.6 41.1 54.4 25-56.6 11-24.9c8.2-18.6 5.9-40.4-6.2-56.8L254.4 53.5l-36.6 84.1c-1.8 4.1-3.1 8.5-3.9 13l-.7 4.1 94.9-10.1-43.2 103.5zm99.7-86.2 1.6 3.9c8.8 21.1 8.6 45.1-.6 65.8l-4.5 10 2.1 1.4c4.1 2.8 8 5.9 11.5 9.5l3.2 3.2 43.5-100.2-56.8 6.4zM82.8 146.6l34.6 47.2 2.6-3.3c13.7-17.9 34.4-29.4 56.5-31.8l10.9-1.1.2-2.6c.4-5.4 1.3-10.9 2.8-16.2l1.2-4.5-108.8 12.3z" style="fill:url(#a)"/><linearGradient id="b" x1="181.197" x2="961.178" y1="-487.603" y2="292.377" gradientTransform="matrix(.5 0 0 -.5 0 250)" gradientUnits="userSpaceOnUse"><stop offset="0" style="stop-color:#009dde"/><stop offset=".5" style="stop-color:#694d9f"/><stop offset="1" style="stop-color:#ed3554"/></linearGradient><path d="M225.8 500c-72-7-136.7-44.4-179.1-103.8l29-3.2c4.8 5.9 9.9 11.5 15.2 16.9 31.5 31.6 70.8 52.9 114 61.7l20.9 28.4z" style="fill:url(#b)"/><linearGradient id="c" x1="403.727" x2="1183.707" y1="-710.132" y2="69.848" gradientTransform="matrix(.5 0 0 -.5 0 250)" gradientUnits="userSpaceOnUse"><stop offset="0" style="stop-color:#009dde"/><stop offset=".5" style="stop-color:#694d9f"/><stop offset="1" style="stop-color:#ed3554"/></linearGradient><path d="M286.2 473.1c46.7-7.5 89.1-29.4 122.9-63.3 3-3 6-6.3 9.1-9.7l35.1-4C411.1 455.5 346.5 493 274.5 500l11.7-26.9z" style="fill:url(#c)"/><linearGradient id="d" x1="324.472" x2="1104.452" y1="-630.878" y2="149.102" gradientTransform="matrix(.5 0 0 -.5 0 250)" gradientUnits="userSpaceOnUse"><stop offset="0" style="stop-color:#009dde"/><stop offset=".5" style="stop-color:#694d9f"/><stop offset="1" style="stop-color:#ed3554"/></linearGradient><path d="M460.5 330.1c9.6-25.5 14.5-52.5 14.5-80.1 0-24.4-3.9-48.4-11.4-71.3l14.1-32.5C492.5 178.9 500 213.8 500 250s-7.5 71-22.2 103.7l-17.3-23.6z" style="fill:url(#d)"/><linearGradient id="e" x1="-130.928" x2="649.053" y1="-175.477" y2="604.502" gradientTransform="matrix(.5 0 0 -.5 0 250)" gradientUnits="userSpaceOnUse"><stop offset="0" style="stop-color:#009dde"/><stop offset=".5" style="stop-color:#694d9f"/><stop offset="1" style="stop-color:#ed3554"/></linearGradient><path d="M22.4 354C7.6 321.3 0 286.4 0 250c0-36.6 7.6-71.7 22.6-104.6l17.2 23.5C30 194.8 25 222 25 250c0 24.5 3.9 48.5 11.5 71.5L22.4 354z" style="fill:url(#e)"/><linearGradient id="f" x1="-210.017" x2="569.963" y1="-96.388" y2="683.592" gradientTransform="matrix(.5 0 0 -.5 0 250)" gradientUnits="userSpaceOnUse"><stop offset="0" style="stop-color:#009dde"/><stop offset=".5" style="stop-color:#694d9f"/><stop offset="1" style="stop-color:#ed3554"/></linearGradient><path d="M47.8 102.3C90.1 43.9 154.3 6.9 225.6 0L214 26.8c-46.8 7.5-89.3 29.4-123.1 63.3-2.6 2.6-5.1 5.3-7.7 8.1l-35.4 4.1z" style="fill:url(#f)"/><linearGradient id="g" x1="12.497" x2="792.477" y1="-318.902" y2="461.077" gradientTransform="matrix(.5 0 0 -.5 0 250)" gradientUnits="userSpaceOnUse"><stop offset="0" style="stop-color:#009dde"/><stop offset=".5" style="stop-color:#694d9f"/><stop offset="1" style="stop-color:#ed3554"/></linearGradient><path d="M424.3 107c-4.8-5.9-9.9-11.6-15.2-16.8-31.4-31.6-70.7-52.9-113.7-61.7L274.4 0C346.3 7 411 44.5 453.2 103.8l-28.9 3.2z" style="fill:url(#g)"/></svg>