<svg xmlns="http://www.w3.org/2000/svg" xml:space="preserve" style="enable-background:new 0 0 500 500" viewBox="0 0 500 500"><path d="M.6.6h498.9v498.9H.6z" style="stroke:#000;stroke-width:1.1338;stroke-miterlimit:11.3379"/><path d="M423.6 144.4c-5.9-4.6-12.9-11-25.7-12.6-12-1.6-24.3 6.5-32.5 11.8-8.3 5.3-23.9 21-30.4 25.7s-23 9.2-49.7 25.2-131.2 83.1-131.2 83.1l27.2.3L60 340.5h12.1l-17.5 13.3s15.4 4.1 28.3-4.1v3.7s144.4-56.9 172.3-42.2l-17 5c1.5 0 28.9 1.8 28.9 1.8 1.3 11.5 7.7 21.8 17.5 28.1 16.6 10.9 16.9 16.9 16.9 16.9s-8.6 3.5-8.6 7.9c0 0 12.7-3.9 24.5-3.5 7.5.3 14.9 1.5 22.1 3.5 0 0-.9-4.8-12.4-7.9-11.5-3.2-22.8-15.6-28.3-22.4-6.9-8.8-8.7-20.6-4.6-31.1 4-10.3 17.8-16 46.4-30.7 33.7-17.5 41.4-30.4 46.1-40.5 4.8-10.1 11.8-30.2 15.8-39.6 5-12.1 11.1-18.6 16.2-22.4 5.1-3.9 27.8-12.4 27.8-12.4s-17.4-15-22.9-19.5z" style="fill:#fff"/></svg>