<svg xmlns="http://www.w3.org/2000/svg" xml:space="preserve" style="enable-background:new 0 0 500 500" viewBox="0 0 500 500"><path d="M153.8 425.5c0 55.7-2 61.8-2 61.8s-.4.1-1.1.3c-87.8-38.4-149.1-126-149.1-228 0-23.2 3.2-45.7 9.2-67v-.1c4.4-11.6 7.5-19 7.5-19s47.6 50.7 86.9 115c34.5 56.7 48.6 88.3 48.6 137z" style="fill:#5493f8"/><path d="m451.9 114-265.5 59.5s-18 3-42.2-12.2c-7.1-4.5-14.8-10.5-22.7-18.7-4.4-4.5-8.3-10-11.9-16.1-9.3-15.8-16.1-36-20.9-55-.1-.3-.2-.5-.2-.8 43.5-37.3 100-59.8 161.8-59.8 67.3 0 128.4 26.8 173.2 70.2 10.4 10.2 19.9 21.2 28.4 32.9zM311.6 484s-17.7 1.7-36.8-9.8-60-43.8-61.8-92.8c-1.9-52.2 69.2-86.5 69.2-86.5L470 320.5s-14.4 49.3-36.9 76.4c-22.4 27.1-97.3 82.5-121.5 87.1z" style="fill:#2745ad"/><path d="M463.6 375.9c6.3 7.3-41.2 64.9-79 89.2-28.2 18.1-50.8 20.7-58.8 8.1-7.4-11.8 5.1-28.7 24.3-44.7 27.8-22.9 109.1-57.6 113.5-52.6zM28.3 149.8s27.6-53.3 65.3-82.2c47.6-36.5 68.4-35.8 86.1-24 14.5 9.7 4.8 33.9-22.2 55s-90.4 50.9-129.2 51.2zM499 259.6c0 32.4-6.2 63.4-17.5 91.9-6.4 2.9-14.8 5-25 5.5-1.6.1-3.2.1-4.9.1-34.6 0-120.1-19.8-190.5-49.5-19.8-8.3-38.4-17.5-54.4-27.2-72.8-44.1-69.8-75.2-70.1-88.2-.3-11 2.5-21.3 7.7-30.9 25.1-46.9 105.5-77.8 147.9-90.6 51.1-15.5 100.6-14.7 126.2 6.2 1.6 1.3 3.4 2.8 5.2 4.3 10.4 10.1 19.9 21.1 28.5 32.9C481.6 155 499 205.3 499 259.6z" style="fill:#5493f8"/></svg>