<svg xmlns="http://www.w3.org/2000/svg" xml:space="preserve" style="enable-background:new 1000-1000 2500 2500" viewBox="1000 -1000 2500 2500"><circle cx="1202.203" cy="596.413" r="176.166" style="fill:#4a90e2"/><path d="M3301.476-277.058c-95.37 0-176.166 77.117-176.166 176.166 0 139.518-22.074 176.166-176.166 176.166h-14.716c-88.012 7.358-157.771 80.796-157.771 172.487v3.679c0 135.839-25.753 168.808-176.166 168.808-7.358 0-14.716 0-18.395 3.679-88.012 11.037-157.771 84.475-157.771 172.487 0 95.37 77.117 176.166 176.166 176.166 91.691 0 168.808-73.438 172.487-161.45v-14.716c0-124.802 40.327-172.487 172.487-176.166h3.679c91.691 0 168.808-73.438 172.487-165.129v-11.037c0-128.481 40.327-176.166 176.166-176.166 95.37 0 176.166-77.117 176.166-176.166 0-91.692-77.117-168.808-172.487-168.808zM2266.555 75.273h-14.716c-154.092 0-176.166-36.648-176.166-176.166 0-95.37-77.117-176.166-176.166-176.166-95.37 0-176.166 77.117-176.166 176.166 0 139.518-22.074 172.487-176.166 172.487h-14.716c-88.012 7.358-157.771 80.796-157.771 172.487 0 95.37 77.117 176.166 176.166 176.166 91.691 0 168.808-73.438 172.487-161.45V247.76c0-128.481 40.327-176.166 176.166-176.166s176.166 47.685 176.166 172.487c0 95.37 77.117 176.166 176.166 176.166 99.049 0 176.166-77.117 176.166-176.166-3.679-88.012-73.438-161.45-161.45-168.808z" style="fill:#4a90e2"/></svg>