<svg xmlns="http://www.w3.org/2000/svg" xml:space="preserve" viewBox="0 0 500 500"><path d="m5 248.734 194.418-95.916 50.856-149.82 95.929 194.444 149.796 50.864-194.449 95.925-50.834 149.727-95.914-194.38zM253.107 46.387l-77.985 230.016 153.953-75.944zm199.44 204.755-111.754-37.881-158.264 78.106 111.648 37.891zm-297.015 31.051 35.504-104.748-1.43-1.153-141.15 69.587zm92.327 168.334 36.321-107.039-106.876-36.051z"/><path d="m253.107 46.387 75.968 154.072-153.953 75.944zm199.44 204.755-158.37 78.115-111.648-37.891 158.264-78.106zm-297.015 31.051L48.455 245.879l141.15-69.587 1.43 1.153zm92.327 168.334-70.555-143.09 106.876 36.051z" style="fill:#fff"/></svg>