<svg xmlns="http://www.w3.org/2000/svg" xml:space="preserve" style="enable-background:new 0 0 500 500" viewBox="0 0 500 500"><path d="M400.7 25.8 296.3 180.6c-7.2 10.5 6.7 23.3 16.6 14.4l102.7-89.3c2.8-2.2 6.7-.6 6.7 3.3v279.1c0 3.9-5 5.5-7.2 2.8L104.3 19.1C94.3 6.9 79.9.3 63.8.3H52.7C23.9.3 0 24.1 0 53.6v392.9c0 29.4 23.9 53.3 53.3 53.3 18.3 0 35.5-9.4 45.5-25.5l104.3-154.8c7.2-10.5-6.7-23.3-16.6-14.4L83.8 393.7c-2.8 2.2-6.7.6-6.7-3.3V111.8c0-3.9 5-5.5 7.2-2.8l310.8 371.8c10 12.2 25 18.9 40.5 18.9h11.1c29.4 0 53.3-23.9 53.3-53.3V53.6C500 24.2 476.1.3 446.7.3c-18.8 0-36 9.4-46 25.5z"/></svg>