<svg xmlns="http://www.w3.org/2000/svg" xml:space="preserve" style="enable-background:new 0 0 500 500" viewBox="0 0 500 500"><linearGradient id="a" x1="-.145" x2="2.257" y1="498.739" y2="501.149" gradientTransform="matrix(180 0 0 -179.5068 60 89993.914)" gradientUnits="userSpaceOnUse"><stop offset="0" style="stop-color:#00aee9"/><stop offset="1" style="stop-color:#69fabd"/></linearGradient><path d="M390.8 3C331.9 3 284.1 50.6 284 109.5v118c-11 .7-22.2 1.2-33.9 1.2s-22.9.5-33.9 1.1V109.5c-1-58.3-48.5-105.1-106.8-105.1S3.5 51.2 2.6 109.5v282.1c.9 58.3 48.4 105.1 106.8 105.1s105.9-46.8 106.8-105.1v-118c11-.7 22.2-1.2 33.9-1.2s22.9-.5 33.9-1.1v120.4c.9 58.3 48.5 105.1 106.8 105.1S496.7 450 497.6 391.7V109.5C497.4 50.6 449.7 3 390.8 3zM109.4 46.7c34.7 0 62.9 28.1 63 62.8v125c-31.2 4.5-61.8 13.2-90.8 25.7-12.6 5.5-24.4 12.6-35.2 21V109.5c.1-34.7 28.3-62.8 63-62.8zm63 344.9c0 34.8-28.2 63-63 63s-63-28.2-63-63v-28.3c0-25 19.8-48.7 53-63.4 23.4-10.1 47.9-17.3 73.1-21.4v113.1zm218.4 62.8c-34.7 0-62.9-28.1-63-62.8v-125c31.2-4.5 61.8-13.2 90.8-25.7 12.6-5.5 24.4-12.6 35.2-21v171.7c-.2 34.7-28.3 62.8-63 62.8zm10-253.4c-23.4 10.1-47.9 17.3-73.1 21.4V109.5c0-34.8 28.2-63 63-63s63 28.2 63 63v28.3c.1 24.9-19.7 48.6-52.9 63.2z" style="fill:url(#a)"/></svg>