<svg xmlns="http://www.w3.org/2000/svg" fill="none" viewBox="0 0 84 84"><g clip-path="url(#a)"><path fill="#FF0420" d="M42 84c23.196 0 42-18.804 42-42S65.196 0 42 0 0 18.804 0 42s18.804 42 42 42Z"/><path fill="#fff" d="M30.461 53.76c-2.533 0-4.608-.61-6.226-1.83-1.597-1.24-2.395-3.005-2.395-5.291 0-.48.053-1.067.16-1.764.276-1.568.67-3.452 1.181-5.651 1.447-5.99 5.184-8.984 11.208-8.984 1.64 0 3.108.283 4.407.85 1.298.544 2.32 1.372 3.065 2.482.745 1.09 1.118 2.396 1.118 3.92 0 .458-.053 1.035-.16 1.732a75.478 75.478 0 0 1-1.15 5.65c-.744 2.984-2.032 5.217-3.863 6.697-1.831 1.46-4.28 2.19-7.345 2.19Zm.448-4.704c1.192 0 2.203-.36 3.033-1.078.852-.718 1.458-1.818 1.82-3.3.49-2.046.862-3.832 1.118-5.356.085-.458.127-.926.127-1.405 0-1.982-1.01-2.973-3.033-2.973-1.192 0-2.214.36-3.065 1.078-.83.719-1.427 1.819-1.789 3.3-.383 1.459-.766 3.244-1.15 5.357a7.144 7.144 0 0 0-.127 1.372c0 2.003 1.022 3.005 3.066 3.005ZM44.445 53.433c-.234 0-.415-.076-.543-.229a.797.797 0 0 1-.096-.588l4.407-21.233a.938.938 0 0 1 .351-.588.96.96 0 0 1 .607-.229h8.494c2.363 0 4.257.501 5.684 1.503 1.447 1.002 2.171 2.45 2.171 4.345a8 8 0 0 1-.192 1.698c-.532 2.505-1.607 4.356-3.225 5.554-1.596 1.198-3.79 1.797-6.578 1.797h-4.31l-1.47 7.153a.937.937 0 0 1-.35.588.96.96 0 0 1-.607.23h-4.343Zm11.304-12.478c.894 0 1.67-.251 2.33-.752.682-.5 1.129-1.22 1.342-2.156.064-.37.096-.697.096-.98 0-.631-.181-1.11-.543-1.437-.362-.349-.98-.523-1.852-.523H53.29l-1.213 5.848h3.672Z"/></g><defs><clipPath id="a"><path fill="#fff" d="M0 0h84v84H0z"/></clipPath></defs></svg>