<svg xmlns="http://www.w3.org/2000/svg" xml:space="preserve" style="enable-background:new 0 0 500 500" viewBox="0 0 500 500"><path d="M494.875 249.25C495.637 383.664 385.02 494.045 249.98 494 115.317 493.955 5.157 383.943 5.053 249.075 4.951 118.013 110.397 3.757 250.525 4c139.562.243 245.459 114.233 244.35 245.25zM324.899 380.891c1.867-1.558 2.996-2.281 3.851-3.247 6.853-7.745 14.17-15.148 20.367-23.39 14.449-19.216 23.489-40.806 25.387-64.945 2.1-26.712-4.537-51.438-18.317-74.281-18.395-30.491-44.643-52.452-75.949-68.555-39.807-20.476-82.408-28.439-126.935-27.031-1.694.054-3.375.498-5.438.818v4.302c.003 47.41-.054 94.821.079 142.231.017 6.196.468 12.494 1.638 18.568 6.017 31.24 21.32 56.755 47.892 74.793 24.509 16.638 52.224 21.425 81.22 20.677 1.487-.038 3.436-1.517 4.315-2.877 11.081-17.159 16.863-36.054 17.39-56.428.716-27.706-7.487-53.093-21.081-76.893-16.805-29.422-39.937-53.089-67.097-73.03-1.022-.75-1.975-1.593-2.96-2.393l.533-.896c1.079.424 2.197.768 3.23 1.284 15.654 7.823 30.611 16.781 44.496 27.469 30.88 23.768 52.84 53.683 63.082 91.653 7.345 27.231 7.845 54.885 5.049 82.74-.277 2.76-.444 5.532-.752 9.431z" style="fill:#3cb055"/><path d="M324.899 380.891c.307-3.899.474-6.67.751-9.431 2.796-27.855 2.297-55.509-5.049-82.74-10.242-37.969-32.202-67.885-63.082-91.653-13.885-10.688-28.843-19.645-44.496-27.469-1.033-.516-2.151-.86-3.23-1.284l-.533.896c.985.8 1.938 1.643 2.96 2.393 27.159 19.941 50.292 43.608 67.097 73.03 13.594 23.8 21.797 49.187 21.081 76.893-.526 20.375-6.309 39.27-17.39 56.428-.879 1.36-2.828 2.839-4.315 2.877-28.997.747-56.712-4.04-81.22-20.677-26.571-18.038-41.874-43.553-47.892-74.793-1.17-6.074-1.621-12.371-1.638-18.568-.133-47.41-.077-94.821-.079-142.231v-4.302c2.063-.321 3.745-.765 5.438-.818 44.527-1.408 87.129 6.555 126.935 27.031 31.307 16.104 57.555 38.064 75.949 68.555 13.78 22.843 20.417 47.568 18.317 74.281-1.898 24.139-10.938 45.729-25.387 64.945-6.198 8.242-13.515 15.645-20.367 23.39-.853.965-1.982 1.689-3.85 3.247z" style="fill:#fff"/></svg>