<svg xmlns="http://www.w3.org/2000/svg" xml:space="preserve" style="enable-background:new 0 0 500 500" viewBox="0 0 500 500"><path d="M479.8 495.8c-10.3.1-18.6-8.2-18.7-18.5-.1-10.3 8.2-18.6 18.5-18.7 10.3-.1 18.6 8.2 18.7 18.5v.1c0 10.3-8.3 18.6-18.5 18.6zM470 295.5c-10.4-.2-18.7-8.7-18.5-19.1.2-10.4 8.7-18.7 19.1-18.5 10.4.2 18.6 8.7 18.5 19.1-.2 10.3-8.5 18.5-18.8 18.5h-.3zm0-56.2c-10.4 0-18.8-8.4-18.8-18.8s8.4-18.8 18.8-18.8 18.8 8.4 18.8 18.8v.1c0 10.2-8.2 18.6-18.5 18.7h-.3zm-37.6-33.2v34.2h-37.5v-41.6c0-5 2-9.7 5.5-13.2l44.2-43.8c5.8-5.9 14.6-7.5 22.1-4 9.3 4.4 13.2 15.5 8.8 24.8-.9 2-2.2 3.8-3.7 5.3l-39.4 38.3zm34 156.6c-7.5 3.5-16.3 1.8-22.1-4l-44.2-43.8c-3.5-3.5-5.5-8.3-5.5-13.2v-42.4h37.8v34.2l39.1 39.1c7.2 7.3 7.2 19.1-.1 26.3-1.4 1.4-2.9 2.5-4.7 3.4l-.3.4zM376 180.8v135.4l107.6 107.6c7.5 7.3 7.6 19.3.3 26.8s-19.3 7.6-26.8.3L343.7 337.3c-3.6-3.5-5.6-8.3-5.6-13.3V172.9c0-5 2-9.8 5.6-13.3L413 90.3c7.3-7.5 19.2-7.7 26.8-.4 7.5 7.3 7.7 19.2.4 26.8L376 180.8zm-43.5-34.2c-3.6 3.6-8.4 5.5-13.4 5.5H168.4c-5 .1-9.9-1.9-13.4-5.5L85.7 77.2c-7.5-7.3-7.6-19.3-.3-26.7s19.3-7.6 26.7-.3l64.1 64.2h135.3l63.6-63.8c5.8-5.9 14.8-7.6 22.3-4 9.4 4.7 13.1 16.1 8.4 25.5-.9 1.8-2.1 3.4-3.5 4.8l-69.8 69.7zm-21-56.7c-3.5 3.6-8.4 5.6-13.4 5.6h-41.9V57.7h34.4L329.3 19c5.8-5.9 14.7-7.6 22.2-4.1 9.4 4.7 13.1 16.1 8.4 25.5-.9 1.8-2.1 3.4-3.5 4.8l-44.9 44.7zM271.4 41c-10.4 0-18.8-8.4-18.8-18.8S261 3.4 271.4 3.4s18.8 8.4 18.8 18.8c-.2 10.1-8.3 18.2-18.4 18.4l-.4.4zm-76.3 54.5c-5 0-9.9-2-13.4-5.6l-44.2-44.3c-7.5-7.3-7.6-19.3-.3-26.7s19.3-7.6 26.7-.3L203 57.7h34.4v37.8h-42.3zm20.5-54.9c-10.4 0-18.8-8.4-18.8-18.8S205.3 3 215.6 3c10.4 0 18.8 8.4 18.8 18.8s-8.4 18.8-18.8 18.8zm-66.5 132.6v151c0 5-1.9 9.8-5.5 13.4L74.4 407c-5.8 5.9-14.8 7.6-22.3 4-9.3-4.8-13-16.2-8.3-25.5.9-1.8 2.1-3.5 3.6-4.9l64-64.4V181.1l-64-64c-7.5-7.3-7.6-19.3-.3-26.8s19.3-7.6 26.8-.3l69.9 69.7c3.4 3.5 5.4 8.5 5.3 13.5zm-62.6 12c3.8 3.5 6 8.4 6 13.6v42H54.7v-34.2L16 167.9c-7.5-7.2-7.7-19.1-.5-26.6s19.1-7.7 26.6-.5l.2.2 44.2 44.2zm-69.8 16.6c10.4-.3 19 7.9 19.3 18.3.3 10.4-7.9 19-18.3 19.3-10.4.3-19-7.9-19.3-18.3v-.5c0-10.3 8.4-18.7 18.7-18.8h-.4zm0 56.3c10.4-.3 19 7.9 19.3 18.3s-7.9 19-18.3 19.3-19-7.9-19.3-18.3v-.3c-.1-10.4 8.2-18.9 18.6-19h.1-.4zm37.6 35.4v-34.2h38.2v42c-.1 5-2.3 9.8-6 13.2l-43.8 43.8c-5.8 5.9-14.6 7.5-22.1 4-9.3-4.4-13.2-15.5-8.7-24.8.9-2 2.2-3.7 3.7-5.2l38.7-38.8zM155 346.7c3.5-3.6 8.3-5.6 13.3-5.6H319c5 0 9.9 2 13.4 5.6L445 459.5c7.5 7.3 7.6 19.3.3 26.7-7.3 7.5-19.3 7.6-26.7.3L310.9 378.9H176l-63.7 63.7c-5.8 5.9-14.7 7.6-22.2 4.1-9.4-4.7-13.1-16.1-8.4-25.5.9-1.8 2.1-3.4 3.5-4.8l69.8-69.7zm26.8 56.7c3.6-3.5 8.4-5.4 13.4-5.5h42.3v37.8H203l-38.2 38.6c-7.3 7.5-19.2 7.7-26.7.4s-7.7-19.2-.4-26.7l44.1-44.6zm33.9 53.4c10.4-.1 18.8 8.3 18.9 18.7.1 10.4-8.3 18.8-18.7 18.9-10.4.1-18.8-8.3-18.9-18.7v-.1c.1-10.3 8.3-18.7 18.7-18.8zm82.9-58.7c5 0 9.8 2 13.4 5.5l44.2 44.3c7.5 7.3 7.6 19.3.3 26.8s-19.3 7.6-26.8.3l-39.1-39.1h-34.4v-38h42.3l.1.2zm-26.7 58.7c10.4.2 18.7 8.7 18.5 19.1s-8.7 18.7-19.1 18.5c-10.3-.2-18.5-8.5-18.5-18.8 0-10.4 8.4-18.8 18.8-18.8h.3z" style="fill-rule:evenodd;clip-rule:evenodd;fill:#0645f7"/><path d="M432.6 206.1v34.2h-37.8v-41.6c0-5 2-9.7 5.5-13.2l44.2-43.8c5.8-5.9 14.6-7.5 22.1-4 9.3 4.4 13.2 15.5 8.8 24.8-.9 2-2.2 3.8-3.7 5.3l-39.1 38.3zm34.1 156.6c-7.5 3.5-16.3 1.8-22.1-4l-44.2-43.8c-3.5-3.5-5.5-8.3-5.5-13.2v-42.4h37.8v34.2l39.1 39.1c7.2 7.4 7 19.1-.3 26.3-1.4 1.4-3 2.5-4.7 3.4v.4zM332.5 147.4c-3.6 3.6-8.4 5.5-13.4 5.5H168.4c-5.1-.1-10-2.4-13.4-6.3L85.7 77.2c-7.5-7.3-7.6-19.3-.3-26.7s19.3-7.6 26.7-.3l64.1 64.2h135.3l63.6-63.8c5.8-5.9 14.8-7.6 22.3-4 9.4 4.7 13.1 16.1 8.4 25.5-.9 1.8-2.1 3.4-3.5 4.8l-69.8 70.5zm-21-57.5c-3.5 3.6-8.4 5.6-13.4 5.6h-41.9V57.7h34.4L329.3 19c5.8-5.9 14.7-7.6 22.2-4.1 9.4 4.7 13.1 16.1 8.4 25.5-.9 1.8-2.1 3.4-3.5 4.8l-44.9 44.7zM271.4 41c-10.4 0-18.8-8.4-18.8-18.8S261 3.4 271.4 3.4s18.8 8.4 18.8 18.8c-.2 10.1-8.3 18.2-18.4 18.4l-.4.4zm-76.3 54.5c-5 0-9.9-2-13.4-5.6l-44.2-44.3c-7.5-7.3-7.6-19.3-.3-26.7s19.3-7.6 26.7-.3L203 57.7h34.4v37.8h-42.3zm20.5-54.9c-10.4 0-18.8-8.4-18.8-18.8S205.3 3 215.6 3c10.4 0 18.8 8.4 18.8 18.8s-8.4 18.8-18.8 18.8zm-66.5 132.6v151c0 5-1.9 9.8-5.5 13.4L74.4 407c-5.8 5.9-14.8 7.6-22.3 4-9.3-4.8-13-16.2-8.3-25.5.9-1.8 2.1-3.5 3.6-4.9l64-64.4V181.1l-64-64c-7.5-7.3-7.6-19.3-.3-26.8s19.3-7.6 26.8-.3l69.9 69.7c3.4 3.5 5.4 8.5 5.3 13.5zm-62.6 12c3.8 3.5 6 8.4 6 13.6v42H54.7v-34.2L16 167.9c-7.5-7.2-7.7-19.1-.5-26.6s19.1-7.7 26.6-.5l.2.2 44.2 44.2zm-69.8 16.6c10.4-.3 19 7.9 19.3 18.3.3 10.4-7.9 19-18.3 19.3-10.4.3-19-7.9-19.3-18.3v-.5c0-10.3 8.4-18.7 18.7-18.8h-.4zm0 56.3c10.4-.3 19 7.9 19.3 18.3s-7.9 19-18.3 19.3-19-7.9-19.3-18.3v-.3c-.1-10.4 8.2-18.9 18.6-19h.1-.4zm37.6 35.4v-34.2h38.2v42c-.1 5-2.3 9.8-6 13.2l-43.8 43.8c-5.8 5.9-14.6 7.5-22.1 4-9.3-4.4-13.2-15.5-8.7-24.8.9-2 2.2-3.7 3.7-5.2l38.7-38.8zM155 346.7c3.5-3.6 8.3-5.6 13.3-5.6H319c5 0 9.9 2 13.4 5.6L445 459.5c7.5 7.3 7.6 19.3.3 26.7-7.3 7.5-19.3 7.6-26.7.3L310.9 378.9H176l-63.7 63.7c-5.8 5.9-14.7 7.6-22.2 4.1-9.4-4.7-13.1-16.1-8.4-25.5.9-1.8 2.1-3.4 3.5-4.8l69.8-69.7zm26.8 56.7c3.6-3.5 8.4-5.4 13.4-5.5h42.3v37.8H203l-38.2 38.6c-7.3 7.5-19.2 7.7-26.7.4s-7.7-19.2-.4-26.7l44.1-44.6zm33.9 53.4c10.4-.1 18.8 8.3 18.9 18.7.1 10.4-8.3 18.8-18.7 18.9-10.4.1-18.8-8.3-18.9-18.7v-.1c.1-10.3 8.3-18.7 18.7-18.8zm82.9-58.7c5 0 9.8 2 13.4 5.5l44.2 44.3c7.5 7.3 7.6 19.3.3 26.8s-19.3 7.6-26.8.3l-39.1-39.1h-34.4v-38h42.3l.1.2zm-26.7 58.7c10.4.2 18.7 8.7 18.5 19.1s-8.7 18.7-19.1 18.5c-10.3-.2-18.5-8.5-18.5-18.8 0-10.4 8.4-18.8 18.8-18.8h.3z" style="fill-rule:evenodd;clip-rule:evenodd;fill:#0645f7"/></svg>