<svg xmlns="http://www.w3.org/2000/svg" xml:space="preserve" style="enable-background:new 2000 0 500 500" viewBox="2000 0 500 500"><path d="m2207.5 434.9-31.4-65.2-56.2 88.6c4.9 3 9.9 5.9 15 8.6 6.4 3.4 13 6.5 19.7 9.3 21.5 8.9 44.1 14.8 67.2 17.3 4.8.5 9.7.9 14.5 1.2l-28.8-59.8z" style="fill:#7cc245"/><path d="M2487.1 182.5c-1.6-5.6-3.3-11.1-5.3-16.6l-173.4 153.2-23.9 21.1 2 19.5 13.1 130.2c8.6-1.8 17-4 25.4-6.7 99.3-31.9 171.2-125 171.2-234.9-.1-22.7-3.3-44.8-9.1-65.8z" style="fill:#fccb32"/><path d="m2146.1 380 38.3 79.5 132.9-117.4-24.1-238.5L2146.1 380z" style="fill:#ee3f26"/><path d="m2162.9 371.2 126.7-238 .9 9.1 13.6-25.5v-.1l-238.6 74.8 94.4 196.2 5.7-10.8-2.7-5.7z" style="fill:#cf3627"/><path d="m2195.9 439.7 25.9 53.8c9.1 1 18.3 1.6 27.7 1.6 26.3 0 51.7-4.2 75.5-11.8l-14.6-144.6-114.5 101z" style="fill:#f05048"/><path d="m2310.3 338.6 14.6 144.6c99.3-31.9 171.2-125 171.2-234.9 0-22.8-3.2-44.9-9-65.9l-176.8 156.2z" style="fill:#fccb32"/><path d="M2276.5 3.3c-9-1-18-1.5-27-1.5-88 0-165.2 46.1-208.8 115.4-11.1 17.7-19.9 36.6-26.2 56.5l65.5 25.2 209.7-65.7h.1L2312.3 10c-11.9-3.2-23.8-5.4-35.8-6.7z" style="fill:#2591d4"/><path d="M2436 87.2c-24-27.8-53.9-49.9-87.5-64.7-11.8-5.2-23.9-9.4-36.3-12.6l-22.5 123.2-.1.1 20.7 205.4 176.8-156.1c-9.7-35.2-27.2-67.7-51.1-95.3z" style="fill:#f47f22"/><path d="m2162.9 371.2-83-172.4-65.5-25.2c-7.7 24.2-11.7 49.4-11.7 74.7 0 87.6 45.7 164.6 114.6 208.3 5.7 3.6 11.5 7 17.5 10.1l42.1-66.3-14-29.2z" style="fill:#4caa4c"/><path d="m2195.9 439.7-18.9-39.2-42.1 66.3c6.4 3.4 13 6.5 19.7 9.3 21.5 8.9 44.1 14.8 67.2 17.3l-25.9-53.7z" style="fill:#7cc245"/><path d="M2436 87.2c-24-27.8-53.9-49.9-87.5-64.7l-58.9 110.6L2436 87.2zm-146.4 46 20.7 205.4 176.8-156.1c-9.8-35.2-27.2-67.7-51.1-95.3l-146.4 45.9v.1z" style="fill:#f47f22"/><path d="m2162.9 371.2 33 68.5 114.5-101.1-20.7-205.4-126.8 238z" style="fill:#ee3f26"/><path d="M2289.6 133.1 2276.5 3.3c-9-1-18-1.5-27.1-1.5-88 0-165.2 46.1-208.8 115.4l39.3 81.7 209.7-65.8z" style="fill:#1e85ca"/><path d="m2289.6 133.1-209.7 65.7 83 172.4 126.7-238v-.1z" style="fill:#cf3627"/><path d="m2289.7 133.1 58.9-110.6c-22.9-10.1-47.2-16.6-72-19.3l13.1 129.9z" style="fill:#35a9e1"/><path d="m2195.9 439.7 25.9 53.8c9.1 1 18.3 1.6 27.7 1.6 26.3 0 51.7-4.2 75.5-11.8l-14.6-144.6-114.5 101z" style="fill:#f05048"/><path d="m2310.3 338.6 14.6 144.6c99.3-31.9 171.2-125 171.2-234.9 0-22.8-3.2-44.9-9-65.9l-176.8 156.2z" style="fill:#fccb32"/><path d="M2154.6 476.2c21.5 8.9 44.1 14.8 67.2 17.3l-25.9-53.8-41.3 36.5z" style="fill:#7cc245"/><path d="M2040.6 117.2c-20.1 31.9-32.6 68-36.5 105.4l75.8-23.8-39.3-81.6z" style="fill:#0161ad"/><path d="m2079.9 198.8-75.8 23.8c-.9 8.6-1.3 17.2-1.3 25.8 0 87.6 45.7 164.6 114.6 208.3l45.5-85.5-83-172.4z" style="fill:#4caa4c"/><path d="m2162.9 371.2-45.5 85.5c11.8 7.5 24.3 14 37.2 19.4l41.3-36.4-33-68.5z" style="fill:#51b34b"/><path d="m2294.8 56-5.9 17.3c51.4 27.8 101.2 77.3 128.2 120.5l17.7-5.3c-28.9-47.2-83.6-102-140-132.5z" style="fill:#444344"/><path d="M2380.5 15.9c-33.1 0-61.9 18.1-77.1 44.9-2 3.5-3.8 7.1-5.3 10.9-.4 1-.7 2-1 3-.3.9-.7 1.8-.9 2.7 46.3 26.9 90.4 70.5 116.8 109.9.4-.2.8-.3 1.2-.4 2.9-1.2 5.8-2.6 8.5-4.1 2.1-1.2 4.2-2.4 6.2-3.7 24.3-15.8 40.5-43.2 40.5-74.4-.1-49-39.8-88.8-88.9-88.8z" style="fill:#ee3f26"/><path d="M2297 74.7c-.3.9-.7 1.8-.9 2.7 46.3 26.9 90.4 70.5 116.8 109.9.4-.2.8-.3 1.2-.4 2.9-1.2 5.8-2.6 8.5-4.1-28-39.3-76.1-82.8-125.6-108.1z" style="fill:#c03225"/></svg>