<svg xmlns="http://www.w3.org/2000/svg" xml:space="preserve" style="enable-background:new 0 0 500 500" viewBox="0 0 500 500"><path d="M272.014 3.498h33.276L326.28 25 400 45.99l-63.993 17.918 17.918 76.28 25.085 30.204-61.945 231.912h-84.983L100 496.502l84.983-382.935 21.502-38.396 8.703-30.205 21.501-24.062z" style="fill:#fff"/><path d="M272.014 3.498h33.276L326.28 25z" style="fill:#de4435"/><path d="M327.869 25.452 400 45.99l-61.995 17.358z" style="fill:#eb8d3a"/><path d="m325.64 27.816-8.831 24.957 18.942 9.727z" style="fill:#e73f3c"/><path d="m323.08 27.048-8.447 23.933L275.597 7.21z" style="fill:#ec903b"/><path d="m238.385 20.069 31.421-15.483 41.499 46.395z" style="fill:#e1423e"/><path d="m236.087 21.578 46.038 20.188-65.847 1.98z" style="fill:#dd4137"/><path d="m214.74 46.52 65.209-2.12-73.012 29.2z" style="fill:#393b78"/><path d="M205.871 76.266 286.092 44.4l-99.712 66.672z" style="fill:#e24335"/><path d="m189.718 112.159 99.574-67.001 47.013 20.02z" style="fill:#373c7d"/><path d="m191.382 114.59 145.59-46.573 15.966 67.969z" style="fill:#ec8e36"/><path d="m187.927 116.51 165.011 22.782-38.305 263.012z" style="fill:#e1433a"/><path d="m185.367 119.198 126.194 283.106h-78.455z" style="fill:#373d7b"/><path d="m183.281 121.237 46.923 282.406L100 496.502z" style="fill:#373c7d"/><path d="m356.312 143.062 22.698 27.33-59.829 223.989z" style="fill:#383d79"/></svg>