<svg xmlns="http://www.w3.org/2000/svg" xml:space="preserve" style="enable-background:new 0 0 500 500" viewBox="0 0 500 500"><circle cx="250.5" cy="250.1" r="245.9" style="fill:#171fc9"/><path d="m247 116.7-18.9 14.6c-29.9 21.3-33 54.9-19.3 85.5l41.8 100.6c7.6 19.6 8.3 40.6 1.2 61.5l-.1.4c-1.3 2.9 1.4 5 4.1 2.9l21.9-18.8c21-17.1 28.3-45.9 18.2-71l-46.7-115.6c-5.5-16.2-5.6-32.3-.9-48.1l3.2-8.9c.9-2.5-2.3-4.8-4.5-3.1zm89.8 28.1-14.9 11.5c-23.7 16.8-26.1 43.4-15.2 67.7l33 79.6c6 15.5 6.6 32.1.9 48.7l-.1.4c-1.1 2.3 1.1 4 3.3 2.3l17.3-14.8c16.6-13.5 22.4-36.3 14.4-56.1l-36.9-91.5c-4.3-12.8-4.4-25.5-.7-38l2.5-7c.6-2.4-1.9-4.2-3.6-2.8zm-178.1 0-14.9 11.5c-23.7 16.8-26.1 43.4-15.2 67.7l33 79.6c6 15.5 6.6 32.1.9 48.7l-.1.4c-1.1 2.3 1.1 4 3.3 2.3l17.3-14.8c16.6-13.5 22.4-36.3 14.4-56.1l-36.9-91.5c-4.3-12.8-4.4-25.5-.7-38l2.5-7c.7-2.4-1.8-4.2-3.6-2.8z" style="fill:#fff"/></svg>