<svg xmlns="http://www.w3.org/2000/svg" xml:space="preserve" style="enable-background:new 1000-1000 2500 2500" viewBox="1000 -1000 2500 2500"><path d="M1198.633-113.102 2268.014 560.81a2.037 2.037 0 0 0 2.308 0l1090.966-689.117a2.173 2.173 0 0 0 0-3.666l-1080.92-688.846a2.174 2.174 0 0 0-2.308 0L1198.633-116.768a2.307 2.307 0 0 0 0 3.666zm1069.381 1464.034a73.575 73.575 0 0 1-40.049-11.811L1082.694 601.538a2.173 2.173 0 0 1 0-2.987l48.738-75.89a2.173 2.173 0 0 1 2.987 0l1133.052 729.845a2.174 2.174 0 0 0 2.308 0L3343.64 562.438a85.393 85.393 0 0 0 39.37-72.224v-169.7a2.172 2.172 0 0 0-3.258-1.765l-1084.586 690.746c-24.23 15.412-55.189 15.412-79.419 0L1119.756 312.234c-54.25-34.03-87.178-93.577-87.158-157.617V-83.099a74.125 74.125 0 0 1 20.771-51.453l3.665-2.987 21.043-14.391L2240.86-909.606l1.222-.679a73.717 73.717 0 0 1 76.297 1.901l1123.956 715.998c34.565 21.936 44.803 67.739 22.866 102.304a74.132 74.132 0 0 1-22.866 22.867L2308.742 648.511c-24.129 15.085-54.748 15.085-78.876 0L1130.21-43.864a2.172 2.172 0 0 0-3.258 1.901v196.58a91.635 91.635 0 0 0 42.629 77.79l1084.857 689.524a2.17 2.17 0 0 0 2.308 0L3363.325 215.98c28.007-17.853 64.478-14.855 89.194 7.331a76.843 76.843 0 0 1 23.758 57.698v208.527c.187 61.467-31.05 118.768-82.814 151.915l-1086.079 697.942a74.117 74.117 0 0 1-39.37 11.539z" style="fill:#01a4df"/></svg>