<svg xmlns="http://www.w3.org/2000/svg" xml:space="preserve" style="enable-background:new 0 0 2000 2000" viewBox="0 0 2000 2000"><path d="M1130.575 857.5c50.939-6.18 98.671 2.705 144.807 21.757 49.134 20.29 92.048 49.707 128.211 88.717 20.238 21.832 37.297 45.887 47.387 74.184 6.584 18.466 8.587 37.447 6.885 57.224-4.631 53.826-28.973 98.894-61.189 140.412-29.625 38.179-65.5 69.83-104.824 97.802-35.513 25.26-73.432 46.215-112.549 65.192-25.133 12.192-51.124 22.293-78.084 29.333-21.318 5.566-42.912 10.24-64.454 15.011-11.779 2.609-23.757 4.211-35.527 6.962-7.494 1.751-15.824 1.824-23.574 3.318-15.268 2.944-30.754 4.01-46.109 6.013-12.847 1.675-25.821 3.074-38.963 2.909-12.22-.153-24.492 1.376-36.777 1.381-28.631.012-57.323 1.152-85.871-.382-16.785-.902-33.689-1.162-50.529-3.421-13.333-1.788-26.798-3.842-40.409-4.336-9.585-.348-19.031-4.055-28.631-4.576-12.335-.67-24.012-4.567-36.219-5.743-8.902-.858-17.699-3.109-26.455-5.12-18.15-4.169-36.284-8.423-54.339-12.982-9.117-2.302-18.038-5.38-27.065-8.047-14.586-4.309-29.317-8.177-43.746-12.956-14.952-4.953-29.623-10.755-44.407-16.211-24.168-8.92-47.841-19.087-71.142-29.996-23.102-10.815-45.799-22.503-68.173-34.832a819.007 819.007 0 0 1-37.059-21.698c-18.048-11.215-36.028-22.565-53.22-35.162-14.126-10.35-28.542-20.286-42.167-31.321-12.538-10.153-24.975-20.396-37.2-30.945-20.103-17.347-39.561-35.319-57.967-54.419-10.399-10.791-20.259-22.102-30.451-33.276 2.887-1.874 4.082.107 5.418 1.367 48.537 45.782 102.826 83.583 160.679 116.571 49.903 28.455 101.823 52.474 155.31 73.346 49.41 19.281 99.91 35.103 151.187 48.373a1179.594 1179.594 0 0 0 114.03 23.562c30.18 4.699 60.507 8.428 90.989 11.056 48.226 4.159 96.501 5.616 144.792 3.239a866.646 866.646 0 0 0 84.431-8.308c36.254-5.372 71.874-13.255 106.929-23.767 42.849-12.849 84.595-28.645 124.003-49.926 23.302-12.583 45.416-27.111 65.808-44.26 19.742-16.603 37.087-35.141 51.284-56.69 10.143-15.396 17.836-32.023 22.326-49.723 4.443-17.512 7.92-35.463 6.203-53.783-2.594-27.678-9.091-54.271-20.832-79.69-11.102-24.033-25.337-46.025-41.013-67.143-6.734-9.072-14.74-17.192-21.995-25.889-13.904-16.669-29.65-31.518-45.797-45.907-11.917-10.619-24.568-20.411-36.851-30.622-2.248-1.874-4.297-3.988-7.091-6.598zm-323.111 67.622c1.254-2.215-.297-3.693-1.474-5.16-15.257-19.004-28.845-39.133-40.849-60.339-23.995-42.389-40.747-86.762-38.245-136.61.771-15.362 3.432-30.305 8.592-44.725 14.734-41.171 42.945-71.557 77.881-96.47 25.635-18.281 53.535-32.318 82.595-44.206 35.49-14.517 72.285-24.837 109.468-33.829 15.428-3.731 31.137-6.361 46.643-9.602 12.279-2.566 24.761-4.107 37.031-6.816 13.823-3.052 28.193-3.786 42.311-5.684 17.278-2.323 34.681-3.812 52.064-5.24 18.328-1.505 36.692-2.596 55.049-3.718 28.618-1.75 57.273-1.296 85.922-1.347 20.328-.036 40.596 1.284 60.825 2.778 7.061.521 14.188.031 21.146 1.142 9.314 1.487 18.689 2.849 28.044 2.436 6.527-.288 12.761 1.097 19.101 1.587 13.463 1.041 26.784 4.19 40.246 4.913 15.095.81 29.756 4.265 44.718 5.833 12.032 1.261 24.059 3.783 36.049 5.952 18.59 3.364 37.264 6.49 55.606 10.939 18.833 4.568 37.823 8.429 56.57 13.49 21.076 5.69 42.343 10.716 63.224 17.145 28.727 8.846 57.359 17.971 85.547 28.462 20.037 7.458 39.97 15.109 59.698 23.395 19.659 8.257 39.378 16.315 58.566 25.637 8.891 4.32 17.91 8.378 27.275 12.744-.128-3.319-2.155-4.012-3.725-5.006-45.159-28.603-92.26-53.499-141.373-74.647-37.815-16.283-76.296-30.761-115.507-43.243-51.09-16.263-102.959-29.489-155.478-40.445-39.249-8.188-78.695-14.957-118.39-20.228-59.822-7.944-119.921-12.916-180.28-14.193-76.674-1.622-153.124 1.048-229.278 11.028-30.622 4.013-61.135 8.8-91.27 15.156-32.488 6.852-64.837 14.927-96.159 26.277a649.011 649.011 0 0 0-44.131 17.841c-21.764 9.747-42.709 21.139-63.007 33.678-27.621 17.064-53.702 36.208-77.227 58.63-8.899 8.482-17.455 17.313-25.566 26.653-17.854 20.559-33.176 42.512-44.094 67.599-10.887 25.015-15.646 50.704-11.487 77.834 2.192 14.297 6.868 27.803 14.11 40.233 14.278 24.506 34.447 43.513 57.779 59.175 30.346 20.371 64.024 33.898 98.323 45.742 17.401 6.009 35.458 10.118 53.219 15.086l-.062.123zm271.303-119.623c-6.3-9.349-11.456-19.363-9.937-31.162 2.148-16.688 13.844-25.234 27.698-32.206 21.868-11.005 45.758-11.735 69.27-14.42 17.494-1.998 34.986-.055 52.343 1.679 5.322.532 10.748.088 15.953 1.188 15.805 3.34 31.88 5.108 47.628 8.878 25.374 6.075 50.522 12.888 74.879 22.225 32.672 12.525 63.835 28.118 93.437 46.895 22.593 14.331 43.815 30.304 63.311 48.632 18.809 17.682 36.2 36.592 51.207 57.632 12.974 18.19 24.439 37.226 33.952 57.512 7.814 16.664 14.091 33.863 19.666 51.316 5.531 17.317 7.334 35.445 9.439 53.398 2.036 17.366-1.285 34.514-4.405 51.553-1.821 9.946-4.62 19.62-7.77 29.267-7.015 21.484-17.814 41.068-31.158 58.9-18.585 24.836-40.646 46.503-65.323 65.558-23.6 18.224-49.015 33.381-75.125 47.557-6.243 3.389-13.304 5.421-18.885 10.348 1.478 1.344 2.538 1.155 3.858.646 32.938-12.687 65.718-25.712 96.819-42.593 25.067-13.606 49.227-28.507 71.687-46.223 27.506-21.696 51.638-46.38 70.376-76.073 27.461-43.515 38.398-90.983 31.757-141.965-5.186-39.81-20.189-76.309-41.593-110.105-27.185-42.922-61.663-79.197-101.357-110.807-51.996-41.407-109.457-72.737-172.314-93.972-33.733-11.396-68.31-19.606-103.57-25.316-28.384-4.596-56.875-7.159-85.491-8.579-27.519-1.366-54.991.772-82.106 5.358-21.606 3.654-42.968 8.887-61.451 21.8-20.048 14.006-25.358 33.49-14.108 54.948 12.309 23.478 32.405 39.997 54.237 54.613-4.336-5.476-9.033-10.707-12.924-16.482zM684.593 516.754c-23 8.108-45.443 17.548-67.173 28.563-35.234 17.86-68.641 38.521-99.256 63.751-20.167 16.621-39.178 34.242-55.605 54.528-19.385 23.939-35.389 49.835-46.298 78.896-6.567 17.493-10.835 35.479-11.905 53.838-1.024 17.577-.561 35.405 3.724 52.815 5.255 21.351 12.983 41.689 24.061 60.713 10.782 18.516 23.703 35.333 37.86 51.488 17.95 20.483 38.259 38.097 59.715 54.563 13.553 10.401 28.004 19.562 42.904 27.845 11.581 6.437 23.432 12.448 35.463 18.111 16.174 7.612 32.734 14.227 49.5 20.27 16.423 5.919 33.265 10.575 50.191 14.983 27.311 7.113 54.874 11.999 83.131 12.597 21.704.459 43.403 1.001 64.511-5.602 14.451-4.52 27.783-11.037 36.333-23.996 10.025-15.194 7.99-31.496 2.226-47.688-7.395-20.773-20.102-38.368-33.666-55.376-1.983-2.487-3.45-6.379-8.271-6.764 5.528 10 9.939 19.853 11.432 30.499 1.325 9.448 1.105 18.954-4.798 27.47-7.991 11.529-19.889 16.873-32.609 20.195-28.908 7.55-58.087 4.452-86.874-.524-30.024-5.189-58.917-14.61-87.222-26.167-42.223-17.239-78.677-42.718-110.389-75.035-17.661-17.998-33.357-37.695-46.017-59.751-23.832-41.519-33.745-85.737-26.257-133.218 5.162-32.732 18.092-62.604 36.245-90.226 24.738-37.642 56.475-68.425 92.778-94.802 29.039-21.099 60.263-38.268 93.001-52.877-2.26.33-4.416.084-6.735.901zm122.941 408.23c.252-.189.999.778.82-.369l-.889.506.069-.137z" style="fill:#0283c6"/></svg>