<svg xmlns="http://www.w3.org/2000/svg" xml:space="preserve" style="enable-background:new 0 0 500 500" viewBox="0 0 500 500"><linearGradient id="a" x1="252.801" x2="252.801" y1="4.228" y2="488.671" gradientUnits="userSpaceOnUse"><stop offset="0" style="stop-color:#ff4f0f"/><stop offset="1" style="stop-color:#ffad15"/></linearGradient><path d="M228.7 5.2s74.9 43.9 74.9 117.1c0 50.5-13.7 55.8-13.7 77 0 29.9 27.4 38 35.9 38 8.4 0 41.4-3.7 41.4-48.1 0 0 55.6 54.9 55.6 121.9 0 51.7-21.1 87.6-51.7 108.7s-68.8 20.9-91.8 49.6c-13.8 17.1-14.8 24.3-14.8 24.3S95.7 470.4 83.1 311.2C74.3 199.3 207.9 132 222.8 78.2c9.8-35.2 5.9-73 5.9-73z" style="fill:url(#a)"/><linearGradient id="b" x1="364.928" x2="364.928" y1="4.228" y2="488.889" gradientUnits="userSpaceOnUse"><stop offset="0" style="stop-color:#ff4f0f"/><stop offset="1" style="stop-color:#ffad15"/></linearGradient><path d="M360.8 60.9s30.7 36.6 30.7 66.5c0 22.1-11.5 22.4-17.4 29.4-6.3 7.5-6.1 14-6.1 14s-29.4-8.8-29.4-39.1 22.8-38.3 22.8-54.5c-.2-14.5-.6-16.3-.6-16.3z" style="fill:url(#b)"/><path d="M348.1 267.4H157.7v62.5h64v64h62.5v-64h63.9z" style="fill:#fff"/></svg>