<svg xmlns="http://www.w3.org/2000/svg" xml:space="preserve" style="enable-background:new 0 0 2000 2000" viewBox="0 0 2000 2000"><path d="M201.758 20c43.588 10.159 89.705 20.836 135.788 31.66 408.391 95.929 816.812 191.726 1225.045 288.321 19.537 4.623 39.267 13.686 55.712 25.233 85.085 59.744 169.147 120.947 253.528 181.692 28.026 20.176 29.625 30.143 9.24 59.169-315.506 449.231-630.975 898.488-947.014 1347.343-7.275 10.333-22.636 23.788-31.433 22.006-11.04-2.237-23.461-17.131-27.982-29.281C659.123 1366.928 444.396 787.419 229.579 207.942c-17.901-48.288-36.111-96.465-53.576-144.911-9.292-25.775.447-42.96 25.755-43.031zm64.162 69.035 743.532 863.835 536.963-563.155L265.92 89.035zm1.793 56.984-3.608 3.341 634.782 1712.316c5.67-11.05 7.445-20.856 8.469-30.74 28.307-273.053 56.33-546.137 85.144-819.137 2.529-23.956-2.251-41.813-18.785-60.559C800.294 754.622 627.897 557.1 455.186 359.856c-62.447-71.318-124.98-142.561-187.473-213.837zm667.051 1707.46 4.304 2.082 876.364-1247.646c-11.711.657-20.756 4.255-29.485 8.503-230.204 112.049-459.357 226.348-691.309 334.653-54.31 25.359-73.311 56.23-78.099 114.072-15.029 181.512-36.852 362.461-56.011 543.632-8.626 81.564-17.179 163.135-25.764 244.704zm639.999-1455.381-506.937 531.68 4.078 4.935 743.042-363.707c-81.337-58.554-159.446-114.784-240.183-172.908z"/><path d="m265.92 89.035 1280.495 300.68-536.963 563.155L265.92 89.035zm1.793 56.984c62.493 71.277 125.026 142.52 187.473 213.837C627.897 557.1 800.294 754.622 973.715 951.24c16.534 18.746 21.314 36.603 18.785 60.559-28.814 273-56.837 546.083-85.144 819.137-1.025 9.884-2.8 19.69-8.469 30.74L264.105 149.36l3.608-3.341zm667.051 1707.46c8.585-81.568 17.137-163.14 25.763-244.704 19.16-181.17 40.983-362.12 56.011-543.632 4.789-57.842 23.79-88.713 78.099-114.072 231.952-108.305 461.104-222.604 691.309-334.653 8.729-4.249 17.774-7.846 29.485-8.503L939.067 1855.561c-1.433-.695-2.868-1.389-4.303-2.082zm639.999-1455.381 240.184 172.909-743.042 363.707-4.078-4.935 506.936-531.681z" style="fill:#fff"/></svg>