<svg xmlns="http://www.w3.org/2000/svg" xml:space="preserve" style="enable-background:new 0 0 500 500" viewBox="0 0 500 500"><linearGradient id="a" x1="211.349" x2="415.8" y1="130.104" y2="292.02" gradientUnits="userSpaceOnUse"><stop offset="0" style="stop-color:#3f97ea"/><stop offset="1" style="stop-color:#27bada"/></linearGradient><path d="M477.964 23.812h9.12c5.067 0 8.376 5.316 6.139 9.862L286.64 453.565c-15.06 30.61-58.893 30.049-73.165-.936l-8.409-18.257-56.749-224.679 98.442 118.709 8.903 11.832c16.104 21.402 49.113 18.324 60.983-5.685L466.874 30.701a12.37 12.37 0 0 1 11.09-6.889z" style="fill:url(#a)"/><linearGradient id="b" x1="-1.889" x2="138.79" y1="167.846" y2="257.923" gradientUnits="userSpaceOnUse"><stop offset="0" style="stop-color:#916fcf"/><stop offset="1" style="stop-color:#4aabf2"/></linearGradient><path d="M205.066 434.372 10.499 41.764l137.818 167.93z" style="fill:url(#b)"/><linearGradient id="c" x1="19.24" x2="122.355" y1="-10.713" y2="127.738" gradientUnits="userSpaceOnUse"><stop offset="0" style="stop-color:#ac75ce"/><stop offset="1" style="stop-color:#6ea4e9"/></linearGradient><path d="m10.499 41.764-3.185-5.196c-3.421-5.582.596-12.755 7.143-12.755H86.09c4.502 0 8.699 2.274 11.158 6.044l4.744 7.274 46.326 172.563L10.499 41.764z" style="fill:url(#c)"/><linearGradient id="d" x1="112.272" x2="198.227" y1="100.724" y2="252.114" gradientUnits="userSpaceOnUse"><stop offset="0" style="stop-color:#5c8de3"/><stop offset="1" style="stop-color:#43b3f5"/></linearGradient><path d="m101.991 37.131 148.39 296.085-102.064-123.522z" style="fill:url(#d)"/></svg>