<svg xmlns="http://www.w3.org/2000/svg" xml:space="preserve" style="enable-background:new 0 0 500 500" viewBox="0 0 500 500"><path d="M495.982 249.332c.047 135.751-109.804 245.661-245.518 245.649C114.779 494.969 4.855 384.929 4.999 249.259 5.143 113.74 115.028 3.979 250.536 4c135.52.021 245.399 109.848 245.446 245.332zm-382.798 8.495v35.213h74.344l64.786 149.843 64.845-149.962h74.409v-35.033h-59.239l10.795-24.968h48.466v-34.898h-33.389l33.463-77.514h-47.281l-57.796 137.203h-68.552l-57.768-137.166h-47.276l33.514 77.639h-33.318v34.965h48.45l10.649 24.676c-19.996.002-39.416.002-59.102.002zm119.813 35.472 19.327 45.852 19.286-45.852h-38.613z" style="fill:#2a769a"/></svg>