<svg xmlns="http://www.w3.org/2000/svg" xml:space="preserve" style="enable-background:new 665.5-1000 2500 2500" viewBox="665.5 -1000 2500 2500"><path d="M1915.504 113.34 863.217 731.208v339.573l1052.287-617.857 1052.279 617.857V731.208L1915.504 113.34z" style="fill:#1269ab"/><path d="m1170.652-261.42 744.852-430.033L2660.34-261.42l278.081-113.066L1915.504-965.07 892.59-374.486l278.062 113.066z" style="fill:#3fbced"/><path d="M2660.34-189.522v950.951l-110.63 63.879 234.958 137.95 183.115-105.728V-314.52L2660.34-189.522zM1281.293 825.308l-111.54-64.406v-950.788L863.217-314.529V857.53l183.115 105.728 234.961-137.95z" style="fill:#1269ab"/><path d="m2484.125 863.165-568.621 328.297-568.627-328.297-234.961 137.958 803.588 463.947 803.58-463.947-234.959-137.958z" style="fill:#3fbced"/></svg>