<svg xmlns="http://www.w3.org/2000/svg" xml:space="preserve" style="enable-background:new 0 0 500 500" viewBox="0 0 500 500"><path d="M3.1 354.4v-41.7c3.6-1.9 7.2-4.2 11.1-5.9 19.7-8.5 28.2-23 27-44.8-2.3-40.6 6.9-79 27.9-113.9C104.1 90 155.7 56.3 223 47c53.9-7.5 102.6 6.2 149.5 37.1-13.8 7-26 13.2-38.2 19.4-73.7-34.2-141.9-28.1-203.3 27-43.9 39.4-59.1 107.3-49 142.1C219.7 203.3 357.2 134 495.9 64.3v42C332.5 188.6 168.6 271.1 3.1 354.4zm162.1 42.2C234.1 429 298.1 425.3 358 379c52-40.2 69.6-110.4 59.9-151.8C279.9 296.7 142.3 366 3.4 435.9v-42.1C166.7 311.6 330.6 229.1 495.7 146v41.6c-2.3 1.3-5.2 3.2-8.4 4.5-21.7 8.8-30.6 24.3-29.1 48.1 2.3 38.1-6.4 74.3-25.4 107.4-36.2 62.8-90.7 98.4-163 106.2-51.4 5.5-97.9-8-142.6-37.8 13.6-7 25.9-13.2 38-19.4z"/></svg>