<svg xmlns="http://www.w3.org/2000/svg" xml:space="preserve" style="enable-background:new 0 0 500 500" viewBox="0 0 500 500"><path d="M74.097 467.835H5.359c16.865-17.54 32.082-33.356 47.288-49.183 34.586-36.001 68.699-72.47 103.861-107.9 49.929-50.308 128.623-52.611 182.48-6.167 4.441 3.829 8.639 7.969 12.7 12.205 47.589 49.627 95.13 99.3 144.146 150.488h-61.576c-27.088-24.997-51.791-47.076-75.637-70.045-16.603-15.993-31.52-33.734-48.086-49.77-34.964-33.845-88.881-32.24-123.142 3.208-35.277 36.499-70.371 73.176-105.571 109.75-2.594 2.697-5.399 5.191-7.725 7.414zM15.349 48.456c45.525 47.595 91.071 95.17 136.609 142.752 55.569 58.063 143.449 57.24 199.318-1.535 42.191-44.385 84.798-88.375 127.175-132.583 4.713-4.917 9.135-10.113 15.229-16.889H431.6c-23.943 21.71-43.734 38.679-62.372 56.832-18.618 18.133-35.908 37.62-54.086 56.215-38.497 39.38-92.515 38.521-130.21-1.285-35.462-37.447-71.449-74.396-107.341-111.705H8.184c3.467 3.98 5.228 6.173 7.165 8.198z"/></svg>