<svg xmlns="http://www.w3.org/2000/svg" xml:space="preserve" style="enable-background:new 0 0 500 500" viewBox="0 0 500 500"><path d="M303.8 500c-35.9 0-62-8.6-78.5-25.8-16.4-17.2-24.6-35.7-24.6-55.6 0-7.3 1.4-13.4 4.3-18.3 2.8-4.9 6.9-9 11.7-11.7 5-2.9 11.1-4.3 18.3-4.3 7.3 0 13.4 1.4 18.3 4.3 5 2.9 8.9 6.8 11.7 11.7 2.9 5 4.3 11.1 4.3 18.3 0 8.8-2.1 15.9-6.3 21.5-4.2 5.5-9.2 9.2-14.9 10.9 5 6.9 12.8 11.7 23.5 14.6 10.7 3.1 21.4 4.6 32.1 4.6 14.9 0 28.3-4 40.4-12 12-8 20.9-19.9 26.6-35.5 5.7-15.7 8.6-33.4 8.6-53.3 0-21.6-3.2-40-9.5-55.3-6.1-15.5-15.2-26.9-27.2-34.4-11.7-7.3-25.2-11.2-38.9-11.2-9.2 0-20.6 3.8-34.4 11.5l-25.2 12.6V280l113.4-151.2H200.7v156.9c0 13 2.9 23.7 8.6 32.1 5.7 8.4 14.5 12.6 26.4 12.6 9.2 0 17.9-3.1 26.3-9.2 8.5-6.2 15.8-13.7 21.8-22.3.8-1.7 1.7-3 2.9-3.7 1-.9 2.4-1.4 3.7-1.4 2.1 0 4.6 1 7.4 3.2 2.7 3 4 6.6 4 10.6-.3 2.7-.8 5.4-1.4 8-6.5 14.5-15.5 25.6-26.9 33.2-11.2 7.5-24.3 11.5-37.8 11.5-34 0-57.5-6.7-70.5-20-13-13.4-19.5-31.5-19.5-54.4v-157H65.5V99.7h80.2V33.2l-18.3-18.3V0h53.3l20 10.3v89.3l207.3-.5 20.6 20.6-127.1 127.1c7.7-3.1 15.8-5 24.1-5.7 13.7 0 29.2 4.4 46.4 13.2 17.4 8.6 30.7 20.4 40.1 35.5 9.4 14.9 15.4 29.2 18 43 2.9 13.8 4.3 26 4.3 36.7 0 24.4-5.2 47.2-15.5 68.2s-26 36.6-47 47c-21 10.1-43.7 15.3-68.1 15.3z" style="fill:#2c7df7"/></svg>