<svg xmlns="http://www.w3.org/2000/svg" xml:space="preserve" style="enable-background:new 0 0 2000 2000" viewBox="0 0 2000 2000"><path d="M1988.729 1002.545c-.221 540.566-439.888 971.677-990.579 971.303-547.796-.371-987.452-435.092-987.15-976.07.3-538.205 445.73-971.573 997.796-970.777 540.638.78 980.153 438.326 979.933 975.544zm-217.802-13.455c-9.445-206.48-79.26-387.506-229.988-532.351-196.534-188.864-433.012-243.347-696.689-200.656-296.78 48.05-621.732 333.969-614.706 757.469 6.758 407.341 345.577 744.474 771.309 742.56 434.875-1.954 776.922-350.23 770.074-767.022z" style="fill:#030302"/><path d="M1770.878 989.111c6.896 416.771-335.15 765.047-770.025 767.001-425.732 1.913-764.552-335.219-771.309-742.56-7.026-423.5 317.927-709.419 614.706-757.469 263.677-42.691 500.155 11.792 696.689 200.656 150.727 144.845 220.542 325.871 229.939 532.372z" style="fill:#dea038"/><path d="M893.019 1464.525H634.951c-16.713-98.052-4.847-182.802 61.797-262.097 117.094-139.322 212.91-295.502 342.048-437.391H663.575v-227.59h227.836V368.901h210.853V536.55h252.992c1.179 92.739 10.645 176.104-56.037 256.43-116.135 139.9-212.759 295.534-337.731 441.331h408.707v228.403h-265.792v163.482H893.017c.002-52.144.002-104.233.002-161.671z" style="fill:#030302"/></svg>