<svg xmlns="http://www.w3.org/2000/svg" xml:space="preserve" style="enable-background:new 0 0 500 500" viewBox="0 0 500 500"><radialGradient id="a" cx="449.817" cy="395.13" r="413.288" gradientTransform="matrix(1 0 0 -1 0 501.89)" gradientUnits="userSpaceOnUse"><stop offset=".099" style="stop-color:#26db8d"/><stop offset=".263" style="stop-color:#23d29a"/><stop offset=".564" style="stop-color:#1abbbb"/><stop offset=".886" style="stop-color:#0e9de5"/></radialGradient><path d="m449.8 107-40.2 62.3c12.3 24.2 19.3 51.7 19.3 80.7 0 98.7-80.1 178.8-178.8 178.8-29 0-56.4-6.9-80.6-19.2l-62.2 40.2c40.3 28.8 89.5 45.9 142.9 45.9 135.7 0 245.6-110 245.6-245.6-.1-53.4-17.1-102.8-46-143.1z" style="fill:url(#a)"/><radialGradient id="b" cx="449.817" cy="395.13" r="413.288" gradientTransform="matrix(1 0 0 -1 0 501.89)" gradientUnits="userSpaceOnUse"><stop offset=".099" style="stop-color:#26db8d"/><stop offset=".263" style="stop-color:#23d29a"/><stop offset=".564" style="stop-color:#1abbbb"/><stop offset=".886" style="stop-color:#0e9de5"/></radialGradient><path d="M250.1 373c60.5 0 110.8-43.5 121.3-100.9-19.1-4.1-39-6.3-59.4-6.3-61.3 0-118 19.6-164.3 52.8 22.2 32.8 59.8 54.4 102.4 54.4z" style="fill:url(#b)"/><path d="M310.9 243.4c21.5 0 42.4 2.3 62.6 6.7 0-68.2-55.2-123.4-123.4-123.4s-123.4 55.2-123.4 123.4c0 5.6.4 11.1 1.1 16.5-31.1 23.6-45.8 42.3-46.3 42.9-6.6-18.6-10.2-38.6-10.2-59.4 0-98.7 80.1-178.8 178.8-178.8 28.9 0 56.2 6.9 80.4 19.1l62.3-40.3C352.5 21.3 303.3 4.4 250.1 4.4 114.4 4.4 4.5 114.4 4.5 250c0 54.6 17.9 105 48 145.8 11.6-21 25.8-40.5 42-58 0 0 24.2-25.3 42.8-38 48.7-35.5 108.7-56.4 173.6-56.4z"/></svg>