<svg xmlns="http://www.w3.org/2000/svg" xml:space="preserve" style="enable-background:new 0 0 2000 2000" viewBox="0 0 2000 2000"><path d="M1450.843 1981.523c-12.414 10.972-22.291.534-32.382-4.304-204.381-97.999-408.618-196.297-613.018-294.256-151.183-72.454-302.408-144.825-454.037-216.337-18.299-8.63-26.37-18.349-26.056-39.373 1.2-80.352.862-160.735.244-241.101-.133-17.276 3.767-27.236 21.306-35.708 238.963-115.438 477.387-231.99 715.896-348.365 8.043-3.924 21.032-5.577 21.1-15.327.07-10.011-13.25-11.406-21.163-15.213-237.47-114.242-474.988-228.389-712.844-341.826-17.359-8.279-24.813-17.492-24.53-37.417 1.14-80.354.271-160.735.76-241.102.059-9.621-6.207-23.552 11.145-26.613.586 9.098 7.804 11.597 14.499 14.77 27.415 12.992 54.843 25.956 82.164 39.143C583.3 250.588 732.513 323.009 882.023 394.809c186.063 89.353 372.365 178.212 558.563 267.284.016 84.242-.083 168.483.191 252.724.035 10.577-3.526 22.251 6.036 31.143-52.803 33.788-109.932 59.402-165.677 87.626-190.691 96.548-381.42 193.019-572.101 289.585-5.622 2.847-13.861 4.462-14.328 11.676-.544 8.4 8.642 7.873 14.016 10.465 171.783 82.886 343.522 165.865 515.448 248.453 72.272 34.718 144.95 68.589 217.443 102.837-.314 88.509-.644 177.026-.91 265.543-.024 8.135-1.634 17.318 10.139 19.378z" style="fill:#4dc0be"/><path d="M1440.586 662.093c-186.198-89.072-372.5-177.931-558.563-267.284-149.511-71.8-298.723-144.221-448.094-216.313-27.321-13.186-54.75-26.151-82.164-39.143-6.695-3.173-13.913-5.672-14.499-14.77 88.422-38.87 176.92-77.581 265.208-116.763 16.11-7.15 28.641.808 41.767 7.13 118.708 57.178 237.222 114.76 356.054 171.681 236.698 113.38 473.563 226.412 710.335 339.637 2.443 1.168 4.566 3.008 6.839 4.534 1.765 10.908-5.541 13.319-13.819 16.822-24.612 10.413-48.547 22.417-73.079 33.033-63.233 27.365-126.644 54.318-189.985 81.436z" style="fill:#077a8d"/><path d="M1450.843 1981.524c-11.773-2.06-10.163-11.243-10.138-19.378.266-88.517.596-177.034.91-265.543.266-1.565 1.09-2.749 2.458-3.538 4.588-8.666 2.541-18.048 2.551-27.105.138-130.661.263-261.322.038-391.983-.1-57.924-.99-115.847-1.522-173.771 9.304-16.032 27.26-17.481 41.858-24.075 73.021-32.981 146.536-64.872 219.498-97.98 17.834-8.093 23.403-6.107 23.367 14.955-.482 281.471-.325 562.943-.016 844.415.016 14.597-3.963 22.504-18.745 28.87-87.122 37.522-173.579 76.587-260.259 115.133z" style="fill:#2e8d94"/><path d="M1440.586 662.093c63.34-27.118 126.752-54.071 189.985-81.436 24.531-10.616 48.467-22.62 73.079-33.033 8.278-3.503 15.583-5.913 13.819-16.822 13.591 3.428 12.085 14.531 12.098 24.49.107 82.141-.362 164.287.441 246.42.157 16.101-7.201 22.449-20.35 28.194-87.76 38.343-175.253 77.296-262.838 116.052-9.568-8.89-6.007-20.564-6.042-31.141-.275-84.241-.176-168.483-.192-252.724z" style="fill:#2f8d94"/></svg>