<svg xmlns="http://www.w3.org/2000/svg" fill="none" viewBox="0 0 24 24"><path fill="currentColor" d="M23.026 10.476 2.897.241A2.106 2.106 0 0 0 .723.37c-.313.225-.54.533-.65.882-.11.349-.095.72.04 1.061l3.358 8.52a.453.453 0 0 0 .176.211.523.523 0 0 0 .277.082h8.626c.248-.003.488.079.672.23.184.15.298.36.32.584a.796.796 0 0 1-.056.35.857.857 0 0 1-.203.3.96.96 0 0 1-.317.202c-.12.047-.25.071-.38.07H3.923a.524.524 0 0 0-.277.083.453.453 0 0 0-.176.211l-3.357 8.52c-.101.263-.131.543-.089.819.043.275.157.537.333.764.177.227.41.413.681.541a2.08 2.08 0 0 0 1.81-.018l20.177-10.268c.296-.152.542-.373.713-.64.17-.267.261-.57.261-.88 0-.308-.09-.612-.261-.878a1.848 1.848 0 0 0-.713-.64"/></svg>