<svg viewBox="0 0 24 24" fill="none" xmlns="http://www.w3.org/2000/svg">
  <path
    d="M7.5 15C6.67157 15 6 15.6716 6 16.5C6 17.3284 6.67157 18 7.5 18C8.32843 18 9 17.3284 9 16.5C9 15.6716 8.32843 15 7.5 15Z"
    fill="currentColor" />
  <path
    d="M16.5 15C15.6716 15 15 15.6716 15 16.5C15 17.3284 15.6716 18 16.5 18C17.3284 18 18 17.3284 18 16.5C18 15.6716 17.3284 15 16.5 15Z"
    fill="currentColor" />
  <path fill-rule="evenodd" clip-rule="evenodd"
    d="M7 0C7.82843 0 8.5 0.671573 8.5 1.5V3H15.5V1.5C15.5 0.671573 16.1716 0 17 0C17.8284 0 18.5 0.671573 18.5 1.5V3H19.5C21.9853 3 24 5.01472 24 7.5V19.5C24 21.9853 21.9853 24 19.5 24H4.5C2.01472 24 0 21.9853 0 19.5V7.5C0 5.01472 2.01472 3 4.5 3H5.5V1.5C5.5 0.671573 6.17157 0 7 0ZM21 7.5V9H3V7.5C3 6.67157 3.67157 6 4.5 6H5.5V6.5C5.5 7.32843 6.17157 8 7 8C7.82843 8 8.5 7.32843 8.5 6.5V6H15.5V6.5C15.5 7.32843 16.1716 8 17 8C17.8284 8 18.5 7.32843 18.5 6.5V6H19.5C20.3284 6 21 6.67157 21 7.5ZM21 12H3V19.5C3 20.3284 3.67157 21 4.5 21H19.5C20.3284 21 21 20.3284 21 19.5V12Z"
    fill="currentColor" />
</svg>