<svg xmlns="http://www.w3.org/2000/svg" fill="none" viewBox="0 0 24 24"><path fill="currentColor" d="M7.5 15a1.5 1.5 0 1 0 0 3 1.5 1.5 0 0 0 0-3M16.5 15a1.5 1.5 0 1 0 0 3 1.5 1.5 0 0 0 0-3"/><path fill="currentColor" fill-rule="evenodd" d="M7 0a1.5 1.5 0 0 1 1.5 1.5V3h7V1.5a1.5 1.5 0 0 1 3 0V3h1A4.5 4.5 0 0 1 24 7.5v12a4.5 4.5 0 0 1-4.5 4.5h-15A4.5 4.5 0 0 1 0 19.5v-12A4.5 4.5 0 0 1 4.5 3h1V1.5A1.5 1.5 0 0 1 7 0m14 7.5V9H3V7.5A1.5 1.5 0 0 1 4.5 6h1v.5a1.5 1.5 0 1 0 3 0V6h7v.5a1.5 1.5 0 0 0 3 0V6h1A1.5 1.5 0 0 1 21 7.5m0 4.5H3v7.5A1.5 1.5 0 0 0 4.5 21h15a1.5 1.5 0 0 0 1.5-1.5z" clip-rule="evenodd"/></svg>