<svg xmlns="http://www.w3.org/2000/svg" width="41" height="41" fill="none"><path fill="#fff" fill-opacity=".65" fill-rule="evenodd" d="M30.688 8.756c0-.954-.773-1.728-1.727-1.728H12.039c-.954 0-1.727.774-1.727 1.728s-.773 1.727-1.727 1.727H2.5a2 2 0 0 0-2 2v19.733a2 2 0 0 0 2 2h36a2 2 0 0 0 2-2V12.483a2 2 0 0 0-2-2h-6.085a1.727 1.727 0 0 1-1.727-1.727m-.705 12.873a9.483 9.483 0 1 1-18.966 0 9.483 9.483 0 1 1 18.966 0m-10.217 6.623a.75.75 0 0 1-.75-.75v-3.64a.75.75 0 0 0-.75-.75h-3.64a.75.75 0 0 1-.75-.75V20.87a.75.75 0 0 1 .75-.75h3.64a.75.75 0 0 0 .75-.75v-3.614a.75.75 0 0 1 .75-.75h1.494a.75.75 0 0 1 .75.75v3.614c0 .414.336.75.75.75h3.614a.75.75 0 0 1 .75.75v1.493a.75.75 0 0 1-.75.75H22.76a.75.75 0 0 0-.75.75v3.64a.75.75 0 0 1-.75.75z" clip-rule="evenodd"/></svg>