<svg viewBox="0 0 24 24" fill="none" xmlns="http://www.w3.org/2000/svg">
 <path fill-rule="evenodd" clip-rule="evenodd" d="M12 24C15.1826 24 18.2348 22.7357 20.4853 20.4853C22.7357 18.2348 24 15.1826 24 12C24 8.8174 22.7357 5.76516 20.4853 3.51472C18.2348 1.26428 15.1826 0 12 0C8.8174 0 5.76516 1.26428 3.51472 3.51472C1.26428 5.76516 0 8.8174 0 12C0 15.1826 1.26428 18.2348 3.51472 20.4853C5.76516 22.7357 8.8174 24 12 24V24ZM13.5 6C13.5 5.60218 13.342 5.22064 13.0607 4.93934C12.7794 4.65804 12.3978 4.5 12 4.5C11.6022 4.5 11.2206 4.65804 10.9393 4.93934C10.658 5.22064 10.5 5.60218 10.5 6V12C10.5001 12.3978 10.6582 12.7793 10.9395 13.0605L15.1815 17.304C15.3209 17.4434 15.4863 17.5539 15.6684 17.6293C15.8505 17.7048 16.0457 17.7436 16.2427 17.7436C16.4398 17.7436 16.635 17.7048 16.8171 17.6293C16.9992 17.5539 17.1646 17.4434 17.304 17.304C17.4434 17.1646 17.5539 16.9992 17.6293 16.8171C17.7048 16.635 17.7436 16.4398 17.7436 16.2427C17.7436 16.0457 17.7048 15.8505 17.6293 15.6684C17.5539 15.4863 17.4434 15.3209 17.304 15.1815L13.5 11.379V6Z" fill="currentColor"/>
 </svg>