<svg viewBox="0 0 96 96" fill="none" xmlns="http://www.w3.org/2000/svg">
<path fill-rule="evenodd" clip-rule="evenodd" d="M57 1C79.6754 1.07965 96 23.346 96 48C96 72.654 79.6754 94.9194 57 94.999L38 95C14.4953 95 0 72.3402 0 48C0 23.6598 14.4953 1 38 1H57ZM56.8779 13C48.1597 13.0001 39.8828 18.4636 34.7158 27.8848C33.1224 30.7902 29.4748 31.8542 26.5693 30.2607C23.6641 28.6673 22.6011 25.0206 24.1943 22.1152C25.5729 19.6015 27.1638 17.2334 28.9434 15.0566C19.1757 19.6783 12 31.7685 12 48C12 64.2368 19.1806 76.3289 28.9531 80.9473C22.9542 73.5588 19.0418 63.9045 18.0283 53.5869C17.7044 50.2892 20.1154 47.3524 23.4131 47.0283C26.7108 46.7044 29.6476 49.1154 29.9717 52.4131C31.7717 70.7396 44.0423 82.9999 56.8779 83C70.7246 83 84 68.5891 84 48C84 27.4109 70.7246 13 56.8779 13Z" fill="#9b9ba7"/>
</svg>
