<svg width="16" height="16" viewBox="0 0 16 16" fill="none" xmlns="http://www.w3.org/2000/svg">
  <g clip-path="url(#clip0_120_11077)">
    <path fill-rule="evenodd" clip-rule="evenodd" d="M8 12.6667C11.4811 12.6667 14 10.1186 14 7.33333C14 4.54807 11.4811 2 8 2C4.51892 2 2 4.54807 2 7.33333C2 8.75475 2.62812 10.0755 3.71328 11.0615C4.26416 11.5621 4.65238 12.3001 4.66628 13.1466L5.3003 12.8404L6.17009 14.6413L3.86241 15.7558C3.30907 16.0231 2.66667 15.6199 2.66667 15.0054V13.1936C2.66667 12.944 2.55301 12.7096 2.36832 12.5418C0.905817 11.2129 0 9.37009 0 7.33333C0 3.28325 3.58172 0 8 0C12.4183 0 16 3.28325 16 7.33333C16 11.3834 12.4183 14.6667 8 14.6667C7.55183 14.6667 7.11227 14.6329 6.68418 14.5679C6.50913 14.5414 6.32952 14.5643 6.17009 14.6413L5.3003 12.8404C5.85177 12.574 6.44317 12.5085 6.98413 12.5906C7.31312 12.6405 7.65242 12.6667 8 12.6667Z" fill="currentColor" />
  </g>
  <defs>
    <clipPath id="clip0_120_11077">
      <rect width="16" height="16" fill="white"/>
    </clipPath>
  </defs>
</svg>