<svg xmlns="http://www.w3.org/2000/svg" width="24" height="24" fill="none"><path stroke="currentColor" stroke-linecap="round" stroke-width="3" d="M1.5 3.158h11.14M1.5 12h7.66M1.5 20.842h21"/><path fill="currentColor" fill-rule="evenodd" d="M23.444 10.36a1.3 1.3 0 0 1 .005 1.84l-4.256 4.256a1.3 1.3 0 0 1-1.84-.005l-4.132-4.132a1.3 1.3 0 0 1-.005-1.84 1.3 1.3 0 0 1 1.84.005l1.905 1.906V1.836A1.292 1.292 0 0 1 18.26.54a1.31 1.31 0 0 1 1.304 1.304v10.554l2.042-2.042a1.3 1.3 0 0 1 1.84.005" clip-rule="evenodd"/></svg>