<svg xmlns="http://www.w3.org/2000/svg" fill="none" viewBox="0 0 24 24"><path fill="url(#a)" d="M4.049 5.663a2.89 2.89 0 0 1 .942-1.038L11.611 0 4.828 11.222s-.592-1.002-.823-1.51a4.802 4.802 0 0 1 .044-4.05m-2.732 7.74a7.554 7.554 0 0 0 2.963 5.489L11.602 24s-4.58-6.606-8.445-13.178a6.641 6.641 0 0 1-.776-2.242 3.589 3.589 0 0 1 0-1.076c-.101.187-.297.57-.297.57a8.705 8.705 0 0 0-.79 2.534c-.077.93-.07 1.867.023 2.796m18.668.89c-.237-.507-.824-1.509-.824-1.509L12.391 24l6.62-4.622c.394-.263.717-.62.942-1.038a4.802 4.802 0 0 0 .044-4.05zm2.688-3.694a7.554 7.554 0 0 0-2.963-5.488L12.4 0s4.577 6.606 8.445 13.179a6.64 6.64 0 0 1 .773 2.24c.054.358.054.72 0 1.077.1-.187.296-.57.296-.57.392-.799.659-1.654.791-2.534.078-.93.07-1.866-.02-2.796z"/><defs><linearGradient id="a" x1="15.574" x2="-8.982" y1="26.845" y2="-11.906" gradientUnits="userSpaceOnUse"><stop stop-color="#44BCF0"/><stop offset=".428" stop-color="#628BF3"/><stop offset="1" stop-color="#A099FF"/></linearGradient></defs></svg>