<svg height="200px">
  <path
    d="M 10 10L 10 10.000089999955009 L 15.0506591796875 28.91983945207295 L 20.101318359375 45.85093935235247 L 25.1519775390625 61.002416096731594 L 30.20263671875 74.56132537537047 L 35.2532958984375 86.69506150736578 L 40.303955078125 97.55342404194185 L 45.3546142578125 107.27046713977101 L 50.4052734375 115.96615456634262 L 55.4559326171875 123.74784072944385 L 60.506591796875 130.71159604520682 L 65.5572509765625 136.94339299530264 L 70.60791015625 142.52016751799687 L 75.6585693359375 147.51076883668924 L 80.709228515625 151.97680945224235 L 85.7598876953125 155.9734257928552 L 90.810546875 159.5499589122423 L 95.8612060546875 162.75056363981827 L 100.911865234375 165.61475370327753 L 105.9625244140625 168.17788955349295 L 111.01318359375 170.47161491427605 L 116.0638427734375 172.5242474465148 L 121.114501953125 174.3611283497134 L 126.1651611328125 176.0049352170126 L 131.2158203125 177.47596200610636 L 136.2664794921875 178.79236958249453 L 141.317138671875 179.9704099282042 L 146.3677978515625 181.02462678399544 L 151.41845703125 181.9680352021213 L 156.4691162109375 182.8122822263474 L 161.519775390625 183.56779068293986 L 166.5704345703125 184.24388785782295 L 171.62109375 184.84892064851672 L 176.6717529296875 185.39035861248698 L 181.722412109375 185.87488618411174 L 186.7730712890625 186.30848519874883 L 191.82373046875 186.69650874272136 L 196.8743896484375 187.0437472409523 L 201.925048828125 187.35448759814628 L 206.9757080078125 187.6325661236582 L 212.0263671875 187.88141589344397 L 217.0770263671875 188.10410913380997 L 222.127685546875 188.30339515021817 L 227.1783447265625 188.48173426940548 L 232.22900390625 188.64132821385653 L 237.2796630859375 188.78414728362372 L 242.330322265625 188.91195468107435 L 247.3809814453125 189.02632827887004 L 252.431640625 189.12868009992 L 257.4822998046875 189.22027374980198 L 262.532958984375 189.30224001686634 L 267.5836181640625 189.37559083261746 L 272.63427734375 189.44123176472348 L 277.6849365234375 189.49997319688921 L 282.735595703125 189.55254033361587 L 287.7862548828125 189.59958215336317 L 292.8369140625 189.6416794206472 L 297.8875732421875 189.6793518559888 L 302.938232421875 189.71306455223092 L 307.9888916015625 189.74323371643825 L 313.03955078125 189.77023180826794 L 318.0902099609375 189.79439213824702 L 323.140869140625 189.81601298272673 L 328.1915283203125 189.8353612663148 L 333.2421875 189.85267585724836 L 338.2928466796875 189.8681705163912 L 343.343505859375 189.88203653626275 L 348.3941650390625 189.89444510267947 L 353.44482421875 189.90554940816475 L 358.4954833984375 189.91548654321878 L 363.546142578125 189.92437918879784 L 368.5968017578125 189.93233713089734 L 373.6474609375 189.93945861593753 L 378.6981201171875 189.945831563685 L 383.748779296875 189.95153465268442 L 388.7994384765625 189.95663829160063 L 393.85009765625 189.96120548846358 L 398.9007568359375 189.96529262854682 L 403.951416015625 189.96895017048368 L 409.0020751953125 189.97222326921468 L 414.052734375 189.97515233345723 L 419.1033935546875 189.97777352457976 L 424.154052734375 189.98011920303952 L 429.2047119140625 189.98221832789505 L 434.25537109375 189.98409681432653 L 439.3060302734375 189.9857778535767 L 444.356689453125 189.98728219926338 L 449.4073486328125 189.98862842359736 L 454.4580078125 189.98983314666967 L 459.5086669921875 189.99091124163814 L 464.559326171875 189.99187601834723 L 469.6099853515625 189.99273938764736 L 474.66064453125 189.9935120084428 L 479.7113037109375 189.9942034192834 L 484.761962890625 189.9948221561247 L 489.8126220703125 189.9953758577104 L 494.86328125 189.9958713598779 L 499.9139404296875 189.99631477995172 L 504.964599609375 189.9967115922661 L 510.0152587890625 189.99706669574954 L 515.06591796875 189.99738447440558 L 520.1165771484375 189.99766885143632 L 525.167236328125 189.99792333767718 L 530.2178955078125 189.99815107494078 L 535.2685546875 189.99835487480453 L 540.3192138671875 189.9985372533218 L 545.369873046875 189.9987004620844 L 550.4205322265625 189.99884651601977 L 555.47119140625 189.998977218267 L 560.5218505859375 189.99909418243774 L 565.572509765625 189.99919885253732 L 570.6231689453125 189.99929252079215 L 575.673828125 189.999376343603 L 580.7244873046875 189.99945135582175 L 585.775146484375 189.99951848352725 L 590.8258056640625 189.99957855545847 L 595.87646484375 189.99963231324588 L 600.9271240234375 189.99968042056736 L 605.977783203125 189.99972347134175 L 611.0284423828125 189.99976199706137 L 616.0791015625 189.9997964733534 L 621.1297607421875 189.99982732585207 L 626.180419921875 189.99985493545327 L 631.2310791015625 189.99987964301704 L 636.28173828125 189.9999017535757 L 641.3323974609375 189.99992154009976 L 646.383056640625 189.99993924686785 L 651.4337158203125 189.9999550924825 L 656.484375 189.99996927256905 L 661.5350341796875 189.9999819621907 L 666.585693359375 189.99999331800976 L 671.6363525390625 190 ">
  </path>
</svg>