<svg xmlns="http://www.w3.org/2000/svg" fill="none" viewBox="0 0 24 24"><g fill="currentColor" clip-path="url(#a)"><path d="M11.026 7.489A.656.656 0 0 0 10.8 8a1.2 1.2 0 0 1-2.4 0c0-.882.362-1.711 1.034-2.307C10.1 5.102 11 4.8 12 4.8c1 0 1.9.302 2.566.893A3.054 3.054 0 0 1 15.6 8c0 .622-.143 1.144-.41 1.606-.242.418-.565.74-.797.973l-.048.048c-.45.45-.877.876-1.221 1.794a1.2 1.2 0 1 1-2.248-.842c.528-1.408 1.256-2.134 1.763-2.64l.05-.05c.255-.255.36-.374.424-.486.042-.072.087-.175.087-.403 0-.21-.078-.38-.226-.511C12.82 7.353 12.52 7.2 12 7.2c-.52 0-.82.153-.974.289M13.2 15.8a1.2 1.2 0 1 1-2.4 0 1.2 1.2 0 0 1 2.4 0"/><path fill-rule="evenodd" d="M12 21.4c6.627 0 12-4.701 12-10.5S18.627.4 12 .4 0 5.101 0 10.9c0 2.803 1.255 5.349 3.3 7.231.308.285.5.678.5 1.098v2.897a1.4 1.4 0 0 0 2.03 1.25l3.802-1.918a1.48 1.48 0 0 1 .832-.143A13.82 13.82 0 0 0 12 21.4m9.6-10.5c0 4.182-3.987 8.1-9.6 8.1-.431 0-.855-.024-1.269-.07a3.879 3.879 0 0 0-2.18.385L6.2 20.5V19.23a3.902 3.902 0 0 0-1.275-2.863C3.315 14.883 2.4 12.955 2.4 10.9c0-4.182 3.987-8.1 9.6-8.1 5.613 0 9.6 3.918 9.6 8.1" clip-rule="evenodd"/></g><defs><clipPath id="a"><path fill="#fff" d="M0 0h24v24H0z"/></clipPath></defs></svg>