<svg viewBox="0 0 24 24" fill="none" xmlns="http://www.w3.org/2000/svg">
  <path
    d="M2.48796 4.26904C2.24701 4.10827 1.96692 4.01594 1.6776 4.00188C1.38828 3.98783 1.10057 4.05258 0.845163 4.18924C0.589759 4.32589 0.376244 4.52932 0.227398 4.77781C0.0785509 5.02631 -4.33333e-05 5.31055 1.79242e-08 5.60022V18.4C-4.33333e-05 18.6897 0.0785509 18.9739 0.227398 19.2224C0.376244 19.4709 0.589759 19.6743 0.845163 19.811C1.10057 19.9477 1.38828 20.0124 1.6776 19.9984C1.96692 19.9843 2.24701 19.892 2.48796 19.7312L11.1998 13.9233V18.4C11.1998 18.6897 11.2784 18.9739 11.4272 19.2224C11.5761 19.4709 11.7896 19.6743 12.045 19.811C12.3004 19.9477 12.5881 20.0124 12.8774 19.9984C13.1668 19.9843 13.4468 19.892 13.6878 19.7312L23.2877 13.3313C23.5068 13.1852 23.6864 12.9872 23.8107 12.755C23.935 12.5228 24 12.2635 24 12.0001C24 11.7367 23.935 11.4774 23.8107 11.2452C23.6864 11.013 23.5068 10.8151 23.2877 10.6689L13.6878 4.26904C13.4468 4.10827 13.1668 4.01594 12.8774 4.00188C12.5881 3.98783 12.3004 4.05258 12.045 4.18924C11.7896 4.32589 11.5761 4.52932 11.4272 4.77781C11.2784 5.02631 11.1998 5.31055 11.1998 5.60022V10.0769L2.48796 4.26904Z"
    fill="currentColor" />
</svg>