<svg xmlns="http://www.w3.org/2000/svg" width="24" height="24" fill="none"><g clip-path="url(#a)"><path fill="#fff" fill-rule="evenodd" d="M12 19c5.222 0 9-3.822 9-8s-3.778-8-9-8c-5.222 0-9 3.822-9 8 0 2.132.942 4.113 2.57 5.592A4.331 4.331 0 0 1 7 19.72l.95-.46 1.305 2.702-3.461 1.672A1.25 1.25 0 0 1 4 22.508V19.79c0-.374-.17-.726-.448-.977C1.36 16.819 0 14.055 0 11 0 4.925 5.373 0 12 0s12 4.925 12 11-5.373 11-12 11c-.672 0-1.332-.05-1.974-.148a1.317 1.317 0 0 0-.77.11L7.95 19.261a4.316 4.316 0 0 1 2.526-.375C10.97 18.96 11.48 19 12 19" clip-rule="evenodd"/></g><defs><clipPath id="a"><path fill="#fff" d="M0 0h24v24H0z"/></clipPath></defs></svg>