<svg width="24" height="24" viewBox="0 0 24 24" fill="none" xmlns="http://www.w3.org/2000/svg">
<g clip-path="url(#clip0_85_483)">
<path fill-rule="evenodd" clip-rule="evenodd" d="M12 19C17.2216 19 21 15.1779 21 11C21 6.8221 17.2216 3 12 3C6.77838 3 3 6.8221 3 11C3 13.1321 3.94218 15.1133 5.56991 16.5923C6.39625 17.3431 6.97858 18.4502 6.99942 19.7199L7.95046 19.2606L9.25513 21.962L5.79361 23.6338C4.9636 24.0346 4 23.4299 4 22.5082V19.7904C4 19.416 3.82952 19.0644 3.55248 18.8126C1.35873 16.8194 0 14.0551 0 11C0 4.92487 5.37258 0 12 0C18.6274 0 24 4.92487 24 11C24 17.0751 18.6274 22 12 22C11.3277 22 10.6684 21.9493 10.0263 21.8519C9.76369 21.8121 9.49428 21.8465 9.25513 21.962L7.95046 19.2606C8.77765 18.8611 9.66476 18.7628 10.4762 18.8859C10.9697 18.9607 11.4786 19 12 19Z" fill="white"/>
</g>
<defs>
<clipPath id="clip0_85_483">
<rect width="24" height="24" fill="white"/>
</clipPath>
</defs>
</svg>
