<svg xmlns="http://www.w3.org/2000/svg" width="16" height="16" fill="none"><mask id="a" fill="#fff"><path d="M1 2a2 2 0 0 1 2-2h5a2 2 0 0 1 2 2v6h.25A2.75 2.75 0 0 1 13 10.75v1c0 .416.334.75.75.75s.75-.334.75-.75V6.91A1.946 1.946 0 0 1 13 5V3l-1-1a.707.707 0 1 1 1-1l2.416 2.416c.375.375.584.88.584 1.412v6.922A2.249 2.249 0 0 1 13.75 14a2.249 2.249 0 0 1-2.25-2.25v-1c0-.69-.56-1.278-1.25-1.278H10V14a.999.999 0 1 1 0 2H1a1 1 0 1 1 0-2zm2 3.5c0 .275.225.5.5.5h4c.275 0 .5-.225.5-.5v-3a.5.5 0 0 0-.5-.5h-4a.5.5 0 0 0-.5.5z"/></mask><path stroke="#9B9BA7" stroke-width="4" d="M1 2a2 2 0 0 1 2-2h5a2 2 0 0 1 2 2v6h.25A2.75 2.75 0 0 1 13 10.75v1c0 .416.334.75.75.75s.75-.334.75-.75V6.91A1.946 1.946 0 0 1 13 5V3l-1-1a.707.707 0 1 1 1-1l2.416 2.416c.375.375.584.88.584 1.412v6.922A2.249 2.249 0 0 1 13.75 14a2.249 2.249 0 0 1-2.25-2.25v-1c0-.69-.56-1.278-1.25-1.278H10V14a.999.999 0 1 1 0 2H1a1 1 0 1 1 0-2zm2 3.5c0 .275.225.5.5.5h4c.275 0 .5-.225.5-.5v-3a.5.5 0 0 0-.5-.5h-4a.5.5 0 0 0-.5.5z" mask="url(#a)"/></svg>