<svg xmlns="http://www.w3.org/2000/svg" width="50" height="45" fill="none"><path fill="#1BDBDB" d="M42.601 2.51C37.47-.697 30.711.068 24.685 3.857 18.678.066 11.916-.698 6.79 2.51c-8.11 5.07-9.095 18.129-2.2 29.168 5.082 8.139 13.03 12.908 20.106 12.82 7.075.088 15.023-4.681 20.105-12.82 6.887-11.04 5.91-24.098-2.2-29.168M8.318 29.349a26.45 26.45 0 0 1-3.182-7.288 20.852 20.852 0 0 1-.69-6.872c.307-4.08 1.967-7.257 4.672-8.947 2.704-1.69 6.28-1.793 10.087-.28.571.228 1.137.492 1.698.783a31.17 31.17 0 0 0-5.468 6.576c-4.187 6.702-5.463 14.16-4.002 20.106a27.06 27.06 0 0 1-3.115-4.078m35.939-7.29a26.515 26.515 0 0 1-3.182 7.288 27.31 27.31 0 0 1-3.115 4.086c1.307-5.33.42-11.86-2.784-17.984a.808.808 0 0 0-1.157-.314l-9.985 6.24a.816.816 0 0 0-.26 1.128l1.466 2.343a.815.815 0 0 0 1.124.26l6.472-4.046c.21.628.419 1.256.576 1.885.61 2.233.844 4.552.693 6.863-.308 4.078-1.968 7.255-4.672 8.947a9.127 9.127 0 0 1-4.629 1.34h-.207a9.117 9.117 0 0 1-4.628-1.34c-2.707-1.692-4.367-4.87-4.674-8.947a20.904 20.904 0 0 1 .69-6.872 27.197 27.197 0 0 1 8.336-13.347 20.87 20.87 0 0 1 5.861-3.632c3.797-1.512 7.379-1.412 10.085.28 2.707 1.693 4.365 4.868 4.672 8.948a20.904 20.904 0 0 1-.682 6.874"/></svg>