<svg width="24" height="24" viewBox="0 0 24 24" fill="none" xmlns="http://www.w3.org/2000/svg">
<path d="M12 5.25C12.8284 5.25 13.5 5.92157 13.5 6.75V6.75583C13.5 7.58426 12.8284 8.25583 12 8.25583C11.1716 8.25583 10.5 7.58426 10.5 6.75583V6.75C10.5 5.92157 11.1716 5.25 12 5.25Z" fill="#333333"/>
<path d="M10.5 9.5C9.67157 9.5 9 10.1716 9 11C9 11.8284 9.67157 12.5 10.5 12.5V17C10.5 17.8284 11.1716 18.5 12 18.5C12.8284 18.5 13.5 17.8284 13.5 17L13.5 11C13.5 10.1716 12.8284 9.5 12 9.5H10.5Z" fill="#333333"/>
<path fill-rule="evenodd" clip-rule="evenodd" d="M24 12C24 18.6274 18.6274 24 12 24C5.37258 24 0 18.6274 0 12C0 5.37258 5.37258 0 12 0C18.6274 0 24 5.37258 24 12ZM21 12C21 16.9706 16.9706 21 12 21C7.02944 21 3 16.9706 3 12C3 7.02944 7.02944 3 12 3C16.9706 3 21 7.02944 21 12Z" fill="#333333"/>
</svg>
