<svg width="24" height="24"  viewBox="0 0 24 24" fill="none" xmlns="http://www.w3.org/2000/svg">
<path fill-rule="evenodd" clip-rule="evenodd" d="M19.8032 9.9016C19.8032 11.7618 19.2902 13.5022 18.398 14.9891L23.4528 20.1898C24.1973 20.9559 24.1799 22.1805 23.4138 22.9251C22.6478 23.6696 21.4231 23.6522 20.6786 22.8861L15.7936 17.8601C14.1472 19.0811 12.1087 19.8032 9.9016 19.8032C4.4331 19.8032 0 15.3701 0 9.9016C0 4.4331 4.4331 0 9.9016 0C15.3701 0 19.8032 4.4331 19.8032 9.9016ZM9.90162 16.3085C13.4401 16.3085 16.3085 13.4401 16.3085 9.90161C16.3085 6.36316 13.4401 3.49469 9.90162 3.49469C6.36317 3.49469 3.4947 6.36316 3.4947 9.90161C3.4947 13.4401 6.36317 16.3085 9.90162 16.3085Z" fill="currentColor"/>
</svg>
