<svg xmlns="http://www.w3.org/2000/svg" width="88" height="16" fill="none"><g clip-path="url(#a)"><path fill="#000" d="m81.926 13.146-3.289-7.563h2.202l2.246 5.424 2.596-5.424h2.165L82.728 16h-2.202zm-8.008-1.566a2.247 2.247 0 0 0 1.028-.54c.143-.13.265-.28.365-.445a2.282 2.282 0 0 0 .328-1.208 2.282 2.282 0 0 0-.328-1.215 2.044 2.044 0 0 0-.835-.777 2.453 2.453 0 0 0-.558-.202 2.738 2.738 0 0 0-.62-.07 2.69 2.69 0 0 0-.615.07 2.394 2.394 0 0 0-.551.2 2.15 2.15 0 0 0-.47.33 2.052 2.052 0 0 0-.369.448c-.104.173-.184.36-.237.555a2.472 2.472 0 0 0-.083.66c-.002.221.026.44.084.654.052.195.132.382.236.555.1.165.225.315.369.445.143.129.3.24.47.332.173.094.358.164.55.208.203.047.41.07.617.07.208 0 .416-.023.62-.07m-2.22 1.694a3.97 3.97 0 0 1-.966-.387 3.688 3.688 0 0 1-1.41-1.416c-.171-.307-.301-.635-.387-.975a4.66 4.66 0 0 1 0-2.226c.085-.34.215-.666.386-.971.333-.591.82-1.08 1.411-1.413.304-.17.629-.3.966-.387a4.392 4.392 0 0 1 1.105-.135c.2 0 .402.012.601.037a3.665 3.665 0 0 1 1.028.28c.148.064.29.138.427.224.128.08.248.173.357.277.103.097.198.202.285.314v-.913h2.092v7.607h-2.092v-.913a2.775 2.775 0 0 1-1.065.818 3.472 3.472 0 0 1-.755.233c-.29.055-.584.082-.878.08a4.39 4.39 0 0 1-1.105-.134M64.101 7.51c.3.006.599-.028.89-.102.226-.057.438-.163.62-.31.163-.137.29-.314.364-.515.082-.227.121-.467.117-.708a1.955 1.955 0 0 0-.117-.704 1.211 1.211 0 0 0-.364-.507 1.648 1.648 0 0 0-.62-.307 3.39 3.39 0 0 0-.89-.102h-2.056V7.51zM59.88 2.46h4.425c.695 0 1.298.085 1.809.255.51.17.93.407 1.261.709.329.299.582.671.74 1.087.166.439.248.904.244 1.373.006.467-.077.932-.244 1.368-.16.413-.413.782-.74 1.08-.33.305-.751.542-1.261.712-.51.17-1.114.256-1.809.256h-2.26v3.89h-2.166zm-9.3 3.124h2.079v.913c.128-.177.28-.336.452-.471.181-.143.38-.263.59-.358.232-.104.476-.18.726-.226.277-.052.56-.078.842-.077.44-.006.877.068 1.29.22.369.135.702.35.977.63.277.29.486.639.613 1.02.146.437.218.896.211 1.357v4.599h-2.078V9.13a2.822 2.822 0 0 0-.123-.876 1.748 1.748 0 0 0-.354-.635 1.434 1.434 0 0 0-.565-.383 2.143 2.143 0 0 0-.766-.128 2.174 2.174 0 0 0-.77.128 1.43 1.43 0 0 0-.568.383c-.16.184-.281.4-.353.635-.087.284-.13.58-.124.876v4.059H50.58zm-5.113 5.975c.198-.048.39-.119.572-.211.173-.09.332-.203.47-.34a2.18 2.18 0 0 0 .354-.452c.1-.171.173-.356.22-.548.049-.208.073-.421.072-.635a2.633 2.633 0 0 0-.073-.632 2.063 2.063 0 0 0-1.043-1.343 2.306 2.306 0 0 0-.572-.215 2.873 2.873 0 0 0-.66-.073 2.84 2.84 0 0 0-.652.073 2.18 2.18 0 0 0-1.035.558 1.9 1.9 0 0 0-.347.453 2.388 2.388 0 0 0-.299 1.179 2.439 2.439 0 0 0 .299 1.183 1.995 1.995 0 0 0 .813.792c.18.093.371.164.569.211.213.052.432.078.652.077.222.001.444-.024.66-.077m-1.885 1.712a4.917 4.917 0 0 1-1.083-.39 3.99 3.99 0 0 1-.893-.61 3.733 3.733 0 0 1-1.097-1.785c-.2-.729-.2-1.498 0-2.226a3.781 3.781 0 0 1 1.097-1.781c.268-.245.569-.451.893-.614a4.927 4.927 0 0 1 1.083-.39 5.543 5.543 0 0 1 2.465 0c.373.086.734.218 1.075.39.323.165.624.371.893.614a3.71 3.71 0 0 1 1.112 1.781c.2.728.2 1.497 0 2.226a3.72 3.72 0 0 1-1.112 1.785c-.27.24-.57.445-.893.61-.34.172-.7.303-1.072.39a5.557 5.557 0 0 1-2.468 0m-8.108-1.712c.198-.048.39-.119.572-.211.173-.09.331-.203.47-.34.137-.134.256-.287.354-.452.1-.171.173-.356.219-.548.05-.208.074-.421.072-.635a2.633 2.633 0 0 0-.072-.632 2.062 2.062 0 0 0-1.043-1.343 2.301 2.301 0 0 0-.572-.215 2.873 2.873 0 0 0-.66-.073 2.84 2.84 0 0 0-.653.073 2.181 2.181 0 0 0-1.035.558 1.9 1.9 0 0 0-.347.453 2.388 2.388 0 0 0-.299 1.179 2.439 2.439 0 0 0 .3 1.183 1.995 1.995 0 0 0 .812.792c.18.093.372.164.569.211.214.052.433.078.653.077.222.001.443-.024.66-.077m-1.885 1.712a4.916 4.916 0 0 1-1.083-.39 3.994 3.994 0 0 1-.893-.61 3.736 3.736 0 0 1-1.098-1.785 4.22 4.22 0 0 1 0-2.226 3.777 3.777 0 0 1 1.098-1.781 3.93 3.93 0 0 1 .893-.614 4.93 4.93 0 0 1 1.083-.39 5.543 5.543 0 0 1 2.464 0 4.78 4.78 0 0 1 1.076.39c.323.165.623.371.893.614a3.703 3.703 0 0 1 1.112 1.781c.199.729.199 1.497 0 2.226a3.714 3.714 0 0 1-1.112 1.785c-.27.24-.57.446-.893.61-.34.172-.7.303-1.072.39a5.557 5.557 0 0 1-2.468 0M17.188 2.459h2.187l3.74 5.723L26.87 2.46h2.188v10.73h-2.166V5.833l-3.106 4.744H22.46l-3.106-4.744v7.358h-2.166z"/><path fill="#7D00FF" d="M12.193 4.38a2.185 2.185 0 0 0 2.02-1.352A2.193 2.193 0 0 0 12.62.042a2.185 2.185 0 0 0-2.614 2.148 2.191 2.191 0 0 0 2.188 2.19m-6.707 9.863A5.328 5.328 0 0 1 .56 10.948 5.344 5.344 0 0 1 1.715 5.13a5.33 5.33 0 0 1 9.102 3.775 5.343 5.343 0 0 1-3.291 4.932 5.326 5.326 0 0 1-2.04.406"/></g><defs><clipPath id="a"><path fill="#fff" d="M.154 0h87.692v16H.154z"/></clipPath></defs></svg>