<svg viewBox="0 0 24 24" fill="none" xmlns="http://www.w3.org/2000/svg">
  <path
    d="M23.8856 2.94641C23.9882 2.70909 24.0227 2.44789 23.9854 2.19206C23.948 1.93622 23.8402 1.69582 23.674 1.49776C23.5078 1.29969 23.2898 1.15177 23.0443 1.07055C22.7988 0.989322 22.5356 0.977992 22.2841 1.03782L1.07008 6.10539C0.806991 6.16816 0.567852 6.30613 0.381841 6.50249C0.195829 6.69885 0.0709849 6.9451 0.0225369 7.2112C-0.0259112 7.4773 0.00413276 7.75175 0.109002 8.00106C0.21387 8.25038 0.389032 8.46379 0.613118 8.61526L6.61694 12.6725C6.86792 12.8421 7.1673 12.9252 7.46976 12.9094C7.77222 12.8935 8.06129 12.7796 8.29319 12.5848L13.1725 8.49057C13.4556 8.25302 13.8214 8.13766 14.1896 8.16986C14.5578 8.20207 14.898 8.37922 15.1356 8.66232C15.3732 8.94542 15.4885 9.3113 15.4563 9.67945C15.4241 10.0476 15.247 10.3879 14.9638 10.6254L10.0846 14.7196C9.85245 14.9142 9.69004 15.1791 9.62192 15.4742C9.55381 15.7693 9.5837 16.0786 9.70707 16.3552L12.6612 22.9714C12.7713 23.2185 12.9509 23.4281 13.1781 23.5748C13.4053 23.7215 13.6702 23.7989 13.9407 23.7976C14.2111 23.7964 14.4753 23.7164 14.7011 23.5675C14.9268 23.4186 15.1044 23.2073 15.2121 22.9592L23.8865 2.94748L23.8856 2.94641Z"
    fill="currentColor" />
</svg>