<svg xmlns="http://www.w3.org/2000/svg" width="70" height="66" fill="none"><path fill="url(#a)" d="M61.526 12.872a3.054 3.054 0 0 0 .197-1.577 2.987 2.987 0 0 0-.617-1.45 2.764 2.764 0 0 0-1.25-.893 2.632 2.632 0 0 0-1.508-.069l-42.094 10.59c-.522.131-.997.42-1.366.83-.369.41-.617.925-.713 1.481a3.055 3.055 0 0 0 .172 1.65c.208.522.555.968 1 1.284l11.913 8.479a2.662 2.662 0 0 0 1.692.495 2.689 2.689 0 0 0 1.634-.679l9.682-8.555a2.673 2.673 0 0 1 2.018-.67c.73.067 1.406.437 1.877 1.029.472.591.7 1.356.637 2.125a2.964 2.964 0 0 1-.977 1.977l-9.682 8.556a2.94 2.94 0 0 0-.918 1.576 3.055 3.055 0 0 0 .169 1.841l5.861 13.826c.219.517.575.955 1.026 1.261.45.307.977.469 1.513.466a2.667 2.667 0 0 0 1.51-.48 2.88 2.88 0 0 0 1.013-1.272l17.212-41.819z"/><path stroke="url(#b)" stroke-linecap="round" stroke-width="3" d="m13.5 32.565-7.5 7.5" opacity=".5"/><path stroke="url(#c)" stroke-linecap="round" stroke-width="3" d="M20.5 39.565 7 53.065"/><path stroke="url(#d)" stroke-linecap="round" stroke-width="3" d="m28.5 46.565-6 6" opacity=".3"/><defs><linearGradient id="a" x1="27.925" x2="61.133" y1="49.269" y2="-35.527" gradientUnits="userSpaceOnUse"><stop stop-color="#44BCF0"/><stop offset=".379" stop-color="#7298F8"/><stop offset="1" stop-color="#A099FF"/></linearGradient><linearGradient id="b" x1="10.996" x2="3.706" y1="40.954" y2="28.123" gradientUnits="userSpaceOnUse"><stop stop-color="#44BCF0"/><stop offset=".379" stop-color="#7298F8"/><stop offset="1" stop-color="#A099FF"/></linearGradient><linearGradient id="c" x1="15.992" x2="2.871" y1="54.665" y2="31.57" gradientUnits="userSpaceOnUse"><stop stop-color="#44BCF0"/><stop offset=".379" stop-color="#7298F8"/><stop offset="1" stop-color="#A099FF"/></linearGradient><linearGradient id="d" x1="26.497" x2="20.665" y1="53.276" y2="43.011" gradientUnits="userSpaceOnUse"><stop stop-color="#44BCF0"/><stop offset=".379" stop-color="#7298F8"/><stop offset="1" stop-color="#A099FF"/></linearGradient></defs></svg>