<svg xmlns="http://www.w3.org/2000/svg" fill="none" viewBox="0 0 24 24"><g fill="currentColor" clip-path="url(#a)"><path d="M18.2 8a1.2 1.2 0 1 0 2.4 0V5.8h2.2a1.2 1.2 0 0 0 0-2.4h-2.2V1.2a1.2 1.2 0 0 0-2.4 0v2.2H16a1.2 1.2 0 1 0 0 2.4h2.2z"/><path fill-rule="evenodd" d="M15.2 10.2a5.8 5.8 0 1 1-11.6 0 5.8 5.8 0 0 1 11.6 0m-2.4 0a3.4 3.4 0 1 1-6.8 0 3.4 3.4 0 0 1 6.8 0" clip-rule="evenodd"/><path d="M2.218 23.435C2.968 22.232 4.95 19.4 9.4 19.4s6.432 2.832 7.182 4.035a1.2 1.2 0 1 0 2.036-1.27C17.728 20.739 15.118 17 9.4 17S1.072 20.74.182 22.165a1.2 1.2 0 1 0 2.036 1.27"/></g><defs><clipPath id="a"><path fill="#fff" d="M0 0h24v24H0z"/></clipPath></defs></svg>