<svg viewBox="0 0 24 24" fill="none" xmlns="http://www.w3.org/2000/svg">
  <g clip-path="url(#clip0_205_4556)">
    <path
      d="M18.2002 8C18.2002 8.66274 18.7374 9.2 19.4002 9.2C20.0629 9.2 20.6002 8.66274 20.6002 8V5.8L22.8002 5.8C23.4629 5.8 24.0002 5.26274 24.0002 4.6C24.0002 3.93726 23.4629 3.4 22.8002 3.4L20.6002 3.4V1.2C20.6002 0.537258 20.0629 0 19.4002 0C18.7374 0 18.2002 0.537259 18.2002 1.2V3.4L16.0002 3.4C15.3374 3.4 14.8002 3.93726 14.8002 4.6C14.8002 5.26274 15.3374 5.8 16.0002 5.8L18.2002 5.8V8Z"
      fill="currentColor" />
    <path fill-rule="evenodd" clip-rule="evenodd"
      d="M15.2002 10.2C15.2002 13.4033 12.6034 16 9.40016 16C6.19691 16 3.60016 13.4033 3.60016 10.2C3.60016 6.99675 6.19691 4.4 9.40016 4.4C12.6034 4.4 15.2002 6.99675 15.2002 10.2ZM12.8002 10.2C12.8002 12.0778 11.2779 13.6 9.40016 13.6C7.52239 13.6 6.00016 12.0778 6.00016 10.2C6.00016 8.32223 7.52239 6.8 9.40016 6.8C11.2779 6.8 12.8002 8.32223 12.8002 10.2Z"
      fill="currentColor" />
    <path
      d="M2.21826 23.4352C2.96872 22.2324 4.95038 19.4 9.40016 19.4C13.8499 19.4 15.8316 22.2324 16.5821 23.4352C16.9329 23.9975 17.6731 24.1689 18.2354 23.8181C18.7976 23.4673 18.9691 22.7271 18.6183 22.1648C17.7287 20.7391 15.1184 17 9.40016 17C3.68194 17 1.07161 20.7391 0.182067 22.1648C-0.168746 22.7271 0.0026804 23.4673 0.564959 23.8181C1.12724 24.1689 1.86744 23.9975 2.21826 23.4352Z"
      fill="currentColor" />
  </g>
  <defs>
    <clipPath id="clip0_205_4556">
      <rect width="24" height="24" fill="white" />
    </clipPath>
  </defs>
</svg>