<svg width="28" height="28" viewBox="0 0 28 28" xmlns="http://www.w3.org/2000/svg">
    <linearGradient id="linearGradient1" x1="14.006503" y1="-2e-06" x2="14.006503" y2="28.013007" gradientUnits="userSpaceOnUse">
        <stop offset="1e-05" stop-color="#534bb1" stop-opacity="1"/>
        <stop offset="1" stop-color="#551bf9" stop-opacity="1"/>
    </linearGradient>
    <path id="Rectangle" fill="url(#linearGradient1)" fill-rule="evenodd" stroke="none" d="M -0 28 L 28 28 L 28 0 L -0 0 Z"/>
    <linearGradient id="linearGradient2" x1="14.156703" y1="5.287816" x2="14.156703" y2="23.573103" gradientUnits="userSpaceOnUse">
        <stop offset="1e-05" stop-color="#ffffff" stop-opacity="1"/>
        <stop offset="1" stop-color="#ffffff" stop-opacity="0.82"/>
    </linearGradient>
    <path id="Path-copy" fill="url(#linearGradient2)" stroke="none" d="M 23.783909 14.305751 L 21.337933 14.305751 C 21.337933 9.301153 17.298851 5.245977 12.310345 5.245977 C 7.370115 5.245977 3.347127 9.188507 3.250574 14.128738 C 3.154023 19.18161 7.917241 23.574711 12.986206 23.574711 L 13.629885 23.574711 C 18.103449 23.574711 24.105747 20.082762 25.039082 15.834487 C 25.183908 15.142529 24.733334 14.482759 24.041378 14.337932 C 23.960918 14.305751 23.880459 14.305751 23.783909 14.305751 Z M 8.657472 14.531037 C 8.657472 15.206897 8.110344 15.737934 7.434482 15.737934 C 6.758621 15.737934 6.227586 15.190808 6.227586 14.531037 L 6.227586 12.567817 C 6.227586 11.891958 6.774714 11.36092 7.450575 11.36092 C 8.126437 11.36092 8.657472 11.908047 8.657472 12.567817 L 8.657472 14.531037 Z M 12.873563 14.531037 C 12.873563 15.206897 12.326438 15.737934 11.650574 15.737934 C 10.974712 15.737934 10.443677 15.190808 10.443677 14.531037 L 10.443677 12.567817 C 10.443677 11.891958 10.990805 11.36092 11.666667 11.36092 C 12.342528 11.36092 12.873563 11.908047 12.873563 12.567817 L 12.873563 14.531037 Z"/>
</svg>
