<svg xmlns="http://www.w3.org/2000/svg" fill="none" viewBox="0 0 24 24"><path fill="currentColor" fill-rule="evenodd" d="M12 24c6.627 0 12-5.373 12-12S18.627 0 12 0 0 5.373 0 12s5.373 12 12 12m-.37-7a.75.75 0 0 1-.75-.75v-2.38a.75.75 0 0 0-.75-.75H7.75a.75.75 0 0 1-.75-.75v-.76a.75.75 0 0 1 .75-.75h2.38a.75.75 0 0 0 .75-.75V7.75a.75.75 0 0 1 .75-.75h.76a.75.75 0 0 1 .75.75v2.36c0 .414.336.75.75.75h2.36a.75.75 0 0 1 .75.75v.76a.75.75 0 0 1-.75.75h-2.36a.75.75 0 0 0-.75.75v2.38a.75.75 0 0 1-.75.75z" clip-rule="evenodd"/></svg>