<svg width="21" height="20" viewBox="0 0 21 20" fill="none" xmlns="http://www.w3.org/2000/svg">
<g clip-path="url(#clip0_369_37957)">
<path fill-rule="evenodd" clip-rule="evenodd" d="M10.75 18C15.1683 18 18.75 14.4183 18.75 10C18.75 5.58172 15.1683 2 10.75 2C6.33172 2 2.75 5.58172 2.75 10C2.75 14.4183 6.33172 18 10.75 18ZM10.75 20C16.2728 20 20.75 15.5228 20.75 10C20.75 4.47715 16.2728 0 10.75 0C5.22715 0 0.75 4.47715 0.75 10C0.75 15.5228 5.22715 20 10.75 20ZM9.63167 6.41364C9.40583 6.65166 9.25 7.01789 9.25 7.5C9.25 8.05229 8.80229 8.5 8.25 8.5C7.69772 8.5 7.25 8.05229 7.25 7.5C7.25 6.58299 7.55251 5.69922 8.18083 5.03702C8.81697 4.36658 9.71487 4 10.75 4C11.7851 4 12.683 4.36658 13.3192 5.03702C13.9475 5.69922 14.25 6.58299 14.25 7.5C14.25 8.27602 14.0316 8.89398 13.6825 9.40003C13.3551 9.87471 12.9329 10.2158 12.6265 10.4621C11.9515 11.0047 11.75 11.1944 11.75 11.6667C11.75 12.219 11.3023 12.6667 10.75 12.6667C10.1977 12.6667 9.75 12.219 9.75 11.6667C9.75 10.1954 10.692 9.44578 11.2799 8.97799L11.2801 8.97783L11.2804 8.97764C11.3125 8.95204 11.3436 8.9273 11.3735 8.90332C11.6921 8.64722 11.8949 8.46931 12.0362 8.26443C12.1559 8.09091 12.25 7.86872 12.25 7.5C12.25 7.01789 12.0942 6.65166 11.8683 6.41364C11.6503 6.18386 11.2982 6 10.75 6C10.2018 6 9.84969 6.18386 9.63167 6.41364ZM10.75 16C11.3023 16 11.75 15.5523 11.75 15C11.75 14.4477 11.3023 14 10.75 14C10.1977 14 9.75 14.4477 9.75 15C9.75 15.5523 10.1977 16 10.75 16Z" fill="#333333"/>
</g>
<defs>
<clipPath id="clip0_369_37957">
<rect width="20" height="20" fill="white" transform="translate(0.75)"/>
</clipPath>
</defs>
</svg>
