<svg xmlns="http://www.w3.org/2000/svg" width="10" height="16" fill="none"><path fill="#fff" fill-rule="evenodd" d="M3.658 3.696C3.387 3.982 3.2 4.422 3.2 5A1.2 1.2 0 1 1 .8 5c0-1.1.363-2.16 1.117-2.956C2.68 1.24 3.757.8 5 .8c1.242 0 2.32.44 3.083 1.244C8.837 2.84 9.2 3.9 9.2 5c0 .931-.262 1.673-.681 2.28-.393.57-.9.979-1.267 1.275-.81.65-1.052.878-1.052 1.445a1.2 1.2 0 1 1-2.4 0c0-1.765 1.13-2.665 1.836-3.226l.112-.09c.382-.307.626-.52.795-.767.144-.208.257-.474.257-.917 0-.578-.187-1.018-.458-1.304C6.08 3.421 5.658 3.2 5 3.2s-1.08.22-1.342.496M5 15.2a1.2 1.2 0 1 0 0-2.4 1.2 1.2 0 0 0 0 2.4" clip-rule="evenodd"/></svg>