<svg xmlns="http://www.w3.org/2000/svg" width="24" height="24" fill="none"><path fill="#333" fill-rule="evenodd" d="M0 3.158a1.5 1.5 0 0 1 1.5-1.5h8.888a1.5 1.5 0 1 1 0 3H1.5a1.5 1.5 0 0 1-1.5-1.5M0 12a1.5 1.5 0 0 1 1.5-1.5h11.143a1.5 1.5 0 0 1 0 3H1.5A1.5 1.5 0 0 1 0 12M0 20.842a1.5 1.5 0 0 1 1.5-1.5h21a1.5 1.5 0 0 1 0 3h-21a1.5 1.5 0 0 1-1.5-1.5M13.268 8.013a1.3 1.3 0 0 1-.005-1.84l4.257-4.256a1.3 1.3 0 0 1 1.84.005l4.131 4.132a1.3 1.3 0 0 1 .005 1.84 1.3 1.3 0 0 1-1.84-.005l-1.905-1.905v9.099c.002.718-.579 1.299-1.297 1.297a1.31 1.31 0 0 1-1.304-1.304v-9.1l-2.042 2.042a1.3 1.3 0 0 1-1.84-.005" clip-rule="evenodd"/></svg>