<svg xmlns="http://www.w3.org/2000/svg" width="25" height="24" fill="none"><path fill="#333" fill-rule="evenodd" d="M0 3.158a1.5 1.5 0 0 1 1.5-1.5h11.14a1.5 1.5 0 0 1 0 3H1.5a1.5 1.5 0 0 1-1.5-1.5M0 12a1.5 1.5 0 0 1 1.5-1.5h7.66a1.5 1.5 0 0 1 0 3H1.5A1.5 1.5 0 0 1 0 12M0 20.842a1.5 1.5 0 0 1 1.5-1.5h21a1.5 1.5 0 0 1 0 3h-21a1.5 1.5 0 0 1-1.5-1.5M23.624 9.905a1.3 1.3 0 0 1 .005 1.84L19.373 16a1.3 1.3 0 0 1-1.84-.005l-4.132-4.132a1.3 1.3 0 0 1-.005-1.84 1.3 1.3 0 0 1 1.84.006l1.905 1.905V2.836a1.292 1.292 0 0 1 1.297-1.297 1.31 1.31 0 0 1 1.305 1.304v9.1L21.785 9.9a1.3 1.3 0 0 1 1.84.005" clip-rule="evenodd"/></svg>