<svg xmlns="http://www.w3.org/2000/svg" fill="none" viewBox="0 0 24 24"><g clip-path="url(#a)"><path fill="currentColor" fill-rule="evenodd" d="M21.6 12a9.57 9.57 0 0 1-.76 3.75l-2.552-2.553a6.433 6.433 0 0 0 0-2.394L20.84 8.25A9.57 9.57 0 0 1 21.6 12m-2.016-5.887a9.658 9.658 0 0 0-1.697-1.697l-2.29 2.29a6.437 6.437 0 0 1 1.697 1.697zm-6.387-.401L15.75 3.16A9.57 9.57 0 0 0 12 2.4a9.57 9.57 0 0 0-3.75.76l2.553 2.552a6.435 6.435 0 0 1 2.394 0m4.097 9.885 2.29 2.29a9.659 9.659 0 0 1-1.697 1.697l-2.29-2.29a6.437 6.437 0 0 0 1.697-1.697M12 21.6a9.57 9.57 0 0 0 3.75-.76l-2.553-2.552a6.433 6.433 0 0 1-2.394 0L8.25 20.84A9.57 9.57 0 0 0 12 21.6m-5.887-2.016 2.29-2.29a6.437 6.437 0 0 1-1.697-1.697l-2.29 2.29a9.658 9.658 0 0 0 1.697 1.697M3.16 15.749A9.57 9.57 0 0 1 2.4 12c0-1.33.27-2.597.76-3.75l2.552 2.553a6.435 6.435 0 0 0 0 2.394zm5.243-9.043a6.435 6.435 0 0 0-1.697 1.697l-2.29-2.29a9.657 9.657 0 0 1 1.697-1.697zM24 12c0 6.627-5.373 12-12 12S0 18.627 0 12 5.373 0 12 0s12 5.373 12 12M8 12a4 4 0 1 1 8 0 4 4 0 0 1-8 0" clip-rule="evenodd"/></g><defs><clipPath id="a"><path fill="#fff" d="M0 0h24v24H0z"/></clipPath></defs></svg>