<svg xmlns="http://www.w3.org/2000/svg" fill="none" viewBox="0 0 24 24"><path fill="currentColor" fill-rule="evenodd" d="M8.886.707A2.326 2.326 0 0 1 10 2.71v4.383l2 1.29 2-1.29V2.71c0-.851.441-1.601 1.114-2.004a2.118 2.118 0 0 1 2.386.13 9.202 9.202 0 0 1-1.792 15.797.24.24 0 0 0-.097.075.073.073 0 0 0-.011.019V22.4a1.2 1.2 0 0 1-2.4 0v-5.673c0-1.073.696-1.918 1.54-2.29a6.802 6.802 0 0 0 1.66-11.41v4.067a2.4 2.4 0 0 1-1.1 2.017l-2 1.29a2.4 2.4 0 0 1-2.601 0l-2-1.29a2.4 2.4 0 0 1-1.1-2.017V3.027a6.783 6.783 0 0 0-2.4 5.185 6.8 6.8 0 0 0 3.773 6.09c.79.394 1.428 1.215 1.428 2.239V22.4a1.2 1.2 0 0 1-2.4 0v-5.858a.071.071 0 0 0-.01-.018.234.234 0 0 0-.089-.073A9.2 9.2 0 0 1 2.8 8.212c0-3.02 1.456-5.7 3.7-7.376a2.119 2.119 0 0 1 2.386-.13M8 16.544v-.002zm7.6.186v-.002z" clip-rule="evenodd"/></svg>