<svg xmlns="http://www.w3.org/2000/svg" width="48" height="48" viewBox="0 0 48 48" fill="none">
	<g clip-path="url(#clip0_2797_29718)">
		<path opacity="0.5"
			d="M19.7157 6.14055C22.4157 6.82493 24.5344 8.94368 25.2188 11.6437C25.2844 11.9062 25.6219 11.9062 25.6875 11.6437C26.3719 8.94368 28.4907 6.82493 31.1907 6.14055C31.4532 6.07493 31.4532 5.73743 31.1907 5.6718C28.4907 4.98743 26.3719 2.86868 25.6875 0.168677C25.6219 -0.0938232 25.2844 -0.0938232 25.2188 0.168677C24.5344 2.86868 22.4157 4.98743 19.7157 5.6718C19.4532 5.73743 19.4532 6.07493 19.7157 6.14055Z"
			fill="white" />
		<path opacity="0.7"
			d="M0.628101 17.6532C5.3906 18.8625 9.1406 22.6125 10.35 27.375C10.4625 27.8344 11.0531 27.8344 11.175 27.375C12.3843 22.6125 16.1344 18.8625 20.8969 17.6532C21.3562 17.5407 21.3562 16.95 20.8969 16.8282C16.125 15.6281 12.375 11.8781 11.175 7.11565C11.0625 6.65627 10.4719 6.65627 10.35 7.11565C9.1406 11.8781 5.3906 15.6282 0.628101 16.8375C0.168726 16.95 0.168726 17.5407 0.628101 17.6532Z"
			fill="white" />
		<path opacity="0.9"
			d="M16.875 32.8779C24 34.6873 29.6156 40.2935 31.4156 47.4185C31.5937 48.1029 32.475 48.1029 32.6437 47.4185C34.4531 40.2935 40.0593 34.6779 47.1843 32.8779C47.8687 32.6998 47.8687 31.8185 47.1843 31.6498C40.0593 29.8404 34.4437 24.2342 32.6437 17.1092C32.4656 16.4248 31.5844 16.4248 31.4156 17.1092C29.6062 24.2342 24 29.8498 16.875 31.6498C16.1906 31.8185 16.1906 32.6998 16.875 32.8779Z"
			fill="white" />
	</g>
	<defs>
		<clipPath id="clip0_2797_29718">
			<rect width="48" height="48" fill="white" />
		</clipPath>
	</defs>
</svg>