<svg width="48" height="48" viewBox="0 0 48 48" fill="none" xmlns="http://www.w3.org/2000/svg">
	<g clip-path="url(#clip0_2409_36359)">
		<path opacity="0.5" d="M19.7157 6.14043C22.4157 6.8248 24.5344 8.94355 25.2188 11.6436C25.2844 11.9061 25.6219 11.9061 25.6875 11.6436C26.3719 8.94355 28.4907 6.8248 31.1907 6.14043C31.4532 6.0748 31.4532 5.7373 31.1907 5.67168C28.4907 4.9873 26.3719 2.86855 25.6875 0.168555C25.6219 -0.0939453 25.2844 -0.0939453 25.2188 0.168555C24.5344 2.86855 22.4157 4.9873 19.7157 5.67168C19.4532 5.7373 19.4532 6.0748 19.7157 6.14043Z" fill="#199C75" />
		<path opacity="0.7" d="M0.628101 17.653C5.3906 18.8624 9.1406 22.6124 10.35 27.3749C10.4625 27.8343 11.0531 27.8343 11.175 27.3749C12.3843 22.6124 16.1344 18.8624 20.8969 17.653C21.3562 17.5405 21.3562 16.9499 20.8969 16.828C16.125 15.628 12.375 11.878 11.175 7.11553C11.0625 6.65615 10.4719 6.65615 10.35 7.11553C9.1406 11.878 5.3906 15.628 0.628101 16.8374C0.168726 16.9499 0.168726 17.5405 0.628101 17.653Z" fill="#199C75" />
		<path opacity="0.9" d="M16.875 32.8777C24 34.6871 29.6156 40.2934 31.4156 47.4184C31.5937 48.1027 32.475 48.1027 32.6437 47.4184C34.4531 40.2934 40.0593 34.6777 47.1843 32.8777C47.8687 32.6996 47.8687 31.8184 47.1843 31.6496C40.0593 29.8402 34.4437 24.234 32.6437 17.109C32.4656 16.4246 31.5844 16.4246 31.4156 17.109C29.6062 24.234 24 29.8496 16.875 31.6496C16.1906 31.8184 16.1906 32.6996 16.875 32.8777Z" fill="#199C75" />
	</g>
	<defs>
		<clipPath id="clip0_2409_36359">
			<rect width="48" height="48" fill="white" />
		</clipPath>
	</defs>
</svg>
