<svg viewBox="0 0 96 96" fill="none" xmlns="http://www.w3.org/2000/svg">
<g clip-path="url(#clip0_2808_20819)">
<path fill-rule="evenodd" clip-rule="evenodd" d="M48 0C34.7452 0 24.0001 10.7452 24.0001 24H6.00011C2.68641 24 0.00012207 26.6863 0.00012207 30C0.00012207 33.3137 2.68641 36 6.00011 36H12.0001V78C12.0001 87.9411 20.059 96 30.0001 96H66C75.9411 96 84 87.9411 84 78V36H90C93.3137 36 96 33.3137 96 30C96 26.6863 93.3137 24 90 24H72C72 10.7452 61.2549 0 48 0ZM60 24C60 17.3726 54.6275 12 48 12C41.3726 12 36.0001 17.3726 36.0001 24H60ZM72 36H24.0001V78C24.0001 81.3137 26.6864 84 30.0001 84H66C69.3137 84 72 81.3137 72 78V36ZM38.0001 48C41.3138 48 44.0001 50.6863 44.0001 54V66C44.0001 69.3137 41.3138 72 38.0001 72C34.6864 72 32.0001 69.3137 32.0001 66V54C32.0001 50.6863 34.6864 48 38.0001 48ZM58 48C61.3137 48 64 50.6863 64 54V66C64 69.3137 61.3137 72 58 72C54.6863 72 52 69.3137 52 66V54C52 50.6863 54.6863 48 58 48Z" fill="currentColor"/>
</g>
<defs>
<clipPath id="clip0_2808_20819">
<rect width="96" height="96" fill="white"/>
</clipPath>
</defs>
</svg>
