<svg viewBox="0 0 24 24" fill="none" xmlns="http://www.w3.org/2000/svg">
  <path
    d="M12 6.26077C11.2389 6.26077 10.509 5.95844 9.97088 5.42028C9.43272 4.88212 9.13039 4.15223 9.13039 3.39116C9.13039 2.63009 9.43272 1.90019 9.97088 1.36204C10.509 0.823879 11.2389 0.521545 12 0.521545C12.7611 0.521545 13.491 0.823879 14.0291 1.36204C14.5673 1.90019 14.8696 2.63009 14.8696 3.39116C14.8696 4.15223 14.5673 4.88212 14.0291 5.42028C13.491 5.95844 12.7611 6.26077 12 6.26077ZM12 14.8696C11.2389 14.8696 10.509 14.5673 9.97088 14.0291C9.43272 13.491 9.13039 12.7611 9.13039 12C9.13039 11.2389 9.43272 10.509 9.97088 9.97087C10.509 9.43271 11.2389 9.13038 12 9.13038C12.7611 9.13038 13.491 9.43271 14.0291 9.97087C14.5673 10.509 14.8696 11.2389 14.8696 12C14.8696 12.7611 14.5673 13.491 14.0291 14.0291C13.491 14.5673 12.7611 14.8696 12 14.8696ZM12 23.4784C11.2389 23.4784 10.509 23.1761 9.97088 22.6379C9.43272 22.0998 9.13039 21.3699 9.13039 20.6088C9.13039 19.8478 9.43272 19.1179 9.97088 18.5797C10.509 18.0415 11.2389 17.7392 12 17.7392C12.7611 17.7392 13.491 18.0415 14.0291 18.5797C14.5673 19.1179 14.8696 19.8478 14.8696 20.6088C14.8696 21.3699 14.5673 22.0998 14.0291 22.6379C13.491 23.1761 12.7611 23.4784 12 23.4784Z"
    fill="currentColor" />
</svg>