<svg xmlns="http://www.w3.org/2000/svg" width="22" height="23" fill="none"><path fill="#9B9BA7" fill-rule="evenodd" d="M11 22.5c6.075 0 11-4.925 11-11S17.075.5 11 .5 0 5.425 0 11.5s4.925 11 11 11m.367-8.668v.337H9.739v-.337c0-1.335.821-2.024 1.598-2.625.66-.528 1.262-1.027 1.262-1.878 0-.997-.616-1.657-1.643-1.657-1.041 0-1.76.777-1.76 1.907H7.333C7.333 7.48 8.873 6 11 6c2.185 0 3.505 1.261 3.505 3.212 0 1.57-1.012 2.317-1.862 2.919-.719.513-1.276.953-1.276 1.701m.44 2.112c0 .616-.543 1.159-1.188 1.159-.66 0-1.188-.528-1.188-1.159a1.18 1.18 0 0 1 1.188-1.173 1.19 1.19 0 0 1 1.188 1.173" clip-rule="evenodd"/></svg>