<svg xmlns="http://www.w3.org/2000/svg" width="24" height="24" fill="none"><path stroke="currentColor" stroke-linecap="round" stroke-width="3" d="M1.5 3.158h8.888M1.5 12h11.143M1.5 20.842h21"/><path fill="currentColor" fill-rule="evenodd" d="M13.268 8.013a1.3 1.3 0 0 1-.005-1.84l4.257-4.256a1.3 1.3 0 0 1 1.84.005l4.131 4.132a1.3 1.3 0 0 1 .005 1.84 1.3 1.3 0 0 1-1.84-.005l-1.905-1.905v10.553c.002.719-.579 1.3-1.297 1.297a1.31 1.31 0 0 1-1.304-1.304V5.977l-2.042 2.041a1.3 1.3 0 0 1-1.84-.005" clip-rule="evenodd"/></svg>