<svg viewBox="0 0 96 96" fill="none" xmlns="http://www.w3.org/2000/svg">
<path fill-rule="evenodd" clip-rule="evenodd" d="M43.4012 1.46214C46.1579 -0.487382 49.8442 -0.487381 52.6009 1.46215L59.1344 6.08258C60.4513 7.01384 62.0197 7.52346 63.6324 7.54408L71.634 7.64636C75.0101 7.68952 77.9924 9.85625 79.0767 13.0538L81.6466 20.6321C82.1645 22.1595 83.1339 23.4938 84.4265 24.4584L90.8398 29.2443C93.5457 31.2637 94.6849 34.7695 93.6826 37.9937L91.3073 45.6353C90.8285 47.1754 90.8285 48.8246 91.3073 50.3647L93.6826 58.0063C94.6849 61.2305 93.5457 64.7363 90.8398 66.7557L84.4265 71.5416C83.1339 72.5063 82.1645 73.8405 81.6466 75.3679L79.0767 82.9462C77.9924 86.1438 75.0101 88.3105 71.634 88.3536L63.6324 88.4559C62.0197 88.4765 60.4513 88.9862 59.1344 89.9174L52.6009 94.5379C49.8442 96.4874 46.1579 96.4874 43.4012 94.5379L36.8677 89.9174C35.5509 88.9862 33.9824 88.4765 32.3697 88.4559L24.3682 88.3536C20.992 88.3105 18.0098 86.1438 16.9255 82.9462L14.3556 75.3679C13.8376 73.8405 12.8682 72.5063 11.5756 71.5416L5.16237 66.7557C2.45639 64.7363 1.31727 61.2305 2.31951 58.0063L4.69484 50.3647C5.17359 48.8246 5.17359 47.1754 4.69484 45.6353L2.31951 37.9937C1.31727 34.7695 2.45639 31.2637 5.16237 29.2443L11.5756 24.4584C12.8682 23.4937 13.8376 22.1595 14.3556 20.6321L16.9255 13.0538C18.0098 9.85625 20.992 7.68952 24.3682 7.64636L32.3697 7.54408C33.9824 7.52346 35.5509 7.01383 36.8677 6.08258L43.4012 1.46214ZM48 28C45.7909 28 44 29.7909 44 32C44 34.2091 45.7909 36 48 36C50.2091 36 52 34.2091 52 32C52 29.7909 50.2091 28 48 28ZM32 32C32 23.1634 39.1634 16 48 16C56.8366 16 64 23.1634 64 32C64 40.8366 56.8366 48 48 48C39.1634 48 32 40.8366 32 32ZM34.1379 70.3448C35.08 69.4476 38.7031 66 48 66C57.2969 66 60.92 69.4476 61.8621 70.3448C64.2617 72.6301 68.0595 72.5375 70.3448 70.1379C72.6301 67.7383 72.5375 63.9405 70.1379 61.6552C67.48 59.1238 61.0231 54 48 54C34.9769 54 28.52 59.1238 25.8621 61.6552C23.4625 63.9405 23.3699 67.7383 25.6552 70.1379C27.9405 72.5375 31.7383 72.6301 34.1379 70.3448Z" fill="currentColor"/>
</svg>
