<svg viewBox="0 0 96 96" fill="none" xmlns="http://www.w3.org/2000/svg">
<path fill-rule="evenodd" clip-rule="evenodd" d="M43.4012 1.46214C46.1579 -0.487382 49.8442 -0.487381 52.6009 1.46215L59.1344 6.08258C60.4513 7.01384 62.0197 7.52346 63.6324 7.54408L71.634 7.64636C75.0101 7.68952 77.9924 9.85625 79.0767 13.0538L81.6466 20.6321C82.1645 22.1595 83.1339 23.4938 84.4265 24.4584L90.8398 29.2443C93.5457 31.2637 94.6849 34.7695 93.6826 37.9937L91.3073 45.6353C90.8285 47.1754 90.8285 48.8246 91.3073 50.3647L93.6826 58.0063C94.6849 61.2305 93.5457 64.7363 90.8398 66.7557L84.4265 71.5416C83.1339 72.5063 82.1645 73.8405 81.6466 75.3679L79.0767 82.9462C77.9924 86.1438 75.0101 88.3105 71.634 88.3536L63.6324 88.4559C62.0197 88.4765 60.4513 88.9862 59.1344 89.9174L52.6009 94.5379C49.8442 96.4874 46.1579 96.4874 43.4012 94.5379L36.8677 89.9174C35.5509 88.9862 33.9824 88.4765 32.3697 88.4559L24.3682 88.3536C20.992 88.3105 18.0098 86.1438 16.9255 82.9462L14.3556 75.3679C13.8376 73.8405 12.8682 72.5063 11.5756 71.5416L5.16237 66.7557C2.45639 64.7363 1.31727 61.2305 2.31951 58.0063L4.69484 50.3647C5.17359 48.8246 5.17359 47.1754 4.69484 45.6353L2.31951 37.9937C1.31727 34.7695 2.45639 31.2637 5.16237 29.2443L11.5756 24.4584C12.8682 23.4937 13.8376 22.1595 14.3556 20.6321L16.9255 13.0538C18.0098 9.85625 20.992 7.68952 24.3682 7.64636L32.3697 7.54408C33.9824 7.52346 35.5509 7.01383 36.8677 6.08258L43.4012 1.46214ZM71.2426 32.7574C73.5858 35.1005 73.5858 38.8995 71.2426 41.2426L46.2626 66.2227C45.7947 66.6956 45.2659 67.075 44.7004 67.3598C43.0797 68.1767 41.1658 68.2118 39.5199 67.4652C38.9417 67.2029 38.3965 66.8442 37.9088 66.3889L24.9303 54.4088C22.4954 52.1612 22.3436 48.3652 24.5912 45.9303C26.8388 43.4954 30.6348 43.3436 33.0697 45.5912L41.8337 53.681L62.7574 32.7574C65.1005 30.4142 68.8995 30.4142 71.2426 32.7574Z" fill="currentColor"/>
</svg>
