<svg xmlns="http://www.w3.org/2000/svg" fill="none" viewBox="0 0 24 24"><path fill="url(#a)" fill-rule="evenodd" d="M20 6H2.25a.75.75 0 0 1 0-1.5H16.5a.75.75 0 0 0 0-1.5H2a2 2 0 0 0-2 2v13a4 4 0 0 0 4 4h16a4 4 0 0 0 4-4v-8a4 4 0 0 0-4-4m0 10a2 2 0 1 0 0-4 2 2 0 0 0 0 4" clip-rule="evenodd"/><defs><linearGradient id="a" x1="15.986" x2="-.099" y1="24.252" y2="-11.51" gradientUnits="userSpaceOnUse"><stop stop-color="#44BCF0"/><stop offset=".379" stop-color="#7298F8"/><stop offset="1" stop-color="#A099FF"/></linearGradient></defs></svg>