<svg xmlns="http://www.w3.org/2000/svg" width="20" height="20" fill="none"><g fill="#333" clip-path="url(#a)"><path fill-rule="evenodd" d="M15.833 5.833a5.833 5.833 0 1 1-11.666 0 5.833 5.833 0 0 1 11.666 0m-2 0a3.833 3.833 0 1 1-7.666 0 3.833 3.833 0 0 1 7.666 0" clip-rule="evenodd"/><path d="M2.515 19.53C3.29 18.29 5.36 15.333 10 15.333s6.71 2.957 7.485 4.197a1 1 0 0 0 1.696-1.06c-.891-1.427-3.487-5.137-9.181-5.137-5.694 0-8.29 3.71-9.181 5.137a1 1 0 0 0 1.696 1.06"/></g><defs><clipPath id="a"><path fill="#fff" d="M0 0h20v20H0z"/></clipPath></defs></svg>