<svg xmlns="http://www.w3.org/2000/svg" width="20" height="20" fill="none"><path fill="#333" fill-rule="evenodd" d="M2.667 1.5A2.667 2.667 0 0 0 0 4.167v11.666A2.667 2.667 0 0 0 2.667 18.5h14.666A2.667 2.667 0 0 0 20 15.833V4.167A2.667 2.667 0 0 0 17.333 1.5zM2 4.167c0-.369.298-.667.667-.667h14.666c.369 0 .667.298.667.667v11.666a.667.667 0 0 1-.667.667H2.667A.667.667 0 0 1 2 15.833zM4 6.5a1 1 0 1 0 0-2 1 1 0 0 0 0 2m3 0a1 1 0 1 0 0-2 1 1 0 0 0 0 2m4-1a1 1 0 1 1-2 0 1 1 0 0 1 2 0" clip-rule="evenodd"/></svg>