<svg xmlns="http://www.w3.org/2000/svg" width="20" height="20" fill="none"><path fill="#333" fill-rule="evenodd" d="M4 8.363C4 4.801 6.733 2 10 2s6 2.8 6 6.363c0 2.482-1.519 4.883-3.214 6.766a23.163 23.163 0 0 1-2.824 2.638 16.243 16.243 0 0 1-.451-.36 21.45 21.45 0 0 1-2.294-2.213C5.523 13.292 4 10.85 4 8.364m5.275 9.947c.03-.031.06-.06.092-.085l-.01.008a1.02 1.02 0 0 0-.082.077M10 0C5.535 0 2 3.793 2 8.363c0 3.242 1.938 6.157 3.724 8.162a23.445 23.445 0 0 0 2.512 2.423c.346.285.642.511.862.668.107.076.207.143.29.194.038.023.096.057.16.087.026.012.097.045.19.07a1.018 1.018 0 0 0 .902-.2l.052-.038a26.527 26.527 0 0 0 1.077-.855 25.154 25.154 0 0 0 2.503-2.407C16.058 14.484 18 11.608 18 8.363 18 3.793 14.465 0 10 0M8.667 8a1.333 1.333 0 1 1 2.666 0 1.333 1.333 0 0 1-2.666 0M10 4.667a3.333 3.333 0 1 0 0 6.666 3.333 3.333 0 0 0 0-6.666" clip-rule="evenodd"/></svg>