<svg xmlns="http://www.w3.org/2000/svg" width="21" height="20" fill="none"><g clip-path="url(#a)"><path fill="#333" fill-rule="evenodd" d="m9.902 8.791 6.597-6.624h1.584v1.065l-.537.561c-.297.31-.463.723-.463 1.153V6H16.07a1.485 1.485 0 0 0-1.486 1.485V8.5h-.83c-.454 0-.89.186-1.204.514l-1.166 1.22a1.721 1.721 0 0 0-.37 1.75 4.417 4.417 0 1 1-2.85-2.781 1.721 1.721 0 0 0 1.739-.412M16.36.167c-.443 0-.868.176-1.18.49L8.612 7.25a6.417 6.417 0 1 0 4.34 4.234l.943-.984h1.02c.921 0 1.667-.746 1.667-1.667V8h.834c.92 0 1.666-.746 1.666-1.667V5.08l.538-.562c.297-.31.462-.723.462-1.152V1.833c0-.92-.746-1.666-1.666-1.666zM5.417 13.5a1 1 0 1 0 0-2 1 1 0 0 0 0 2" clip-rule="evenodd"/></g><defs><clipPath id="a"><path fill="#fff" d="M.25 0h20v20h-20z"/></clipPath></defs></svg>