<svg width="20" height="20" viewBox="0 0 20 20" fill="none" xmlns="http://www.w3.org/2000/svg">
<g clip-path="url(#clip0_369_43941)">
<path fill-rule="evenodd" clip-rule="evenodd" d="M15.8333 5.83333C15.8333 9.05499 13.2216 11.6667 9.99997 11.6667C6.77831 11.6667 4.16664 9.05499 4.16664 5.83333C4.16664 2.61167 6.77831 0 9.99997 0C13.2216 0 15.8333 2.61167 15.8333 5.83333ZM13.8333 5.83333C13.8333 7.95043 12.1171 9.66667 9.99997 9.66667C7.88288 9.66667 6.16664 7.95043 6.16664 5.83333C6.16664 3.71624 7.88288 2 9.99997 2C12.1171 2 13.8333 3.71624 13.8333 5.83333Z" fill="currentColor"/>
<path d="M2.51464 19.53C3.28964 18.29 5.36097 15.3333 9.99997 15.3333C14.639 15.3333 16.7103 18.29 17.4853 19.53C17.778 19.9983 18.395 20.1407 18.8633 19.848C19.3316 19.5553 19.474 18.9383 19.1813 18.47C18.2896 17.0433 15.6943 13.3333 9.99997 13.3333C4.30563 13.3333 1.71031 17.0433 0.818639 18.47C0.525929 18.9383 0.668302 19.5553 1.13664 19.848C1.60498 20.1407 2.22193 19.9983 2.51464 19.53Z" fill="currentColor"/>
</g>
<defs>
<clipPath id="clip0_369_43941">
<rect width="20" height="20" fill="white"/>
</clipPath>
</defs>
</svg>
