<svg xmlns="http://www.w3.org/2000/svg" width="20" height="20" fill="none"><path fill="#333" fill-rule="evenodd" d="M12.333 1a1 1 0 0 0-2 0v.333h-.666V1a1 1 0 0 0-2 0v.667c0 .92.746 1.666 1.666 1.666h1.334c.92 0 1.666-.746 1.666-1.666zm5 2.667A2.667 2.667 0 0 0 14.667 1h-.5a1 1 0 1 0 0 2h.5c.368 0 .666.298.666.667v13.666a.667.667 0 0 1-.666.667H5.333a.667.667 0 0 1-.666-.667V3.667c0-.369.298-.667.666-.667h.5a1 1 0 1 0 0-2h-.5a2.667 2.667 0 0 0-2.666 2.667v13.666A2.667 2.667 0 0 0 5.333 20h9.334a2.667 2.667 0 0 0 2.666-2.667zM10 9a1 1 0 1 0 0-2 1 1 0 0 0 0 2m0 2a3 3 0 1 0 0-6 3 3 0 0 0 0 6m-2.453 4.307c.309-.573.988-1.64 2.453-1.64 1.465 0 2.144 1.067 2.453 1.64a1 1 0 1 0 1.76-.948c-.357-.665-1.545-2.692-4.213-2.692s-3.856 2.027-4.214 2.692a1 1 0 0 0 1.761.948" clip-rule="evenodd"/></svg>